<?xml version="1.0" standalone="no"?>
<!DOCTYPE svg PUBLIC "-//W3C//DTD SVG 20010904//EN"
 "http://www.w3.org/TR/2001/REC-SVG-20010904/DTD/svg10.dtd">
<svg version="1.0" xmlns="http://www.w3.org/2000/svg"
 width="700.000000pt" height="700.000000pt" viewBox="0 0 700.000000 700.000000"
 preserveAspectRatio="xMidYMid meet">
<metadata>
Created by potrace 1.14, written by Peter Selinger 2001-2017
</metadata>
<g transform="translate(0.000000,700.000000) scale(0.100000,-0.100000)"
fill="#000000" stroke="none">
<path d="M0 3500 l0 -3500 3500 0 3500 0 0 3500 0 3500 -3500 0 -3500 0 0
-3500z m2866 35 c310 -814 567 -1488 570 -1497 5 -17 -10 -18 -233 -18 l-238
0 -131 373 -132 372 -645 3 -644 2 -112 -313 c-61 -173 -121 -342 -132 -376
l-21 -61 -239 0 c-131 0 -239 4 -239 9 0 6 1016 2673 1131 2969 l9 22 246 -2
246 -3 564 -1480z m2849 4 c309 -812 566 -1485 570 -1498 l6 -21 -238 2 -238
3 -131 370 -131 370 -645 3 -645 2 -133 -375 -133 -375 -240 0 c-223 0 -239 1
-235 18 3 9 255 672 561 1472 306 800 560 1467 566 1483 l11 27 246 -2 247 -3
562 -1476z"/>
<path d="M2048 4499 c-37 -97 -482 -1309 -486 -1321 -4 -17 24 -18 493 -18
469 0 497 1 492 18 -3 12 -404 1097 -486 1316 -6 15 -9 16 -13 5z"/>
<path d="M4657 3842 c-136 -367 -247 -671 -247 -675 0 -4 223 -7 496 -7 468 0
496 1 492 18 -6 21 -489 1326 -492 1330 -2 1 -114 -298 -249 -666z"/>
</g>
</svg>
