<svg id="Layer_1" data-name="Layer 1" xmlns="http://www.w3.org/2000/svg" width="1920" height="1080" viewBox="0 0 1920 1080"><defs><style>.cls-1{fill:#550013;}.cls-2{fill:#c69c6d;}.cls-3{fill:#fbc93b;}.cls-4{fill:#a67c52;}.cls-5{fill:#ccc;}.cls-6{fill:#1b1433;}.cls-7{fill:#2e3192;}.cls-8{fill:#1b1464;}.cls-9{fill:#0071bc;}</style></defs><rect class="cls-1" x="-8.5" y="-9.5" width="1928" height="1089"/><path d="M1919-9V1079H-8V-9H1919m1-1H-9V1080H1920V-10Z"/><rect class="cls-2" x="863.47" y="196.75" width="225.74" height="243.5"/><ellipse class="cls-3" cx="975.2" cy="298.98" rx="89.52" ry="85.5"/><ellipse class="cls-2" cx="976.34" cy="298.98" rx="24.33" ry="23.24"/><rect class="cls-4" x="895.58" y="395.64" width="161.52" height="31.6"/><rect class="cls-2" x="595.08" y="193.75" width="221.12" height="244.83"/><ellipse class="cls-3" cx="706.75" cy="296.54" rx="87.69" ry="85.97"/><ellipse class="cls-2" cx="705.64" cy="296.54" rx="23.83" ry="23.36"/><rect class="cls-4" x="626.53" y="393.73" width="158.22" height="31.77"/><rect class="cls-2" x="1411.22" y="467.75" width="218.99" height="223"/><ellipse class="cls-5" cx="1521.81" cy="561.38" rx="86.84" ry="78.31"/><ellipse class="cls-2" cx="1520.71" cy="561.38" rx="23.6" ry="21.28"/><rect class="cls-4" x="1442.37" y="649.9" width="156.69" height="28.94"/><rect class="cls-2" x="315.2" y="470" width="229" height="249.75"/><ellipse class="cls-5" cx="430.86" cy="574.86" rx="90.81" ry="87.7"/><ellipse class="cls-2" cx="429.7" cy="574.86" rx="24.68" ry="23.83"/><rect class="cls-4" x="347.78" y="673.99" width="163.85" height="32.41"/><rect class="cls-2" x="33.2" y="189.75" width="234" height="253"/><ellipse class="cls-3" cx="150.2" cy="295.97" rx="92.79" ry="88.84"/><ellipse class="cls-2" cx="150.2" cy="295.97" rx="24.14" ry="25.22" transform="translate(-170.87 380.06) rotate(-77.77)"/><rect class="cls-4" x="66.49" y="396.4" width="167.43" height="32.83"/><rect class="cls-2" x="314.2" y="191.75" width="234" height="248"/><ellipse class="cls-3" cx="432.38" cy="295.87" rx="92.79" ry="87.08"/><ellipse class="cls-2" cx="431.2" cy="295.87" rx="25.22" ry="23.66"/><rect class="cls-4" x="347.49" y="394.32" width="167.43" height="32.18"/><rect class="cls-2" x="1411.48" y="195.75" width="218.73" height="244.77"/><ellipse class="cls-3" cx="1520.84" cy="298.52" rx="86.74" ry="85.95"/><ellipse class="cls-2" cx="1520.84" cy="298.52" rx="23.69" ry="23.24" transform="translate(120.62 962.94) rotate(-36.49)"/><rect class="cls-4" x="1442.59" y="395.68" width="156.5" height="31.76"/><rect class="cls-2" x="1153.48" y="195.75" width="213.73" height="244.77"/><ellipse class="cls-3" cx="1259.27" cy="298.52" rx="84.75" ry="85.95"/><ellipse class="cls-2" cx="1260.34" cy="298.52" rx="23.03" ry="23.36"/><rect class="cls-4" x="1183.88" y="395.68" width="152.92" height="31.76"/><rect class="cls-2" x="33.2" y="469.75" width="234" height="246.15"/><ellipse class="cls-5" cx="151.38" cy="573.1" rx="92.79" ry="86.44"/><ellipse class="cls-2" cx="150.2" cy="573.1" rx="25.22" ry="23.49"/><rect class="cls-4" x="66.49" y="670.81" width="167.43" height="31.94"/><rect class="cls-2" x="1671.2" y="467.75" width="210.04" height="223.15"/><ellipse class="cls-5" cx="1777.28" cy="561.44" rx="83.29" ry="78.36"/><ellipse class="cls-2" cx="1776.22" cy="561.44" rx="22.63" ry="21.29"/><rect class="cls-4" x="1701.08" y="650.02" width="150.28" height="28.96"/><rect class="cls-2" x="1670.3" y="195.75" width="209.9" height="244.71"/><ellipse class="cls-3" cx="1776.31" cy="298.49" rx="83.24" ry="85.93"/><ellipse class="cls-2" cx="1775.25" cy="298.49" rx="22.62" ry="23.35"/><rect class="cls-4" x="1700.16" y="395.63" width="150.19" height="31.76"/><rect class="cls-6" x="571" y="815" width="818" height="259"/><path class="cls-7" d="M998.94,573.26c-.13-24.39-.27-44-.36-55.08-9.51-2.59-27-7.18-48.9-11.76-155.86-32.58-280.75-11.4-330.53-.94-21.54,4.52-39.36,9.22-51.75,12.7a641.22,641.22,0,0,0-17.49,87.08c-14.52,111.64,2.52,206.31,17.49,264.07H998.58c.19-34.94.3-63,.36-80.49C999.35,668.86,999.08,601.46,998.94,573.26Z"/><path class="cls-7" d="M1448.65,605.26a641.22,641.22,0,0,0-17.49-87.08c-12.39-3.48-30.21-8.18-51.75-12.7-49.78-10.46-174.67-31.64-330.53.94-21.94,4.58-39.39,9.17-48.9,11.76-.09,11.11-.23,30.69-.36,55.08-.14,28.2-.41,95.6,0,215.58.06,17.53.17,45.55.36,80.49h431.18C1446.13,811.57,1463.17,716.9,1448.65,605.26Z"/><rect class="cls-8" x="460.18" y="719.59" width="132.65" height="355.41"/><rect class="cls-8" x="1366.31" y="724.58" width="132.65" height="350.42"/><ellipse class="cls-9" cx="526.93" cy="679.66" rx="102.93" ry="87.85"/><ellipse class="cls-9" cx="1433.07" cy="684.65" rx="102.93" ry="87.85"/></svg>