<?xml version="1.0" encoding="utf-8"?>
<!-- Generator: Adobe Illustrator 26.0.1, SVG Export Plug-In . SVG Version: 6.00 Build 0)  -->
<svg version="1.1" id="Layer_1" xmlns="http://www.w3.org/2000/svg" xmlns:xlink="http://www.w3.org/1999/xlink" x="0px" y="0px"
	 viewBox="0 0 130 610" style="enable-background:new 0 0 130 610;" xml:space="preserve">
<style type="text/css">
	.st0{fill:#FFFFFF;}
	.st1{fill:#F7931E;}
	.st2{fill:#FFFFFF;stroke:#999999;stroke-width:2;stroke-miterlimit:10;}
	.st3{fill:none;stroke:#000000;stroke-width:2;stroke-miterlimit:10;}
	.st4{fill:#FFFFFF;stroke:#999999;stroke-miterlimit:10;}
</style>
<rect x="31.2" y="-1" class="st0" width="64.4" height="611.9"/>
<rect x="31.2" y="476.7" class="st1" width="64.4" height="134.3"/>
<path class="st2" d="M1.3,122c1.8-10.2,21.2-15.7,32-14s28.8,13,27.1,23.3s-22.8,15.5-33.5,13.8S-0.5,132.2,1.3,122z"/>
<ellipse cx="31.2" cy="126.2" rx="8.4" ry="12.3"/>
<path class="st2" d="M69.6,131c-1.7-10.3,15-21.3,25.8-22.8s31.7,3.8,33.4,14.1c1.7,10.3-16.6,21.5-27.3,23.1S71.2,141.3,69.6,131z"
	/>
<ellipse transform="matrix(0.985 -0.1723 0.1723 0.985 -20.2555 19.0201)" cx="99.5" cy="126.2" rx="8.4" ry="12.3"/>
<line class="st3" x1="53.5" y1="105.4" x2="11.9" y2="87.5"/>
<line class="st3" x1="78.7" y1="105.1" x2="120.3" y2="87.1"/>
<path class="st4" d="M52.9,163c-6,1.6-13.5,3.7-15.7,2c-2.9-2.1,1.5-11.1,10.8-15.8s23.5-5.1,32.8-0.1c8.6,4.7,12.5,13.7,9.1,16.1
	c-2.8,2-10.8-0.1-13.9-1c-6.9-1.8-8.1-3.9-12.9-3.9C59.8,160.3,59.1,161.3,52.9,163z"/>
<path d="M90.5,161.5c-6.8-3.5-13.6-6.9-21.2-8.2c-7.2-1.2-14.7-0.3-21.4,2.6c-3.6,1.6-7.2,3.3-10.6,5.3c-0.4,0.2,0,0.9,0.4,0.6
	c7.9-4.4,16.1-8.5,25.4-8.4c9.8,0.1,18.6,4.3,27.2,8.7C90.6,162.4,90.9,161.7,90.5,161.5z"/>
<path d="M84.2,165.1c1.2-3.2,2.5-6.2,4.1-9.2c0.2-0.4-0.4-0.8-0.7-0.4c-1.6,3-3,6.2-4.2,9.4C83.3,165.4,84,165.6,84.2,165.1z"/>
<path d="M77.3,163.6c1.5-4.3,3.7-8.4,6.6-11.9c0.3-0.4-0.2-0.9-0.5-0.5c-3,3.6-5.3,7.7-6.8,12.2C76.4,163.9,77.2,164,77.3,163.6z"/>
<path d="M70.8,161.7c0.5-2.6,1.4-5.2,2.5-7.7c1-2.3,2.4-4.4,4.2-6.1c0.4-0.3-0.2-0.8-0.5-0.5c-1.9,1.8-3.3,3.9-4.3,6.3
	c-1.2,2.5-2,5.1-2.6,7.8C70,161.9,70.7,162.1,70.8,161.7L70.8,161.7z"/>
<path d="M65.5,159.9l2.5-14.6c0.1-0.5-0.6-0.7-0.7-0.2l-2.6,14.6C64.6,160.1,65.4,160.3,65.5,159.9L65.5,159.9z"/>
<path d="M59.7,159.8c-0.5-4.5,0.8-9.3-1.4-13.5c-0.2-0.4-0.9-0.1-0.7,0.4c2.1,4.1,0.9,8.7,1.3,13.1C59,160.3,59.8,160.3,59.7,159.8
	L59.7,159.8z"/>
<path d="M55.4,161.6c0-5-2.9-9.4-6.7-12.4c-0.4-0.3-0.9,0.2-0.5,0.5c3.6,2.9,6.4,7.1,6.4,11.9c0,0.2,0.2,0.3,0.4,0.3
	C55.3,161.9,55.4,161.8,55.4,161.6z"/>
<path d="M48.1,163.8c-0.1-2-1-3.8-2.5-5.1c-0.8-0.7-1.5-1.4-2.3-2.1c-0.7-0.7-1.5-1.2-2.4-1.7c-0.4-0.2-0.8,0.4-0.4,0.6
	c1.6,1,3,2.1,4.3,3.5c1.5,1.1,2.4,2.9,2.5,4.7c0,0.2,0.2,0.3,0.4,0.3C47.9,164.1,48.1,164,48.1,163.8L48.1,163.8z"/>
</svg>
