<?xml version="1.0" encoding="utf-8"?>
<!-- Generator: Adobe Illustrator 26.0.1, SVG Export Plug-In . SVG Version: 6.00 Build 0)  -->
<svg version="1.1" id="Layer_1" xmlns="http://www.w3.org/2000/svg" xmlns:xlink="http://www.w3.org/1999/xlink" x="0px" y="0px"
	 viewBox="0 0 129.7 613.9" style="enable-background:new 0 0 129.7 613.9;" xml:space="preserve">
<style type="text/css">
	.st0{fill:#FFFFFF;}
	.st1{fill:#F7931E;}
	.st2{fill:#FFFFFF;stroke:#999999;stroke-width:2;stroke-miterlimit:10;}
	.st3{fill:none;stroke:#000000;stroke-width:2;stroke-miterlimit:10;}
	.st4{fill:#FFFFFF;stroke:#999999;stroke-miterlimit:10;}
</style>
<rect x="31" y="1" class="st0" width="64.4" height="611.9"/>
<rect x="31" y="478.6" class="st1" width="64.4" height="134.3"/>
<path class="st2" d="M1.1,124c1.8-10.2,21.2-15.7,32-14s28.9,13,27.1,23.2S37.4,148.7,26.7,147S-0.6,134.2,1.1,124z"/>
<ellipse cx="31" cy="128.2" rx="8.4" ry="12.3"/>
<path class="st2" d="M69.4,133c-1.7-10.3,15-21.3,25.8-22.8s31.7,3.8,33.4,14.1c1.7,10.3-16.6,21.5-27.3,23.1S71.1,143.2,69.4,133z"
	/>
<ellipse transform="matrix(0.985 -0.1723 0.1723 0.985 -20.5965 19.024)" cx="99.3" cy="128.2" rx="8.4" ry="12.3"/>
<line class="st3" x1="53.3" y1="107.4" x2="11.7" y2="89.4"/>
<line class="st3" x1="78.6" y1="107" x2="120.2" y2="89"/>
<path class="st4" d="M52.8,165c-6,1.6-13.5,3.7-15.7,2c-2.9-2.1,1.5-11.1,10.8-15.8s23.5-5.1,32.8-0.1c8.6,4.7,12.5,13.7,9.1,16.1
	c-2.8,2-10.8-0.1-13.9-1c-6.9-1.8-8.1-3.9-12.9-3.9C59.6,162.3,58.9,163.3,52.8,165z"/>
<path d="M90.4,163.5c-6.8-3.5-13.6-6.9-21.2-8.2c-7.2-1.2-14.7-0.3-21.4,2.6c-3.6,1.6-7.2,3.3-10.6,5.3c-0.4,0.2,0,0.9,0.4,0.6
	c7.9-4.4,16.1-8.5,25.4-8.4c9.8,0.1,18.6,4.3,27.2,8.7C90.4,164.3,90.8,163.7,90.4,163.5z"/>
<path d="M84,167.1c1.2-3.2,2.5-6.2,4.1-9.2c0.2-0.4-0.4-0.8-0.7-0.4c-1.6,3-3,6.2-4.2,9.4C83.1,167.4,83.9,167.6,84,167.1z"/>
<path d="M77.2,165.6c1.5-4.3,3.7-8.4,6.6-11.9c0.3-0.4-0.2-0.9-0.5-0.5c-3,3.6-5.3,7.7-6.8,12.2C76.3,165.8,77,166,77.2,165.6z"/>
<path d="M70.6,163.6c0.5-2.6,1.4-5.2,2.5-7.6c1-2.3,2.4-4.4,4.2-6.1c0.4-0.3-0.2-0.8-0.5-0.5c-1.9,1.8-3.3,3.9-4.3,6.3
	c-1.2,2.5-2,5.1-2.6,7.8C69.8,163.9,70.5,164.1,70.6,163.6L70.6,163.6z"/>
<path d="M65.3,161.8l2.5-14.6c0.1-0.5-0.6-0.7-0.7-0.2l-2.6,14.6C64.5,162.1,65.2,162.3,65.3,161.8L65.3,161.8z"/>
<path d="M59.6,161.7c-0.5-4.5,0.8-9.3-1.4-13.5c-0.2-0.4-0.9,0-0.7,0.4c2.1,4.1,0.9,8.7,1.3,13.1C58.8,162.2,59.6,162.2,59.6,161.7
	L59.6,161.7z"/>
<path d="M55.3,163.6c0-5-2.9-9.4-6.7-12.4c-0.4-0.3-0.9,0.2-0.5,0.5c3.6,2.9,6.4,7.1,6.4,11.9c0,0.2,0.2,0.3,0.4,0.3
	C55.1,163.9,55.3,163.7,55.3,163.6z"/>
<path d="M48,165.8c-0.1-2-1-3.8-2.5-5.1c-0.8-0.7-1.5-1.4-2.3-2.1c-0.7-0.6-1.6-1.2-2.4-1.6c-0.4-0.2-0.8,0.4-0.4,0.6
	c1.6,1,3,2.1,4.3,3.5c1.5,1.1,2.4,2.9,2.5,4.7c0,0.2,0.2,0.3,0.4,0.3C47.8,166.1,47.9,166,48,165.8L48,165.8z"/>
</svg>
