<?xml version="1.0" encoding="utf-8"?>
<!-- Generator: Adobe Illustrator 26.0.1, SVG Export Plug-In . SVG Version: 6.00 Build 0)  -->
<svg version="1.1" id="Layer_1" xmlns="http://www.w3.org/2000/svg" xmlns:xlink="http://www.w3.org/1999/xlink" x="0px" y="0px"
	 viewBox="0 0 1915 1080" style="enable-background:new 0 0 1915 1080;" xml:space="preserve">
<style type="text/css">
	.st0{fill:#E6E6E6;}
	.st1{fill:#7DA23F;}
	.st2{fill:#CCCCCC;}
	.st3{fill:#FFFFFF;stroke:#999999;stroke-width:2;stroke-miterlimit:10;}
	.st4{fill:#C1272D;}
	.st5{fill:#FFFFFF;stroke:#999999;stroke-miterlimit:10;}
	.st6{fill:#999999;}
	.st7{fill:#F7931E;}
	.st8{fill:none;stroke:#000000;stroke-width:2;stroke-miterlimit:10;}
	.st9{fill:#BFDAFF;}
	.st10{fill:#0A11FF;}
	.st11{fill:#8C6239;}
	.st12{fill:#754C24;}
	.st13{stroke:#000000;stroke-width:0.5;stroke-miterlimit:10;}
	.st14{fill:#603813;}
	.st15{fill:#ED1C24;}
	.st16{fill:#FFFFFF;}
	.st17{fill:#8C6239;stroke:#603813;stroke-miterlimit:10;}
	.st18{opacity:0.2;fill:#FF5589;stroke:#000000;stroke-width:0.5;stroke-miterlimit:10;enable-background:new    ;}
	.st19{opacity:0.2;fill:#FF90CD;enable-background:new    ;}
	.st20{fill:#42210B;}
	.st21{stroke:#000000;stroke-width:0.25;stroke-miterlimit:10;}
	.st22{fill:#BFE1FF;}
</style>
<path class="st0" d="M138.4,341l45.6-0.5l45.6-0.5l-22.4,35l-22.3,35.4l-23.2-34.9L138.4,341z"/>
<path class="st1" d="M218.5,1011h-40.6c-2.8-26-6.9-67.2-9.9-118.2c-4-68.2-2.1-83.4-6.9-140c-2.1-25.1-2.2-18.1-14.9-123.9
	c-9.1-76.2-9.7-85.1-13.9-113.5c-7.4-50.7-15.4-91.2-20.8-116.3h144.6c-4,31.5-8.8,71.6-13.9,118.2c-4.3,39.4-7.5,69.4-10.9,109.7
	c-4.1,49.6-6.1,87-7.9,122c-2.5,47.9-7.8,191.7-6,143.8l0,0C217.4,892.8,217.8,933.7,218.5,1011z"/>
<path class="st2" d="M218.5,1011h-40.6c-3.6-44.8-7.3-89.5-10.9-134.3l51.5,0.9V1011z"/>
<path class="st3" d="M109.2,516.8c-1.8-10.2,14.8-21.7,25.5-23.5s31.7,3,33.5,13.2s-16.3,21.9-27,23.8S111,527,109.2,516.8z"/>
<path class="st3" d="M200.6,505.5c2.1-10.2,21.8-14.6,32.4-12.4s28.3,14.6,26.2,24.8c-2.1,10.2-23.3,14.3-34,12
	S198.4,515.6,200.6,505.5z"/>
<path class="st4" d="M138.1,525.8c0,0,10.8-6.8,13.7-11.6l0.6-1.1c0.5-1,0.8-2.1,0.8-3.3c-0.1-4.4-3.8-7.9-8.2-7.8
	c-2.7,0-5.3,1.3-6.9,3.6c-1.6-2.3-4.1-3.6-6.9-3.6c-4.4-0.1-8.1,3.4-8.2,7.8c0,1.1,0.3,2.3,0.8,3.3l0.6,1.1
	C127.3,519.1,138,525.8,138.1,525.8L138.1,525.8z"/>
<path class="st4" d="M230.1,524c0,0,10.8-6.8,13.7-11.6l0.6-1.1c0.5-1,0.8-2.1,0.8-3.3c-0.1-4.4-3.8-7.9-8.2-7.8
	c-2.7,0-5.3,1.3-6.9,3.6c-1.6-2.3-4.1-3.6-6.9-3.6c-4.4-0.1-8.1,3.4-8.2,7.8c0,1.1,0.3,2.3,0.8,3.3l0.6,1.1
	C219.4,517.2,230.1,524,230.1,524L230.1,524z"/>
<path class="st5" d="M197.2,538.9c7-2.5,15.6-5.6,18.2-3.1c3.4,3.2-1.7,17.1-12.4,24.4s-27.2,7.9-37.9,0.2
	c-10-7.2-14.4-21.1-10.5-24.8c3.2-3,12.4,0.2,16,1.5c8,2.8,9.4,6,14.9,6C189.3,543,190.1,541.4,197.2,538.9z"/>
<path d="M153.8,541c7.6,5.2,15.4,10.5,24.6,12.6c4.2,1,8.6,1.2,12.9,0.4c4.1-0.8,8.1-2.3,11.7-4.4c4.3-2.4,8.4-5.2,12.3-8.2
	c0.4-0.3,0-0.9-0.4-0.7c-6.7,4.9-13.6,10-21.8,12c-9,2.3-18-0.1-26-4.4c-4.5-2.5-8.8-5.2-12.9-8.1
	C153.8,540.1,153.4,540.7,153.8,541L153.8,541z"/>
<path d="M161.2,535.6c-1.3,4.9-2.9,9.7-4.8,14.3c-0.2,0.5,0.6,0.6,0.7,0.2c1.9-4.7,3.5-9.5,4.8-14.3c0.1-0.2-0.1-0.4-0.3-0.5
	S161.2,535.4,161.2,535.6L161.2,535.6z"/>
<path d="M169.1,538c-1.6,6.5-4.2,12.7-7.7,18.5c-0.1,0.2,0,0.4,0.2,0.5s0.3,0,0.4-0.1c3.5-5.8,6.2-12.1,7.8-18.7
	c0.1-0.2-0.1-0.4-0.3-0.5S169.1,537.8,169.1,538L169.1,538L169.1,538z"/>
<path d="M176.6,541c-0.5,3.8-1.4,7.5-2.6,11.1c-1.2,3.6-2.6,7.3-5.1,10.2c-0.3,0.4,0.2,0.9,0.5,0.5c2.4-2.8,3.8-6.3,5-9.7
	c1.4-3.9,2.3-7.9,2.9-11.9C177.5,540.7,176.7,540.5,176.6,541L176.6,541z"/>
<path d="M182.7,543.8l-2.9,22.5c-0.1,0.5,0.7,0.5,0.8,0l2.9-22.5C183.5,543.3,182.8,543.3,182.7,543.8z"/>
<path d="M189.4,543.8c0.5,6.8-1,14,1.6,20.6c0.2,0.4,0.9,0.2,0.7-0.2c-2.6-6.5-1-13.6-1.6-20.4C190.2,543.3,189.4,543.3,189.4,543.8
	L189.4,543.8z"/>
<path d="M194.4,541c0.1,7.1,2.8,13.9,7.6,19c0.3,0.3,0.9-0.2,0.5-0.5c-4.7-5-7.4-11.6-7.4-18.5c0-0.2-0.2-0.3-0.4-0.3
	C194.5,540.7,194.4,540.8,194.4,541z"/>
<path d="M202.8,537.6c0,2.7,0.9,5.2,2.6,7.3c0.9,1.2,1.9,2.3,2.8,3.4c0.8,1.1,1.8,2,2.9,2.8c0.4,0.3,0.8-0.4,0.4-0.6
	c-1-0.7-1.9-1.6-2.7-2.6c-0.9-1-1.8-2.1-2.6-3.1c-1.7-2-2.6-4.5-2.7-7.1c0-0.2-0.2-0.3-0.4-0.3C203,537.3,202.9,537.4,202.8,537.6
	L202.8,537.6z"/>
<path class="st6" d="M306.5,550.8l0.5-0.3c0.1,0,0.1-0.1,0.2-0.2c0,0,0-0.1,0-0.2V550c0-0.1-0.1-0.1-0.2-0.2c-0.1,0-0.2,0-0.3,0
	l-0.5,0.3c-0.1,0.1-0.1,0.1-0.2,0.2c0,0,0,0.1,0,0.2v0.1C306.1,550.8,306.3,550.8,306.5,550.8C306.5,550.7,306.5,550.7,306.5,550.8
	L306.5,550.8z"/>
<rect x="439" y="398.6" class="st3" width="64.4" height="611.9"/>
<rect x="439" y="876.2" class="st7" width="64.4" height="134.3"/>
<path class="st3" d="M409.1,521.6c1.8-10.2,21.2-15.7,32-14s28.9,13.1,27.1,23.3s-22.8,15.5-33.5,13.8S407.3,531.8,409.1,521.6z"/>
<ellipse cx="439" cy="525.8" rx="8.4" ry="12.3"/>
<path class="st3" d="M477.4,530.6c-1.7-10.3,15-21.2,25.8-22.8c10.8-1.6,31.7,3.8,33.4,14.1s-16.5,21.5-27.3,23.1
	S479,540.9,477.4,530.6z"/>
<ellipse transform="matrix(0.985 -0.1723 0.1723 0.985 -83.0078 95.2567)" cx="507.2" cy="525.8" rx="8.4" ry="12.3"/>
<line class="st8" x1="461.2" y1="505" x2="419.6" y2="487.1"/>
<line class="st8" x1="486.5" y1="504.6" x2="528.1" y2="486.7"/>
<path class="st5" d="M460.7,562.6c-6,1.6-13.5,3.7-15.7,2c-2.9-2.1,1.5-11.1,10.8-15.8s23.5-5.1,32.8-0.1
	c8.6,4.7,12.5,13.7,9.1,16.1c-2.8,2-10.8-0.2-13.9-1c-6.9-1.8-8.1-3.9-12.9-3.9C467.6,559.9,466.9,560.9,460.7,562.6z"/>
<path d="M498.3,561.1c-6.8-3.5-13.6-6.9-21.2-8.2c-7.3-1.2-14.7-0.3-21.5,2.6c-3.6,1.6-7.2,3.3-10.6,5.3c-0.2,0.1-0.2,0.4-0.1,0.5
	s0.3,0.2,0.4,0.1c7.9-4.3,16.1-8.5,25.4-8.4c9.8,0.1,18.6,4.3,27.1,8.7C498.3,562,498.7,561.3,498.3,561.1L498.3,561.1z"/>
<path d="M492,564.7c1.1-3.2,2.5-6.2,4.1-9.2c0.2-0.4-0.4-0.8-0.6-0.4c-1.6,3-3,6.2-4.2,9.4C491.1,565,491.8,565.2,492,564.7z"/>
<path d="M485.1,563.2c1.5-4.3,3.7-8.4,6.6-11.9c0.3-0.4-0.2-0.9-0.5-0.5c-3,3.6-5.3,7.8-6.8,12.2
	C484.2,563.4,484.9,563.6,485.1,563.2z"/>
<path d="M478.5,561.2c0.5-2.6,1.4-5.2,2.5-7.6c0.9-2.3,2.4-4.4,4.2-6.1c0.4-0.3-0.2-0.8-0.5-0.5c-1.9,1.8-3.3,3.9-4.3,6.3
	c-1.2,2.5-2,5.1-2.6,7.8C477.7,561.5,478.5,561.7,478.5,561.2L478.5,561.2z"/>
<path d="M473.3,559.5l2.5-14.6c0.1-0.5-0.6-0.7-0.7-0.2l-2.5,14.6C472.5,559.7,473.2,559.9,473.3,559.5z"/>
<path d="M467.5,559.4c-0.5-4.5,0.8-9.3-1.4-13.5c-0.2-0.4-0.9,0-0.6,0.4c2.1,4.1,0.9,8.7,1.3,13.1
	C466.8,559.8,467.5,559.8,467.5,559.4z"/>
<path d="M463.2,561.2c0-5-2.9-9.4-6.6-12.4c-0.4-0.3-0.9,0.2-0.5,0.5c3.6,2.9,6.4,7.1,6.4,11.9c0,0.2,0.2,0.3,0.4,0.3
	C463.1,561.5,463.2,561.4,463.2,561.2L463.2,561.2z"/>
<path d="M455.9,563.4c-0.1-1.9-1-3.8-2.5-5c-0.8-0.7-1.5-1.4-2.3-2.1c-0.7-0.7-1.5-1.3-2.4-1.7c-0.4-0.2-0.8,0.4-0.4,0.7
	c1.6,1,3,2.1,4.3,3.5c1.5,1.1,2.4,2.9,2.5,4.7c0,0.2,0.2,0.3,0.4,0.3C455.7,563.7,455.9,563.6,455.9,563.4L455.9,563.4z"/>
<rect x="714.9" y="492" class="st9" width="111" height="517.8"/>
<ellipse class="st10" cx="772.8" cy="775" rx="16.3" ry="15.6"/>
<ellipse class="st10" cx="772.5" cy="741" rx="10.7" ry="9.9"/>
<path class="st9" d="M791.4,491.8h-40.8c-4-6.5-7-13.5-8.9-20.8l-4-64.5c0-6.7,5.7-12.1,12.7-12.1h41c7,0,12.7,5.4,12.7,12.1
	l-3,62.6c-0.3,4.2-1.3,8.4-3,12.3C796.3,485.2,794.1,488.7,791.4,491.8z"/>
<rect x="714.9" y="627" class="st0" width="111" height="61.5"/>
<path class="st3" d="M783.7,582.4c-1.7-10.3,15-21.2,25.8-22.8s31.7,3.8,33.4,14.1s-16.6,21.5-27.3,23.1S785.4,592.6,783.7,582.4z"
	/>
<ellipse transform="matrix(0.985 -0.1723 0.1723 0.985 -87.502 148.8356)" cx="813.6" cy="578.4" rx="8.4" ry="12.3"/>
<line class="st8" x1="785.9" y1="560.2" x2="837.7" y2="533.4"/>
<path class="st3" d="M761.6,582.4c1.7-10.3-15-21.2-25.8-22.8s-31.7,3.8-33.4,14.1s16.6,21.5,27.3,23.1S760,592.6,761.6,582.4z"/>
<ellipse transform="matrix(0.1692 -0.9856 0.9856 0.1692 38.496 1201.7163)" cx="732" cy="578" rx="12.4" ry="8.4"/>
<line class="st8" x1="758" y1="559.6" x2="706.2" y2="532.8"/>
<path class="st5" d="M761.8,614.1c-6,1.7-13.5,3.7-15.7,2c-3-2.1,1.5-11.1,10.8-15.8s23.5-5.1,32.8-0.1c8.6,4.7,12.5,13.7,9.1,16.1
	c-2.8,2-10.8-0.2-13.9-1c-6.9-1.8-8.1-3.9-12.9-3.9C768.7,611.4,768,612.4,761.8,614.1z"/>
<path d="M799.4,612.6c-6.8-3.5-13.6-6.9-21.2-8.2c-7.2-1.2-14.7-0.3-21.5,2.6c-3.6,1.6-7.2,3.3-10.6,5.3c-0.2,0.1-0.2,0.3-0.1,0.5
	s0.3,0.2,0.5,0.1c7.9-4.3,16.1-8.5,25.4-8.4c9.8,0.1,18.6,4.3,27.2,8.7C799.5,613.5,799.9,612.8,799.4,612.6L799.4,612.6z"/>
<path d="M793.1,616.2c1.1-3.2,2.5-6.2,4.1-9.2c0.2-0.4-0.4-0.8-0.6-0.4c-1.6,3-3,6.2-4.2,9.4C792.2,616.5,792.9,616.7,793.1,616.2
	L793.1,616.2z"/>
<path d="M786.2,614.7c1.5-4.3,3.7-8.4,6.6-11.9c0.3-0.4-0.2-0.9-0.5-0.5c-3,3.6-5.3,7.8-6.8,12.2C785.4,615,786.1,615.2,786.2,614.7
	L786.2,614.7z"/>
<path d="M779.7,612.8c0.5-2.6,1.4-5.2,2.5-7.6c0.9-2.3,2.4-4.4,4.2-6.1c0.4-0.3-0.2-0.8-0.5-0.5c-1.9,1.8-3.4,3.9-4.3,6.3
	c-1.2,2.5-2,5.1-2.6,7.8C778.9,613,779.6,613.2,779.7,612.8L779.7,612.8z"/>
<path d="M774.4,611l2.6-14.6c0.1-0.5-0.6-0.7-0.7-0.2l-2.5,14.6C773.7,611.3,774.4,611.5,774.4,611L774.4,611z"/>
<path d="M768.6,610.9c-0.5-4.5,0.8-9.3-1.4-13.5c-0.2-0.4-0.9,0-0.7,0.4c2.1,4.1,0.9,8.7,1.3,13.1
	C767.9,611.4,768.7,611.4,768.6,610.9z"/>
<path d="M764.3,612.7c0-5-2.9-9.4-6.7-12.4c-0.4-0.3-0.9,0.2-0.5,0.5c3.6,2.9,6.4,7.1,6.4,11.9c0,0.2,0.2,0.3,0.4,0.3
	C764.2,613,764.3,612.9,764.3,612.7L764.3,612.7z"/>
<path d="M757,614.9c-0.1-1.9-1-3.8-2.5-5c-0.8-0.7-1.5-1.4-2.3-2.1c-0.7-0.7-1.5-1.3-2.4-1.7c-0.4-0.2-0.8,0.4-0.4,0.7
	c1.6,1,3,2.1,4.3,3.5c1.5,1.1,2.4,2.9,2.5,4.7c0,0.2,0.2,0.3,0.4,0.3C756.8,615.3,757,615.1,757,614.9L757,614.9z"/>
<path class="st11" d="M1540.1,864.7h98.2c-17.2,71.9-17.2,146.8,0,218.7h-98.2C1568.8,1013.3,1568.8,934.7,1540.1,864.7
	L1540.1,864.7z"/>
<path class="st12" d="M1760.1,596.7c3.4,4.9,6.9,13.8,4.2,21c-2.2,5.9-6.9,6.6-7,11.3c-0.1,5.1,5.4,6.6,5.6,11.3
	c0.3,6.5-9.6,15.5-18.3,14.5c-11.8-1.2-20.3-20.4-19.7-36.3c0.5-12.7,7.1-30,18.3-31.5C1752.5,585.8,1759.6,596,1760.1,596.7z"/>
<path class="st12" d="M1423.9,599.8c-3.4,4.9-6.8,13.8-4.2,21c2.2,5.9,6.9,6.6,7,11.3c0.1,5.1-5.4,6.6-5.6,11.3
	c-0.3,6.5,9.6,15.5,18.3,14.5c11.8-1.2,20.3-20.4,19.7-36.3c-0.5-12.7-7.1-30-18.3-31.5C1431.5,588.9,1424.4,599.1,1423.9,599.8z"/>
<path d="M1677.5,703.6c0.8,0,1.5-0.7,1.5-1.5s-0.7-1.5-1.5-1.5s-1.5,0.7-1.5,1.5S1676.6,703.6,1677.5,703.6z"/>
<path d="M1683.8,709c0.6-3.4,0.2-6.9-1-10.1c-0.2-0.6-0.8-0.9-1.4-0.7c-0.5,0.1-0.8,0.6-0.8,1c0,5.4,0,11-2.6,15.9l2.1,0.9
	c1.9-6.1,4.9-11.8,8.9-16.8l-1.9-0.8c0.7,5.9-0.5,11.7-1.7,17.4l2.2,0.6c0.8-3.8,2.6-7.3,5.3-10.1l-1.9-0.5c0.7,2.2,0.2,4.4-0.1,6.6
	l-0.9,6.8c-0.2,1.4,1.9,2,2.2,0.6c0.3-2.2,1-4.3,1.9-6.4c0.6-1.3-1.4-2.5-1.9-1.1c-1,2.2-1.7,4.5-2.1,6.9l2.2,0.6
	c0.3-2.5,0.7-5.1,1-7.6c0.3-2.3,0.7-4.7,0-7c-0.2-0.6-0.8-0.9-1.4-0.8c-0.2,0.1-0.3,0.1-0.5,0.3c-3,3.1-5,6.9-5.9,11.1
	c-0.3,1.4,1.9,2,2.2,0.6c1.2-5.9,2.5-11.9,1.8-18c-0.1-0.8-1.2-1.6-1.9-0.8c-4.3,5.3-7.5,11.3-9.5,17.8c-0.1,0.6,0.3,1.2,1,1.3
	c0.4,0.1,0.8-0.1,1-0.4c2.8-5.2,2.9-11.2,2.9-17l-2.2,0.3c1.1,2.8,1.5,5.9,1,8.9C1681.4,709.8,1683.5,710.4,1683.8,709L1683.8,709z"
	/>
<path d="M1694.3,717.8c-4.7,0.6-7-4.1-8.5-7.7c-0.2-0.4-0.8-0.1-0.7,0.3c0.7,1.8,1.1,3.7,1.2,5.6l0.7-0.2l-2.9-4.4
	c-0.5-1-1.2-1.7-2.2-2.2c-0.2-0.1-0.4,0.1-0.5,0.3c-0.2,1.5-0.3,2.9-0.2,4.4l0.7-0.1c-0.6-2.1-1.5-4.1-2.6-5.9
	c-0.4-0.6-1.6-2.1-2.3-1c-0.1,0.1-0.1,0.3,0,0.4c1.5,2,2.6,4.3,3.2,6.8l0.6-0.4c-2.5-3.2-5.9-5.5-9.8-6.7c-0.4-0.1-0.6,0.4-0.4,0.6
	c1,1.2,2,2.4,3.1,3.5c0.8,1,1.7,1.9,2.7,2.6c0.7,0.3,1.5,0.1,1.9-0.5c0.8-1.2,1.5-2.4,2.2-3.6c2.3-3.8,6.2-9.2,2.7-13.5
	c-0.3-0.3-0.8,0.1-0.6,0.5c0.7,1.3,1.5,2.6,2.4,3.8c0.6,1.1,1.5,2.1,2.4,3c1.6,1,1.8-1.5,2.7-2.1l-0.6-0.3l0.2,9.5
	c0,0.2,0.2,0.4,0.4,0.4c0.1,0,0.2-0.1,0.3-0.2l3.2-4.5l-0.7-0.2c0,2.9,0.5,5.8,1.3,8.6c0.1,0.3,0.7,0.4,0.7,0l1.3-8.6h-0.7l1.4,10.1
	c0.1,0.2,0.3,0.3,0.5,0.3c0.1,0,0.2-0.1,0.3-0.3c0.2-0.9,0.1-1.9-0.2-2.8c-0.1-0.2-0.3-0.3-0.5-0.3c-0.1,0-0.1,0-0.2,0.1
	c-0.6,0.8-1,1.7-1,2.7c0,0.2,0.2,0.3,0.4,0.3c0.2,0,0.3-0.2,0.3-0.3c0-0.8,0.3-1.5,0.7-2.2l-0.6-0.2c0.2,0.8,0.3,1.6,0.2,2.4h0.7
	l-1.4-10.1c-0.1-0.2-0.3-0.3-0.5-0.3c-0.1,0-0.2,0.1-0.3,0.3l-1.3,8.6h0.7c-0.8-2.7-1.3-5.6-1.3-8.4c0-0.2-0.2-0.4-0.4-0.4
	c-0.1,0-0.2,0.1-0.3,0.2l-3.2,4.4l0.7,0.2l-0.2-9.5c0-0.2-0.2-0.4-0.4-0.4c-0.1,0-0.1,0-0.2,0.1c-0.4,0.2-0.7,0.6-0.9,1
	c-0.1,0.2-0.2,0.7-0.4,0.9c-0.7,0.5-1.1-0.2-1.4-0.7c-1.4-1.8-2.7-3.7-3.8-5.7l-0.6,0.5c3.1,3.8-0.5,8.6-2.5,12l-1.6,2.7
	c-0.2,0.4-0.7,1.5-1,1.7l-1.4-0.3l-0.7-0.7c-1.5-1.5-3-3.1-4.4-4.8l-0.4,0.6c3.7,1.2,7,3.5,9.5,6.5c0.2,0.3,0.7,0,0.6-0.4
	c-0.7-2.3-1.7-4.4-3-6.4c-0.2-0.3-0.1-0.2,0.2,0.2c0.2,0.3,0.4,0.5,0.6,0.8c0.4,0.5,0.7,1.1,1,1.7c0.6,1.2,1.1,2.5,1.5,3.9
	c0.1,0.4,0.8,0.3,0.7-0.1c-0.1-1.4-0.1-2.8,0.1-4.2l-0.5,0.3c1.2,0.4,1.9,2.1,2.6,3.1l2.1,3.1c0.2,0.3,0.7,0.2,0.7-0.2
	c-0.1-2-0.5-4-1.2-5.8l-0.7,0.3c1.6,3.8,4.2,8.7,9.2,8C1694.8,718.5,1694.8,717.7,1694.3,717.8L1694.3,717.8z"/>
<path d="M1656,804.2c5.7-13.3,12.1-26.2,19.2-38.8c0.4-0.7,0.1-1.6-0.6-2s-1.6-0.1-2,0.5c-7.1,12.6-13.5,25.5-19.2,38.8
	C1652.7,804.4,1655.2,806,1656,804.2z"/>
<ellipse class="st13" cx="1761.4" cy="458.1" rx="25.8" ry="32.1"/>
<ellipse class="st13" cx="1434.7" cy="458.1" rx="24.6" ry="32.1"/>
<path class="st11" d="M1743,627.3c-1.4-3.2-2.4-4-6.2-11.6c-1.7-3.2-3.3-6.5-4.7-9.9c-2.2-5.8-3.3-12-3.1-18.2
	c0.8-16.8,14.2-39.1,14.7-41l0.2-1l0.3-1.4c3.7-16.5,5.3-33.4,4.8-50.3c-1.1-19.5-5-17.8-5.4-37.3c-0.2-8.5,0.5-13.3,0-24.4
	c-0.4-8.6-1.3-17.2-2.7-25.7c-2.7-6.5-6.3-12.5-10.7-18c-2.5-3.1-5.1-5.9-8-8.6c-12-11.2-26.9-16.9-30.9-18.4
	c-60.9-22.6-100.6-22.4-100.6-22.4s-41.8,0.2-95.1,21.1c0,0-30.3,12-42.9,32.1c-3.7,6-6.4,12.5-8,19.3c-1.3,6.4-2.2,12.8-2.7,19.3
	c-0.9,11.8-0.1,18.3,0,27c0.1,15.3-2.8,18.1-4,36c-0.8,11.4-1,22.5,0,45c0.1,1.5,0.2,4,0.6,7.3c0.6,4.5,1.7,8.9,3.1,13.2
	c3.2,9.8,4.6,11.2,7.8,19.9c3.4,9.4,5,14,4.7,19.9c-0.5,7.6-4,11.1-7.8,18.2c-5.9,12.4-8.8,26.1-8.4,39.9c0.2,3.6,1.8,9.8,4.9,20.1
	c0.4,0.4,0.7,0.8,1,1.3c1.1,0.8,2,1.9,2.6,3.2c7,7.3,12.5,15.8,16.4,25.1c2.5,5.9,4.3,12.2,5.4,18.5l0.2,0.7
	c1.2,3.5,2.4,7.1,3.6,10.7c5.6,15.2,12.7,29.7,17.9,45.1c1.2,2.3,2.6,4.8,4,7.5c1,1.3,1.9,2.6,2.7,4c2.9,4.8,5.4,9.8,7.3,15
	c0.2,0.8,0.4,1.6,0.6,2.3c0.9,1.8,1.7,3.5,2.6,5.1c5.4,8.4,10.4,17,15,25.9c1.7,3.3,3.3,6.6,4.9,9.9c2.2,3.7,4.5,7.3,7.4,11.4
	c4.6,6.7,4.8,6.1,9.4,12.9c6.4,9.5,6.4,10.8,9.4,12.9c4.8,3.4,10.1,3.6,18.8,3.9c8.3,0.3,8.9-1,20.1-1.3c9.8-0.3,10.4,0.6,18.8,0
	c7.9-0.6,12.5-1,17.4-3.9c3-1.7,5.2-4.1,9.4-9c1.5-1.7,4.2-5.1,10.7-14.2c3-4.2,5-7.2,8-11.6c5.1-7.4,7.7-11.2,9.4-14.2
	c0.2-0.4,0.5-0.8,0.7-1.3c1.9-6,5.2-11.8,8.7-17.5c0.8-1.6,1.6-3.5,2.7-5.6c1.2-2.4,1.8-3.7,2.7-5.2c1.1-1.9,2.4-3.8,3.7-5.6
	c0.2-0.4,0.4-0.8,0.5-1.2c4.9-12.3,9.3-25.3,13.3-38c1.3-4,2.2-8.2,3.4-12.2l0.2-0.7c0.6-2.4,1.5-4.8,2.6-7
	c1.6-6.8,3.4-13.9,6.2-20.3c1.3-2.6,2.8-5.2,4.5-7.5c-0.1-2,0.5-4,1.6-5.6c0.3-1.9,1.2-3.5,2.7-4.8c0.5-1.4,1.1-2.8,1.8-4.1
	c1.1-2.2,2.4-4.2,3.9-6.2c0.8-1.7,1.8-3.4,2.9-4.9c0.5-1.5,1.4-2.9,2.6-3.9c0.3-0.5,0.7-1,1.2-1.4c1.7-2.1,3.4-4.1,5.4-6l2.6-2.6
	l0,0c1.4-3.3,3.1-6.6,5-9.7c0.5-1.4,0.9-2.7,1.2-4.1c0.2-6.2,0.1-11.7-0.1-16C1745.7,634.5,1744.4,630.4,1743,627.3z"/>
<path class="st14" d="M1580.5,586.4c0.4-7.7-0.7-15.5-3.3-22.8c-2.7-7.3-7.4-13.9-12.4-19.9c-2.9-3.4-6-6.6-9.4-9.5
	c-0.4-0.3-0.9,0.2-0.5,0.5c6.3,5.5,11.8,11.9,16.3,18.9c3.6,5.4,6.1,11.5,7.4,17.9c0.9,4.9,1.3,9.9,1.1,14.8
	C1579.8,586.9,1580.5,586.9,1580.5,586.4L1580.5,586.4z"/>
<path class="st14" d="M1598.2,588.7c-0.8-18.2,5.2-37.1,18.9-49.5c3.4-3,7.1-5.6,11.2-7.7c0.4-0.2,0-0.9-0.4-0.7
	c-8.6,4.4-15.9,11.1-21,19.3c-5.3,8.7-8.5,18.5-9.3,28.7c-0.3,3.3-0.4,6.5-0.2,9.8C1597.4,589.1,1598.2,589.2,1598.2,588.7
	L1598.2,588.7z"/>
<path d="M1586.8,340.8c1.9,13.5,1.9,27.2,0,40.8c-24.8,2.9-49.4,7.7-73.4,14.6c-26.2,7.5-51.7,17.2-76.2,29.1
	c1.6-11.1,6.7-34.4,25.4-52.4c3.2-3.1,13.9-12.8,43.8-21.8C1532.5,343.2,1559.6,339.8,1586.8,340.8z"/>
<path d="M1586.1,341c1.9,13.4,1.9,27,0,40.4l0.7-0.5c-41.8,4.8-82.7,15.3-121.6,31.2c-9.6,3.9-19.1,8.1-28.4,12.7l1.1,0.8
	c1.5-10.8,4.8-21.4,9.7-31.1c4.8-9.2,11.2-18.1,19.6-24.5s18.3-10.8,28.1-14.4c12.2-4.4,24.7-7.8,37.4-10.1
	c15.6-2.8,31.4-4.2,47.3-4c2.3,0,4.5,0.1,6.8,0.1c1,0,1-1.5,0-1.5c-16.5-0.6-33.1,0.4-49.4,3c-12.8,2-25.3,5.1-37.6,9.2
	c-11,3.7-22.2,8.3-31.8,15.1c-7.9,5.6-14.2,13.3-19.2,21.6c-6,10.2-10.1,21.5-12,33.2c-0.2,1-0.3,1.9-0.5,2.9
	c-0.1,0.4,0.1,0.8,0.6,0.9c0.2,0,0.4,0,0.5-0.1c37.1-18.1,76.5-31.1,117.1-38.7c10.7-2,21.4-3.6,32.2-4.9c0.3,0,0.7-0.2,0.7-0.5
	c1.9-13.7,1.9-27.5,0-41.2C1587.4,339.7,1586,340.1,1586.1,341z"/>
<path d="M1595,340.1c-2.6,13-2.9,26.4-0.7,39.5c24.2,3.1,48.1,8.1,71.5,14.8c28.2,8.1,55.5,18.6,81.8,31.5
	c-1.5-11.8-6.2-35.9-24.8-53.3c-7.5-7-14.3-10.2-27.5-16.3c-18.7-8.6-38.7-14.1-59.1-16.3C1622.5,338.6,1608.7,338.6,1595,340.1z"/>
<path d="M1594.3,339.9c-2.6,13.1-2.9,26.7-0.7,39.9c0,0.4,0.4,0.5,0.7,0.5c20.8,2.7,41.5,6.8,61.8,12.1c21.1,5.6,41.8,12.6,62,20.9
	c9.9,4.1,19.6,8.5,29.2,13.2c0.4,0.2,1.2,0,1.1-0.6c-1.2-10.3-4-20.4-8.2-29.9c-5.4-12-13.7-22.9-24.8-30.2
	c-5.5-3.6-11.6-6.4-17.6-9.1c-4.3-2-8.6-3.9-13-5.6c-12.7-4.9-25.9-8.4-39.4-10.5c-14.6-2.3-29.3-2.9-44-1.8
	c-2.2,0.2-4.3,0.4-6.5,0.6c-1,0.1-1,1.6,0,1.5c14.4-1.5,29-1.5,43.4,0.2c14.1,1.7,28,5,41.4,9.7c4.5,1.6,8.9,3.4,13.3,5.3
	c5.8,2.6,11.6,5.2,17.1,8.2c11.4,6.3,20.3,16.1,26.4,27.5c5.1,9.8,8.4,20.3,10,31.2c0.1,0.9,0.3,1.9,0.4,2.8l1.1-0.6
	c-17.9-8.8-36.2-16.4-55-23c-21.3-7.5-43.1-13.4-65.2-17.9c-11.1-2.2-22.2-4.1-33.5-5.5l0.7,0.5c-2.1-13-1.9-26.2,0.7-39.1
	C1595.9,339.4,1594.5,339,1594.3,339.9z"/>
<path d="M1746.9,464.9l0.7-30.7c0.1-3.3,0.1-6.8-1.3-9.7c-1.2-2.5-3.5-4.3-5.7-5.9c-4.6-3.4-9.8-7.3-15.1-9.2
	c1.5,9.7,7.9,20.5,11.6,29.6l10.4,25.5l-10.4-25.5l-12.2-30"/>
<path d="M1747.7,464.9l0.7-29.2c0.1-4,0.4-8.3-1.6-11.9c-1.8-3.4-5.4-5.6-8.4-7.8c-3.8-3-8.1-5.5-12.6-7.4c-0.6-0.2-1,0.4-0.9,0.9
	c1.1,7,4.2,13.6,7.2,20c3.3,7.1,6.3,14.4,9.3,21.7l5.5,13.4c0.4,0.9,1.8,0.5,1.4-0.4l-22.6-55.5c-0.4-0.9-1.8-0.5-1.4,0.4
	c7.5,18.5,15.1,37,22.6,55.5l1.4-0.4l-9.6-23.6c-2.8-6.8-6.2-13.3-8.9-20.1c-1.6-3.7-2.7-7.5-3.4-11.4l-0.9,0.9
	c3.8,1.6,7.5,3.6,10.8,6.2c3.1,2.2,6.8,4.4,8.9,7.6c2.3,3.5,1.9,8,1.8,12.1l-0.3,13.6l-0.3,15.3c0,0.4,0.3,0.8,0.8,0.8
	S1747.7,465.4,1747.7,464.9L1747.7,464.9z"/>
<path d="M1441.3,422.8l26.7-12.3c-12,20.8-21.6,42.9-28.3,66c-2.5-17.1-3.1-34.5-1.8-51.8c4.1-1.3,7.8-3.9,10.5-7.2"/>
<path d="M1441.7,423.5l26.7-12.3l-1-1c-9.4,16.2-17.2,33.2-23.5,50.8c-1.8,5.1-3.5,10.2-5,15.3h1.4c-2.5-17.1-3-34.4-1.7-51.6
	l-0.6,0.7c4.2-1.4,8-4,10.9-7.4c0.6-0.7-0.4-1.8-1.1-1.1c-2.7,3.2-6.2,5.7-10.2,7c-0.3,0.1-0.5,0.4-0.6,0.7
	c-1.3,17.3-0.7,34.8,1.8,52c0.1,0.8,1.2,0.6,1.4,0c5.3-17.9,12.2-35.3,20.7-52c2.4-4.7,4.9-9.3,7.6-13.8c0.2-0.4,0-0.8-0.4-1
	c-0.2-0.1-0.4-0.1-0.6,0l-26.6,12.2C1440.1,422.5,1440.9,423.9,1441.7,423.5L1441.7,423.5z"/>
<ellipse class="st13" cx="1784.9" cy="480.8" rx="24.1" ry="29.9"/>
<ellipse class="st13" cx="1811.1" cy="508.4" rx="22.7" ry="27.8"/>
<ellipse class="st13" cx="1825.1" cy="544.7" rx="18" ry="24.2"/>
<ellipse class="st13" cx="1835" cy="576.9" rx="17.4" ry="21.7"/>
<ellipse class="st13" cx="1840.2" cy="606.1" rx="15.3" ry="20.3"/>
<ellipse class="st13" cx="1841.8" cy="636.7" rx="13.6" ry="21.2"/>
<ellipse class="st13" cx="1839.9" cy="667.3" rx="12.4" ry="17.2"/>
<ellipse class="st13" cx="1839.4" cy="683.9" rx="11.4" ry="15.5"/>
<ellipse class="st15" cx="1856.6" cy="703.1" rx="21.4" ry="16.7"/>
<ellipse class="st15" cx="1819.7" cy="703.1" rx="21.4" ry="16.7"/>
<path class="st16" d="M1873.1,703.7c-0.7,6.2-8.9,9.5-9.4,9s4.8-3.6,5.4-9c0.6-6.4-5.9-11.1-5.4-11.6S1873.9,696.7,1873.1,703.7z"/>
<path d="M1570.8,799.8c13.9,2,28,2.3,42.1,1c1.3-0.3,2.5-0.1,3.7,0.5c2.3,1.5,1.1,4.9-0.5,7.1c-5.3,7.7-11.3,14.8-18,21.2
	c-1.4,1.6-3.2,2.7-5.2,3.5c-4.2,1.2-8.5-1.8-11.6-4.8c-6.6-6.4-12-13.9-16-22.3c-0.4-0.6-0.5-1.4-0.5-2.1c0.2-1,1.2-1.6,2.1-2.1
	c2.2-1.1,4.4-2,6.8-2.5"/>
<path d="M1570.6,800.5c9.5,1.3,19,1.9,28.6,1.8c4.8-0.1,9.5-0.5,14.3-0.8c1-0.1,2.3-0.1,3.1,0.7c0.6,0.7,0.7,1.6,0.5,2.5
	c-0.5,1.8-1.4,3.4-2.6,4.8c-5.1,7.3-11,14-17.5,20.1c-1.6,1.5-3.4,2.8-5.7,3c-2.2,0-4.3-0.7-6-2c-3.5-2.3-6.5-5.8-9.2-9
	c-3.1-3.7-5.8-7.7-8.1-11.9c-0.6-1-1.1-2-1.6-3c-0.4-0.7-0.7-1.4-0.9-2.2c0.1-0.7,0.5-1.2,1.1-1.5c2.2-1.3,4.7-2.3,7.2-2.8
	c0.9-0.2,0.5-1.7-0.4-1.5c-2.4,0.6-4.8,1.4-7,2.6c-1.7,0.9-2.9,2.2-2.3,4.2c0.9,2.2,1.9,4.3,3.2,6.3c1.2,2.1,2.5,4.2,3.9,6.2
	c2.8,3.9,5.9,7.5,9.3,10.8c3,2.9,7,6,11.5,5.3c2.1-0.4,4-1.4,5.5-2.9c1.8-1.6,3.5-3.3,5.2-5.1c3.5-3.6,6.7-7.4,9.8-11.4
	c1.5-2,3-4,4.4-6.1c1.1-1.5,1.6-3.2,1.7-5c-0.3-5-7-3.3-10.1-3.1c-12.5,0.8-25.1,0.4-37.5-1.3C1570.1,799,1569.7,800.5,1570.6,800.5
	L1570.6,800.5z"/>
<path d="M1585.6,843.8c0.4,0,0.8-0.3,0.8-0.8s-0.3-0.8-0.8-0.8s-0.8,0.3-0.8,0.8S1585.2,843.8,1585.6,843.8z"/>
<path d="M1644.5,860.1c-9.7,7.5-18.8,11.6-28.2,10.3c-1.1-0.2-12.4-1.9-17.4-10.3c-1.4-2.4-2.3-5-2.7-7.7c-1.6-8-2-16.2-1.3-24.4
	l-9.4,2.6c0.1,7.3,0.1,14.1,0,20.6c0.1,3.1-0.3,6.1-1.3,9c-2,4.8-5.9,8.5-10.7,10.3c-10.5,3.6-23.1-5.4-29.5-10.3
	c-26-19.7-35.6-46.5-36.2-46.2c-0.3,0.1,1.9,4.6,5.1,10.9c3.3,5.5,6.4,11.2,9.4,17c1.5,2.8,2.9,5.7,4.3,8.6c0.9,1.6,1.8,3.2,2.6,4.6
	c5.5,9.5,8.1,12.5,10.2,15.1c3.6,4.5,5.3,5.5,9.6,13.1c1.4,2.7,3.4,5.1,5.9,7c5.1,3.9,12.1,4,18.6,3.9l38.5-0.3
	c3.6,0.1,7.3-0.2,10.8-0.9c6.5-2.6,12.5-6.6,17.5-11.5c4.5-4.5,6.1-8,11-17.4c0.8-1.5,4.6-8.6,11.9-22.2
	C1657.7,848.6,1651.4,854.7,1644.5,860.1z"/>
<path d="M1644.2,859.4c-8.6,6.6-19.1,12.4-30.2,9.7c-4.3-0.9-8.3-3-11.6-5.9c-3.9-3.7-5.1-8.7-5.9-13.8c-1.1-7.1-1.4-14.3-0.8-21.4
	c0-0.4-0.3-0.8-0.8-0.8c-0.1,0-0.2,0-0.2,0l-9.4,2.6c-0.3,0.1-0.5,0.4-0.6,0.7c0,4.2,0,8.3,0,12.5c0,3.8,0.1,7.6-0.2,11.4
	c-0.2,3.3-1.3,6.5-3.2,9.2c-2,2.7-4.8,4.8-8,6c-6.1,2.2-12.8-0.1-18.3-3c-5.4-2.9-10.4-6.4-15-10.5c-9.4-8.1-17.5-17.6-23.9-28.2
	c-2-3.3-3.9-6.7-5.6-10.2c-0.5-1-1-2-1.5-3c-0.2-0.5-0.4-0.9-0.8-1.3c-0.3-0.3-0.8-0.3-1.1,0l-0.1,0.1c-0.3,0.5,0,1,0.2,1.5
	c1,2.5,2.2,4.9,3.4,7.2c1.9,3.7,4,7.2,6.1,10.9s4,7.4,5.9,11.1c1.8,3.6,3.6,7.1,5.5,10.6c1.7,2.9,3.4,5.8,5.3,8.7
	c2.1,3.1,4.4,6.1,6.9,9c1.5,1.7,3,3.4,4.3,5.3c1.7,2.4,3,5,4.5,7.4c1.7,2.7,4,5,6.8,6.7c2.9,1.5,6.1,2.5,9.3,2.7
	c3.7,0.3,7.3,0.4,11,0.2l12.8-0.1c8.6-0.1,17.2,0,25.8-0.2c2,0,3.9-0.2,5.8-0.5c1.5-0.2,2.9-0.7,4.3-1.3c2.9-1.3,5.6-2.8,8.2-4.6
	c4.9-3.2,9-7.4,12.2-12.3c2.6-4.1,4.6-8.5,6.9-12.7c2-3.7,4-7.5,6-11.2l5.2-9.7c0.4-0.7-0.6-1.6-1.2-0.9
	c-5.4,6.8-11.6,12.9-18.4,18.3c-0.8,0.6,0.3,1.6,1.1,1.1c6.9-5.4,13.1-11.5,18.6-18.3l-1.2-0.9c-4.6,8.6-9.3,17.2-13.8,25.8
	c-2.4,4.5-4.7,9.1-8.2,12.9c-4.6,4.8-10.2,8.7-16.3,11.4c-3.5,1.6-7.5,1.5-11.2,1.5c-4.2,0-8.5,0.1-12.7,0.1l-25.5,0.2
	c-6.9,0.1-14.7,0.3-20.2-4.4c-4.4-3.8-6.4-9.4-9.9-13.8c-2.3-2.9-4.9-5.7-7.2-8.7c-3.5-4.8-6.6-9.9-9.5-15.2
	c-2-3.5-3.7-7.3-5.6-10.9s-3.9-7.3-5.9-10.9c-2-3.4-3.9-6.8-5.6-10.3c-0.6-1.2-1.2-2.3-1.7-3.5c-0.2-0.4-0.3-0.7-0.5-1.1
	c0-0.1-0.1-0.3-0.2-0.4v-0.1c-0.4,0.1-0.8,0.3-1.2,0.5c0,0,0-0.1,0,0s0.1,0.2,0.2,0.3l0.5,0.9c0.5,1,1,2,1.5,3.1
	c1.7,3.4,3.5,6.7,5.5,10c6.2,10.3,14,19.6,23,27.5c4.5,4,9.3,7.5,14.4,10.6c5.1,3,11.1,5.6,17.1,5.1c6-0.6,11.4-4.1,14.4-9.4
	c1.4-2.7,2.2-5.6,2.3-8.7c0.2-3.8,0.1-7.5,0.1-11.3c0-4,0-8,0-12l-0.6,0.7l9.4-2.6l-1-0.7c-0.5,6.8-0.3,13.6,0.6,20.3
	c0.8,5.3,1.8,10.7,5.4,14.8c5.6,6.4,15.3,9.2,23.5,8c7.9-1.2,14.9-5.5,21.2-10.3C1645.7,860.1,1644.9,858.8,1644.2,859.4z"/>
<path d="M1685,802.1c0.2-0.6,0.5-1.2,0.7-1.8c-1.2,2.1-5.6,10-13,23.8l-9.5,17.6c1.3-1.6,2.5-3.1,3.6-4.7
	C1670.8,824.8,1680.5,813.3,1685,802.1z"/>
<path d="M1685.7,802.3c0.2-0.6,0.5-1.2,0.7-1.8c0.3-0.8-1-1.3-1.4-0.6c-1.9,3.2-3.6,6.5-5.3,9.7c-3.7,6.9-7.5,13.8-11.2,20.7
	c-2,3.7-4,7.3-6,11c-0.4,0.7,0.6,1.6,1.2,0.9s1.3-1.7,2-2.5c0.6-0.7,1.2-1.5,1.8-2.3c0.8-1.6,1.2-3.4,2-5c1.6-3.6,3.5-7,5.5-10.4
	C1678.7,815.6,1682.9,809.3,1685.7,802.3c0.4-0.9-1.1-1.3-1.5-0.4c-2.8,6.8-6.9,13-10.6,19.3c-1.9,3.2-3.7,6.5-5.3,9.8
	c-0.7,1.6-1.4,3.2-2,4.8c-0.7,2-2.5,3.7-3.8,5.3l1.2,0.9c6.7-12.5,13.4-25,20.3-37.5c0.7-1.3,1.5-2.7,2.2-4l-1.4-0.6l-0.7,1.8
	C1683.9,802.8,1685.3,803.2,1685.7,802.3z"/>
<path class="st17" d="M1601.3,704.6c16.8-3.5,34.1-3.5,50.9,0c2.2-4.4,3.1-9.3,2.7-14.1c-0.3-3.1-1.2-6.2-2.7-9
	c-5.7-1.2-20.6-3.4-36.2,3.9c-5.5,2.6-10.4,6-14.7,10.3L1601.3,704.6z"/>
<path class="st17" d="M1580.6,706.2c-16.8-3.5-34.1-3.5-50.9,0c-2.2-4.4-3.2-9.3-2.7-14.2c0.3-3.1,1.2-6.2,2.7-9
	c5.7-1.2,20.6-3.4,36.2,3.8c5.5,2.6,10.4,6,14.7,10.3L1580.6,706.2z"/>
<path class="st17" d="M1603.2,619.6c0.8,6,1.1,12,1,18c-0.1,9.1-0.2,16.3,2,22.5c4.9,13.8,16.7,11.7,18.7,21.4
	c2.8,13.5-20,31.2-21.7,32.6c-0.9,0.7-1.8,1.4-2.8,1.9c-6.4,2.9-13.7,2.9-20.1,0c-1.1-0.6-2.2-1.2-3.1-2c-2-1.5-23-17.2-21-31.4
	c1.4-10,12.1-8.3,16.7-22.5c1.5-4.5,1.6-10.9,2-23.6c0.2-8,0-13.1,0-15.7c-0.2-19.7,7.3-46.1,13.8-46.1S1602.1,601.2,1603.2,619.6z"
	/>
<path class="st18" d="M1680,745.7c-0.7-1.8-5.9-2.3-24.9,1.2c-43.5,8.1-46.3,15.9-67.2,16c-6.5,0-20.5-3.2-48.5-9.9
	c-29.9-7.1-36.8-10.2-38.6-7.4c-3.8,6,19.7,33.2,49.7,44.4c13.5,4.9,27.9,7,42.3,6.2c5.5-0.3,10.9-1.1,16.2-2.5
	c16.3-4.1,21.4-10.6,53.5-33.3C1675,751.7,1680.8,747.9,1680,745.7z"/>
<path class="st16" d="M1589.2,775.9l-16.1,1.4c-0.7-1.2-1.3-2.4-1.7-3.7c-1-3.1-1-6.5-0.2-9.7l17.4-1.5c1.4,3,1.9,6.3,1.6,9.5
	C1590,773.3,1589.6,774.6,1589.2,775.9z"/>
<path class="st14" d="M1682.7,744.5c-1.6-1.5-24.5,16.7-29.8,20c-2.9,1.8-6,3.4-6,3.4c-0.9,0.5-0.9,0.3-16.9,9.3
	c-11.6,6.5-13.6,7.7-17.7,8.8c-6.5,1.8-13.2,1.6-26.5,1.1c-10.3-0.4-16-0.6-24-2.2c-7-1.2-13.8-3.4-20.2-6.6
	c-1.8-0.9-3.3-1.8-4.7-2.7c-2.8-1.8-5.4-3.8-7.9-6.1c-9.4-8.5-28.2-25.6-30.7-23.7c-1.3,1,1.7,6.7,4,10.3c3.8,5.8,8.3,8.8,11,11
	c17,12.9,16.5,23.3,33.4,32.4c1.6,0.9,3.3,1.6,5,2.2c7,2.4,14.4,2.5,29.2,2.6c16.5,0.1,24.7,0.4,34.5-2.6
	c14.2-4.2,23.2-12.2,35.8-23.3c5.6-5,7.8-7.6,12.5-12.2c4.3-4.1,5.9-5,8.8-8C1678,752.6,1683.6,745.3,1682.7,744.5z"/>
<path class="st16" d="M1607.7,776h-16.1c-0.6-1.2-1-2.5-1.3-3.8c-0.7-3.2-0.4-6.6,0.7-9.6h17.5c1.1,3.1,1.3,6.4,0.7,9.6
	C1608.8,773.5,1608.3,774.8,1607.7,776z"/>
<path class="st16" d="M1620.7,771.1c-0.2,0.9-0.7,1.7-1.4,2.2c-2.1,1.8-5.2,1.2-5.4,1.2c-1.2-0.2-2.4-0.8-3.2-1.7
	c-0.3-0.9-0.5-1.8-0.7-2.7c-0.6-2.8-0.8-5.6-0.6-8.4l10.1-0.7c0.7,2.5,1.2,5.2,1.2,7.8C1620.7,769.7,1620.7,770.4,1620.7,771.1z"/>
<path class="st16" d="M1569.9,772c-0.4,0.8-1,1.5-1.8,2c-2.4,1.4-5.3,0.3-5.5,0.2c-1.2-0.4-2.2-1.2-2.8-2.3
	c-0.1-0.9-0.2-1.8-0.2-2.8c0-2.8,0.3-5.7,1.1-8.4l10.1,1.1c0.2,2.6,0.1,5.3-0.3,7.9C1570.2,770.6,1570,771.3,1569.9,772z"/>
<path class="st16" d="M1636.8,768.8l-12,3.8c-0.9-1-1.6-2.2-2.3-3.3c-1.6-2.9-2.5-6-2.7-9.3l13-4.2c1.9,2.7,3.1,5.8,3.7,9
	C1636.8,766.1,1636.9,767.4,1636.8,768.8z"/>
<path class="st16" d="M1556.7,772l-12.4-2.7c-0.2-1.3-0.2-2.7-0.1-4c0.2-3.3,1.2-6.4,2.8-9.3l13.4,2.9c0.1,3.3-0.5,6.5-1.7,9.5
	C1558.1,769.7,1557.4,770.9,1556.7,772z"/>
<path class="st16" d="M1542.1,766.7l-9.7-2.1c-0.1-1.2-0.1-2.4,0-3.5c0.3-2.9,1.1-5.7,2.4-8.3l10.5,2.3c0,2.9-0.5,5.8-1.6,8.5
	C1543.3,764.6,1542.8,765.7,1542.1,766.7z"/>
<path class="st16" d="M1648.9,762.4l-9.1,3.9c-0.8-0.9-1.6-1.8-2.2-2.8c-1.6-2.4-2.7-5.1-3.3-8l9.8-4.2c1.8,2.3,3.2,4.9,4,7.7
	C1648.5,760.1,1648.8,761.2,1648.9,762.4z"/>
<path class="st16" d="M1531.7,760.3l-10-2.2c-0.1-1.1-0.1-2.3,0-3.5c0.2-2.8,1-5.6,2.4-8.1l10.8,2.3c0,2.8-0.5,5.7-1.5,8.3
	C1532.8,758.3,1532.3,759.4,1531.7,760.3z"/>
<path class="st16" d="M1660.2,755.9l-8.9,4.8c-0.9-0.8-1.7-1.6-2.5-2.5c-1.8-2.2-3.1-4.8-3.9-7.5l9.7-5.2c2,2,3.6,4.5,4.7,7.1
	C1659.6,753.6,1660,754.8,1660.2,755.9z"/>
<path class="st14" d="M1685.4,744.5c0-0.9-15.7-1.8-23.3-1c-2,0.2-3.9,0.5-3.9,0.5c-3.5,0.6-6,1.5-19.4,4.1
	c-17.9,3.5-22.1,3.5-31.6,6.6h-0.1c0,0-12.1,4-15.2,6.5c-0.2,0.2-0.7,0.6-1.4,1.2c-1.2,1-1.4,1-1.4,1.2c0,0.8,5.6,2.2,12,2.2
	c4.7,0,8.7-0.8,15.9-3c8.6-2.6,15-5.1,16.2-5.5c17.4-6.8,27.2-10.2,39.8-11.8C1680.6,744.6,1685.4,745,1685.4,744.5z"/>
<path class="st14" d="M1591,760.5l-1.5-1.1c-0.8-0.6-5-2.2-17-5.9c-10.7-1.4-21.2-3.8-31.8-5.5c-13.5-2.1-16-2.9-19.5-3.4
	c0,0-2-0.2-4-0.4c-7.8-0.6-21.4,0.9-21.4,1.5c0,0.3,4.2-0.3,10.9,1c1.2,0.2,3.6,0.8,8.2,2.1c2,0.6,4.7,1.3,7.8,2.1
	c5,1.3,7.5,1.9,10.8,2.6c8,1.6,8.8,1,13.4,2.6l6.7,2.6c6.5,2.5,6.4,2.5,6.7,2.6c4.5,1.5,5.1,0.9,12.1,2.6c6.2,1.5,6.2,2,8.4,1.8
	c3.2-0.3,6.2-1.1,9.2-2.3l0,0l1.3-0.8l1.2-0.8L1591,760.5z"/>
<ellipse class="st13" cx="1413.4" cy="468.7" rx="25.8" ry="32.1"/>
<ellipse class="st13" cx="1390" cy="491.4" rx="24.1" ry="29.9"/>
<ellipse class="st13" cx="1363.8" cy="519.1" rx="22.7" ry="27.8"/>
<ellipse class="st13" cx="1349.8" cy="555.3" rx="18" ry="24.2"/>
<ellipse class="st13" cx="1339.8" cy="587.6" rx="17.4" ry="21.7"/>
<ellipse class="st13" cx="1334.7" cy="616.8" rx="15.3" ry="20.3"/>
<ellipse class="st13" cx="1333" cy="647.3" rx="13.6" ry="21.2"/>
<ellipse class="st13" cx="1334.9" cy="677.9" rx="12.4" ry="17.2"/>
<ellipse class="st13" cx="1335.4" cy="694.5" rx="11.4" ry="15.5"/>
<ellipse class="st15" cx="1318.3" cy="713.8" rx="21.4" ry="16.7"/>
<ellipse class="st15" cx="1355.2" cy="713.8" rx="21.4" ry="16.7"/>
<path class="st16" d="M1301.8,714.4c0.7,6.2,8.9,9.5,9.4,9s-4.8-3.6-5.4-9c-0.6-6.4,5.9-11.1,5.4-11.6S1301,707.3,1301.8,714.4z"/>
<path class="st11" d="M1587.8,577.1c0.8,0,1.5-0.7,1.5-1.5s-0.7-1.5-1.5-1.5s-1.5,0.7-1.5,1.5S1587,577.1,1587.8,577.1z"/>
<path class="st11" d="M1590.2,573.4c-3.8-1.6-6.3,2.6-7.6,5.4c-1.4,3.3-2.8,7.1-0.9,10.6c0.4,0.7,1.4,0.9,2.1,0.5
	c0.2-0.1,0.4-0.3,0.5-0.5c2.8-6.2,6-12.5,7.6-19.2l-2.7,0.4c1.3,1.9,1.7,4.5,2.3,6.7l2.1,7.6l2.5-1.5c-1.9-2.5-3.6-5.1-5.1-7.9
	c-0.4-0.7-1.4-0.9-2.1-0.5c-0.4,0.3-0.7,0.7-0.7,1.2v6.7c0,0.8,0.7,1.5,1.5,1.5s1.5-0.7,1.5-1.5v-6.7l-2.8,0.8
	c1.6,3,3.4,5.8,5.5,8.5c1,1.2,2.9-0.1,2.5-1.5l-2.2-7.9c-0.7-2.4-1.1-5-2.5-7c-0.4-0.7-1.4-0.9-2.1-0.5c-0.3,0.2-0.5,0.5-0.6,0.8
	c-1.6,6.4-4.7,12.4-7.3,18.5h2.6c-1.3-2.3-0.2-5.1,0.7-7.3c0.7-1.6,2-5.3,4.3-4.3c0.8,0.2,1.6-0.2,1.8-1
	C1591.4,574.5,1591,573.7,1590.2,573.4L1590.2,573.4z"/>
<path class="st11" d="M1582.2,585.2c0.8,0,1.5-0.7,1.5-1.5s-0.7-1.5-1.5-1.5s-1.5,0.7-1.5,1.5S1581.4,585.2,1582.2,585.2z"/>
<path class="st11" d="M1582.1,585.8c0.8,0,1.5-0.7,1.5-1.5s-0.7-1.5-1.5-1.5s-1.5,0.7-1.5,1.5S1581.2,585.8,1582.1,585.8z"/>
<path class="st11" d="M1582,585.6c0.8,0,1.5-0.7,1.5-1.5s-0.7-1.5-1.5-1.5s-1.5,0.7-1.5,1.5S1581.2,585.6,1582,585.6z"/>
<path class="st11" d="M1582.2,586.5c0.8,0,1.5-0.7,1.5-1.5s-0.7-1.5-1.5-1.5s-1.5,0.7-1.5,1.5S1581.4,586.5,1582.2,586.5z"/>
<path class="st11" d="M1582,585.7c0.8,0,1.5-0.7,1.5-1.5s-0.7-1.5-1.5-1.5s-1.5,0.7-1.5,1.5S1581.2,585.7,1582,585.7z"/>
<path class="st11" d="M1582.2,586.5c0.8,0,1.5-0.7,1.5-1.5s-0.7-1.5-1.5-1.5s-1.5,0.7-1.5,1.5S1581.4,586.5,1582.2,586.5z"/>
<path class="st11" d="M1582.3,588.3c0.8,0,1.5-0.7,1.5-1.5s-0.7-1.5-1.5-1.5s-1.5,0.7-1.5,1.5S1581.4,588.3,1582.3,588.3z"/>
<path class="st11" d="M1595.7,587.4c0.8,0,1.5-0.7,1.5-1.5s-0.7-1.5-1.5-1.5s-1.5,0.7-1.5,1.5S1594.9,587.4,1595.7,587.4z"/>
<path class="st11" d="M1595.9,588.3c0.8,0,1.5-0.7,1.5-1.5s-0.7-1.5-1.5-1.5s-1.5,0.7-1.5,1.5S1595,588.3,1595.9,588.3z"/>
<path class="st11" d="M1595.5,589.8c0.8,0,1.5-0.7,1.5-1.5s-0.7-1.5-1.5-1.5s-1.5,0.7-1.5,1.5S1594.7,589.8,1595.5,589.8z"/>
<path class="st11" d="M1595.7,589.3c0.8,0,1.5-0.7,1.5-1.5s-0.7-1.5-1.5-1.5s-1.5,0.7-1.5,1.5S1594.8,589.3,1595.7,589.3z"/>
<path class="st11" d="M1595.8,588.6c0.8,0,1.5-0.7,1.5-1.5s-0.7-1.5-1.5-1.5s-1.5,0.7-1.5,1.5S1595,588.6,1595.8,588.6z"/>
<path class="st11" d="M1595.9,588.2c0.8,0,1.5-0.7,1.5-1.5s-0.7-1.5-1.5-1.5s-1.5,0.7-1.5,1.5S1595,588.2,1595.9,588.2z"/>
<path class="st11" d="M1595.6,590.6c0.8,0,1.5-0.7,1.5-1.5s-0.7-1.5-1.5-1.5s-1.5,0.7-1.5,1.5S1594.7,590.6,1595.6,590.6z"/>
<path class="st11" d="M1595.7,590.9c0.8,0,1.5-0.7,1.5-1.5s-0.7-1.5-1.5-1.5s-1.5,0.7-1.5,1.5S1594.9,590.9,1595.7,590.9z"/>
<path class="st11" d="M1595.7,590.3c0.8,0,1.5-0.7,1.5-1.5s-0.7-1.5-1.5-1.5s-1.5,0.7-1.5,1.5S1594.9,590.3,1595.7,590.3z"/>
<path class="st11" d="M1595.7,589.8c0.8,0,1.5-0.7,1.5-1.5s-0.7-1.5-1.5-1.5s-1.5,0.7-1.5,1.5S1594.9,589.8,1595.7,589.8z"/>
<path class="st11" d="M1595.7,589.2c0.8,0,1.5-0.7,1.5-1.5s-0.7-1.5-1.5-1.5s-1.5,0.7-1.5,1.5S1594.9,589.2,1595.7,589.2z"/>
<path d="M1670.3,821.3c-8.2,12.9-16.1,26.2-25.4,38.4l2.6,1.5c4.6-7.7,9.2-15.3,14.2-22.7c2.4-3.6,5-7.1,7.3-10.8s4.3-7.3,6.4-10.9
	c2.4-4.2,4.8-8.4,7.5-12.4c1.1-1.6-1.5-3.1-2.6-1.5c-4.7,7.1-8.6,14.7-13,22c-2.2,3.7-4.8,7.2-7.2,10.7s-4.9,7.4-7.2,11.1
	c-2.7,4.3-5.3,8.7-7.9,13c-1,1.7,1.5,3,2.6,1.5c9.3-12.2,17.2-25.4,25.4-38.4C1673.9,821.2,1671.4,819.7,1670.3,821.3L1670.3,821.3z
	"/>
<path d="M1657.2,849.7c5.3-10.4,10.7-20.8,17.7-30.2c1.2-1.5-1.4-3-2.6-1.5c-7,9.4-12.4,19.8-17.7,30.2
	C1653.8,849.9,1656.4,851.4,1657.2,849.7z"/>
<path d="M1499.7,794.6c4.4,8.1,8.7,16.2,13.1,24.3c4.1,7.7,8.1,15.5,10.8,23.9c0.6,1.8,3.5,1,2.9-0.8c-2.8-8.4-6.7-16.4-10.9-24.2
	c-4.4-8.3-8.9-16.5-13.3-24.7C1501.3,791.4,1498.8,792.9,1499.7,794.6L1499.7,794.6z"/>
<path class="st19" d="M1458.6,587.6c0.1-0.5,0.2-1.3,0.2-1.3l0.3-1.8c0.2-1.3,21.5-15.6,53.7-10.2c24.3,4.1,53,19,51.1,29.4
	s-33.2,15.6-58.2,11.2C1473.9,609.3,1458.4,588.9,1458.6,587.6z"/>
<path class="st12" d="M1457.3,585.3c0.6-5,4.2-8.2,10.3-13.6c4.8-4.2,10.3-7.6,16.2-10c10.2-4.4,22.2-9.6,37-6.8
	c7.1,1.4,13.9,4.3,19.9,8.4c5.5,3.4,10.4,7.8,14.3,12.9c3.8,5.3,6.8,11.2,8.8,17.4c1.1,3.2,1.9,6.4,2.6,9.7c-3-2.6-6.2-5-9.5-7.2
	c-2-1.4-3.8-2.5-16.5-9.7c-7.6-4.3-8.1-4.5-9-5c-4.5-2-8.3-2.7-15.7-4.2c-3.7-0.9-7.4-1.4-11.2-1.7c-3.3-0.3-6.6-0.2-9.8,0.3
	c-1.7,0.2-3.4,0.6-5.1,1l-5.1,1c-3.6,1.1-6.5,1.8-8.5,2.3c-3.7,0.8-5.6,1-10.1,2c-2.9,0.6-5.2,1.2-6.8,1.6c-0.1,0.6-0.2,1.2-0.3,1.8
	c0,0-0.3,1.7-0.3,1.8c-0.1,0.9,3.6,4.6,19.6,16.1c9,6,19.3,10,30,11.5c12.1,1.7,21.7-0.3,30.6-2.2c9.5-2,18.7-5.1,27.5-9.2
	c-9.1,8.1-19.6,14.5-31,18.8c-9.8,3.6-19.9,7.3-32.9,4.6c-12.3-2.6-20.3-9.5-27.5-15.7C1466.3,603.7,1456.1,594.8,1457.3,585.3z"/>
<path class="st20" d="M1530.6,588.6c0.1-1.4,0.5-5.4-1.6-7.8c-0.9-1.1-1.9-1.2-5.9-2.2c-7.3-1.8-6.2-1.7-8.8-2.2
	c-2.9-0.7-5.9-1-8.8-1.1c-3.3-0.1-4.9-0.1-6.3,0.5c-4.4,1.8-7.1,8.2-7.4,13.3c-0.6,9.6,8.9,19.7,19.2,19.6
	C1521.9,608.5,1529.8,596.8,1530.6,588.6z"/>
<ellipse transform="matrix(0.9611 -0.2761 0.2761 0.9611 -104.1609 440.2844)" cx="1511.5" cy="590.1" rx="8.5" ry="8.3"/>
<path class="st19" d="M1721.9,588.3c-0.1-0.5-0.2-1.3-0.2-1.3s-0.2-1.1-0.3-1.8c-0.2-1.3-21.5-15.6-53.7-10.2
	c-24.3,4.1-53,19-51.1,29.4s33.2,15.6,58.2,11.2C1706.6,610,1722.1,589.6,1721.9,588.3z"/>
<path class="st12" d="M1723.2,585.9c-0.6-5-4.2-8.2-10.3-13.6c-4.8-4.2-10.3-7.6-16.2-10c-10.2-4.4-22.2-9.6-37-6.8
	c-7.1,1.4-13.9,4.3-19.9,8.4c-5.6,3.4-10.4,7.7-14.3,12.9c-3.8,5.3-6.8,11.2-8.8,17.4c-1.1,3.2-2,6.4-2.6,9.7c3-2.6,6.2-5,9.5-7.2
	c2-1.4,3.8-2.5,16.5-9.7c7.6-4.3,8.1-4.5,9-5c4.5-2,8.3-2.7,15.7-4.2c3.7-0.9,7.4-1.4,11.2-1.7c3.3-0.3,6.6-0.2,9.8,0.3
	c1.7,0.2,3.4,0.6,5.1,1l5.1,1c3.6,1.1,6.5,1.8,8.5,2.3c3.7,0.8,5.6,1,10.1,2c2.9,0.6,5.2,1.2,6.8,1.6l0.3,1.8l0.3,1.8
	c0.1,0.9-3.6,4.6-19.6,16.1c-9,6-19.3,10-30,11.5c-12.1,1.7-21.7-0.3-30.6-2.2c-9.5-2-18.7-5.1-27.5-9.2c9.1,8.1,19.6,14.5,31,18.8
	c9.8,3.6,19.9,7.3,32.9,4.6c12.3-2.6,20.3-9.5,27.5-15.7C1714.2,604.4,1724.4,595.5,1723.2,585.9z"/>
<path class="st20" d="M1649.9,589.3c-0.1-1.4-0.5-5.4,1.6-7.8c0.9-1.1,1.9-1.2,5.9-2.2c7.3-1.8,6.2-1.7,8.8-2.2
	c2.9-0.6,5.9-1,8.8-1.1c3.3-0.1,4.9-0.1,6.4,0.5c4.4,1.8,7.1,8.2,7.4,13.3c0.6,9.6-8.9,19.7-19.2,19.6
	C1658.5,609.1,1650.6,597.5,1649.9,589.3z"/>
<ellipse transform="matrix(0.2761 -0.9611 0.9611 0.2761 640.345 2031.2092)" cx="1668.6" cy="590.5" rx="8.3" ry="8.5"/>
<path class="st21" d="M1587.5,729.5c-2.2-1.2-4.5-2.3-6.9-3.4c-31.9-14.7-64.2-17.8-93.2-15.5l-2.7,16.3
	c27.5,11.7,58.7,19.4,92.8,19c2.5,0,4.9-0.1,7.3-0.2c0.8-0.9,1.5-2,2-3.1c1.2-2.6,1.7-5.4,1.6-8.3
	C1588.3,732.7,1588,731,1587.5,729.5z"/>
<path class="st21" d="M1704.6,702.6c-5.4,0.9-9.7,1.6-12.2,2c-54.4,8.6-73.1,9.9-96.2,21.5c-3.1,1.5-5.4,2.9-6.2,3.3
	c-0.6,2.7-0.6,5.6,0,8.3c0.6,2.4,1.6,4.7,3.1,6.6c2.1,0,4.1,0,6.2,0c30.8-0.4,67.6-6.6,108.6-25.5
	C1706.7,713.4,1705.7,708,1704.6,702.6z"/>
<path d="M1704.9,734.6c1.1-7.6,4.7-15.5,2.6-23.2c-0.9-3.5-3.1-7.1-6.5-8.6c-2.9-1.3-6.2-0.7-9,0.5c-3.4,1.6-6.6,3.4-9.6,5.6
	c-1.6,1.1-0.1,3.7,1.5,2.6c2.4-1.6,4.7-3.2,7.2-4.5c2.2-1.2,5-2.3,7.6-1.8c3.1,0.7,5,3.9,5.8,6.7c1,3.4,0.7,7,0,10.4
	c-0.8,3.9-1.9,7.7-2.5,11.6C1701.8,735.7,1704.7,736.5,1704.9,734.6L1704.9,734.6z"/>
<path d="M1706.4,727c-0.9-3.1-2.4-6.1-4.5-8.6c-0.6-0.6-1.6-0.6-2.1,0c-0.2,0.2-0.3,0.4-0.4,0.6c-1.2,6.3-1.8,12.7-3.1,18.9
	c-1,4.8-2.5,9.8,1.2,13.9c1.3,1.4,3.4-0.7,2.1-2.1c-3.1-3.4-0.8-8.7-0.1-12.6c1.1-5.7,1.6-11.6,2.8-17.3l-2.5,0.7
	c1.7,2.1,3,4.6,3.8,7.2C1704.1,729.7,1707,728.9,1706.4,727L1706.4,727z"/>
<path d="M1711,717.6c-0.3-5.5-1.7-11.2-5.9-15c-0.6-0.6-1.6-0.6-2.1,0c-0.4,0.4-0.5,0.9-0.4,1.4c3.6,15-1,30.2-5.2,44.5
	c-1.2,4.1-2.4,8.2-3.4,12.3c-0.5,1.9,2.4,2.7,2.9,0.8c3.7-15,9.8-29.8,10.1-45.5c0.1-4.4-0.4-8.7-1.4-13l-2.5,1.5
	c3.6,3.3,4.8,8.2,5,12.9C1708.1,719.5,1711.1,719.5,1711,717.6L1711,717.6z"/>
<path d="M1694.8,720.8c-0.2,21.5-3.4,42.9-9.5,63.5c-1.7,5.8-3.7,11.6-5.9,17.2c-0.7,1.8,2.2,2.6,2.9,0.8
	c7.8-20.3,12.7-41.6,14.6-63.2c0.5-6.1,0.8-12.2,0.9-18.3c0-0.8-0.7-1.5-1.5-1.5S1694.8,720,1694.8,720.8L1694.8,720.8z"/>
<path d="M1497.2,786.5c1.2-8.5-3.1-15.6-7-22.8c-2.1-3.5-3.7-7.2-4.7-11.2c-1.1-5.4-1.4-10.9-1.1-16.5c0.2-6.1,1-12.2,1.6-18.3
	c0.2-1.8-2.4-1.9-2.9-0.4c-2.5,6.9-4.2,14.1-4.9,21.4c0,0.8,0.7,1.5,1.5,1.5s1.5-0.7,1.5-1.5c0.7-5.1,0.8-10.3,2-15.4
	c0.3-1.5,0.8-3,1.6-4.4c0.2-0.4,0.9-1,1-1.4c0-0.1,0.3-0.1,0-0.1s-0.1-0.1,0.1,0.1s0.3,0.4,0.4,0.6c0.9,1.7,3.5,0.2,2.6-1.5
	s-2.8-3-4.7-1.7c-1.6,1.1-2.5,3.2-3.1,4.9c-2.1,5.9-2,12.5-2.8,18.7h3c0.7-7,2.3-14,4.8-20.6l-3-0.4c-1,10.7-2.5,21.4-1,32.1
	c0.6,4.3,1.9,8.4,3.9,12.2c1.8,3.7,4,7.1,5.8,10.8c1.9,4,3.2,8.4,2.6,12.8c-0.2,0.8,0.2,1.6,1,1.8s1.6-0.2,1.8-1L1497.2,786.5z"/>
<path d="M1486.5,771.3c2.8,5.8,5.8,11.6,8.6,17.5c0.8,1.7,3.4,0.2,2.6-1.5c-2.8-5.8-5.8-11.6-8.6-17.5
	C1488.3,768,1485.7,769.6,1486.5,771.3z"/>
<path d="M1492.6,714.4c-1.8-2.2-4.3-3.6-7.2-2.9c-2.5,0.7-4.5,2.7-6,4.7c-4,5.5-5,12.7-4.5,19.3c0.4,4.5,1.3,9,2.6,13.3
	c0.2,0.8,1.1,1.2,1.9,1s1.2-1,1-1.8c-2.3-8-4-17.1-1.2-25.2c0.9-2.8,2.5-5.3,4.7-7.2c0.8-0.8,1.9-1.3,3-1.4c1.5,0,2.6,1.1,3.5,2.2
	C1491.8,718,1493.9,715.9,1492.6,714.4L1492.6,714.4z"/>
<path d="M1487.9,713.6c-1.6-1.4-3.7-2.6-5.9-2.3c-2,0.3-3.7,1.3-4.9,2.9c-2.9,3.5-4.3,8.1-5.2,12.5c-0.5,2-0.7,4.1-0.7,6.2
	c0.1,1.9,3.1,1.9,3,0c0-0.7,0-1.4,0.1-2c0.1-0.8,0.2-1.5,0.3-2.3c0.3-2,0.8-4,1.5-5.9c0.6-1.9,1.4-3.6,2.4-5.3
	c0.4-0.7,0.9-1.3,1.5-1.9l0.4-0.4c0.2-0.1-0.1,0,0.2-0.2l0.4-0.3l0.2-0.1c0.4-0.2-0.3,0.1,0.1,0l0.6-0.2h0.2c-0.2,0-0.1,0,0,0
	c0.2,0,0.4,0,0.6,0s-0.2,0,0,0l0.3,0.1c0.9,0.3,1.8,0.7,2.5,1.4C1487.2,717,1489.4,714.9,1487.9,713.6L1487.9,713.6z"/>
<path d="M1472.7,730.8c5,11.2,9.9,22.3,14.5,33.6l2.5-1.5c-0.6-0.8-0.9-1.8-1-2.9c-0.2-1.1-0.5-2.2-1-3.2c-0.6-1.1-1.3-2-1.9-3
	c-0.6-1.2-1.1-2.4-1.4-3.7c-0.6-2.6-1-5.2-1.2-7.9c-0.3-3-0.6-5.9-0.8-8.9c-0.2-1.9-3.2-1.9-3,0c0.3,3.2,0.6,6.4,0.9,9.6
	c0.2,2.8,0.6,5.6,1.3,8.4c0.4,1.2,0.8,2.4,1.4,3.6c0.6,1.2,1.5,2.2,2.1,3.4c1.1,2.2,0.7,4.8,2.5,6.7c1,1,3.1,0,2.5-1.5
	c-4.7-11.6-9.7-23-14.8-34.4C1474.5,727.5,1471.9,729,1472.7,730.8L1472.7,730.8z"/>
<path d="M1494,778c3.7,9.9,8.2,19.5,13.4,28.7c0.5,0.7,1.4,0.9,2.1,0.5c0.5-0.3,0.8-1,0.7-1.6c-3.2-11.1-7.9-21.8-14-31.7
	c-1-1.6-3.6-0.1-2.6,1.5c6,9.7,10.6,20.1,13.7,31l2.7-1.2c-5.1-9-9.5-18.3-13.1-28C1496.3,775.4,1493.4,776.2,1494,778L1494,778z"/>
<path d="M1704.9,701.1c0.2-0.7,0.1-1.5-0.3-2.1s-1-1.1-1.7-1.3s-1.3-0.2-2,0c-0.6,0.2-1.2,0.4-1.7,0.7c-0.7,0.4-0.9,1.3-0.5,2
	s1.3,0.9,2,0.5c0.3-0.1,0.5-0.3,0.8-0.4l-0.3,0.2c0.3-0.1,0.6-0.2,0.9-0.3h-0.4c0.2,0,0.4,0,0.6,0h-0.4c0.1,0,0.3,0.1,0.4,0.1
	l-0.4-0.2c0.1,0.1,0.2,0.1,0.3,0.2l-0.3-0.2c0.1,0.1,0.2,0.2,0.3,0.3l-0.2-0.3c0.1,0.1,0.1,0.2,0.2,0.3l-0.2-0.4
	c0,0.1,0.1,0.2,0.1,0.3v-0.4c0,0.1,0,0.2,0,0.3V700c0,0.1,0,0.1,0,0.2c-0.1,0.4,0,0.8,0.2,1.2c0.4,0.7,1.3,1,2.1,0.5
	C1704.6,701.8,1704.8,701.5,1704.9,701.1L1704.9,701.1z"/>
<path d="M1708.1,713.2c-5.1,19.7-10.7,39.2-16.9,58.6c-0.6,1.8,2.3,2.6,2.9,0.8c6.1-19.3,11.8-38.9,16.9-58.5
	c0.2-0.8-0.3-1.6-1.1-1.8C1709.1,712,1708.3,712.4,1708.1,713.2z"/>
<path d="M1691.8,768.7c-1.4,4.4-3.2,8.6-4.8,12.9l-2.5,6.5l-1.2,3.3l-0.6,1.6c-0.1,0.2-0.5,1.4-0.4,1.4l1.2-0.2l-0.2-0.1
	c-1.8-0.7-2.6,2.2-0.8,2.9c2.4,1,3.3-3.4,3.8-4.9l2.9-7.7c1.9-5,4-9.9,5.6-15C1695.3,767.7,1692.4,766.9,1691.8,768.7L1691.8,768.7z
	"/>
<path d="M1685.2,706.8c0.8,0,1.5-0.7,1.5-1.5s-0.7-1.5-1.5-1.5s-1.5,0.7-1.5,1.5S1684.4,706.8,1685.2,706.8z"/>
<path d="M1689.3,700.3l-6.1,2.3l1.2,2.7c3.6-1.8,7.4-3.2,11.3-4.2c1.7-0.5,3.5-0.9,5.3-1.2c2-0.2,3,0.5,3.7,2.4s3.6,1,2.9-0.8
	c-0.8-2.1-1.9-3.9-4.2-4.5c-2.1-0.5-4.4,0.1-6.5,0.6c-4.8,1.2-9.5,2.8-14,5c-1.5,0.7-0.4,3.3,1.2,2.7l6.1-2.3
	C1691.9,702.5,1691.1,699.5,1689.3,700.3L1689.3,700.3z"/>
<path d="M1703.2,723.8c0.8,0,1.5-0.7,1.5-1.5s-0.7-1.5-1.5-1.5s-1.5,0.7-1.5,1.5S1702.4,723.8,1703.2,723.8z"/>
<path class="st14" d="M1586.7,985c-0.3,4.2,0,8.8,2.4,12.5c1.9,2.9,5.2,4.4,8.7,4c3.9-0.7,5.6-4.5,6.4-7.9c1.1-4.7,1.5-9.4,1.1-14.2
	c-0.3-5.6-1.6-11-3.7-16.2c-0.2-0.4-0.9-0.2-0.7,0.2c3.2,8,4.4,16.6,3.4,25.1c-0.4,3.7-1,8.7-4.2,11.1s-7.3,0.9-9.7-1.7
	c-3.1-3.5-3.4-8.6-3-13C1587.5,984.5,1586.8,984.5,1586.7,985L1586.7,985z"/>
<path class="st11" d="M1569.2,1051.9c-77.7-15.3-134.7-25.8-150.6-28.6c-6.9-1.2-14.1-0.7-20.8,1.2c-8.7,2.5-14.4,8.2-18.7,13.9
	c-8.5,11.3-13.6,23.9-14.8,36.6c-0.1,1.1-0.1,2.4,1,3.2c1.1,0.6,2.3,1,3.6,1c18.7,2.3,37.6,4.6,56.7,4.1c26.2-0.7,24.3-3.2,44-3.5
	c11-0.2,20.9-0.3,34.3,1c13.7,1.4,39.6,5.2,50.1-1.5c1.6-1,3-2.2,4.4-3.4c3.8-3.3,6.9-7.4,9.2-11.8"/>
<path class="st11" d="M1622,1059c14.7-17.2,124.8-31,149.4-35.6c7.1-1.2,14.4-0.8,21.2,1.3c8.9,2.7,14.7,8.8,19,14.9
	c8.7,12.2,13.8,25.6,15,39.3c0.1,1.2,0.1,2.5-1,3.4c-1.1,0.6-2.4,1-3.6,1.1c-19.1,2.5-38.4,4.9-57.8,4.4
	c-30.4-0.8-25.1-2.8-44.9-3.7c-28.8-1.3-83.6-1.6-87.1-0.5c-0.5,0.2-1,0.2-1.5,0c-1.5-0.6-2-3.1-2.2-3.8c-1.5-6.5-9.4-8.5-9.6-14.2
	C1618.9,1062.6,1620.9,1060.3,1622,1059z"/>
<path class="st22" d="M1523.7,1083.3l-21.3-3c3.8-13.8,3.8-28.4,0-42.2l22.8,4.5C1521.8,1056,1521.3,1069.8,1523.7,1083.3
	L1523.7,1083.3z"/>
<path class="st22" d="M1655.2,1085.2l21.3-3c-3.8-13.8-3.8-28.4,0-42.2l-22.8,4.5C1657.1,1057.8,1657.6,1071.7,1655.2,1085.2
	L1655.2,1085.2z"/>
<path d="M1478.9,723.7c0,5.2-0.5,10.4-1.6,15.5h2.9c-0.7-3.1-0.9-6.4-0.6-9.6c0.2-1.5,0.4-3,0.8-4.5c0.2-0.8,0.4-1.6,0.7-2.4
	c0.1-0.3,0.3-0.7,0.4-1l0.2-0.3c0.2-0.2,0.1-0.2-0.2,0c1.3,0.3,2.7-1.5,1.5-2.5c-2.4-2-5.6-0.8-7,1.8c-1.6,2.8-1.2,6.3-2.7,9.2
	l2.7,0.4c-0.5-3.2,0.7-6.4,3.2-8.5c2.6-2.3,6.1-3.2,9.4-4.1c0.8-0.3,1.2-1.1,1-1.9c-0.2-0.7-1-1.2-1.7-1c-4,1.1-8.2,2.3-11.2,5.4
	c-2.9,2.8-4.1,6.9-3.4,10.9c0.2,0.8,1.1,1.3,1.9,1c0.4-0.1,0.7-0.3,0.9-0.7c1.2-2.1,1.3-4.4,1.9-6.7c0.2-1,0.6-2,1.2-2.9
	c0.4-0.5,1.4-1.2,2.1-0.7l1.5-2.5c-1.9-0.5-3.1,1.1-3.8,2.7c-0.8,2-1.4,4.1-1.7,6.2c-0.7,4.2-0.5,8.5,0.4,12.7
	c0.2,0.8,1.1,1.2,1.9,1c0.5-0.1,0.9-0.5,1-1c1.1-5.4,1.6-10.8,1.7-16.3c0-0.8-0.7-1.5-1.5-1.5S1479,722.9,1478.9,723.7L1478.9,723.7
	z"/>
<path d="M1488.6,712c-0.2-0.3-0.4-0.6-0.6-0.8l-0.7,2.5l0.3-0.1c0.8-0.2,1.3-1.1,1-1.9c-0.2-0.6-0.8-1.1-1.4-1.1
	c-1.5,0-3,0.1-4.4,0.4c-1.4,0.4-2.6,1.4-3.2,2.7c-1.4,2.6-2.3,5.3-2.8,8.2c0,0.8,0.7,1.5,1.5,1.5s1.5-0.7,1.5-1.5
	c0.4-2.2,1.2-4.4,2.2-6.4c0.1-0.2,0.2-0.5,0.3-0.7c0.1-0.1,0.1-0.2,0.2-0.3c0-0.1,0.2-0.3,0.1-0.1l0.3-0.3c0.1-0.1,0.1-0.1,0,0
	l0.1-0.1c0.5-0.2-0.1,0,0.2-0.1c0.1,0,0.3-0.1,0.4-0.1c0.5-0.1-0.2,0,0.2,0h0.3l1-0.1c0.7,0,1.3-0.1,2-0.1l-0.4-3l-0.3,0.1
	c-0.8,0.2-1.3,1.1-1,1.9c0.1,0.2,0.2,0.5,0.4,0.6c0.2,0.2,0-0.1,0.1,0.2c0.4,0.7,1.3,1,2.1,0.5C1488.7,713.7,1489,712.8,1488.6,712
	L1488.6,712z"/>
<path d="M1471.7,732.2c0,1.5,0.3,2.9,1,4.3c0.6,1.1,1.1,2.3,1.3,3.6l2.8-0.8c-0.7-1-1.3-2.1-1.8-3.3c-0.2-0.5-0.4-1-0.6-1.6
	c-0.1-0.3-0.2-0.6-0.3-0.9c-0.1-0.2,0-0.2-0.1-0.1h-2.6c0.4,0.6,0.7,1.2,1.1,1.8c0.3,0.3,0.4,0.7,0.6,1.2c0,0.3,0,0.7-0.1,1
	c0,0.4,0,0.8,0.1,1.2c0.1,0.6,0.3,1.2,0.5,1.8c0.4,1.3,0.8,2.5,1.2,3.8s0.6,2.7,2,3.2c0.8,0.2,1.6-0.2,1.8-1c0.2-0.8-0.2-1.6-1-1.8
	h-0.1l0.7,0.4c0.2,0.2-0.1-0.4-0.1-0.4l-0.2-0.8l-0.5-1.8c-0.3-1.1-0.7-2.3-1-3.4s0-2.2-0.4-3.2c-0.5-1.1-1.1-2.2-1.8-3.1
	c-0.4-0.7-1.4-0.9-2.1-0.5c-0.2,0.1-0.4,0.3-0.5,0.5c-0.8,1.4,0,3.2,0.5,4.6c0.6,1.5,1.3,2.9,2.2,4.3c0.7,1.2,2.9,0.8,2.8-0.8
	c-0.2-1.5-0.7-2.9-1.3-4.3c-0.6-1.1-1-2.3-1-3.5c0.1-1.9-2.9-1.9-3,0L1471.7,732.2z"/>
<path d="M1476.1,746.4c0.8,2.1,1.7,4.1,2.6,6.2c0.6,1.8,1.6,3.4,2.9,4.7c0.6,0.6,1.6,0.5,2.1-0.1c0.3-0.4,0.5-0.9,0.4-1.4l-2.2-8.5
	c-0.2-0.8-1-1.3-1.8-1.1s-1.3,1-1.1,1.8c0,0.1,0,0.1,0,0.1c0.3,1.4,0.5,2.8,0.6,4.3l2.8-0.8l-3.9-6.5c-0.4-0.6-1.2-0.9-1.9-0.6
	c-0.7,0.3-1.1,1-0.9,1.8c1.1,2.7,2.2,5.3,3.5,7.9c0.6,1.2,1.2,2.5,1.9,3.7c0.6,1.2,1.3,2.4,2.1,3.5c0.4,0.7,1.3,0.9,2,0.5
	s1-1.3,0.5-2c-0.8-1.1-1.4-2.2-2-3.4s-1.2-2.4-1.8-3.6c-1.2-2.4-2.3-4.9-3.3-7.4l-2.7,1.2l3.9,6.5c0.5,0.7,1.4,0.9,2.1,0.5
	c0.4-0.3,0.7-0.7,0.7-1.2c-0.1-1.7-0.4-3.4-0.7-5.1l-2.9,0.8l2.2,8.5l2.5-1.5c-1.3-1-1.8-2.6-2.4-4c-0.8-1.8-1.5-3.7-2.3-5.5
	c-0.3-0.8-1.1-1.2-1.8-1C1476.4,744.9,1475.9,745.7,1476.1,746.4L1476.1,746.4z"/>
<path d="M1482.2,758.8c0.3,3.5,2.3,6.5,3.8,9.6c0.8,1.6,1.6,3.3,2.3,4.9c0.6,1.6,1.4,3.1,2.4,4.5c0.6,0.6,1.5,0.6,2.1,0.1
	c0.6-0.6,0.6-1.5,0.1-2.1c0,0,0-0.1-0.1-0.1c-0.8-1.3-1.5-2.7-2-4.2c-0.7-1.5-1.3-2.9-2-4.3s-1.4-2.8-2.1-4.2
	c-0.8-1.3-1.2-2.7-1.4-4.2C1485.2,756.9,1482.2,756.9,1482.2,758.8L1482.2,758.8z"/>
<path d="M1495.7,779.7c-0.6-2.5-1.4-4.9-2.4-7.2c-0.5-1.1-1-2.2-1.6-3.2c-0.6-1.2-1.2-2.4-2.5-2.8c-0.8-0.2-1.6,0.2-1.8,1
	c-0.2,0.8,0.3,1.6,1.1,1.8c-0.3-0.2-0.3-0.2-0.1,0c0-0.1,0,0,0.1,0.1s0.3,0.5,0.4,0.7c0.2,0.4,0.5,0.9,0.7,1.3
	c0.5,0.9,0.9,1.8,1.3,2.7c0.8,2,1.5,4.1,2,6.2c0.2,0.8,1,1.3,1.8,1.1s1.3-1,1.1-1.8C1495.7,779.8,1495.7,779.8,1495.7,779.7
	L1495.7,779.7z"/>
<path d="M1489.2,769.8l-1.6-4.1c-0.6-1.3-1-2.6-1.4-4c-0.2-0.8-1-1.3-1.8-1.1s-1.3,1-1.1,1.8v0.1c0.4,1.4,0.8,2.7,1.4,4
	c0.5,1.4,1.1,2.8,1.6,4.1c0.3,0.8,1.1,1.2,1.8,1C1489,771.4,1489.4,770.5,1489.2,769.8L1489.2,769.8z"/>
<path d="M1480.7,757.1c0.8,2.9,1.9,5.7,3.1,8.5c0.6,1.2,1.1,2.5,1.4,3.8c0.3,1.4,1,3.2,2.8,3c0.8,0,1.5-0.7,1.5-1.5
	s-0.7-1.5-1.5-1.5c0.4,0,0.4,0.5,0.3-0.1c0-0.2-0.1-0.4-0.1-0.7c-0.1-0.6-0.3-1.1-0.5-1.7c-0.4-1.2-1-2.3-1.5-3.5
	c-1-2.3-1.8-4.7-2.5-7.1c-0.3-0.8-1.1-1.2-1.9-1C1480.9,755.6,1480.5,756.3,1480.7,757.1L1480.7,757.1z"/>
<path d="M1486.2,771.6c1.3,2.9,2.5,5.9,3.8,8.8c0.5,1.3,1.1,2.5,1.8,3.8c0.8,1.1,1.4,2.4,1.9,3.7l2.7-1.2c-2.2-3.8-5-7.8-5.2-12.3
	l-2.9,0.4c1,3.6,2.3,7.2,3.7,10.7c1.4,3,3.2,6.9,6.5,8.2c1.3,0.5,2.2-1.2,1.7-2.2c-0.4-1.3-0.8-2.6-1-3.9c-0.4-1.3-1-2.6-1.6-3.8
	c-0.8-1.7-3.4-0.2-2.6,1.5c0.6,1.2,1.1,2.5,1.5,3.8c0.3,1.3,0.6,2.6,1.1,3.9l1.7-2.2c-1.3-0.5-2.1-2.1-2.8-3.2
	c-0.8-1.4-1.6-2.8-2.2-4.3c-1.2-3-2.3-6.1-3.1-9.3c-0.5-1.6-3-1.3-3,0.4c0.2,5.1,3.1,9.5,5.6,13.8c0.4,0.7,1.3,0.9,2.1,0.5
	c0.6-0.3,0.9-1,0.7-1.7c-0.5-1.3-1.1-2.6-1.9-3.8c-0.8-1.3-1.4-2.6-2-4c-1.3-3.1-2.6-6.1-3.9-9.2c-0.4-0.7-1.3-1-2-0.6s-1,1.3-0.6,2
	C1486.2,771.5,1486.2,771.6,1486.2,771.6L1486.2,771.6z"/>
<path d="M1495.4,791.2c1.6,2.8,3.3,5.5,4.8,8.4c0.7,1.4,1.4,2.8,2,4.2s1.2,2.6,2.7,3.2c0.8,0.2,1.6-0.3,1.8-1c0.2-0.8-0.2-1.6-1-1.8
	c-0.3-0.1-0.5-0.8-0.6-1c-0.3-0.7-0.6-1.3-0.9-2c-0.6-1.3-1.2-2.6-1.9-3.8c-1.4-2.6-2.9-5.1-4.4-7.6c-0.4-0.7-1.4-0.9-2.1-0.5
	C1495.3,789.6,1495,790.4,1495.4,791.2L1495.4,791.2z"/>
<path d="M1503.1,804.8c0,1.2,0.3,2.4,0.8,3.5s0.9,2.1,1.4,3.2s0.9,2.1,1.4,3.2c0.4,1,1,1.8,1.8,2.4c0.7,0.4,1.6,0.2,2.1-0.6
	c0.2-0.3,0.2-0.7,0.1-1.1c-0.8-2.1-1.4-4.3-1.7-6.5l-2.9,0.8l4.4,10.7c0.3,0.8,1.1,1.2,1.8,1c0.8-0.2,1.2-1.1,1-1.8l-4.4-10.7
	c-0.2-0.8-1.1-1.2-1.9-1s-1.2,1-1,1.8c0.3,2.2,0.9,4.4,1.7,6.5l2.2-1.7c-0.5-0.3-0.8-1.3-1-1.9l-1.2-2.6l-1.1-2.6
	c-0.4-0.8-0.7-1.6-0.7-2.5c0-0.8-0.7-1.5-1.5-1.5C1503.7,803.4,1503,804,1503.1,804.8L1503.1,804.8z"/>
<path d="M1511.2,820.7c0.6,2.2,1.9,4.2,3,6.3s2.1,4.3,3.1,6.5c0.4,0.7,1.3,0.9,2,0.5s0.9-1.3,0.5-2c-1-2.1-2-4.2-3-6.3
	c-1-1.9-2.2-3.7-2.8-5.8C1513.7,818.1,1510.8,818.9,1511.2,820.7L1511.2,820.7z"/>
<path d="M1509.9,806l0.3,0.3c0.1,0.2,0.1,0.2,0.1,0.1s0,0.4,0,0.1l-2.9,0.4c0.5,1.1,0.9,2.2,1.2,3.4c0.2,0.6,0.3,1.1,0.5,1.7
	c0.1,0.6,0.3,1.3,0.6,1.8c0.5,0.7,1.4,0.9,2.1,0.4c0.6-0.4,0.8-1.2,0.5-1.9c0-0.1-0.1-0.1-0.1-0.2c0.1,0.2,0.1,0.2,0,0.1l-0.1-0.3
	c-0.1-0.3-0.1-0.5-0.2-0.8c-0.1-0.6-0.3-1.2-0.5-1.7c-0.3-1.1-0.7-2.2-1.2-3.3c-0.2-0.8-1.1-1.3-1.9-1c-0.6,0.2-1.1,0.8-1.1,1.4
	c0,0.8,0.3,1.6,1,2c0.3,0.2,0.8,0.3,1.2,0.2c0.4-0.1,0.7-0.4,0.9-0.7C1510.7,807.3,1510.4,806.4,1509.9,806L1509.9,806z"/>
<path d="M1667.7,828c-0.5,1.2-1.1,2.3-1.9,3.3c-0.7,1.2-1.4,2.4-2.1,3.7c-1.3,2.4-2.6,4.9-3.8,7.5c-0.4,0.7-0.1,1.6,0.5,2
	c0.7,0.4,1.6,0.1,2-0.5c1.2-2.6,2.5-5.2,3.9-7.7c0.7-1.2,1.4-2.5,2.1-3.7c0.9-1.2,1.5-2.4,2-3.8
	C1670.9,826.9,1668.1,826.1,1667.7,828L1667.7,828z"/>
<path d="M1678.6,808.9c-1,1.6-1.8,3.3-2.4,5.1c-0.7,1.7-1.7,3.3-2.8,4.9c-0.4,0.7-0.2,1.6,0.5,2.1c0.7,0.4,1.6,0.1,2-0.5
	c1.1-1.6,2.1-3.3,2.9-5.2c0.5-1.7,1.3-3.3,2.3-4.8c0.4-0.7,0.1-1.6-0.5-2C1679.9,808,1679,808.2,1678.6,808.9L1678.6,808.9z"/>
<path d="M1679.9,809.1c0.2-0.8,0.5-1.6,1-2.3c0.4-0.9,0.9-1.8,1.3-2.7c0.9-1.9,1.7-3.7,2.5-5.6l-2.9-0.8c-0.4,1.4-0.9,2.7-1.6,3.9
	l-1.9,4.3l2.7,0.3c-0.2-0.8,0.4-1.8,0.7-2.4l1.2-3.2l2.4-6.2l-2.9-0.8c-0.3,0.9-0.7,1.8-1.2,2.7c-0.5,1.1-0.8,2.3-0.8,3.5
	c0,0.8,0.7,1.5,1.5,1.5s1.5-0.7,1.5-1.5c0.1-0.9,0.3-1.9,0.8-2.7s1-1.8,1.2-2.7c0.2-0.8-0.4-1.6-1.2-1.8c-0.7-0.1-1.4,0.3-1.7,1
	l-2.6,6.7l-1.3,3.3c-0.5,1-0.6,2.2-0.4,3.3c0.2,0.8,1.1,1.3,1.9,1c0.4-0.1,0.7-0.3,0.9-0.7l2.1-4.6c0.8-1.4,1.4-2.9,1.8-4.4
	c0.2-0.8-0.2-1.6-1-1.9c-0.8-0.2-1.6,0.2-1.9,1v0.1c-0.8,1.9-1.7,3.8-2.5,5.7c-0.9,1.8-2.1,3.7-2.3,5.8c0,0.8,0.7,1.5,1.5,1.5
	C1679.2,810.6,1679.8,809.9,1679.9,809.1L1679.9,809.1z"/>
<path d="M1683.7,803.4c3.3-5.7,4.4-12.2,6.7-18.3l-2.9-0.4c0.1,2.5-1.2,5.1-1.9,7.5c-0.8,2.6-1.5,5.2-2.2,7.8l2.9,0.8
	c1.2-6.7,5.4-12.5,5.7-19.5c0.1-1.9-2.9-1.9-3,0c-0.3,6.6-4.5,12.2-5.6,18.7c-0.3,1.9,2.4,2.7,2.9,0.8c0.8-2.8,1.5-5.5,2.4-8.2
	c0.8-2.5,2-5.2,1.9-7.9c0.1-0.8-0.5-1.6-1.3-1.7c-0.8-0.1-1.6,0.5-1.7,1.3c-2.2,5.8-3.2,12.2-6.4,17.6c-0.4,0.7-0.1,1.6,0.6,2
	C1682.3,804.3,1683.2,804,1683.7,803.4L1683.7,803.4z"/>
<path d="M1691.5,784l3-9.5c0.8-3.1,1.9-6.2,3.1-9.2l-2.8-0.8c-0.3,1.8-0.7,3.5-1.4,5.2c-0.5,1.9-1.1,3.8-1.7,5.6s-1.1,3.6-1.7,5.4
	c-0.3,0.9-0.6,1.8-0.9,2.7l-0.4,1.2c-0.1,0.3-0.2,0.5-0.3,0.8s-0.1,0.3,0.3,0c-1.9-0.2-1.9,2.8,0,3c2.3,0.2,2.8-2.7,3.3-4.3
	c0.8-2.2,1.5-4.4,2.2-6.6c0.7-2.2,1.4-4.4,2-6.7c0.7-2.1,1.3-4.2,1.6-6.4c0.1-1.4-2.2-2.1-2.8-0.8c-1.3,3.1-2.3,6.2-3.2,9.5
	l-3.1,9.9C1688.1,785,1691,785.8,1691.5,784L1691.5,784z"/>
<path d="M1695.2,748.7c-0.1,6-0.9,12-2.6,17.8h2.9c-0.1-0.7,0-1.4,0.2-2c0.2-0.8,0.5-1.6,0.8-2.4c0.6-1.6,1.3-3,0.8-4.7
	c-0.3-0.8-1.1-1.2-1.9-1c-0.5,0.1-0.8,0.5-1,1s-0.4,1.1-0.7,1.6c-0.8,1.7,1.8,3.2,2.6,1.5c0.4-0.8,0.7-1.5,1-2.3h-2.9
	c0.1,0.7-0.1,1.4-0.4,2c-0.3,0.8-0.6,1.5-0.8,2.3c-0.6,1.5-0.8,3.1-0.6,4.7c0.3,0.8,1.1,1.2,1.9,1c0.5-0.1,0.8-0.5,1-1
	c1.7-6.1,2.6-12.3,2.7-18.6c0-0.8-0.7-1.5-1.5-1.5S1695.2,747.9,1695.2,748.7L1695.2,748.7z"/>
<path d="M1697.4,767.7c1.9-5.8,3.2-11.9,3.8-18c0-0.8-0.7-1.5-1.5-1.5s-1.5,0.7-1.5,1.5c-0.6,5.9-1.8,11.6-3.7,17.2
	C1693.9,768.8,1696.8,769.6,1697.4,767.7L1697.4,767.7z"/>
<path d="M1700.7,723.9c-0.4,4-1.1,8-1.8,11.9c-0.6,3.8-0.9,7.9-2.2,11.5l3,0.4c-0.6-5.2,0.3-10.3,1.1-15.5c0.4-2.5,0.8-4.9,0.9-7.4
	c0.2-2.3,0.1-4.6-1.9-6c-0.7-0.4-1.6-0.2-2.1,0.6c-0.1,0.2-0.2,0.5-0.2,0.7c0.1,2-1.1,4.1-1.4,6.1c-0.3,2.2-0.4,4.4-0.4,6.7
	c0,0.8,0.7,1.5,1.5,1.5s1.5-0.7,1.5-1.5c-0.1-2.3,0.1-4.5,0.4-6.8c0.4-2,1.5-3.9,1.4-6l-2.2,1.3c0.7,0.5,0.5,2,0.4,2.7
	c-0.1,1.2-0.2,2.3-0.3,3.5c-0.3,2.2-0.7,4.4-1,6.6c-0.9,4.4-1.1,9-0.8,13.5c0,0.8,0.7,1.5,1.6,1.5c0.6,0,1.2-0.4,1.4-1.1
	c0.6-1.9,1-3.9,1.2-5.9l1-6.1c0.7-4.1,1.4-8.1,1.8-12.2C1703.9,722,1700.9,722,1700.7,723.9L1700.7,723.9z"/>
<path d="M1699.8,758.6c1.3-3.2,2.2-6.6,3.2-9.9c1.1-3.4,2-6.9,2.7-10.5c0.3-1.9-2.5-2.7-2.9-0.8c-0.7,3.5-1.6,7-2.7,10.5
	c-1,3.3-1.9,6.7-3.2,9.9c-0.2,0.8,0.2,1.6,1,1.9C1698.7,759.9,1699.6,759.4,1699.8,758.6L1699.8,758.6z"/>
<path d="M1704.8,742.9l4.8-16.8c0.2-0.8-0.3-1.6-1.1-1.8c-0.8-0.2-1.6,0.3-1.8,1l-4.9,16.8C1701.4,744,1704.3,744.8,1704.8,742.9z"
	/>
<path d="M1709.6,726.3c0.8-2.7,1.3-5.5,1.4-8.2l-2.8,0.8c-0.2-0.3,0.1,0.3,0,0.1s0-0.1,0,0.1c0,0.1,0,0.2,0,0.3c0,0.4,0.1-0.2,0,0.2
	l-0.1,0.4c-0.2,0.8-0.3,1.5-0.5,2.2c-0.4,1.5-0.8,2.9-1.2,4.4c-0.2,0.8,0.3,1.6,1.1,1.8c0.8,0.2,1.6-0.2,1.8-1
	c0.5-1.6,0.9-3.2,1.3-4.9s1-3.5,0.2-5.2c-0.7-1.4-2.8-0.7-2.8,0.8c-0.1,2.5-0.5,5-1.3,7.5c-0.2,0.8,0.2,1.6,1.1,1.8
	C1708.5,727.6,1709.3,727.2,1709.6,726.3L1709.6,726.3L1709.6,726.3z"/>
<path d="M1704.9,703.6c1.2,1.6,1.5,3.7,1.9,5.6c0.4,2.1,0.8,4.2,1,6.3c0,0.8,0.7,1.5,1.5,1.5s1.5-0.7,1.5-1.5
	c-0.2-2.4-0.6-4.8-1.1-7.2c-0.5-2.1-0.9-4.5-2.2-6.3c-0.4-0.7-1.3-0.9-2.1-0.5C1704.7,702,1704.5,702.9,1704.9,703.6L1704.9,703.6z"
	/>
<path d="M1704.8,702.1c2.4,4.8,3.4,10.2,3.1,15.6c-0.1,1.9,2.9,1.9,3,0c0.3-5.9-0.9-11.8-3.5-17.1
	C1706.5,698.9,1703.9,700.4,1704.8,702.1z"/>
<path d="M1705.4,703.4c0.2-2-2.2-2.4-3.6-2.8c-1.8-0.5-3.7-0.7-5.6-0.6c-1.7,0.3-3.4,0.9-4.9,1.8c-1.6,0.8-3.2,1.4-4.9,1.9
	c-0.8,0.3-1.2,1.1-1,1.9c0.2,0.7,1,1.2,1.7,1c1.4-0.4,2.8-0.9,4.1-1.4c1.2-0.5,2.4-1.3,3.7-1.8c1.3-0.5,2.8-0.6,4.2-0.3
	c0.7,0.1,1.5,0.3,2.2,0.5c0.4,0.1,1.3,0.2,1.5,0.5l-0.4-0.7l0,0C1702.3,705.3,1705.3,705.3,1705.4,703.4L1705.4,703.4z"/>
<path d="M1684.7,704.1c-1.7-0.4-3.2,0.3-4.8,1l-4.5,2.1l1.5,2.6l7.9-4.2c0.7-0.4,0.9-1.4,0.5-2.1c-0.1-0.2-0.3-0.4-0.5-0.5
	c-1.5-0.8-2.9,0.2-4.2,0.8s-2.7,1.2-4,1.8c-1.3,0.5-2.4,1.2-3.6,2.1c-1,0.8-1.9,1.9-2.5,3.1c-0.4,0.7-0.1,1.6,0.5,2
	c0.7,0.4,1.6,0.1,2-0.5c0.4-0.9,1-1.7,1.8-2.3c0.9-0.6,1.8-1.2,2.8-1.6c1.1-0.5,2.2-1,3.3-1.5l1.6-0.7c0.3-0.1,0.6-0.3,0.9-0.4
	l0.2-0.1c0.3-0.1,0.2-0.1-0.3-0.1V703l-7.9,4.2c-0.7,0.4-0.9,1.4-0.5,2.1c0.4,0.7,1.3,0.9,2,0.5l3.8-1.8c0.9-0.4,2.1-1.2,3.1-1
	C1685.7,707.5,1686.5,704.6,1684.7,704.1L1684.7,704.1z"/>
<path class="st11" d="M1672.6,707.3c6.8-2.8,13.6-5.6,20.8-7c3.5-0.8,7.1-1.1,10.6-0.9c3.2,0.4,4.9,3.3,6.5,5.8
	c1,1.6,3.6,0.1,2.6-1.5c-1.7-2.7-3.6-5.7-6.7-6.8c-1.9-0.6-3.9-0.7-5.8-0.5c-1.9,0.1-3.8,0.3-5.7,0.6c-8,1.3-15.6,4.4-23,7.5
	C1670,705.2,1670.8,708.1,1672.6,707.3L1672.6,707.3z"/>
<path class="st11" d="M1672.4,707.2c3.7-0.1,7.2-1.9,10.7-2.9c3.5-1.1,7.1-2.1,10.8-2.8c1.8-0.3,3.6-0.6,5.4-0.8
	c1.8-0.3,3.7-0.3,5.5-0.1c3.2,0.5,5.6,3.3,7.6,5.6c1.3,1.4,3.4-0.7,2.1-2.1c-2.2-2.4-4.5-4.9-7.7-6c-3.5-1.2-7.9-0.4-11.5,0.2
	c-3.9,0.6-7.7,1.5-11.5,2.7c-1.9,0.6-3.8,1.2-5.7,1.8c-1.9,0.8-3.8,1.3-5.8,1.5C1670.5,704.3,1670.5,707.3,1672.4,707.2
	L1672.4,707.2z"/>
<path class="st13" d="M1737,491.5c-6.3-1.5-45.9-11.3-54.4-8c-2.4,0.9-5.5,2.2-5.5,2.2c-4.4,1.8-7.9,3.2-9.9,4.1
	c-7.6,3.3-12.7,5.7-17.5,7.8c-4.6,2-11.3,5-19.8,8.2c-1.9,2.4-2.3,5.6-1.2,8.5c1.2,2.6,3.6,4.4,6.4,4.8c8.4-3.6,20.9-9.2,36-17
	c8.4-4.4,10.5-5.7,14.1-7.2c10.2-4.4,26-7.4,49.8-0.6L1737,491.5z"/>
<path class="st13" d="M1449.8,491.3c6.3-1.5,45.9-11.3,54.4-8c2.4,0.9,5.5,2.2,5.5,2.2c4.4,1.8,7.9,3.2,9.9,4.1
	c7.5,3.2,12.7,5.7,17.5,7.8c4.6,2,11.3,5,19.8,8.2c1.8,2.4,2.3,5.6,1.1,8.4c-1.2,2.6-3.6,4.4-6.4,4.8c-8.4-3.6-20.9-9.2-36-17
	c-8.4-4.3-10.5-5.7-14.1-7.2c-10.2-4.4-26.1-7.4-49.8-0.6L1449.8,491.3z"/>
</svg>
