<?xml version="1.0" encoding="utf-8"?>
<!-- Generator: Adobe Illustrator 26.0.1, SVG Export Plug-In . SVG Version: 6.00 Build 0)  -->
<svg version="1.1" id="Layer_1" xmlns="http://www.w3.org/2000/svg" xmlns:xlink="http://www.w3.org/1999/xlink" x="0px" y="0px"
	 viewBox="0 0 1920 1080" style="enable-background:new 0 0 1920 1080;" xml:space="preserve">
<style type="text/css">
	.st0{fill:#42210B;}
	.st1{fill:#FFEEC3;}
	.st2{fill:#FFD5A5;}
	.st3{fill:#FFD071;}
	.st4{fill:none;stroke:#FFEEC3;stroke-width:4;stroke-miterlimit:10;}
	.st5{fill:#FFD07C;stroke:#FFD07C;stroke-width:4;stroke-miterlimit:10;}
	.st6{fill:none;stroke:#FFD071;stroke-width:5;stroke-miterlimit:10;}
	.st7{fill:none;}
	.st8{font-family:'ArialMT';}
	.st9{font-size:12px;}
	.st10{fill:#007441;}
	.st11{font-family:'Synthemesc-Regular';}
	.st12{font-size:12.521px;}
	.st13{letter-spacing:12;}
	.st14{fill:#D4D4D4;}
	.st15{fill:#7DA23F;}
	.st16{fill:#CCCCCC;stroke:#999999;stroke-width:0.5;stroke-miterlimit:10;}
	.st17{fill:#3F000A;}
	.st18{fill:#FFB300;}
	.st19{opacity:0.67;fill:#FF4815;enable-background:new    ;}
	.st20{opacity:0.82;fill:#FF4815;enable-background:new    ;}
	.st21{opacity:0.3;fill:#FF4815;enable-background:new    ;}
	.st22{opacity:0.5;fill:#FF4815;enable-background:new    ;}
	.st23{fill:#FF4815;}
	.st24{opacity:0.77;fill:#FF4815;enable-background:new    ;}
	.st25{opacity:0.72;fill:#FF4815;enable-background:new    ;}
</style>
<g>
	<path d="M1919-3.3v1078H1V-3.3H1919 M1920-4.3H0v1080h1920V-4.3z"/>
	<path class="st0" d="M1667.1,1084.3h-1467L635,748.2l653.7-1.4L1667.1,1084.3z"/>
</g>
<g>
	<path class="st1" d="M1559.4,956.3c-0.1-1-0.2-1.8-0.6-2.5c0.1-0.6-0.1-1.2-0.7-1.7c-2.3-2.2-4.8-4.2-7.4-6.1
		c-2.4-3.4-6.7-4.4-10.2-6.3c-1.9-1-4.3-2.9-6.6-3.7c-0.3-0.6-1-1.1-1.9-1.1c-1,0-1.6,0.5-2,1.2c-0.1,0.1-0.3,0.2-0.4,0.2l0,0l0,0
		c-0.2,0.1-0.3,0.2-0.5,0.4c-1.4,1.2-0.5,3.1,0.9,3.7c0.4,0.6,1,0.9,1.8,0.9c0.1,0,0.2,0,0.3,0c0,0,0,0,0.1,0c1.8,1,3.9,1.9,5.3,3.5
		c1.1,1.2,1.9,2.5,3.2,3.5c0.7,0.6,1.5,1,2.3,1.3c2,2.2,4,4.2,3.3,7.7c-0.8,3.6-4.7,4.9-6.7,7.8c-0.9,0.5-1.8,1-2.7,1.5
		c-3.5,1.9-7.2,3.7-10.9,5.3c-3.1,1.3-6.2,2.5-9.4,3.6c-4.5,0.9-8.9,2-13.4,3.3c-3.1,0.1-6.2,0.6-9.3,1.2c-0.3,0.1-0.6,0.2-0.8,0.3
		c-3.3,0.3-6.8,0.4-10,1.3l-6.8,0.6c-0.3,0-0.5,0.1-0.7,0.2c-1.1-1-3.3-0.3-3.8,1.2c-2.1,5.3-5.6,9.9-10,13.5
		c-0.3,0.2-0.5,0.5-0.6,0.8c-1.8,0.5-3.7,0.9-5.5,1.3c-1.6-0.5-3.2-0.7-5-0.7l0,0c-0.1-0.1-0.2-0.2-0.3-0.2c-0.9-0.6-1.9-1-3-1.3
		c-3.5-3.3-6.3-7.5-9.3-11.2c0.3-0.5,0.4-1.2,0.2-2c-0.2-1-1.3-1.6-2.2-1.7c-7.5-0.5-15-3.4-22.6-2.6c-0.2,0-0.4,0.1-0.6,0.1
		c-1.7-0.6-3.5-1.2-5.3-1.7c-3.7-0.9-7.3-1.6-11-2.4c-0.4-0.5-0.9-0.8-1.7-0.7c-0.4,0-0.9,0.1-1.3,0.1c-1.9-0.4-3.7-0.7-5.6-1.1
		c-2.9-1.8-6-3.7-9.2-3.8c-1.9-1.2-3.8-2.4-5.8-3.3c-0.1-0.5-0.3-0.9-0.6-1.2c-2.1-1.8-4.6-3.7-5.6-6.3c-0.6-1.6-0.8-3.1-1.4-4.5
		c0.8-1,1.4-2.3,2.2-3.3c1.1-1.6,2.4-3.1,3.8-4.5c2.5-2.6,5.4-4.7,8.8-6.1c0.2-0.1,0.3-0.2,0.4-0.3c1.8-0.1,2.9-2.9,1-4.3
		c-1.2-0.9-2.5-1.4-3.9-1.9c-0.5-0.1-0.9-0.1-1.3,0c-0.5-0.6-1.4-1-2.4-0.8c-3.2,0.7-5.2,3.1-7,5.7c-0.5-0.1-1.1-0.1-1.7,0.3
		c-4.9,3.1-9.2,7.2-12.3,12.1c-1.5,2.4-1.7,4.8-0.9,7.5c0.6,2,2,3.1,3.8,3.7c0.1,0.6,0.4,1.1,1,1.6c0.6,0.4,1.2,0.8,1.8,1.2
		c0.5,0.3,1,0.6,1.4,1c-0.2,1,0.2,2.1,1.6,2.4c2.2,0.5,3.9,2.4,6,3.3c1.7,0.7,3.5,1.1,5.3,1.7c0.1,0.6,0.5,1.1,1.1,1.4
		c3.9,1.9,8,3.2,12.2,3.8c0.4,0.1,0.8,0.1,1.2,0.2c2.8,1.8,6.1,2.7,9.4,3.5c3.6,0.9,7.2,1.8,10.9,2.5c0.4,0.5,0.9,0.8,1.6,0.9
		c2.6,0.3,5.5,0.8,8.3,1.1l0.1,0.1c3.3,1.6,7.8,1.2,11.5,0.9c0.4,0.3,0.8,0.5,1.4,0.5c0.4,0,0.8-0.1,1.1-0.3
		c0.3,0.2,0.7,0.3,1.1,0.3c0.5,0,1-0.2,1.3-0.4c2.2,2.7,4.3,5.3,6.5,8c1,1.2,2,2.5,3.1,3.6c0.9,2,2.5,3.1,4.7,3.5
		c0.5,0.1,1,0.1,1.6,0.2c1,0.4,2,0.4,3.1,0.3c0.3,0,0.6,0,0.9,0c1,0.1,2,0.2,2.9,0.5c1.2,0.3,2.1-0.4,2.6-1.3
		c1.4-0.4,2.8-0.9,4.1-1.5c0.7-0.3,1-0.8,1.1-1.4c0,0,0.1,0,0.1-0.1c3.8-3.1,6.8-6.9,9.1-11.1c0.1,0,0.3,0.1,0.4,0.1
		c2.2,0.3,5.2-1,7.4-1.6h0.1c1.1-0.1,2.9-0.3,4.5-0.8c1.1-0.1,2.2-0.3,3.3-0.4c0.6-0.1,1.2-0.2,1.8-0.4c0.2,0.1,0.5,0.1,0.8,0.1
		c5.2-0.1,10.3-1,15.2-2.7c0.4-0.1,0.7-0.3,0.9-0.6c0.1,0,0.1,0,0.2,0c2-0.1,3.9-0.5,5.8-1.1c0.5,0,1.1-0.1,1.6-0.1
		c4.1-0.1,7.4-1.3,11.2-2.8c0.6-0.3,1.2-0.5,1.8-0.8c6.6-1.3,12.4-5,18.2-8.2c0.6-0.3,1.3-0.7,1.9-1.1c0.5,0,1.1-0.2,1.5-0.7
		c1.3-1.5,2.6-3,4.2-4.2c1.2-0.9,2.5-1.7,3.4-2.9C1559.2,959.5,1559.5,957.9,1559.4,956.3z"/>
	<path class="st1" d="M1521,941.9c-1.3,0.4-2.4,1.4-3.8,1.6c-1.4,0.2-2.9,0-4.3-0.2h-0.1c-0.8-1.6-2.2-2.5-3.2-4
		c-1.2-1.9-0.6-4.7-1.1-6.8c-0.3-1.4-1-2.4-1.9-3.3c-0.1-0.5-0.3-0.9-0.5-1.4c-0.7-1.3-2.1-2-3.5-2.7c-0.8-0.7-1.8-1.2-3.2-1.2
		c-0.6,0-1.1,0.2-1.4,0.6c-4.2,0-8.4-0.2-12.6-0.7c-3.9-0.5-7.7-1.3-11.6-0.5c0,0-0.1,0-0.1-0.1c-2.1-0.8-4.2-0.8-6.2-0.5
		c-5.1-0.8-10.2-0.7-15.4-0.2c-2.7-1.4-7.2-0.4-9.9-0.1c-2.6,0.3-5.2,0.8-7.8,1l-4.8,0.2c-0.3,0-0.6,0.1-0.9,0.2
		c-1.1-0.1-2.2-0.1-3.4,0c-2.9,0.3-5.7,0.9-8.5,1.5c-0.3,0.1-0.6,0.2-0.8,0.3c-2.7,0-5.7,0.2-8.2,1.4c-2.4,1.1-3.7,3-4.8,5.3
		c-2.3,4.9-5.2,11.8-11.7,10.4c-0.3-0.6-1-1-1.9-1c-2.4,0-2.8,3-1.4,4.1c0.2,0.5,0.7,0.9,1.4,1.1c5.9,1.7,11.1-1.1,14.3-6
		c1.6-2.6,2.6-5.4,4.1-8c1.7-2.8,5.8-2.8,8.7-2.7c0.6,0,1.1-0.2,1.5-0.5l0,0c2.8-0.6,5.8-1.3,8.7-1.5c2.9-0.1,5.7,0.7,8.6,0.9
		c4.4,0.3,8.9-0.1,13.2-1.1c4.1,0.5,8.2,0.6,12.3,0.4c5.5,1.5,11.2,1.3,16.8,0.9c1.8,0.2,3.7,0.2,5.3,0.3c2.2,0.2,4.5,0.3,6.7,0.5
		c0.5,0,1,0,1.6,0c1.9,0.4,3.7,1,5.6,1.1c2.2,1.8,4.2,3.8,6,6c0.5,0.6,1.2,0.8,1.8,0.7c0.2,1.3,0.5,2.6,1.2,3.8
		c0.3,0.5,0.8,1,1.3,1.4c-0.1,1.1,0.5,2.3,1.9,2.4c0.4,1,1.3,1.3,2.2,1.3c0.4,0.6,1.1,1,2,1.1c1.6,0.2,3.2,0.4,4.9,0.2
		c1.7-0.2,2.9-1.2,4.4-1.7C1525,945.4,1523.8,941,1521,941.9z"/>
	<path class="st2" d="M1526.6,968.2c-2.1-0.9-4.1-1.1-6.1-0.9c-7.3-1-14.6-1.9-22-2.9h-0.1c-5.8-1.9-12.2-2.9-18.3-2.3
		c-5.2-0.7-10.3-1.3-15.5-2c-0.9-0.1-1.5,0.2-1.9,0.8c-5.5-1.2-11.2-1-16.9-0.6c-3,0.2-6,0.5-8.9,0.6c-2.8-0.8-5.9-0.7-8.6,0.4
		c-3.7,0.1-7.4,0.2-11.1,0.3c-0.7,0-1.3,0.3-1.7,0.7c-2.7,0.2-5.4,0.4-8.1,0.7c-1.4,0.2-2.8,0.4-4.2,0.7c-3.2-0.3-6.3,0.3-9.4,1.1
		c-1.4,0.2-2.7,0.4-4.1,0.5c-0.6,0-1,0.3-1.4,0.6c-0.5,0-1,0-1.5,0c-0.8,0-1.3,0.3-1.7,0.8c-1,0-2-0.1-3-0.3
		c-0.6-0.1-1.2-0.3-1.8-0.4c-2.9-0.6-4.1,3.6-1.2,4.4c0.7,0.2,1.5,0.3,2.2,0.5c2.1,0.4,4.3,0.9,6.5,1.2c2.3,0.8,4.6,1.5,6.9,2
		c5.6,1.7,11.3,3.3,17,3.9c1.1,0.1,2.2,0.2,3.4,0.2c0.2,0.2,0.5,0.3,0.9,0.3c7.5,1.1,15,2.1,22.5,3.2c0.3,3.3,1.8,6,3.8,8.3
		c1.4,3.1,3.7,5.8,7.3,6.1c2,1.4,4.2,2.5,6.8,2c3.1-0.6,6.2-2.5,8.8-4.2c0.7-0.4,1-1,1-1.7c3.4-3.1,5.8-7.3,6.4-11.6
		c8.9-0.3,17.6-1.5,26.4-3.1c4.3,1.3,8.5-0.1,12.4-2c0.6-0.3,1.2-0.6,1.8-0.9c2.5-0.6,5-1.2,7.6-1.7c1.5,0,3-0.1,4.5-0.3
		C1527.4,972.2,1529,969.2,1526.6,968.2z"/>
	<path class="st3" d="M1546.2,954.5c-1.2-2-3-3.6-5-5.1c-2.8-3-6.2-5.3-9.9-6.9c-1.1-0.7-2.2-1.4-3.3-2c-1.5-0.9-3.4,0.3-3.4,2
		c0,0.2,0,0.4,0,0.6c-0.4,0.1-0.8,0.4-1.1,0.8c-2.5,3.3-6.4,5.2-10.5,5.5c-0.2,0-0.3,0-0.5,0c-0.3-0.4-0.6-0.7-1.2-0.9
		c-0.4-0.1-0.8-0.3-1.2-0.5c-0.1-0.1-0.1-0.1-0.2-0.2c-2.3-2.2-4.1-4.7-5.7-7.6c-1.3-2.4-2.7-4.4-5-6c-4.2-2.9-9.2-3.3-14.2-2.8
		c-1-0.5-2-0.8-3.1-0.7c-0.3,0-0.7,0.1-0.9,0.2c-0.5-0.1-1-0.1-1.5-0.2c-1.7-0.1-3.5,0-5.3,0.2c-0.1,0-0.2-0.1-0.4-0.1
		c-1-0.1-2-0.1-2.9-0.2c-4-0.3-8-0.5-12-0.6c-1-0.4-2-0.4-3-0.1c-0.2,0-0.3,0-0.5,0c-4.5-0.2-9.4-0.7-14,0c-0.6-0.2-1.3-0.1-1.8,0.2
		c-0.3,0.2-1.5-0.2-2-0.2c-0.4,0-0.7,0-1.1,0.1c-0.7-0.1-1.5-0.3-2.2-0.4c-0.5-0.1-1,0-1.4,0.1c-0.3-0.1-0.5-0.1-0.9-0.1
		c-4.4,0.1-8.7,0.5-13.1,1c-1.3,0.2-2.8,0.3-4.4,0.5c-2.7,0.1-5.4,0.7-7.5,2.5c-0.7,0.6-0.8,1.4-0.6,2.1c-0.2,0.2-0.5,0.4-0.7,0.6
		c-0.9,1-1.3,2.1-1.4,3.2c-0.6,0.7-1.2,1.5-1.7,2.5c-0.4,0.8-1,1.7-1.4,2.6c-0.1,0.1-0.2,0.1-0.3,0.2c-1.1,1-2.3,2.1-3.6,2.9
		c-0.4,0-0.8,0-1.3,0.2c-0.4,0.2-0.7,0.3-1.1,0.4c-0.6,0-1.1,0.1-1.7,0.2c-0.9,0-1.7-0.2-2.6-0.6c-0.2-0.1-0.4-0.1-0.7-0.1
		c-2.3-1.5-4.3-4-5-6.4c-0.7-1.8-2.7-1.9-3.8-1c-1.7,0.2-3.5,1.4-4.9,2.3c-3.1,2-6.2,4.2-8.3,7.3c-1.9,2.8-2.6,6.3-0.9,9.4
		c1.7,3.2,5.2,5.6,8.4,7.2c0.8,0.4,1.6,0.3,2.2-0.1c2.2,0.1,4.5-0.5,6.6-0.8c2.4-0.3,4.7-0.7,7.1-1c2.5-0.4,5-0.7,7.5-1.1
		c1.4-0.2,2.8-0.3,3.8-1.2c2.9,0.1,6.1-0.5,8.5-0.7c6.3-0.6,12.6-1.2,18.9-1.8c1.3,0.2,2.4,0.2,3.7,0c0.2,0,0.5-0.1,0.7-0.3
		c4.5,0.2,9,0,13.5-0.2c5-0.2,10-0.2,14.9-0.1c1.3,0.2,2.5,0.5,3.8,0.6c2.1,0.2,4.3,0.3,6.4,0.2l0,0c3,0.4,6.1,0.5,9,0.7
		c4.6,0.4,9.2,1,13.8,1.5c0.3,0,0.6,0,0.9-0.1c2.7,0.6,5.5,1.1,8.3,1.1c0,0,0,0,0.1,0c5,1.3,10,2.5,15,3.8c2.5,0.6,4.5,1.1,6.8,0.9
		c0.5,0.8,1.4,1.2,2.4,0.9c4.3-1.1,8.2-3.1,11.6-5.9c0.6-0.5,0.8-1.2,0.7-1.8c1.6-1,3.5-2.3,3.7-4
		C1546.4,956.6,1546.7,955.4,1546.2,954.5z"/>
	<g>
		<g>
			<path class="st4" d="M1383.9,939c-2.1-4.5-4.4-5.1-5.2-5.3c-1.6-0.3-2.5,0.5-7.3,3.1c-5.9,3.2-5.7,2.7-7.9,4.2
				c-0.7,0.4-3.8,2.6-7.3,6.5s-5.2,5.8-5.3,8.4c0,0.7,0,3.1,4.3,7.8c4.5,4.9,9.3,7.4,11.4,8.5c7.6,3.9,14.1,6.2,20.6,8.3
				c11,3.6,16.5,5.4,20,6.2c6.9,1.6,17.1,3.2,30,2.6c0.2,1.6,0.8,6,4.4,10c0.9,1,3.5,3.8,8,5c6.1,1.7,11.1-0.8,12.3-1.4
				c2.3-1.2,3.7-2.6,5.2-4.1c3.4-3.4,5.3-6.9,6.3-9.3c6.2-1,14.7-2.5,24.8-4.3c16.6-2.9,23.5-4.3,32.4-7c4.3-1.3,15.5-5,25.3-14.1
				c2.7-2.5,4.3-4.5,4.4-7c0.3-5.8-7.1-10.6-14.6-15.4c-5.3-3.4-10.3-5.9-14.6-7.6c-0.3,0.8-0.8,1.9-1.8,3.1
				c-0.9,1.1-1.9,1.8-2.6,2.2c3.1,1.1,5.6,2.3,7.3,3.3c4.3,2.4,6.9,5.2,8.5,6.9c2.7,2.8,4.1,4.2,4.2,5.8c0.2,3.4-3.9,6.4-7.8,8.8
				c-5.6,3.5-14.4,8.1-27.2,11.9c-10.3,2.1-23.7,4.2-39.6,5.5c0.2,0.9,0.3,2.4-0.2,4c-0.3,1.2-0.9,2.1-2,3.6c-2,2.7-3,4.1-4.7,5.4
				c-1.5,1.3-3.9,3.2-7.5,3.8c-3.3,0.5-5.9-0.4-7-0.9c-6.8-2.5-11.6-9.8-11.8-13c0-0.4,0-1.9-1-2.6c-0.5-0.4-1.2-0.3-1.3-0.3
				c-3.6,0.2-40.3-4.7-55.9-11.3c-3.5-1.5-5.9-3.4-10.9-7.3c-0.9-0.7-2.5-2-3.3-4.1c-0.9-2.3-0.5-4.3-0.4-5.1
				c0.5-2.9,2.2-4.6,4.2-6.8c1.7-1.9,4.6-5,7.9-5.7c0.5-0.1,1.8-0.3,3.4-1C1382.6,939.8,1383.4,939.3,1383.9,939z"/>
		</g>
		<g>
			<path class="st5" d="M1351.9,959.9c3.1,16.9,5.6,34,7.3,51.1c1.5,14.8,20.1,22.4,34.1,27.9c20.8,8.2,43.5,11.7,65.8,10
				c20.2-1.5,39.9-4.2,58.8-11.3c10.8-4,22.2-8.7,28.4-18.2c4-6.2,5.3-13.8,6.4-21.1c1.9-12.1,3.8-24.2,5.7-36.3
				c-10,12.2-26.4,17-41.9,20.4c-14.2,3.1-28.6,5.7-43,7.2c-2.4,4.2-5,8.4-8.8,11.4s-8.8,4.9-13.6,3.9c-7.5-1.5-11.9-9.1-15.4-15.9
				c-15.7,1.7-31.5-3.1-46.6-7.8C1375.2,976.8,1360.2,971.8,1351.9,959.9z"/>
		</g>
		<path class="st4" d="M1380.4,933.6c0.9,1.3,2.3,3.4,4.1,6c4.1,6,4.9,7.4,6.8,8c3.3,1,6.8-1.3,7.3-1.7c3-2,4.7-5.5,6.5-9.4
			c1-2,1.4-3.3,2.8-4.4c2-1.6,4.4-1.6,5.4-1.7c5.6-0.2,11.1-1.5,16.7-1.3c13,0.4,10.5-0.6,25.9-0.1c6,0.2,5.6,0.3,17.7,0.8
			c0,0,2.9,0.1,10.6,0.6c13.3,0.9,5.1,0.7,8.1,0.8c1.2,0.1,4,0.6,5.3,1c3.1,1.1,5.1,3.9,5.8,5c2.6,3.8,1.4,5.4,3.9,8
			c0.5,0.6,2.7,2.7,6.2,3.1c3.8,0.4,6.6-1.4,7.7-2.3c2.9-2.3,3.7-5.4,3.9-6.4c1.6-1.2,3.1-2.4,4.7-3.5"/>
		<path class="st4" d="M1385.3,940.7c6.4,3.1,9.5,2.1,11,1.3c4.2-2.4,8.1-11.3,8.6-13c0.1-0.2,0.3-1.1,1-1.6
			c0.5-0.4,1.1-0.5,1.3-0.6c21.1-4,18.6-3.9,25.2-4.4c7.8-0.6,11.8-0.9,17.1-1c5.3-0.1,9.3,0.1,13.1,0.2c8.1,0.3,14.8,0.9,18.2,1.2
			c10.9,0.9,11.5,1.4,14.2,1.1c0.7-0.1,2.9-0.4,5.6,0.2c0.8,0.2,2.4,0.5,4,1.5c3.2,2.1,4.1,5.7,4.4,6.9c-0.9,3.5,0,7.1,2.4,9.2
			c3.4,3,9.8,2.6,13.9-1.9"/>
		<path class="st6" d="M1377.6,966.8c19.7-3.8,44.9-7.1,74.2-6.9c30.1,0.2,55.8,4,75.7,8.3"/>
	</g>
	<path class="st3" d="M1378.3,963.1c-2.9,0-2.9,4.5,0,4.5C1381.2,967.6,1381.2,963.1,1378.3,963.1z"/>
	<path class="st3" d="M1526.7,964.7c-2.9,0-2.9,4.5,0,4.5S1529.6,964.7,1526.7,964.7z"/>
	<path id="SVGID_x5F_1_x5F_" class="st7" d="M1359.2,997.3c28.1,19.3,62.7,29.3,97,27.9c34.3-1.3,68.1-13.9,94.5-35.3"/>
	<text transform="matrix(0.8304 0.5572 -0.5572 0.8304 1359.1947 997.3072)" class="st8 st9"> </text>
	<text transform="matrix(0.8504 0.5261 -0.5261 0.8504 1361.9402 999.2028)" class="st10 st11 st12 st13">U</text>
	<text transform="matrix(0.9121 0.4099 -0.4099 0.9121 1380.1742 1009.4776)" class="st10 st11 st12 st13">N</text>
	<text transform="matrix(0.9566 0.2916 -0.2916 0.9566 1399.4424 1017.2247)" class="st10 st11 st12 st13">C</text>
	<text transform="matrix(0.9845 0.1752 -0.1752 0.9845 1418.9398 1022.3242)" class="st10 st11 st12 st13">L</text>
	<text transform="matrix(0.9984 5.697092e-02 -5.697092e-02 0.9984 1437.5178 1024.8822)" class="st10 st11 st12 st13">E</text>
	<text transform="matrix(0.9986 -5.207397e-02 5.207397e-02 0.9986 1456.9913 1025.1744)" class="st10 st11 st12 st13"> </text>
	<text transform="matrix(0.9871 -0.1604 0.1604 0.9871 1472.5894 1023.7493)" class="st10 st11 st12 st13">S</text>
	<text transform="matrix(0.96 -0.2799 0.2799 0.96 1491.1919 1019.9852)" class="st10 st11 st12 st13">N</text>
	<text transform="matrix(0.9169 -0.399 0.399 0.9169 1510.8848 1013.3915)" class="st10 st11 st12 st13">O</text>
	<text transform="matrix(0.8585 -0.5128 0.5128 0.8585 1529.3358 1004.4756)" class="st10 st11 st12 st13">O</text>
	<text transform="matrix(0.7849 -0.6197 0.6197 0.7849 1546.4778 993.2495)" class="st10 st11 st12 st13">P</text>
	<text class="st8 st9"> </text>
	<path class="st14" d="M1486.6,906c7.9,26.4-8.2,54.2-9.6,53.9c-1.1-0.3,12.4-25.9,1.7-47.8c-3-6.1-9.8-16-14.6-22.4
		c-7.9-10.6-9.4-10.4-10.6-14.4c-5.1-17,16.3-39.5,17.9-38.6c0.3,0.2-0.3,1.2-1.7,6.1c-1.7,6.4-4.1,14.8-3.2,21.7
		c0.8,6.8,4.2,7.9,10.2,18.2C1476.8,882.8,1482.7,892.8,1486.6,906z"/>
	<g>
		<path class="st15" d="M1436.1,978.7c-1.5-0.2-4-0.7-7-1.3c-5.7-1.2-8.3-2-14.3-3.3c-1.8-0.4-4.7-1-8.2-1.6
			c0.2-1.9,0.4-3.7,0.6-5.6c3.9,0.4,7.1,0.7,9.1,0.9c6.9,0.7,9.7,0.9,14.2,1.5c3.3,0.4,5.9,0.9,7.5,1.2
			C1437.3,973.3,1436.7,976,1436.1,978.7z"/>
		<g>
			<path class="st16" d="M1405.7,972.7l1-6.3l23.7,3l-1.4,8L1405.7,972.7z"/>
			<path class="st17" d="M1437.6,975.1c0.4-1.7,0.9-4.2,0.3-4.4s-2.4,1.6-2.8,3.7c-0.4,2.1,0.5,4.4,1.1,4.4
				C1436.7,978.9,1437.2,976.9,1437.6,975.1z"/>
		</g>
	</g>
	<g>
		<path class="st15" d="M1479,965.9c3.4,3.3,6.7,6.6,9.6,10.3c1.1-1.4,2.7-3.5,4.8-6c3.7-4.4,6.6-7.5,9.7-10.8
			c7.7-8.2,11.6-12.3,12.2-13c5.8-7,7-10,12.9-15.9c2.4-2.3,4.5-4.1,5.9-5.2l-5.5-5.5c-11.5,11.4-17.7,17.5-17.7,17.5
			c7.5-6.8-14.9,13.6-22.4,20.2C1485.6,960.2,1482.5,962.9,1479,965.9z"/>
		<path class="st16" d="M1528.5,919.7l5.5,5.5l-18.7,21.1l-6.8-7.2L1528.5,919.7z"/>
		<g>
			
				<ellipse transform="matrix(0.7089 -0.7053 0.7053 0.7089 -253.1335 1329.0946)" class="st18" cx="1483.6" cy="971.2" rx="2" ry="7"/>
			<ellipse class="st19" cx="1486.4" cy="974.6" rx="0.5" ry="0.5"/>
			<ellipse class="st20" cx="1484.4" cy="973.4" rx="0.5" ry="0.5"/>
			<ellipse class="st21" cx="1485.7" cy="972.7" rx="0.5" ry="0.5"/>
			<ellipse class="st22" cx="1482.5" cy="971.6" rx="0.5" ry="0.5"/>
			<ellipse class="st23" cx="1484.3" cy="970.9" rx="0.5" ry="0.5"/>
			<ellipse class="st24" cx="1480.9" cy="969.7" rx="0.5" ry="0.5"/>
			<ellipse class="st25" cx="1482.5" cy="969.3" rx="0.5" ry="0.5"/>
			<ellipse class="st21" cx="1479.9" cy="967.7" rx="0.5" ry="0.5"/>
		</g>
	</g>
</g>
</svg>
