<?xml version="1.0" encoding="utf-8"?>
<!-- Generator: Adobe Illustrator 26.0.1, SVG Export Plug-In . SVG Version: 6.00 Build 0)  -->
<svg version="1.1" id="Layer_1" xmlns="http://www.w3.org/2000/svg" xmlns:xlink="http://www.w3.org/1999/xlink" x="0px" y="0px"
	 viewBox="0 0 1915 1080" style="enable-background:new 0 0 1915 1080;" xml:space="preserve">
<style type="text/css">
	.st0{fill:#550013;}
	.st1{fill:#CCCCCC;}
	.st2{fill:#81A199;}
	.st3{fill:#E6E6E6;}
	.st4{fill:#81A1A8;}
	.st5{fill:#B5CCCC;}
	.st6{fill:#FB4C24;}
	.st7{fill:#FFFFFF;}
	.st8{fill:#8CC63F;}
	.st9{fill:#754C24;}
	.st10{stroke:#000000;stroke-width:0.5;stroke-miterlimit:10;}
	.st11{stroke:#000000;stroke-width:0.5;stroke-miterlimit:9.9998;}
	.st12{fill:#8C6239;}
	.st13{fill:#603813;}
	.st14{stroke:#000000;stroke-width:0.5;stroke-miterlimit:10.0006;}
	.st15{stroke:#000000;stroke-width:0.5;stroke-miterlimit:10.0008;}
	.st16{stroke:#000000;stroke-width:0.5;stroke-miterlimit:10.0004;}
	.st17{stroke:#000000;stroke-width:0.5;stroke-miterlimit:9.9996;}
	.st18{stroke:#000000;stroke-width:0.5;stroke-miterlimit:10.0002;}
	.st19{fill:#ED1C24;}
	.st20{fill:#8C6239;stroke:#603813;stroke-miterlimit:10;}
	.st21{stroke:#000000;stroke-width:0.4998;stroke-miterlimit:9.9962;}
	.st22{opacity:0.2;fill:#FF90CD;enable-background:new    ;}
	.st23{fill:#42210B;}
	.st24{stroke:#000000;stroke-width:0.25;stroke-miterlimit:10;}
	.st25{fill:#96CEFF;}
	.st26{fill:#753813;}
	.st27{fill:none;}
	.st28{enable-background:new    ;}
</style>
<rect x="-43.4" y="0.5" class="st0" width="1967.4" height="1090"/>
<path d="M1923.5,1v1089H5.5V1H1923.5 M1924.5,0H4.5v1091h1920V0z"/>
<ellipse transform="matrix(0.9839 -0.1788 0.1788 0.9839 -53.119 298.0219)" class="st1" cx="1626.8" cy="443.7" rx="122" ry="107.4"/>
<ellipse transform="matrix(0.9839 -0.1788 0.1788 0.9839 -69.0023 275.5877)" class="st1" cx="1494.4" cy="520.6" rx="122" ry="107.4"/>
<ellipse transform="matrix(0.9839 -0.1788 0.1788 0.9839 -66.7593 248.8705)" class="st1" cx="1347.3" cy="494.8" rx="90.4" ry="107.4"/>
<ellipse transform="matrix(0.9839 -0.1788 0.1788 0.9839 -33.9612 323.7837)" class="st1" cx="1779.3" cy="350.3" rx="90.4" ry="107.4"/>
<ellipse transform="matrix(0.9835 -0.1807 0.1807 0.9835 -16.3985 304.2186)" class="st1" cx="1661.4" cy="242.1" rx="116.7" ry="152.6"/>
<ellipse transform="matrix(0.9839 -0.1788 0.1788 0.9839 -9.4827 265.7892)" class="st1" cx="1469.8" cy="185.5" rx="85.3" ry="101.8"/>
<ellipse transform="matrix(0.9839 -0.1788 0.1788 0.9839 -42.3828 244.9431)" class="st1" cx="1337.7" cy="357.6" rx="388.9" ry="101.8"/>
<ellipse transform="matrix(0.9839 -0.1788 0.1788 0.9839 -15.9102 242.2686)" class="st1" cx="1336.1" cy="209.4" rx="85.3" ry="101.8"/>
<ellipse transform="matrix(0.9839 -0.1788 0.1788 0.9839 -72.4966 227.8113)" class="st1" cx="1227.6" cy="516.1" rx="85.3" ry="101.8"/>
<ellipse transform="matrix(0.9839 -0.1788 0.1788 0.9839 -25.1908 223.2958)" class="st1" cx="1226.2" cy="251.4" rx="85.3" ry="101.8"/>
<ellipse transform="matrix(0.9839 -0.1788 0.1788 0.9839 -43.9437 204.0222)" class="st1" cx="1109.9" cy="345.8" rx="85.3" ry="101.8"/>
<ellipse transform="matrix(0.9839 -0.1788 0.1788 0.9839 -73.291 201.4045)" class="st1" cx="1080.7" cy="507.3" rx="85.3" ry="101.8"/>
<ellipse class="st2" cx="306.9" cy="244.6" rx="133.2" ry="115.6"/>
<ellipse class="st2" cx="475.4" cy="285.8" rx="167.8" ry="104.3"/>
<ellipse class="st2" cx="687.2" cy="343.2" rx="137.6" ry="98.1"/>
<ellipse class="st2" cx="126.9" cy="353.2" rx="130.4" ry="113"/>
<ellipse class="st2" cx="173" cy="480" rx="107.3" ry="138.7"/>
<ellipse class="st2" cx="342.2" cy="389.5" rx="168.5" ry="114.3"/>
<ellipse class="st2" cx="780.8" cy="496.3" rx="110.2" ry="108.7"/>
<ellipse class="st2" cx="585.6" cy="496.3" rx="145.5" ry="136.2"/>
<ellipse class="st2" cx="378.2" cy="504.4" rx="121" ry="114.3"/>
<ellipse class="st3" cx="702.8" cy="195.4" rx="115.1" ry="116.4"/>
<ellipse class="st3" cx="903.8" cy="253.3" rx="167.5" ry="169.4"/>
<ellipse class="st3" cx="1196.7" cy="311.8" rx="208.3" ry="189.7"/>
<ellipse class="st3" cx="964.1" cy="524.9" rx="260.7" ry="237.7"/>
<ellipse class="st3" cx="682.7" cy="362.9" rx="221.7" ry="166.9"/>
<ellipse class="st3" cx="619.3" cy="502.7" rx="136.4" ry="213.1"/>
<ellipse class="st3" cx="1196.7" cy="526.1" rx="176.6" ry="156.4"/>
<ellipse class="st3" cx="761.9" cy="564.3" rx="121.8" ry="205.7"/>
<ellipse class="st1" cx="272.1" cy="649.2" rx="122" ry="107.4"/>
<ellipse class="st1" cx="416.1" cy="597.1" rx="122" ry="107.4"/>
<ellipse class="st1" cx="556.2" cy="648.8" rx="90.4" ry="107.4"/>
<ellipse class="st1" cx="105.4" cy="713.7" rx="90.4" ry="107.4"/>
<ellipse class="st1" cx="196.2" cy="837.1" rx="117.1" ry="153.2"/>
<ellipse class="st1" cx="380.4" cy="931.2" rx="85.3" ry="101.8"/>
<ellipse class="st1" cx="541.1" cy="785.5" rx="388.9" ry="101.8"/>
<ellipse class="st1" cx="516.2" cy="931.5" rx="85.3" ry="101.8"/>
<ellipse class="st1" cx="677.8" cy="649.2" rx="85.3" ry="101.8"/>
<ellipse class="st1" cx="631.9" cy="909.9" rx="85.3" ry="101.8"/>
<ellipse class="st1" cx="763.1" cy="837.8" rx="85.3" ry="101.8"/>
<ellipse class="st1" cx="820.8" cy="684.2" rx="85.3" ry="101.8"/>
<ellipse class="st4" cx="1335.6" cy="480.5" rx="118.7" ry="120.5"/>
<ellipse class="st4" cx="1485.7" cy="523.5" rx="149.5" ry="108.8"/>
<ellipse class="st4" cx="1674.4" cy="583.4" rx="122.6" ry="102.3"/>
<ellipse class="st4" cx="1175.2" cy="593.8" rx="116.2" ry="117.9"/>
<ellipse class="st4" cx="1216.2" cy="726.1" rx="95.6" ry="144.6"/>
<ellipse class="st4" cx="1367" cy="631.6" rx="150.2" ry="119.2"/>
<ellipse class="st4" cx="1757.8" cy="743" rx="98.2" ry="113.3"/>
<ellipse class="st4" cx="1583.9" cy="743" rx="129.6" ry="142"/>
<ellipse class="st4" cx="1399.1" cy="751.5" rx="107.8" ry="119.2"/>
<ellipse class="st5" cx="1001.4" cy="730.7" rx="116.5" ry="106.7"/>
<ellipse class="st5" cx="1148.7" cy="768.8" rx="146.7" ry="96.3"/>
<ellipse class="st5" cx="1333.8" cy="821.9" rx="120.3" ry="90.6"/>
<ellipse class="st5" cx="844" cy="831.1" rx="114" ry="104.4"/>
<ellipse class="st5" cx="884.3" cy="948.2" rx="93.8" ry="128.1"/>
<ellipse class="st5" cx="1032.2" cy="864.6" rx="147.3" ry="105.6"/>
<ellipse class="st5" cx="1415.7" cy="963.2" rx="96.3" ry="100.4"/>
<ellipse class="st5" cx="1245" cy="963.2" rx="127.2" ry="125.8"/>
<ellipse class="st5" cx="1063.7" cy="970.7" rx="105.8" ry="105.6"/>
<path class="st6" d="M580.1,380H1271c75.7,0,137.1,61.4,137.1,137.1V720c0,75.7-61.4,137.1-137.1,137.1H580.1
	C504.4,857,443,795.6,443,719.9V517.1C443,441.4,504.4,380,580.1,380z"/>
<path class="st7" d="M697.4,458.5c7.7,0,19.6,4,19.6,11.9c0.1,1.9-1.3,3.6-3.2,3.7c-0.1,0-0.2,0-0.3,0c-1.7,0-3.1-0.8-4.7-2
	c-2.4-1.6-5.1-2.5-8-2.5c-10.7,0-17.5,11.2-17.5,23.7c0,10.2,4.3,20.5,13.9,20.5c3.2,0,9.1-2.9,9.1-7.4c0-3-2.6-6.1-4.2-7.7
	c-2.3-2.2-3.3-4-3.3-5.7c0-4.1,5.6-6.8,12.5-6.8s12.6,2.7,12.6,7.1c0,3.4-4.2,6.5-4.2,9.2c0,3.2,3.7,6.7,3.7,10.9
	c0,11.3-14.1,17.4-26.7,17.4c-20.6,0-36.9-11.5-36.9-34.5C659.8,476.3,676.1,458.5,697.4,458.5z"/>
<path class="st7" d="M773.3,470.6c0,3.6-2,7.4-2,11.6c0,4.6,1.5,10,3.4,15.2c4.1,11.7,14.5,19.5,14.5,27c0,5-5.6,10-11.7,10
	c-4.8,0-12.6-2-12.6-8.2c0-1.9,0.6-3.8,0.6-5.7c0-4.6-4.5-7.9-11.1-7.9c-5.6,0-10.3,2.6-10.3,7.6c0,2.5,1,4.2,1,6
	c0,5.1-5.4,8.2-11.3,8.2c-6.8,0-10.9-3.4-10.9-8.7c0-11.2,16.7-29.2,16.7-42.7c0-3.7-2.1-7.9-2.1-11.8c0-5.3,4.1-10.4,18.5-10.4
	C768.7,460.8,773.3,465.4,773.3,470.6z M755.4,486.7c-3.2,0-7.3,4.3-7.3,10.2c0,3.1,2,7.2,6.5,7.2c3.8,0,6.4-3.7,6.4-8
	C761,493.2,759.5,486.7,755.4,486.7L755.4,486.7z"/>
<path class="st7" d="M791,512.1c0-19.7,10.5-53,28.3-53c7.2,0,7.9,7.8,8.6,15.1c0.2,2.2,1.9,9,3.7,9c5.2,0,6.3-19.4,18.2-19.4
	c13.7,0,18.1,28.3,18.1,54.1c0,10.2-4.2,21.8-15.6,21.8c-6.4,0.1-11.6-5.1-11.7-11.5c0-0.2,0-0.3,0-0.5c0-10.9,11.1-12.6,11.1-25.8
	c0-8.4-3-10.1-5.3-10.1c-12.7,0-3.4,21.7-19,21.7c-9.2,0-11.3-4.3-11.3-10.4c0-5.2,1.5-11.1,1.5-15c0-2.6-0.5-4.1-2.7-4.1
	c-5.3,0-7,7.9-7,12.5c0,7.4,2.6,15.6,2.6,22.3c0,5.4-2.3,10.2-7.9,10.2C794.9,529,791,524.8,791,512.1z"/>
<path class="st7" d="M921,486.7c0,28.5-26,18.6-26,26.8c0,3.1,3.6,4.4,6,4.4c5.2,0,11.1-4,12.4-5.3c2.5-2.5,3.8-4.9,6-4.9
	c1.2,0,1.9,0.9,1.9,2.2c0,14.2-12.3,20.3-22.9,20.3c-18.6,0-28.2-14.4-28.2-35.9c0-19.5,8-31.6,29-31.6
	C913.7,462.7,921,471.3,921,486.7z M909.3,498.5c0-3.2-3.2-4.5-5.9-4.5c-6.2,0-9.6,3.2-9.6,6.5c0,1.7,1.4,3.2,3.9,3.2
	C903.1,503.7,909.3,502.6,909.3,498.5z"/>
<path class="st7" d="M1005.8,495.8c0,16.1-9.2,37.7-30,37.7c-22.4,0-29.3-17.2-29.3-34.4c0-27.2,10.4-38.8,32.3-39
	C994.6,460.1,1005.8,473.2,1005.8,495.8z M963.3,491.8c0,8.1,2.4,15.5,7.4,15.5c6.7,0,10-8,10-16s-3-16.1-9-16.1
	C966,475.2,963.3,483.6,963.3,491.8z"/>
<path class="st7" d="M1022.3,462.6c1.9,2,1.9,2.3,3.1,11.9c2.4,19,3.6,31.1,9.6,31.1c6.6,0,7.5-11,9.4-30.8
	c1.2-11.7,7.9-14.8,13.6-14.8c11,0,12.3,6.6,12.3,13.3c0,20-10.3,60.4-32.4,60.4c-19.8,0-29.9-37.4-29.9-61.7
	c0-9.4,4.1-11.5,8.1-11.5C1018.5,460.6,1020.8,461.1,1022.3,462.6z"/>
<path class="st7" d="M1123.3,486.7c0,28.5-26,18.6-26,26.8c0,3.1,3.6,4.4,6,4.4c5.2,0,11.1-4,12.4-5.3c2.5-2.5,3.8-4.9,6-4.9
	c1.2,0,1.9,0.9,1.9,2.2c0,14.2-12.3,20.3-22.9,20.3c-18.6,0-28.2-14.4-28.2-35.9c0-19.5,8-31.6,29-31.6
	C1116,462.7,1123.3,471.3,1123.3,486.7z M1111.6,498.5c0-3.2-3.2-4.5-5.9-4.5c-6.2,0-9.6,3.2-9.6,6.5c0,1.7,1.4,3.2,3.9,3.2
	C1105.4,503.7,1111.6,502.6,1111.6,498.5L1111.6,498.5z"/>
<path class="st7" d="M1175.1,479.7c0,14.9-12.3,11.5-12.3,17.2c0,5.4,15.3,7.5,15.3,23.3c0,8-5.4,15.2-14.8,15.2
	c-5.9,0-10.6-4.4-10.6-9.4c0-5.6,4.8-11.4,4.8-14.3c0-6.3-3.7-8.6-8-8.6c-5,0-7.4,3.5-7.4,7c0,5.1,4.3,11,4.3,16.2
	c0,3.5-2.6,8.6-11.7,8.6c-4.4,0-10.2-2.8-10.2-8.7c0-5.7,4.5-13.3,4.5-23.8c0-13.5-5-22.8-5-29.5c0-5.6,3.4-11.1,23.3-11.1
	C1159.4,461.8,1175.1,466.2,1175.1,479.7z M1148.6,476.7c-3.9,0-5.8,2.5-5.8,5.7c0,4.6,2.6,6.4,5.5,6.4c3.8,0,6.6-2.8,6.6-7.3
	C1154.9,478.3,1152,476.7,1148.6,476.7z"/>
<path class="st8" d="M449.3,804.8l-9.4-7.7c-1.8,15.3-5.9,30.2-12.2,44.2c-6.4,14.3-15.1,27.5-25.8,39c-2.6-5.7-10-23.4-5.4-44
	c2.5-11.3,8.4-21.7,16.9-29.6c-18.6,18-40.5,32.4-64.4,42.4c-14.2,5.9-28.9,10.3-44,13.1c3-15.4,10.2-29.6,20.7-41.2
	c22.6-24.4,53-27.3,62-27.8c-31.1,2.4-62.4-0.4-92.6-8.3c-18.8-4.9-37.1-11.5-54.7-19.8c18.7-11.5,39.8-18.6,61.6-20.9
	c23.3-2.4,46.9,0.1,69.2,7.2c-27.2-17.3-52.1-37.8-74.1-61.3c-20.8-22.1-38.9-46.7-53.8-73.1c30.9,10.7,60.1,25.8,86.8,44.8
	c24.9,17.7,47.4,38.6,66.8,62.2c-6.7-12.5-18-37.3-19.4-69c-1.5-35.3,10.1-60.5,16.4-71.9c28.1,48.3,44,102.4,45.6,155.4
	c-5.6-38.7,24.3-68.5,52-92.6c2.8,41.5-10,82-35.4,112.1c10-13.2,20.8-17,26.1-18.2s11.5-1.6,17-1.8c6.7-0.3,13.5-0.2,20.2,0.3
	c-9.7,11.5-20.8,21.7-33,30.3c-12.4,8.8-25.8,15.9-40,21.4c2.1,1.2,5.3,3.2,9.2,5.6c24.8,15.2,27.4,18.8,27.5,21.9c0,3.2-2,6-5,7
	C474,825.6,469,821.1,449.3,804.8z"/>
<path class="st8" d="M1368.1,643c1.6-2.2,2.9-3.9,3.5-4.8c-8-0.9-15.8-2.9-23.2-6c-7.7-3.2-14.8-7.5-21.2-12.8
	c6.9-3.4,14.7-4.4,22.2-2.9c6,1.3,11.5,4.2,15.9,8.4c-15.9-14.7-27.5-33.5-33.4-54.4c8.1,1.5,15.7,5,22,10.3
	c13.6,11.3,16.4,26.6,17.1,31.1c-2.6-15.4-2.7-31.2-0.1-46.7c1.6-9.4,4.2-18.7,7.6-27.6c6.7,9.2,11.3,19.8,13.5,31
	c2.3,11.5,2.1,23.4-0.5,34.9c14.8-26.9,36.5-49.4,62.9-65c-7.8,30.1-24.3,57.2-47.5,77.9c10.6-5.9,22.3-9.4,34.4-10
	c13-0.6,26,2.1,37.6,8c-23.4,14.3-50,22.5-77.4,23.6c19.5-3,36.2,12,49.8,25.8c-21.1,1.6-42.1-4.6-59-17.4c7.2,5,9.6,10.4,10.5,13.1
	c0.8,2.8,1.4,5.7,1.7,8.5c0.5,3.4,0.7,6.8,0.8,10.2c-12.7-9.7-22.9-22.2-29.8-36.6c-0.5,1-1.4,2.7-2.4,4.7
	c-6.6,12.5-8.4,13.9-9.9,13.9c-1.6,0-3.1-1-3.8-2.5C1358.6,655.6,1360.7,653,1368.1,643z"/>
<path class="st9" d="M1782.3,331.7c1.9,5.8,2.7,15.6-2.1,22c-3.9,5.3-8.9,4.7-10.4,9.4c-1.7,5.1,3.4,8,2.2,12.8
	c-1.6,6.6-14.2,12.8-22.7,9.5c-11.4-4.4-14.1-25.8-8.8-41.5c4.3-12.5,16.1-28,27.7-26.4C1778,318.8,1782,330.9,1782.3,331.7z"/>
<path class="st9" d="M1445.4,244.2c-4.8,4-11,11.9-10.5,19.8c0.4,6.5,4.9,8.4,3.6,13.1c-1.4,5.1-7.4,5.1-9,9.7
	c-2.3,6.4,4.9,18,13.9,19.4c12.1,1.9,26.4-14.9,30.6-30.9c3.3-12.8,1.9-31.8-8.8-36.3C1456.3,235.4,1446.1,243.6,1445.4,244.2z"/>
<path d="M1668,416c0.8,0,1.5-0.7,1.5-1.5s-0.7-1.5-1.5-1.5s-1.5,0.7-1.5,1.5S1667.2,416,1668,416z"/>
<path d="M1672.3,423c1.6-3.2,2.3-6.7,2-10.2c0-0.6-0.5-1.1-1.2-1.1c-0.5,0-0.9,0.3-1,0.8c-1.7,5.4-3.4,11-7.4,15.1l1.8,1.4
	c3.7-5.6,8.5-10.5,14-14.4l-1.7-1.3c-1.1,6.1-4,11.5-6.9,16.9l1.9,1.1c1.9-3.6,4.8-6.6,8.4-8.7l-1.7-1c0,2.3-1.1,4.4-2,6.4l-3,6.7
	c-0.6,1.3,1.3,2.5,1.9,1.1c1-2.1,2.3-4.1,3.8-5.9c0.9-1.1-0.7-2.7-1.6-1.6c-1.6,1.9-3,4-4.2,6.3l1.9,1.1c1.1-2.5,2.3-5,3.4-7.5
	c1.2-2.1,1.8-4.4,2-6.8c0-0.6-0.5-1.1-1.1-1.1c-0.2,0-0.4,0-0.6,0.1c-3.9,2.2-7.1,5.5-9.2,9.5c-0.7,1.3,1.2,2.4,1.9,1.1
	c3-5.5,6-11.2,7.2-17.4c0.2-0.9-0.8-1.9-1.7-1.3c-5.8,4.1-10.9,9.3-14.8,15.2c-0.7,1.1,0.9,2.3,1.8,1.4c4.3-4.5,6.2-10.4,8-16.1
	l-2.2-0.3c0.3,3.1-0.3,6.3-1.7,9.1c-0.6,1.3,1.3,2.4,2,1.1L1672.3,423z"/>
<path d="M1680,434.7c-4.7-0.6-5.7-6-6.1-9.8c-0.1-0.5-0.8-0.5-0.8,0c0.2,2,0,4-0.5,5.9h0.7l-1.6-5c-0.2-1.1-0.7-2.2-1.6-2.9
	c-0.2-0.1-0.4,0-0.5,0.1c-0.7,1.4-1.2,2.8-1.5,4.3l0.7,0.1c0.1-2.3-0.2-4.6-0.9-6.8c-0.2-0.8-1-2.3-1.9-1.4
	c-0.1,0.1-0.1,0.2-0.1,0.4c0.9,2.4,1.3,5,1.2,7.6l0.7-0.1c-1.6-3.9-4.3-7.2-7.8-9.4c-0.3-0.2-0.7,0.2-0.5,0.5c0.6,1.5,1.3,2.9,2,4.3
	c0.5,1,1.1,2.6,2,3.4c0.6,0.5,1.4,0.4,1.9-0.1c1.1-0.9,2.1-1.9,3.1-2.9c3.3-3.1,9.2-7.5,7-12.8c-0.1-0.2-0.3-0.3-0.5-0.2
	c-0.2,0.1-0.3,0.2-0.2,0.4c0.4,1.5,0.8,3,1.3,4.4c0.3,1.3,0.8,2.6,1.5,3.7c1.3,1.5,2.3-1.1,3.3-1.4l-0.5-0.5l-2.6,9.5
	c-0.1,0.2,0.1,0.4,0.3,0.5c0.1,0,0.3,0,0.4-0.1l4.6-3.5l-0.6-0.4c-0.8,2.9-1.3,5.9-1.3,8.9c0,0.4,0.5,0.5,0.7,0.2l3.9-8.3l-0.7-0.3
	l-1.6,10.4c-0.1,0.4,0.5,0.7,0.7,0.3c0.4-0.9,0.7-1.9,0.7-2.9c0-0.2-0.2-0.4-0.4-0.4c-0.1,0-0.1,0-0.2,0c-0.8,0.6-1.5,1.4-1.8,2.4
	c-0.1,0.5,0.6,0.7,0.7,0.2c0.2-0.8,0.7-1.5,1.4-2l-0.6-0.3c0,0.9-0.2,1.7-0.6,2.5l0.7,0.3l1.6-10.4c0.1-0.4-0.5-0.7-0.7-0.3
	l-3.9,8.3l0.7,0.2c0-3,0.4-5.9,1.3-8.7c0.1-0.4-0.4-0.6-0.6-0.4l-4.6,3.5l0.6,0.4l2.6-9.5c0.1-0.2-0.1-0.4-0.3-0.5
	c-0.1,0-0.1,0-0.2,0c-0.5,0.1-0.9,0.4-1.2,0.8c-0.2,0.2-0.4,0.6-0.7,0.8c-0.9,0.5-1.2-0.9-1.4-1.4c-0.8-2.1-1.5-4.2-2-6.4l-0.7,0.2
	c2,4.7-2.9,8.5-5.9,11.2l-2.6,2.4c-0.3,0.3-0.7,0.6-1,1c-0.9,0.8-1.6,0.1-2-0.7c-1.2-2.1-2.2-4.2-3.2-6.4l-0.5,0.5
	c3.4,2.2,6,5.3,7.4,9c0.1,0.2,0.3,0.3,0.5,0.2c0.1,0,0.3-0.2,0.3-0.3c0-1.1,0-2.2-0.2-3.3c-0.2-1.3-0.7-2.5-0.8-3.8
	c0-0.2-0.2-0.5,0.1,0.2c0.2,0.3,0.3,0.7,0.4,1c0.2,0.6,0.3,1.2,0.4,1.8c0.3,1.4,0.4,2.9,0.3,4.3c0,0.4,0.7,0.5,0.7,0.1
	c0.3-1.4,0.8-2.8,1.4-4.2l-0.5,0.1c1,0.8,1.3,2.7,1.7,3.9l1.1,3.6c0.1,0.2,0.3,0.3,0.5,0.3c0.1,0,0.2-0.1,0.3-0.3
	c0.5-2,0.7-4.1,0.5-6.1h-0.8c0.5,4.4,1.7,9.9,6.9,10.6C1680.5,435.5,1680.5,434.8,1680,434.7L1680,434.7z"/>
<path d="M1615.9,510.3c9.7-11.7,20-22.9,30.8-33.5c1.4-1.4-0.7-3.5-2.1-2.1c-10.9,10.6-21.2,21.8-30.8,33.5
	C1612.5,509.7,1614.7,511.8,1615.9,510.3z"/>
<ellipse transform="matrix(0.3384 -0.941 0.941 0.3384 1025.061 1846.0111)" class="st10" cx="1825.3" cy="194" rx="33.4" ry="26.6"/>
<ellipse transform="matrix(0.3282 -0.9446 0.9446 0.3282 906.8416 1486.9746)" class="st11" cx="1498.8" cy="105.9" rx="33.4" ry="25.5"/>
<path class="st12" d="M1756,357.6c-0.5-3.5-1.2-4.6-2.7-13.2c-0.8-3.7-1.3-7.4-1.7-11.2c-0.4-6.4,0.4-12.9,2.4-19
	c5.9-16.5,26-35.1,27-36.8l0.6-1c0.2-0.4,0.5-0.8,0.7-1.3c8.6-15.4,15.3-31.8,19.9-48.8c4.8-19.7,0.3-19,5.8-38.6
	c2.4-8.5,4.5-13.1,7.3-24.3c2.2-8.7,3.9-17.5,5.1-26.3c-0.8-7.2-2.6-14.2-5.3-20.8c-1.5-3.7-3.3-7.3-5.4-10.7
	c-8.6-14.4-21.8-24.1-25.4-26.7c-54-38.9-93.7-49.5-93.7-49.5s-41.9-11.1-101.4-4.6c0,0-33.9,3.8-52.5,20.5
	c-5.5,4.9-10.1,10.6-13.8,17c-3.2,6-6,12.2-8.5,18.5c-4.4,11.5-5.6,18.2-8.1,26.9c-4.5,15.3-8.2,17.3-14.8,34.8
	c-4.2,11.1-7.8,22.2-13.5,44.8c-0.4,1.5-1,4-1.6,7.4c-0.7,4.6-1,9.3-0.9,14c0.2,10.6,1.3,12.4,1.8,21.9c0.5,10.2,0.8,15.4-1.3,21.1
	c-2.8,7.4-7.4,10-13.2,16.1c0,0-14.6,15.1-20.4,37.5c-0.9,3.7-1.2,10.2-1.1,21.3c0.3,0.5,0.5,1,0.6,1.6c0.9,1.1,1.5,2.4,1.6,3.9
	c4.8,9.2,7.8,19.2,8.9,29.5c0.7,6.6,0.7,13.3-0.1,19.9v0.8c0.2,3.9,0.3,7.7,0.4,11.6c1.1,16.6,3.8,33,4.3,49.7
	c0.5,2.6,1.1,5.5,1.7,8.5c0.6,1.6,1.1,3.1,1.5,4.8c1.3,5.5,2.6,11.1,2.8,16.9c0,0.8,0,1.7-0.1,2.5c0.3,2,0.7,3.9,1,5.8
	c2.9,9.8,5.2,19.7,7.2,29.8c0.7,3.7,1.3,7.4,1.9,11.2c1.1,4.3,2.3,8.5,4,13.4c2.6,7.9,2.9,7.4,5.5,15.3c3.6,11.2,3.2,12.4,5.5,15.3
	c3.8,4.7,9.1,6.3,17.6,8.9c8.2,2.5,9.2,1.4,20.5,4.1c9.9,2.4,10.2,3.4,18.8,5.1c8,1.5,12.8,2.4,18.6,0.8c3.5-0.9,6.4-2.7,12.1-6.4
	c2-1.3,5.8-3.9,15-11.2c4.2-3.3,7.2-5.8,11.5-9.4c7.3-6,11-9.1,13.6-11.6l1.1-1.1c3.8-5.5,8.8-10.4,13.9-15.1c1.2-1.4,2.7-3,4.4-4.9
	c1.9-2.1,2.9-3.2,4.2-4.4c1.7-1.6,3.5-3.1,5.4-4.5l0.9-1.1c8.6-11,16.9-22.7,24.7-34.3c2.5-3.7,4.7-7.6,7.1-11.2l0.4-0.7
	c1.4-2.2,2.9-4.3,4.7-6.2c3.7-6.4,7.6-13,12.3-18.5c2.1-2.3,4.4-4.4,6.8-6.3c0.5-2,1.7-3.8,3.3-5.1c0.9-1.8,2.3-3.2,4.1-4.1
	c0.9-1.3,1.9-2.5,3-3.6c1.8-1.9,3.7-3.6,5.8-5.1c1.3-1.5,2.8-2.9,4.4-4.1c0.9-1.4,2.2-2.5,3.8-3.1c0.5-0.4,1-0.7,1.6-1
	c1.1-1.5,2.7-2.6,4.5-3c0.8-0.7,1.7-1.2,2.7-1.5l3.3-1.9l0,0c2.5-2.9,5.1-5.7,7.9-8.3c0.4-0.9,1-1.7,1.7-2.5
	c0.2-0.5,0.5-0.9,0.8-1.3c2-6.2,3.6-11.6,4.8-16C1756.5,365.5,1756.4,361.1,1756,357.6z"/>
<path class="st13" d="M1605.9,273.1c2.8-7.6,4-15.6,3.6-23.7c-0.5-8.1-3.3-16-6.6-23.4c-1.8-4.1-4-8-6.4-11.7
	c-0.3-0.4-0.9,0-0.6,0.4c4.5,7.1,8.1,14.8,10.5,22.9c2.1,6.5,2.8,13.4,2.2,20.2c-0.5,5.1-1.7,10.2-3.4,15.1
	C1605,273.3,1605.8,273.5,1605.9,273.1L1605.9,273.1z"/>
<path class="st13" d="M1622.9,280.1c4.5-18,15.8-34.7,32.4-43.5c4.7-2.5,9.7-4.3,14.9-5.4c0.5-0.1,0.3-0.8-0.2-0.7
	c-21.1,4.3-37.2,20.6-44.9,40.2c-1.2,3-2.2,6-3,9.1c-0.1,0.2,0.1,0.4,0.3,0.5C1622.6,280.4,1622.8,280.3,1622.9,280.1L1622.9,280.1z
	"/>
<path d="M1686.1,30.1c-1,6.5-2.4,12.9-4.3,19.2c-2.1,7.3-4.8,14.5-8,21.4c-25.7-3.9-51.7-5.6-77.7-5.3c-28.5,0.4-56.9,3.2-84.9,8.5
	c4.9-10.6,17-32.5,41.2-45.4c4.2-2.2,17.8-9,50.3-10C1630.9,17.7,1659.1,21.7,1686.1,30.1z"/>
<path d="M1685.4,29.9c-2.2,14-6.3,27.6-12.2,40.4l0.8-0.3c-43.3-6.5-87.2-7.1-130.6-1.8c-10.9,1.3-21.7,3-32.4,5l0.8,1.1
	c4.6-10,10.7-19.2,18.1-27.4c7.5-8.2,16.7-15.4,27-19.8c9.5-4,20-5.8,30.3-6.9c13.9-1.4,27.9-1.5,41.8-0.4
	c16.8,1.3,33.5,4.3,49.8,8.8c2.4,0.7,4.7,1.4,7.1,2.1c0.9,0.3,1.3-1.2,0.4-1.5c-16.9-5.2-34.2-8.7-51.7-10.4c-14-1.4-28-1.6-42-0.6
	c-11.5,0.9-23.3,2.5-34.2,6.6c-9.7,3.7-18.3,9.9-25.7,17.1c-8.5,8.4-15.6,18.1-20.8,28.9c-0.4,0.9-0.8,1.7-1.3,2.6
	c-0.2,0.4-0.1,0.8,0.3,1c0.2,0.1,0.4,0.1,0.5,0.1c20.1-3.8,40.3-6.3,60.7-7.6c22.7-1.4,45.5-1.2,68.2,0.6
	c11.1,0.9,22.2,2.1,33.3,3.8c0.3,0.1,0.7-0.1,0.8-0.3c6-13,10.1-26.7,12.3-40.8C1687,29.3,1685.6,28.9,1685.4,29.9z"/>
<path d="M1694.5,31.6c-2.9,5.4-5.3,10.9-7.3,16.7c-2.5,7.3-4.3,14.8-5.3,22.5c51,21.2,98.1,50.8,139.3,87.5
	c2-12.1,4.6-37.5-8.7-59.7c-5.4-9-11.3-14-22.6-23.6c-16.2-13.6-34.5-24.5-54.2-32.2C1722.4,37.5,1708.6,33.8,1694.5,31.6z"/>
<path d="M1693.9,31.2c-6.6,12.3-10.9,25.7-12.7,39.5c-0.1,0.4,0.3,0.6,0.6,0.7c40.7,16.9,79,39.2,113.8,66.3
	c8.6,6.7,17,13.7,25.2,21c0.3,0.3,0.8,0.3,1.1,0c0.1-0.1,0.1-0.2,0.2-0.3c2.1-11.4,2.2-23.1,0.4-34.6c-2.3-13.7-8.1-26.8-17.8-36.8
	c-4.8-4.8-9.9-9.3-15.2-13.5c-3.5-3-7.2-5.8-10.9-8.5c-11.3-8.1-23.5-15-36.3-20.5c-13.2-5.7-27-9.9-41.2-12.5
	c-2.1-0.4-4.2-0.8-6.3-1.1c-0.9-0.1-1.3,1.3-0.4,1.4c14,2.2,27.7,5.9,40.9,11c13.5,5.2,26.3,12,38.3,20.1
	c9.1,6.2,17.7,13.1,25.8,20.6c4.5,4,8.4,8.5,11.7,13.5c4,6.5,7,13.5,8.7,20.9c2.7,12,3.1,24.3,1.2,36.4c-0.2,1-0.3,2.1-0.5,3.1
	l1.2-0.3c-15.3-13.6-31.3-26.2-48.1-37.8c-19.1-13.2-39.1-25.1-59.9-35.4c-10.4-5.2-20.9-10-31.6-14.4l0.6,0.7
	c1.8-13.5,6-26.6,12.5-38.7C1695.6,31.1,1694.3,30.3,1693.9,31.2z"/>
<path d="M1808.8,196.9l9.9-30.4c1.1-3.3,2.1-6.7,1.6-10c-0.5-2.9-2.2-5.2-3.9-7.4c-3.6-4.6-7.6-9.9-12.3-13.3
	c-1.4,10.1,1.7,22.6,2.7,32.7l2.7,28.2l-2.7-28.2l-3.2-33.2"/>
<path d="M1809.5,197.1l9.3-28.5c1.4-4.2,3.2-8.7,2-13.1c-1-3.9-4-7.1-6.5-10.2c-2.8-3.8-6.1-7.2-9.8-10.1c-0.4-0.2-0.8-0.1-1,0.3
	c0,0.1-0.1,0.1-0.1,0.2c-1,7.3,0.1,14.7,1.2,21.9c1.2,8.1,2,16.2,2.8,24.3c0.5,4.9,0.9,9.9,1.4,14.8c0.1,1,1.6,1,1.5,0l-5.9-61.4
	c-0.1-0.9-1.6-1-1.5,0l5.9,61.4h1.5l-2.5-25.7c-0.7-7.5-2.2-15-2.9-22.5c-0.5-4.1-0.5-8.3-0.1-12.4l-1.1,0.4c3.2,2.4,6,5.3,8.5,8.5
	c2.5,3.1,5.6,6.3,6.9,10.1c1.5,4.4-0.4,9-1.8,13.1l-4.3,13.3l-5,15.2C1807.7,197.6,1809.2,198,1809.5,197.1L1809.5,197.1z"/>
<path d="M1516.1,72.5l30.3-5c-18.3,17.4-34.4,36.9-48.2,58.1c2.7-17.8,7.3-35.2,13.8-52c4.6-0.2,8.9-1.7,12.7-4.3"/>
<path d="M1516.3,73.2l30.3-5l-0.7-1.3c-14.2,13.6-27.2,28.4-38.8,44.4c-3.3,4.5-6.5,9.2-9.5,13.8l1.4,0.6c2.7-17.8,7.3-35.2,13.8-52
	l-0.7,0.6c4.7-0.3,9.2-1.8,13.1-4.4c0.8-0.5,0-1.8-0.8-1.3c-3.6,2.5-7.9,4-12.3,4.2c-0.3,0-0.6,0.2-0.7,0.6
	c-6.5,16.8-11.1,34.2-13.8,52c-0.1,0.4,0.1,0.8,0.5,0.9c0.3,0.1,0.7,0,0.8-0.3c10.7-16.5,22.9-32,36.4-46.3c3.8-4,7.7-7.9,11.7-11.7
	c0.6-0.6,0-1.4-0.7-1.3l-30.3,5C1514.9,71.9,1515.4,73.3,1516.3,73.2L1516.3,73.2z"/>
<ellipse transform="matrix(0.3384 -0.941 0.941 0.3384 1008.8636 1880.7107)" class="st10" cx="1841.9" cy="222.9" rx="31.2" ry="24.9"/>
<ellipse transform="matrix(0.3428 -0.9394 0.9394 0.3428 980.2672 1916.2802)" class="st11" cx="1859.7" cy="257.5" rx="28.9" ry="23.4"/>
<ellipse transform="matrix(0.3228 -0.9465 0.9465 0.3228 980.2897 1964.754)" class="st14" cx="1863.1" cy="297.3" rx="25.2" ry="18.6"/>
<ellipse transform="matrix(0.3374 -0.9414 0.9414 0.3374 922.0136 1973.7743)" class="st15" cx="1863.1" cy="331.9" rx="22.6" ry="18"/>
<ellipse transform="matrix(0.3251 -0.9457 0.9457 0.3251 912.1223 2003.4082)" class="st16" cx="1859.7" cy="362.7" rx="21.2" ry="15.9"/>
<ellipse transform="matrix(0.3085 -0.9512 0.9512 0.3085 906.0393 2033.7853)" class="st17" cx="1851.9" cy="393.7" rx="22.1" ry="14.1"/>
<ellipse transform="matrix(0.3195 -0.9476 0.9476 0.3195 851.3397 2032.5264)" class="st18" cx="1840.8" cy="423.5" rx="17.9" ry="12.9"/>
<ellipse transform="matrix(0.3218 -0.9468 0.9468 0.3218 828.0864 2036.2461)" class="st11" cx="1835.4" cy="440.1" rx="16.1" ry="11.8"/>
<ellipse transform="matrix(0.2152 -0.9766 0.9766 0.2152 996.4883 2167.385)" class="st19" cx="1846.7" cy="463.7" rx="17.4" ry="22.2"/>
<ellipse transform="matrix(0.219 -0.9757 0.9757 0.219 982.4304 2127.1807)" class="st19" cx="1820" cy="449.9" rx="17.4" ry="22.3"/>
<path class="st7" d="M1863,468.8c-2.5,6-11.7,7.1-12.1,6.4s5.9-2.3,8.1-7.5c2.5-6.2-2.5-12.7-1.9-13S1865.9,462,1863,468.8z"/>
<path d="M1532,483c13.4,5.7,27.4,9.9,41.7,12.4c1.3,0.1,2.6,0.6,3.6,1.5c1.8,2.1-0.4,5.2-2.6,7c-7.6,6.2-15.8,11.7-24.4,16.3
	c-1.9,1.2-4,1.9-6.2,2.1c-4.6,0-7.9-4-10.1-7.9c-4.7-8.2-7.9-17.2-9.3-26.5c-0.2-0.7-0.1-1.5,0.1-2.2c0.6-0.9,1.6-1.4,2.7-1.5
	c2.5-0.5,5-0.8,7.6-0.7"/>
<path d="M1531.7,483.7c8.8,3.8,17.9,6.9,27.2,9.3c4.6,1.2,9.3,2.2,14,3c1.9,0.3,5,0.7,4.3,3.4c-0.6,2.1-2.6,3.6-4.2,4.9
	c-7.3,5.9-15.1,11-23.4,15.4c-2.1,1.1-4.4,2.1-6.8,1.6c-1.9-0.5-3.6-1.5-4.9-3c-2.9-3-4.8-7.1-6.5-10.9c-2.2-4.8-3.9-9.8-5-14.9
	c-0.3-1.2-0.5-2.5-0.7-3.7c-0.2-1.5-0.6-3,1.1-3.6c2.7-0.8,5.6-1.2,8.4-0.9c0.4,0,0.8-0.3,0.8-0.8s-0.3-0.8-0.8-0.8
	c-2.7-0.1-5.4,0.2-8.1,0.8c-1.8,0.5-3.2,1.6-3.1,3.6c0.2,2.5,0.7,5.1,1.4,7.5c0.6,2.5,1.4,5,2.3,7.5c1.7,4.8,3.8,9.4,6.5,13.7
	c2.1,3.3,5.1,6.7,9.2,7.1c2.4,0.1,4.7-0.5,6.7-1.7c2.3-1.2,4.7-2.5,6.9-3.8c4.6-2.7,9.1-5.7,13.3-8.9c2-1.4,3.9-2.9,5.7-4.5
	c1.4-1.3,2.9-3.2,2.9-5.2s-1.5-3.1-3.2-3.6c-2.4-0.7-5.1-1-7.6-1.5c-12.2-2.5-24.1-6.3-35.5-11.1
	C1531.5,482,1530.7,483.3,1531.7,483.7L1531.7,483.7z"/>
<path d="M1533.8,530.8c0.4,0,0.8-0.3,0.8-0.8s-0.3-0.8-0.8-0.8s-0.8,0.3-0.8,0.8S1533.4,530.8,1533.8,530.8z"/>
<path d="M1587.6,562.9c-12,4.9-22.2,6.5-31.2,2.7c-1.1-0.4-11.8-5.2-14.3-14.9c-0.6-2.8-0.8-5.6-0.4-8.4c0.8-8.5,2.9-16.8,6-24.7
	h-10.2c-2.1,7.3-4.2,14.1-6.2,20.5c-0.8,3.1-2.2,6-4,8.6c-3.4,4.2-8.4,6.9-13.8,7.3c-11.5,0.8-21.4-11.6-26.4-18.2
	c-20.1-26.7-21.5-56-22.2-55.8c-0.3,0.1,0.5,5.1,1.8,12.2c1.6,6.4,3.1,12.9,4.3,19.4c0.6,3.2,1.2,6.5,1.7,9.8
	c0.4,1.9,0.8,3.6,1.2,5.3c2.6,11,4.3,14.7,5.6,17.8c2.2,5.4,3.7,6.9,5.6,15.6c0.6,3.1,1.9,6,3.8,8.5c3.9,5.2,10.9,7.2,17.4,8.9
	l38.5,10.1c3.6,1.1,7.3,1.8,11.1,2.1c7.4-0.9,14.5-3.2,20.9-6.8c5.8-3.3,8.5-6.4,16.2-14.3c1.2-1.2,7.2-7.3,18.6-18.9
	C1604.2,555,1596.1,559.4,1587.6,562.9z"/>
<path d="M1587.4,562.2c-10.4,4.2-22.7,7.3-33.1,1.5c-3.9-2.1-7.3-5.1-9.7-8.9c-2.9-4.9-2.5-10.3-1.8-15.7c1-7.3,2.9-14.5,5.6-21.4
	c0.1-0.4-0.1-0.8-0.5-0.9c-0.1,0-0.1,0-0.2,0h-10.2c-0.3,0-0.6,0.2-0.7,0.5c-1.2,4.1-2.4,8.1-3.6,12.1c-1.1,3.7-2.2,7.5-3.5,11.1
	c-1.1,3.1-2.9,5.9-5.3,8.1c-2.6,2.2-5.7,3.7-9.1,4.3c-6.3,1.2-12.2-1.9-16.9-5.9c-4.2-3.8-8-8-11.3-12.6
	c-8.2-11.3-14.2-24.1-17.8-37.6c-1.1-4.1-2-8.3-2.8-12.5c-0.2-1.2-0.4-2.3-0.6-3.5c-0.1-0.5-0.1-1.3-0.6-1.5
	c-1.6-0.9-1.1,2.1-1.1,2.7c0.4,3.2,1,6.3,1.6,9.4c0.8,4.2,2,8.3,2.9,12.5s1.7,8.5,2.5,12.7c1.9,11.1,4.8,21.8,9.5,32
	c1.1,2.2,1.9,4.5,2.7,6.9c0.9,3,1.3,6.1,2.5,9c1.2,3.1,3.3,5.7,5.9,7.8c2.7,1.9,5.6,3.4,8.8,4.3c3.6,1.2,7.3,2.1,11,3l12.8,3.3
	c8.4,2.2,16.8,4.7,25.3,6.5c1.9,0.4,3.8,0.7,5.8,0.9c1.5,0,2.9-0.2,4.3-0.5c3.4-0.6,6.8-1.5,10.1-2.8c5.6-2,10.7-5.1,15.2-9.1
	c3.5-3.2,6.7-6.8,10-10.2c3.1-3.2,6.3-6.4,9.4-9.6c2.7-2.7,5.3-5.3,7.9-8c0.6-0.6-0.2-1.7-0.9-1.2
	C1603.8,554.3,1595.8,558.7,1587.4,562.2c-0.9,0.3-0.5,1.8,0.4,1.4c8.6-3.5,16.7-8,24.3-13.3l-0.9-1.2c-6.9,7-13.8,13.9-20.5,20.9
	c-3.8,3.9-7.5,8-12.1,11c-6,3.8-12.6,6.3-19.6,7.4c-1.6,0.3-3.2,0.4-4.8,0.3c-2.1-0.3-4.2-0.7-6.3-1.2c-4.1-1-8.2-2.1-12.4-3.2
	l-25-6.5c-6.5-1.7-14.2-3-19.2-7.8s-5.2-11.6-7.4-17.6c-1.4-3.7-3.2-7.3-4.7-11c-2-5.3-3.6-10.8-4.8-16.4
	c-1.9-8.2-3.1-16.6-4.9-24.8c-0.9-4-2-8-2.7-12.1c-0.3-1.6-0.6-3.2-0.8-4.7c-0.1-0.9-0.1-2-0.3-2.8c0-0.1,0-0.3,0-0.3
	s-1.2,0.1-1.3,0.2s0-0.2,0,0.1c0,0.3,0.1,0.6,0.2,0.9c0.2,1.2,0.4,2.3,0.6,3.5c0.7,4.2,1.6,8.3,2.7,12.4c3.5,13,9.2,25.4,16.9,36.4
	c3.2,4.7,6.9,9,10.9,12.9c4.2,3.9,9.2,7.3,15,8c6.2,0.5,12.2-1.9,16.4-6.5c1.9-2.3,3.4-4.9,4.3-7.8c1.3-3.6,2.3-7.3,3.4-11
	c1.2-3.9,2.3-7.8,3.5-11.7l-0.7,0.5h10.2l-0.7-1c-2.6,6.6-4.4,13.4-5.5,20.4c-0.8,5.3-1.4,10.9,0.9,16c3.6,8.1,12.8,13.5,21.4,14.5
	c8.2,1,16.5-1.5,24.1-4.6C1588.7,563.3,1588.3,561.9,1587.4,562.2z"/>
<path d="M1645.4,516.1c0.4-0.5,0.8-1.1,1.3-1.7c-1.9,1.8-8.6,8.5-20.2,20.2c-5.7,5.8-10.6,10.8-14.8,15c1.7-1.2,3.4-2.5,5-3.7
	C1624.5,534.8,1637.6,526,1645.4,516.1z"/>
<path d="M1646,516.7c0.5-0.6,0.9-1.2,1.4-1.8s-0.6-1.5-1.2-0.9c-2.8,2.6-5.5,5.4-8.2,8.1c-5.8,5.8-11.6,11.7-17.3,17.5l-9.5,9.6
	c-0.6,0.6,0.2,1.7,0.9,1.2c1.1-0.7,2.1-1.5,3.2-2.3c0.8-0.5,1.5-1.1,2.2-1.7c1.4-1.5,2.5-3.3,3.8-4.8c2.6-3,5.4-5.8,8.3-8.4
	C1635.2,527.8,1641.2,522.8,1646,516.7c0.6-0.8-0.5-1.8-1.1-1.1c-4.8,6-10.7,11-16.3,16.3c-2.9,2.7-5.7,5.5-8.3,8.4
	c-1.2,1.4-2.4,2.8-3.5,4.3c-1.3,1.8-3.6,3.1-5.4,4.4l0.9,1.2c10.5-10.6,21-21.3,31.5-31.8c1.2-1.2,2.3-2.3,3.5-3.4l-1.2-0.9
	l-1.2,1.5C1644.3,516.4,1645.4,517.4,1646,516.7z"/>
<path class="st20" d="M1591.1,396.4c7.9,0.5,15.8,1.7,23.5,3.6c9.5,2.3,18.6,5.7,27.3,10.2c3.5-3.7,5.9-8.3,6.9-13.4
	c0.6-3.2,0.6-6.5,0-9.7c-5.3-2.7-19.6-9-37.3-5.9c-6.2,1.1-12.3,3.2-17.8,6.3L1591.1,396.4z"/>
<path class="st20" d="M1570,392.4c-7.1-3.6-14.4-6.5-22-8.7c-9.4-2.7-19.1-4.4-28.9-5c-0.9-5-0.3-10.1,1.6-14.8
	c1.3-3.1,3.1-5.8,5.4-8.2c6,0.4,21.6,2.1,35,13.6c4.7,4,8.6,8.8,11.6,14.2L1570,392.4z"/>
<path class="st20" d="M1618.7,312.2c-1,6.2-2.5,12.2-4.4,18.2c-2.9,9.1-5.1,16.2-4.8,22.9c0.7,15.1,13.1,16.1,12.2,26.3
	c-1.3,14.3-29.3,25.8-31.5,26.6c-1.1,0.5-2.2,0.9-3.4,1.1c-7.2,1.2-14.5-0.8-20.1-5.4c-1-0.8-1.8-1.8-2.5-2.8
	c-1.5-2-17.8-23.3-11.6-37c4.4-9.6,14.6-5,23.5-17.9c2.8-4.1,4.9-10.4,9.1-23c2.6-7.9,4-13,4.7-15.7c5.7-19.7,21.1-43.9,27.6-42.2
	S1623.1,293.6,1618.7,312.2z"/>
<ellipse transform="matrix(0.3384 -0.941 0.941 0.3384 871.2159 1460.6188)" class="st10" cx="1474.3" cy="110.7" rx="33.4" ry="26.6"/>
<ellipse transform="matrix(0.3384 -0.941 0.941 0.3384 835.9395 1442.8822)" class="st10" cx="1444.1" cy="127" rx="31.2" ry="24.9"/>
<ellipse transform="matrix(0.3401 -0.9404 0.9404 0.3401 790.1327 1418.2019)" class="st21" cx="1405.6" cy="146.1" rx="28.9" ry="23.4"/>
<ellipse transform="matrix(0.3228 -0.9465 0.9465 0.3228 767.7044 1432.5516)" class="st14" cx="1384.9" cy="179.8" rx="25.2" ry="18.6"/>
<ellipse transform="matrix(0.3374 -0.9414 0.9414 0.3374 707.7037 1423.6503)" class="st15" cx="1365.1" cy="209.1" rx="22.6" ry="18"/>
<ellipse transform="matrix(0.3251 -0.9457 0.9457 0.3251 687.7538 1437.7921)" class="st16" cx="1351.2" cy="237.1" rx="21.2" ry="15.9"/>
<ellipse transform="matrix(0.3085 -0.9512 0.9512 0.3085 672.7734 1459.6001)" class="st17" cx="1340.3" cy="267.1" rx="22.1" ry="14.1"/>
<ellipse transform="matrix(0.3195 -0.9476 0.9476 0.3195 624.7034 1465.7858)" class="st18" cx="1332.9" cy="297.9" rx="17.9" ry="12.9"/>
<ellipse transform="matrix(0.3218 -0.9468 0.9468 0.3218 602.9873 1471.3153)" class="st11" cx="1328.5" cy="314.8" rx="16.1" ry="11.8"/>
<ellipse transform="matrix(0.2152 -0.9766 0.9766 0.2152 703.2556 1533.4457)" class="st19" cx="1305.7" cy="329.2" rx="17.4" ry="22.2"/>
<ellipse transform="matrix(0.2152 -0.9766 0.9766 0.2152 722.4559 1577.2179)" class="st19" cx="1342.5" cy="339.1" rx="17.4" ry="22.2"/>
<path class="st7" d="M1288.9,325.4c-1.2,6.4,6,11.9,6.7,11.5s-3.8-4.9-2.7-10.4c1.3-6.5,9.2-9.5,8.8-10.1S1290.2,318.2,1288.9,325.4
	z"/>
<path class="st12" d="M1616.5,265.7c0.8,0,1.5-0.7,1.5-1.5s-0.7-1.5-1.5-1.5s-1.5,0.7-1.5,1.5S1615.7,265.7,1616.5,265.7z"/>
<path class="st12" d="M1619.8,262.9c-1.5-1.2-3.5-1.4-5.2-0.5c-1.6,0.8-3,2-4.1,3.5c-2.4,3-5.1,6.4-4.1,10.5c0.2,0.8,1.1,1.3,1.9,1
	c0.2-0.1,0.5-0.2,0.6-0.4c4.6-5.5,9.8-10.8,13.4-17l-2.7-0.4c0.8,2.3,0.4,5,0.3,7.3l-0.2,8l2.9-0.4c-1.2-3.1-2.2-6.3-2.8-9.6
	c-0.3-1.5-2.5-1.3-2.9,0l-2,6.7c-0.6,1.9,2.3,2.6,2.9,0.8l2-6.7h-2.9c0.6,3.3,1.6,6.5,2.8,9.6c0.1,0.8,0.9,1.4,1.7,1.3
	c0.8-0.1,1.4-0.9,1.3-1.7l0.2-8.4c0.1-2.5,0.4-5.3-0.4-7.8c-0.2-0.8-1.1-1.3-1.9-1c-0.3,0.1-0.6,0.3-0.8,0.6
	c-3.5,6-8.4,11.2-12.9,16.4l2.5,0.7c-0.6-2.7,1.4-5.2,3-7.1c0.8-1.1,1.7-2,2.7-2.8c0.6-0.5,1.9-1.1,2.7-0.5c0.6,0.6,1.5,0.6,2.1,0
	C1620.4,264.5,1620.4,263.6,1619.8,262.9L1619.8,262.9z"/>
<path class="st12" d="M1608.4,272.4c0.8,0,1.5-0.7,1.5-1.5s-0.7-1.5-1.5-1.5s-1.5,0.7-1.5,1.5S1607.6,272.4,1608.4,272.4z"/>
<path class="st12" d="M1608.1,272.9c0.8,0,1.5-0.7,1.5-1.5s-0.7-1.5-1.5-1.5s-1.5,0.7-1.5,1.5S1607.3,272.9,1608.1,272.9z"/>
<path class="st12" d="M1608.2,272.7c0.8,0,1.5-0.7,1.5-1.5s-0.7-1.5-1.5-1.5s-1.5,0.7-1.5,1.5S1607.3,272.7,1608.2,272.7z"/>
<path class="st12" d="M1608.1,273.6c0.8,0,1.5-0.7,1.5-1.5s-0.7-1.5-1.5-1.5s-1.5,0.7-1.5,1.5S1607.2,273.6,1608.1,273.6z"/>
<path class="st12" d="M1608.1,272.7c0.8,0,1.5-0.7,1.5-1.5s-0.7-1.5-1.5-1.5s-1.5,0.7-1.5,1.5S1607.3,272.7,1608.1,272.7z"/>
<path class="st12" d="M1608.1,273.6c0.8,0,1.5-0.7,1.5-1.5s-0.7-1.5-1.5-1.5s-1.5,0.7-1.5,1.5S1607.2,273.6,1608.1,273.6z"/>
<path class="st12" d="M1607.6,275.4c0.8,0,1.5-0.7,1.5-1.5s-0.7-1.5-1.5-1.5s-1.5,0.7-1.5,1.5S1606.7,275.4,1607.6,275.4z"/>
<path class="st12" d="M1621.3,278.1c0.8,0,1.5-0.7,1.5-1.5s-0.7-1.5-1.5-1.5s-1.5,0.7-1.5,1.5S1620.4,278.1,1621.3,278.1z"/>
<path class="st12" d="M1621.1,279.1c0.8,0,1.5-0.7,1.5-1.5s-0.7-1.5-1.5-1.5s-1.5,0.7-1.5,1.5S1620.3,279.1,1621.1,279.1z"/>
<path class="st12" d="M1620.4,280.5c0.8,0,1.5-0.7,1.5-1.5s-0.7-1.5-1.5-1.5s-1.5,0.7-1.5,1.5S1619.6,280.5,1620.4,280.5z"/>
<path class="st12" d="M1620.7,280.1c0.8,0,1.5-0.7,1.5-1.5s-0.7-1.5-1.5-1.5s-1.5,0.7-1.5,1.5S1619.8,280.1,1620.7,280.1z"/>
<path class="st12" d="M1621,279.4c0.8,0,1.5-0.7,1.5-1.5s-0.7-1.5-1.5-1.5s-1.5,0.7-1.5,1.5S1620.2,279.4,1621,279.4z"/>
<path class="st12" d="M1621.2,279c0.8,0,1.5-0.7,1.5-1.5s-0.7-1.5-1.5-1.5s-1.5,0.7-1.5,1.5S1620.3,279,1621.2,279z"/>
<path class="st12" d="M1620.2,281.3c0.8,0,1.5-0.7,1.5-1.5s-0.7-1.5-1.5-1.5s-1.5,0.7-1.5,1.5S1619.4,281.3,1620.2,281.3z"/>
<path class="st12" d="M1620.2,281.6c0.8,0,1.5-0.7,1.5-1.5s-0.7-1.5-1.5-1.5s-1.5,0.7-1.5,1.5S1619.4,281.6,1620.2,281.6z"/>
<path class="st12" d="M1620.4,281.1c0.8,0,1.5-0.7,1.5-1.5s-0.7-1.5-1.5-1.5s-1.5,0.7-1.5,1.5S1619.6,281.1,1620.4,281.1z"/>
<path class="st12" d="M1620.6,280.5c0.8,0,1.5-0.7,1.5-1.5s-0.7-1.5-1.5-1.5s-1.5,0.7-1.5,1.5S1619.8,280.5,1620.6,280.5z"/>
<path class="st12" d="M1620.8,279.9c0.8,0,1.5-0.7,1.5-1.5s-0.7-1.5-1.5-1.5s-1.5,0.7-1.5,1.5S1619.9,279.9,1620.8,279.9z"/>
<path d="M1625.1,531.4c-12,10.6-23.7,21.6-36.6,31.1l1.8,2.4c6.9-6.4,13.9-12.8,21.1-18.9c3.5-2.9,7.1-5.7,10.4-8.7s6.5-6.1,9.7-9.2
	c3.6-3.5,7.3-7.1,11.2-10.3c1.5-1.2-0.7-3.3-2.1-2.1c-6.8,5.7-12.9,12.3-19.5,18.3c-3.3,3-6.8,5.8-10.3,8.7c-3.6,3-7.2,6.1-10.7,9.3
	c-4,3.6-8,7.2-11.9,10.9c-1.2,1.1,0.4,3.4,1.8,2.4c13.1-9.7,25-20.9,37.2-31.6C1628.6,532.2,1626.5,530.1,1625.1,531.4L1625.1,531.4
	z"/>
<path d="M1603.4,556c8.4-8.8,16.8-17.7,26.5-25c1.5-1.2,0-3.8-1.5-2.6c-9.9,7.5-18.5,16.5-27.1,25.5
	C1600,555.3,1602.1,557.4,1603.4,556z"/>
<path d="M1462.6,458.7c1.9,9.1,3.8,18.2,5.7,27.3c1.8,9,3.5,18,3.7,27.1c0,1.9,3,1.9,3,0c-0.2-9.2-1.9-18.4-3.7-27.4
	c-1.9-9.3-3.8-18.5-5.8-27.8C1465.1,456,1462.2,456.8,1462.6,458.7L1462.6,458.7z"/>
<path class="st22" d="M1483.7,241.4c0.2-0.5,0.6-1.2,0.6-1.2s0.5-1,0.8-1.7c0.6-1.2,26.1-9.7,56.7,4.3
	c23.1,10.6,47.2,33.2,42.3,43.1s-37.8,6.6-61.5-4.6C1492.5,267.1,1483.1,242.6,1483.7,241.4z"/>
<path class="st9" d="M1483.2,238.7c2.2-4.8,6.7-7.1,14.3-10.8c6.1-2.9,12.6-4.8,19.2-5.6c11.5-1.6,25-3.6,39,3.2
	c6.7,3.3,12.6,8,17.4,13.8c4.5,4.8,8.1,10.5,10.5,16.7c2.3,6.3,3.5,13,3.5,19.7c0.1,3.5,0,6.9-0.3,10.4c-2.3-3.4-4.7-6.6-7.3-9.8
	c-1.6-1.9-3-3.5-13.6-14.1c-6.3-6.3-6.7-6.7-7.5-7.4c-3.9-3.2-7.4-4.9-14.4-8.4c-3.4-1.8-7-3.4-10.7-4.7c-3.2-1.1-6.5-1.9-9.9-2.4
	c-1.8-0.2-3.6-0.3-5.3-0.3l-5.4-0.4c-3.9,0.1-7,0.1-9.2,0c-3.9-0.2-5.9-0.5-10.7-0.7c-3.1-0.2-5.6-0.2-7.3-0.2
	c-0.3,0.6-0.5,1.1-0.8,1.7l-0.8,1.7c-0.4,0.9,2.2,5.6,14.7,21.3c7.2,8.5,16.3,15.2,26.6,19.6c11.6,4.9,21.8,5.5,31.2,6.1
	c10.1,0.6,20.3,0,30.3-1.7c-11.5,5.7-23.9,9.1-36.6,10.3c-10.8,0.9-22.1,1.9-34.2-4.3c-11.6-5.9-17.5-14.9-22.8-23.1
	C1486.6,259.5,1479.1,247.8,1483.2,238.7z"/>
<path class="st23" d="M1555.4,261.8c0.6-1.4,2.1-5.2,0.8-8.2c-0.6-1.3-1.5-1.7-5.2-3.8c-6.7-3.8-5.7-3.4-8.2-4.6
	c-2.7-1.4-5.6-2.6-8.5-3.5c-3.3-1-4.9-1.4-6.5-1.2c-4.9,0.6-9.5,6.2-11.4,11.2c-3.5,9.4,3,22,13.3,24.7
	C1540.8,279.2,1552.2,269.7,1555.4,261.8z"/>
<ellipse transform="matrix(0.9572 -0.2895 0.2895 0.9572 -8.9473 455.7272)" cx="1536" cy="258.1" rx="8.9" ry="8.5"/>
<path class="st22" d="M1746.7,313c0.1-0.5,0.2-1.3,0.2-1.3s0.2-1.1,0.2-1.8c0.2-1.3-16.8-21.3-50.6-24.6
	c-25.5-2.5-58.7,4.7-59.9,15.5s28.4,24.5,54.8,26.8C1724.8,330.5,1746.5,314.4,1746.7,313z"/>
<path class="st9" d="M1748.6,311c0.9-5.2-1.8-9.4-6.2-16.3c-2.5-3.9-6.2-8.6-13.2-14.3c-8.8-7.1-19.3-15.5-34.9-16.8
	c-7.6-0.5-15.3,0.5-22.5,3c-6.6,1.9-12.7,4.9-18.2,9c-5.4,4.2-10.2,9.3-14,15c-2,2.9-3.9,5.9-5.5,9c3.8-1.7,7.7-3.3,11.7-4.6
	c2.5-0.8,4.6-1.5,19.4-5.2c8.8-2.2,9.4-2.4,10.5-2.5c5.1-0.8,9.1-0.5,16.9,0c3.9,0.1,7.8,0.6,11.7,1.3c3.3,0.6,6.6,1.6,9.8,2.9
	c1.6,0.7,3.2,1.5,4.8,2.4l4.8,2.4c3.2,2,5.9,3.5,7.8,4.5c3.4,1.8,5.3,2.5,9.5,4.7c2.7,1.4,4.9,2.6,6.3,3.4l-0.3,1.9
	c0,0-0.2,1.8-0.3,1.9c-0.2,1-5,3.6-24.4,10.8c-10.8,3.6-22.2,4.7-33.5,3.4c-12.6-1.6-21.6-6.2-29.9-10.4
	c-8.9-4.5-17.2-10.1-24.8-16.5c6.6,10.6,15.2,19.7,25.3,27c8.7,6.2,17.7,12.6,31.5,13.4c13.1,0.8,23.2-4,32.2-8.2
	C1734.1,327,1747,320.8,1748.6,311z"/>
<path class="st23" d="M1674.4,294.6c0.3-1.4,1.1-5.5,3.9-7.4c1.3-0.8,2.2-0.7,6.6-0.6c7.8,0.2,6.7-0.1,9.5,0.1
	c3.1,0.1,6.2,0.6,9.2,1.3c3.3,0.8,5,1.2,6.2,2.2c3.8,3,4.6,10,3.4,15.2c-2.3,9.7-14.8,17.2-25.1,14.4
	C1677.1,316.7,1672.7,303,1674.4,294.6z"/>
<ellipse cx="1692.9" cy="301" rx="8.8" ry="8.6"/>
<path class="st24" d="M1569.9,417.4c-1.9-1.8-3.8-3.5-5.9-5.2c-27.4-23.2-58.8-35-88.5-40.6c-2.5,5.2-5.1,10.3-7.6,15.5
	c24,19,52.8,35.2,87,44c2.5,0.7,4.9,1.3,7.3,1.8c1.1-0.7,2.1-1.6,3-2.6c2-2.2,3.3-4.9,4-7.8C1569.7,420.9,1569.9,419.2,1569.9,417.4
	z"/>
<path class="st24" d="M1695,422.2c-5.6-0.6-10.2-1.1-12.8-1.4c-57-6.1-76-9.9-102.6-4.5c-3.5,0.7-6.3,1.4-7.2,1.6
	c-1.5,2.5-2.3,5.3-2.5,8.2c-0.2,2.5,0.2,5.1,1.1,7.4c2,0.6,4.1,1.1,6.2,1.7c30.9,7.9,69.6,11.6,116.2,3.9
	C1693.9,433.6,1694.4,427.9,1695,422.2z"/>
<path d="M1685.6,454.2c3.6-7.6,10-14.9,9.5-23.7c-0.2-3.6-1.5-7.5-4.6-9.5c-2.7-1.8-6.1-1.7-9.1-1.3c-3.6,0.7-7.1,1.7-10.5,2.9
	c-1.8,0.6-1,3.5,0.8,2.9c2.7-0.9,5.4-1.8,8.2-2.5c2.6-0.6,5.5-1.1,8,0c2.8,1.1,4,4.3,4.2,7.1c0.3,3.9-1,7.6-2.7,11
	c-2,3.9-4.5,7.6-6.3,11.6C1682.2,454.4,1684.8,455.9,1685.6,454.2L1685.6,454.2z"/>
<path d="M1689.4,447.1c0-3.4-0.6-6.7-2-9.7c-0.4-0.7-1.4-0.9-2.1-0.5c-0.2,0.1-0.4,0.3-0.5,0.5c-2.9,5.6-5.3,11.4-8.2,17
	c-2.5,4.8-6.2,9.7-3.6,15.2c0.8,1.7,3.4,0.2,2.6-1.5c-1.1-2.3-0.4-4.8,0.7-7s2.5-4.5,3.7-6.8c2.5-5.1,4.7-10.3,7.4-15.3h-2.6
	c1.1,2.6,1.6,5.4,1.5,8.2c0,0.8,0.7,1.5,1.5,1.5S1689.4,448,1689.4,447.1L1689.4,447.1z"/>
<path d="M1696.8,439c1.4-5.5,1.6-11.5-1.4-16.5c-0.5-0.7-1.4-0.9-2.1-0.5c-0.4,0.3-0.7,0.7-0.7,1.2c-0.9,16-10.2,30-18.7,43
	c-2.4,3.7-4.8,7.5-7.1,11.3c-0.4,0.7-0.1,1.6,0.6,2s1.6,0.1,2-0.5c8.2-14,18.7-26.9,23.7-42.5c1.4-4.3,2.2-8.8,2.5-13.3l-2.8,0.8
	c2.6,4.3,2.3,9.5,1.1,14.2C1693.5,440.1,1696.3,440.9,1696.8,439L1696.8,439z"/>
<path d="M1679.8,437.8c-6.8,21.5-16.4,42-28.8,60.9c-3.4,5.3-7.1,10.4-11,15.4c-0.4,0.7-0.1,1.6,0.5,2c0.7,0.4,1.6,0.2,2.1-0.5
	c13.8-18,25.1-37.7,33.5-58.8c2.4-6,4.6-12.1,6.5-18.2C1683.3,436.7,1680.4,435.9,1679.8,437.8L1679.8,437.8z"/>
<path d="M1462.4,449.9c1.9-4.2,2.5-8.8,1.9-13.4c-0.5-4.6-1.8-9.1-2.7-13.6c-0.9-4.6-1-9.3-0.2-14c0.9-4.9,2.2-9.7,4-14.4
	c2-5.4,4.3-10.7,6.5-16.1c0.2-0.7-0.2-1.5-0.9-1.8c-0.7-0.3-1.5,0-1.9,0.6c-4.6,6.2-8.4,12.9-11.3,20c-0.6,1.6,2,2.7,2.7,1.2
	c2.2-5,4-10.1,6.7-14.9c0.8-1.5,1.8-3,3-4.2c0.4-0.4,0.9-0.8,1.5-1.1c0.5-0.3,0,0.1,0.2-0.1s-0.2,0.1-0.2-0.1c0,0.3,0.2,0.7,0.3,1
	c0.4,1.9,3.3,1.1,2.9-0.8c-0.4-2.1-2-3.7-4.2-2.9c-1.9,0.7-3.4,2.5-4.5,4.1c-3.8,5.2-5.6,11.6-8.3,17.4l2.8,1.2
	c2.8-6.9,6.5-13.3,11-19.3l-2.7-1.1c-3.8,9.2-8,18.4-10,28.2c-1.1,4.6-1.3,9.4-0.8,14.1c0.6,4.5,1.9,9,2.7,13.5
	c0.9,5,1.1,10.2-1.1,14.9C1459.1,450.2,1461.7,451.7,1462.4,449.9L1462.4,449.9z"/>
<path d="M1456.5,431.9c1,6.6,2.3,13.1,3.3,19.7c0.2,0.8,1.1,1.3,1.8,1c0.8-0.3,1.2-1.1,1-1.8c-1-6.6-2.3-13.1-3.3-19.7
	c-0.2-0.8-1-1.3-1.8-1C1456.7,430.3,1456.3,431.1,1456.5,431.9z"/>
<path d="M1479.6,376.9c-1.1-2.6-3.2-4.7-6.2-4.8c-2.8,0-5.4,1.5-7.6,3.2c-5.6,4.5-8.6,11.3-10.1,18.1c-0.9,4.5-1.4,9.1-1.3,13.7
	c0,0.8,0.7,1.5,1.5,1.5s1.5-0.7,1.5-1.5c0.1-7,0.8-14.3,3.8-20.7c2-4.4,5.6-9.5,10.5-11c2.7-0.9,4.4,0.5,5.4,3
	C1477.7,380.3,1480.3,378.7,1479.6,376.9L1479.6,376.9z"/>
<path d="M1475.1,374.8c-1.7-3.5-5.8-5-9.3-3.3c-0.6,0.3-1.1,0.6-1.5,1c-3.9,2.7-6.7,6.9-8.9,11.1c-1.1,1.9-1.9,3.9-2.5,5.9
	c-0.2,0.8,0.3,1.6,1.1,1.8c0.8,0.2,1.6-0.3,1.8-1.1c1.1-3.5,2.7-6.8,4.9-9.7c1.1-1.7,2.5-3.2,4-4.6c0.6-0.6,1.3-1.1,2.1-1.5
	c0.3-0.2,0.6-0.3,0.9-0.4l0.5-0.1l0.3-0.1c0.4-0.1-0.2,0,0.1,0c0.7-0.1,1.4,0,2,0.4c0.8,0.5,1.6,1.2,2.1,2.1
	C1473.6,377.9,1476.2,376.4,1475.1,374.8L1475.1,374.8z"/>
<path d="M1454.8,387.4c1.6,12.6,3.2,25.2,4.4,37.8l2.8-0.8c-0.3-1-0.4-2.1-0.1-3.2c0.2-1.2,0.1-2.5-0.2-3.7c-0.3-1.2-0.8-2.4-1-3.7
	c-0.2-1.4-0.3-2.8-0.2-4.3c0.3-2.7,0.7-5.5,1.3-8.1c0.5-2.8,1.1-5.7,1.7-8.5c0.4-1.9-2.5-2.7-2.9-0.8c-0.6,3-1.2,6-1.8,9
	c-0.7,2.9-1.1,5.9-1.3,8.9c-0.1,1.4,0,2.8,0.2,4.1c0.2,1.4,0.8,2.7,1.1,4.1c0.6,2.6-0.7,5.1,0.6,7.6c0.4,0.7,1.4,0.9,2.1,0.5
	c0.4-0.3,0.7-0.7,0.7-1.2c-1.2-12.6-2.8-25.2-4.4-37.8C1457.5,385.5,1454.5,385.5,1454.8,387.4L1454.8,387.4z"/>
<path d="M1461.9,440.5c0.7,10.8,2.3,21.6,4.8,32.2c0.4,1.7,2.9,1.3,2.9-0.4c0.1-11.9-1.4-23.8-4.5-35.4c-0.2-0.8-1.1-1.2-1.9-1
	s-1.2,1-1,1.8c3,11.3,4.5,22.9,4.4,34.5l3-0.4c-2.2-10.4-4.1-20.8-4.6-31.4C1464.8,438.6,1461.8,438.6,1461.9,440.5L1461.9,440.5z"
	/>
<path d="M1695.7,420.8c0.7-1.2,0.4-2.8-0.7-3.7c-0.3-0.3-0.7-0.5-1.1-0.6s-0.7-0.2-1.1-0.2c-0.7,0-1.3,0.1-2,0.3
	c-0.4,0.1-0.7,0.4-0.9,0.7c-0.4,0.7-0.2,1.6,0.5,2.1c0.4,0.2,0.8,0.3,1.2,0.1c0.3-0.1,0.6-0.1,0.9-0.2h-0.4c0.3,0,0.6,0,0.9,0h-0.4
	c0.2,0,0.4,0.1,0.6,0.1l-0.4-0.1c0.1,0.1,0.2,0.1,0.3,0.2l-0.3-0.2c0.1,0.1,0.2,0.2,0.3,0.3l-0.2-0.3c0.1,0.1,0.2,0.3,0.2,0.4
	l-0.2-0.4c0,0.1,0.1,0.2,0.1,0.4l-0.1-0.4c0,0.1,0,0.2,0,0.4l0.1-0.4c0,0.1-0.1,0.2-0.1,0.3l0.2-0.4c0,0.1-0.1,0.1-0.1,0.2
	c-0.4,0.7-0.2,1.6,0.5,2c0.3,0.2,0.8,0.3,1.2,0.1C1695.1,421.4,1695.5,421.2,1695.7,420.8L1695.7,420.8z"/>
<path d="M1695.3,433.8c-8.6,14.2-17.5,28.2-26.6,42c-2.6,3.9-5.2,7.9-7.9,11.8c-1.1,1.6,1.5,3.1,2.6,1.5
	c9.3-13.7,18.4-27.6,27.1-41.7c2.5-4,4.9-8,7.4-12.1C1698.9,433.6,1696.3,432.1,1695.3,433.8L1695.3,433.8z"/>
<path d="M1662.4,484.7c-2.7,4-5.8,7.8-8.7,11.6l-4.4,5.8l-2.3,3l-1.2,1.5l-0.6,0.8c-0.4,0.4-0.4,0.5,0.1,0.4l1.1,0.4l-0.1-0.1
	c-1.3-1.4-3.4,0.7-2.1,2.1c2,2.1,4.3-2,5.3-3.3l5.3-7c3.4-4.5,7.1-9,10.3-13.7C1666.1,484.6,1663.5,483.1,1662.4,484.7L1662.4,484.7
	z"/>
<path d="M1674.8,421.2c0.8,0,1.5-0.7,1.5-1.5s-0.7-1.5-1.5-1.5s-1.5,0.7-1.5,1.5S1674,421.2,1674.8,421.2z"/>
<path d="M1680.3,415.9l-6.8,0.7l0.4,3c4.3-0.8,8.7-1.2,13.1-1.2c1.9-0.1,3.7,0,5.6,0.4c1.8,0.4,2.4,1.5,2.6,3.4s3.1,1.9,3,0
	c-0.2-2.2-0.7-4.2-2.7-5.5c-1.8-1.1-4.1-1.1-6.2-1.2c-5.4-0.2-10.8,0.2-16.1,1.2c-1.6,0.3-1.3,3.1,0.4,2.9l6.8-0.7
	C1682.2,418.7,1682.3,415.7,1680.3,415.9L1680.3,415.9z"/>
<path d="M1687.7,443c0.8,0,1.5-0.7,1.5-1.5s-0.7-1.5-1.5-1.5s-1.5,0.7-1.5,1.5S1686.9,443,1687.7,443z"/>
<path d="M1463.2,382.4c-1.6,5.2-3.7,10.2-6.2,15l2.8,0.8c0.2-3.3,1-6.5,2.2-9.6c0.6-1.5,1.4-3,2.2-4.4c0.4-0.7,0.9-1.4,1.4-2.1
	c0.2-0.3,0.4-0.5,0.6-0.8c0.1-0.2,0.3-0.3,0.5-0.5c0.3-0.1,0.3-0.2-0.1-0.2c1.2,0.7,2.9-0.8,2.1-2c-1.9-2.8-5.5-2.1-7.6,0
	c-2.4,2.4-3,5.9-5.4,8.3l2.6,1.1c0.3-3.2,2.6-5.9,5.3-7.4c3.3-1.9,7.3-1.8,11.1-1.8c0.8,0,1.5-0.7,1.5-1.5s-0.7-1.5-1.5-1.5
	c-4.5,0-9.2,0.1-13.1,2.5c-3.5,2.1-5.8,5.6-6.3,9.7c-0.1,1.4,1.7,1.9,2.6,1.1c1.9-1.8,2.8-4.3,4.1-6.5c0.5-1,1.3-1.8,2.2-2.5
	c0.6-0.3,1.6-0.6,2,0.1l2-2c-2-1.1-3.8,0.7-4.9,2.2c-1.3,1.7-2.4,3.5-3.3,5.5c-1.8,3.9-2.9,8.1-3.2,12.4c0,0.8,0.7,1.5,1.5,1.5
	c0.5,0,1-0.3,1.2-0.7c2.7-5,4.9-10.3,6.5-15.7C1466.6,381.4,1463.7,380.6,1463.2,382.4L1463.2,382.4z"/>
<path d="M1476.2,373.4c-0.1-0.3-0.2-0.7-0.4-1l-1.3,2.3h0.4c1.6,0,2.1-2.6,0.4-3c-1.5-0.4-3.1-0.7-4.6-0.8c-1.6,0-3,0.8-4,2
	c-2,2-3.6,4.3-4.9,6.9c-0.4,0.7-0.2,1.6,0.5,2s1.6,0.2,2.1-0.5c1-2.1,2.4-4.1,4-5.8c0.6-0.7,1.3-1.6,2.3-1.6
	c1.3,0.1,2.6,0.4,3.8,0.7l0.4-3h-0.4c-0.8,0-1.5,0.7-1.5,1.5c0,0.3,0.1,0.5,0.2,0.7c0.2,0.3,0-0.1,0.1,0.2c0.2,0.8,1,1.3,1.8,1
	C1475.9,374.9,1476.4,374.1,1476.2,373.4L1476.2,373.4z"/>
<path d="M1453.4,388.9c-0.4,1.4-0.5,2.9-0.2,4.3c0.3,1.3,0.4,2.7,0.2,4.1h2.9c-0.3-1.2-0.6-2.4-0.7-3.6c-0.1-0.6-0.1-1.3-0.1-1.9
	c-0.1-0.4-0.1-0.7,0-1.1l-2.5-0.7c0.2,0.6,0.4,1.3,0.5,1.9c0.2,0.5,0.3,1.1,0.2,1.7c-0.2,0.6-0.4,1.2-0.5,1.9c0,0.6,0,1.3,0,2
	c0,1.3,0,2.6,0,4s-0.2,2.8,1.1,3.7c0.7,0.4,1.6,0.1,2-0.5c0.4-0.7,0.2-1.6-0.5-2l-0.1-0.1l0.5,0.5c0.1,0.3,0.1,0.4,0,0.1
	s0-0.3,0-0.4c0-0.3,0-0.6,0-1c0-0.6,0-1.1,0-1.7c0-1.3,0-2.5,0-3.8s0.7-2.1,0.6-3.3c-0.2-1.2-0.4-2.5-0.8-3.6
	c-0.2-0.8-1.1-1.3-1.9-1c-0.2,0.1-0.4,0.2-0.6,0.4c-1.2,1.1-0.9,3-0.8,4.5c0.1,1.7,0.4,3.4,0.9,5c0.4,1.4,2.6,1.5,2.9,0
	c0.2-1.5,0.2-3-0.1-4.5c-0.3-1.3-0.2-2.6,0.1-3.9c0.2-0.8-0.2-1.6-1-1.8C1454.5,387.7,1453.6,388.1,1453.4,388.9L1453.4,388.9z"/>
<path d="M1453.6,404.3c0.2,2.2,0.4,4.5,0.7,6.7c0.2,1.9,0.4,3.9,1.5,5.5c0.5,0.7,1.4,0.9,2.1,0.5c0.4-0.3,0.7-0.7,0.7-1.2l0.3-9.1
	c0-0.8-0.7-1.5-1.5-1.5s-1.5,0.7-1.5,1.5c-0.2,1.5-0.4,3-0.7,4.4h2.9l-2-7.5c-0.4-1.6-3.1-1.3-3,0.4c0.3,2.9,0.6,5.9,1.1,8.8
	c0.3,2.8,0.9,5.6,1.8,8.3c0.3,0.8,1.1,1.2,1.8,1c0.8-0.2,1.2-1.1,1-1.8c-0.8-2.6-1.4-5.3-1.7-8c-0.5-2.7-0.8-5.5-1.1-8.3l-3,0.4
	l2,7.5c0.2,0.8,1.1,1.2,1.9,1c0.5-0.1,0.9-0.5,1-1c0.4-1.7,0.7-3.5,0.8-5.2h-3l-0.3,9.1l2.8-0.8c-1-1.4-1-3.1-1.2-4.7
	c-0.2-2-0.4-4-0.6-6.1c0-0.8-0.7-1.5-1.5-1.5s-1.5,0.7-1.5,1.5L1453.6,404.3z"/>
<path d="M1455.9,418.3c-0.8,3.6,0.4,7.2,1,10.7c0.3,1.8,0.6,3.6,0.8,5.4c0.1,1.7,0.4,3.5,1,5.1c0.4,0.7,1.3,0.9,2,0.5s0.9-1.3,0.5-2
	c-0.4-1.5-0.7-3-0.8-4.6c-0.2-1.6-0.5-3.2-0.7-4.8s-0.6-3.1-0.9-4.7c-0.4-1.6-0.4-3.2-0.2-4.8
	C1459.2,417.2,1456.3,416.4,1455.9,418.3L1455.9,418.3z"/>
<path d="M1463,442.8c0.2-2.6,0.1-5.3-0.2-7.9c-0.2-1.3-0.4-2.6-0.7-4s-0.5-2.4-1.6-3.1c-0.7-0.4-1.6-0.1-2,0.5
	c-0.4,0.7-0.2,1.6,0.5,2c-0.3-0.2-0.1-0.1-0.1,0.1s0.1,0.5,0.2,0.8c0.1,0.5,0.2,1,0.3,1.5c0.2,1.1,0.3,2.1,0.5,3.2
	c0.2,2.3,0.2,4.5,0.1,6.8c0,0.8,0.7,1.5,1.5,1.5S1463,443.6,1463,442.8L1463,442.8z"/>
<path d="M1459.5,431.1l-0.4-4.5c-0.2-1.5-0.2-3-0.2-4.5c0-0.8-0.7-1.5-1.5-1.5s-1.5,0.7-1.5,1.5c0,1.5,0,3,0.2,4.5l0.4,4.5
	c0,0.8,0.7,1.5,1.5,1.5S1459.5,432,1459.5,431.1z"/>
<path d="M1454.9,416.1c0,3.1,0.1,6.1,0.5,9.2c0.3,1.4,0.3,2.9,0.2,4.4c-0.2,1.4,0.1,3.3,1.9,3.5c0.8,0.2,1.6-0.3,1.8-1
	c0.2-0.8-0.2-1.6-1-1.8c0.4,0.1,0.2,0.6,0.3-0.1c0-0.3,0.1-0.6,0.1-0.9c0-0.6,0-1.3,0-1.9c-0.1-1.2-0.3-2.4-0.4-3.7
	c-0.3-2.6-0.4-5.1-0.3-7.7c0-0.8-0.7-1.5-1.5-1.5S1455,415.3,1454.9,416.1L1454.9,416.1z"/>
<path d="M1456,431.8c0.4,3.2,0.7,6.5,1.1,9.7c0.1,1.5,0.4,2.9,0.7,4.4c0.5,1.5,0.8,3,0.9,4.5l3-0.4c-1.1-4.4-2.7-9.1-1.5-13.7
	l-3-0.4c-0.1,3.9,0.1,7.7,0.5,11.6c0.4,3.1,1,7.6,3.7,9.7c0.6,0.6,1.6,0.5,2.1-0.1c0.3-0.4,0.5-0.9,0.4-1.4c0-1.4,0-2.8,0.1-4.2
	c0-1.4-0.2-2.8-0.4-4.1c-0.3-1.9-3.2-1.1-2.9,0.8c0.2,1.4,0.3,2.9,0.3,4.3c-0.1,1.4-0.1,2.7,0,4.1l2.5-1.5c-1.2-0.9-1.6-2.5-2-3.9
	c-0.5-1.6-0.8-3.3-1-5c-0.3-3.4-0.4-6.9-0.4-10.3c0.1-0.8-0.5-1.6-1.3-1.7s-1.6,0.5-1.7,1.3l0,0c-1.3,5.1,0.3,10.3,1.5,15.3
	c0.1,0.8,0.9,1.4,1.7,1.3c0.8-0.1,1.4-0.9,1.3-1.7c-0.1-1.4-0.3-2.9-0.7-4.3c-0.4-1.5-0.7-3-0.8-4.6c-0.4-3.2-0.8-6.5-1.1-9.7
	C1458.8,429.8,1455.8,429.8,1456,431.8L1456,431.8z"/>
<path d="M1459.4,454.1c0.8,3.2,1.7,6.5,2.3,9.8c0.3,1.6,0.6,3.2,0.8,4.8s0.5,2.8,1.8,3.7c0.7,0.4,1.6,0.2,2.1-0.5
	c0.4-0.7,0.2-1.6-0.5-2.1l0,0c0.1,0.1,0.1,0.1,0-0.1c0-0.1-0.1-0.2-0.1-0.3c-0.1-0.2-0.1-0.5-0.1-0.7c-0.1-0.7-0.2-1.4-0.3-2.1
	c-0.2-1.5-0.5-2.9-0.8-4.4c-0.6-3-1.3-5.9-2.1-8.8c-0.3-0.8-1.1-1.2-1.9-1C1459.7,452.6,1459.3,453.3,1459.4,454.1L1459.4,454.1z"/>
<path d="M1462.9,469.8c-0.3,1-0.4,2.2-0.2,3.2c0.1,1.2,0.3,2.5,0.4,3.7s0.3,2.4,0.4,3.6c0.1,1.1,0.5,2.1,1.1,3
	c0.6,0.6,1.6,0.6,2.1,0c0.3-0.3,0.4-0.6,0.4-1c-0.2-2.2-0.1-4.4,0.2-6.5l-3-0.4l1.2,11.9c0,0.8,0.7,1.5,1.5,1.5s1.5-0.7,1.5-1.5
	l-1.2-11.9c0-0.7-0.6-1.4-1.3-1.5c-0.7-0.1-1.4,0.3-1.7,1.1c-0.4,2.4-0.5,4.9-0.3,7.3l2.6-1.1c-0.4-0.5-0.3-1.6-0.4-2.1l-0.4-3
	c-0.1-1-0.2-1.9-0.3-2.9c-0.2-0.9-0.2-1.8,0.1-2.6c0.2-0.8-0.2-1.6-1-1.9C1463.9,468.6,1463.1,469.1,1462.9,469.8L1462.9,469.8z"/>
<path d="M1466.3,487.8c-0.1,2.4,0.7,4.8,1.1,7.2s0.8,4.8,1.2,7.1c0.2,0.8,1,1.3,1.8,1c0.8-0.2,1.3-1.1,1.1-1.9
	c-0.3-2.3-0.7-4.6-1.1-6.9s-1.2-4.4-1-6.7c0-0.8-0.7-1.5-1.5-1.5C1467,486.3,1466.3,487,1466.3,487.8L1466.3,487.8z"/>
<path d="M1469.5,473.1c-0.1-0.2,0,0.1,0,0.2c0,0.2,0,0.3-0.1,0.5l-2.8-0.8c0.1,1.2,0.2,2.5,0.2,3.7c0,0.6,0,1.2,0,1.8
	c-0.1,0.7-0.1,1.3,0.1,2c0.2,0.8,1,1.3,1.8,1.1c0.8-0.2,1.3-1,1.1-1.8v-0.1c0-0.2,0-0.1,0,0.1c0-0.1,0-0.1,0-0.2s0-0.2,0-0.4
	c0-0.3,0-0.6,0-0.9c0-0.6,0-1.2,0-1.8C1469.7,475.4,1469.7,474.2,1469.5,473.1c0.1-0.7-0.4-1.3-1-1.5c-0.7-0.2-1.3,0.1-1.7,0.7
	c-0.4,0.7-0.4,1.6,0.1,2.3c0.2,0.3,0.5,0.6,0.9,0.7s0.8,0,1.2-0.1C1469.6,474.7,1469.8,473.8,1469.5,473.1L1469.5,473.1z"/>
<path d="M1620.4,537.3c-0.3,0.5-0.8,1-1.2,1.3l-1.6,1.4c-1.1,1-2.2,2-3.2,3.1c-2.1,2.1-4.1,4.2-6.1,6.5c-0.6,0.6-0.6,1.5,0,2.1
	s1.5,0.6,2.1,0c2-2.3,4.1-4.5,6.3-6.6c1.1-1,2.2-2.1,3.3-3.1c1.2-0.9,2.2-2,3.1-3.2c0.4-0.7,0.2-1.6-0.5-2.1
	C1621.7,536.3,1620.8,536.6,1620.4,537.3L1620.4,537.3L1620.4,537.3z"/>
<path d="M1637.3,520.9c-0.8,0.6-1.6,1.3-2.2,2.1c-0.3,0.4-0.6,0.8-0.9,1.1l-0.3,0.4c-0.1,0.1-0.1,0.1,0,0l-0.2,0.2
	c-0.2,0.2-0.3,0.4-0.5,0.6c-1.3,1.6-2.8,3-4.4,4.3c-0.6,0.6-0.6,1.5,0,2.1s1.5,0.6,2.1,0c1.6-1.2,3-2.6,4.3-4.2
	c0.3-0.3,0.6-0.7,0.9-1.1l0.3-0.4c0-0.1,0.1-0.1,0,0s0.1-0.2,0.2-0.2l0.4-0.6c0.3-0.4,0.6-0.7,1-1.1l0.5-0.5l0.3-0.2
	c0,0,0.4-0.3,0.1-0.1c0.7-0.4,0.9-1.3,0.5-2C1639,520.8,1638.1,520.6,1637.3,520.9L1637.3,520.9z"/>
<path d="M1638.2,521.7c0.4-0.7,0.9-1.3,1.5-1.8c0.7-0.8,1.4-1.6,2.1-2.4c1.4-1.6,2.8-3.2,4.1-4.8l-2.4-1.8c-0.8,1.3-1.7,2.4-2.8,3.5
	l-3.2,3.8l2.6,1.1c0.1-0.8,0.9-1.6,1.4-2.2l2.2-2.8l4.3-5.6l-2.6-1.5c-0.6,0.8-1.2,1.6-2,2.3c-0.8,1-1.5,2.1-1.9,3.3
	c-0.2,0.8,0.2,1.6,1,1.8s1.6-0.2,1.8-1c0.3-0.9,0.9-1.8,1.6-2.5c0.8-0.7,1.5-1.5,2.1-2.4c0.4-0.7,0.2-1.6-0.5-2.1
	c-0.7-0.4-1.6-0.2-2.1,0.5l-4.6,6l-2.3,3c-0.8,0.9-1.3,2-1.4,3.2c0,0.8,0.7,1.5,1.6,1.5c0.4,0,0.7-0.2,1-0.4l3.4-4
	c1.2-1.2,2.2-2.5,3.1-3.9c0.4-0.7,0.2-1.5-0.4-1.9c-0.6-0.5-1.5-0.4-2,0.1c-1.4,1.8-2.9,3.5-4.4,5.2c-0.7,0.8-1.5,1.7-2.2,2.5
	c-0.8,0.8-1.4,1.7-1.9,2.7c-0.2,0.8,0.2,1.6,1,1.8s1.6-0.2,1.8-1L1638.2,521.7z"/>
<path d="M1643.7,517c5-4.7,8-11,12.2-16.4l-2.7-1.1c-0.6,2.5-2.7,4.7-4.1,6.8c-1.6,2.4-3.2,4.9-4.7,7.3l2.6,1.5
	c3.2-6.4,9.2-11,11.6-17.8c0.7-1.8-2.2-2.6-2.9-0.8c-2.3,6.5-8.2,11-11.3,17.1c-0.4,0.7-0.1,1.6,0.6,2s1.6,0.1,2-0.5
	c1.6-2.6,3.2-5.1,4.9-7.6c1.5-2.3,3.5-4.5,4.2-7.2c0.2-0.8-0.3-1.6-1.1-1.8c-0.6-0.1-1.3,0.1-1.6,0.7c-4,5.2-6.9,11.3-11.7,15.8
	C1640.2,516.2,1642.3,518.3,1643.7,517L1643.7,517z"/>
<path d="M1657.4,499.8l5.8-8.7c1.8-2.9,3.7-5.6,5.8-8.3l-2.5-1.5c-0.4,0.8-0.8,1.6-1.3,2.3c-0.6,0.9-1.1,1.8-1.7,2.6
	c-1.1,1.7-2.1,3.3-3.2,4.9s-2.2,3.2-3.3,4.9l-1.8,2.6c-0.5,0.7-1,1.9-1.8,2.2l0.8-0.2h-0.2c-1.8-0.7-2.6,2.2-0.8,2.9
	c2.3,0.9,3.7-2.2,4.8-3.7c1.4-2,2.8-4,4.1-6c1.3-2,2.6-3.9,3.9-5.9c1.3-1.8,2.5-3.8,3.4-5.8c0.2-0.8-0.3-1.6-1.1-1.8
	c-0.5-0.1-1,0-1.4,0.4c-2.2,2.7-4.2,5.6-6.1,8.6l-6.1,9C1653.7,499.9,1656.3,501.4,1657.4,499.8L1657.4,499.8z"/>
<path d="M1671.8,465.7c-1.9,6-4.6,11.8-8,17.1l2.8,0.8c0.1-0.7,0.4-1.4,0.8-1.9c0.5-0.8,1-1.5,1.5-2.2c1-1.4,2.1-2.6,2.2-4.4
	c0-1.6-2-1.9-2.8-0.8c-0.4,0.5-0.8,1-1.2,1.4c-1.3,1.4,0.8,3.6,2.1,2.1c0.6-0.6,1.1-1.3,1.7-2l-2.8-0.8c-0.1,0.6-0.4,1.2-0.9,1.7
	c-0.6,0.7-1.1,1.4-1.7,2.2c-1,1.4-2,2.9-2,4.6c0,0.8,0.7,1.5,1.6,1.5c0.5,0,1-0.3,1.2-0.7c3.5-5.6,6.3-11.6,8.3-17.8
	C1675.2,464.7,1672.3,463.9,1671.8,465.7L1671.8,465.7z"/>
<path d="M1668.2,485.2c3.7-5.3,6.7-11,9.2-16.9c0.2-0.8-0.2-1.6-1-1.9c-0.8-0.2-1.6,0.3-1.8,1c-2.4,5.7-5.4,11.1-8.9,16.2
	c-0.4,0.7-0.1,1.6,0.6,2C1666.9,486.1,1667.8,485.8,1668.2,485.2L1668.2,485.2z"/>
<path d="M1684.7,442.4c-1.6,3.9-3.5,7.6-5.3,11.3l-2.8,5.8c-0.8,1.8-1.8,3.6-2.9,5.2l2.7,1.1c0.9-5.2,3.3-9.9,5.6-14.6
	c1.1-2.3,2.2-4.7,3.2-7.1s1.8-4.8,0.1-7c-0.6-0.6-1.6-0.6-2.1,0c-0.2,0.2-0.3,0.4-0.4,0.6c-0.5,2.1-2.4,3.8-3.3,5.7
	c-1,2.1-1.8,4.3-2.4,6.5c-0.6,1.9,2.3,2.6,2.9,0.8c0.6-2.3,1.4-4.5,2.4-6.6c1-1.9,2.7-3.5,3.2-5.6l-2.5,0.7c0.6,0.7-0.2,2.3-0.5,3
	c-0.4,1.1-0.8,2.2-1.3,3.2c-1,2.2-2,4.3-3.1,6.5c-2.2,4.1-3.8,8.5-4.7,13c-0.2,0.8,0.3,1.6,1.1,1.8c0.6,0.1,1.2-0.1,1.6-0.7
	c1.1-1.7,2.2-3.5,3-5.4l3-6c1.9-3.8,3.8-7.6,5.4-11.6c0.7-1.8-2.2-2.6-2.9-0.8L1684.7,442.4z"/>
<path d="M1673.1,477c2.3-3,4.4-6.1,6.4-9.3c2.1-3.1,4.1-6.4,5.8-9.7c0.9-1.7-1.7-3.2-2.6-1.5c-1.7,3.2-3.6,6.4-5.7,9.4
	c-2,3-3.9,6.1-6.2,9c-0.6,0.6-0.6,1.5,0,2.1C1671.6,477.6,1672.5,477.6,1673.1,477L1673.1,477z"/>
<path d="M1683.1,462.5l9.9-15.4c1-1.6-1.6-3.1-2.6-1.5l-9.9,15.4C1679.5,462.6,1682,464.1,1683.1,462.5z"/>
<path d="M1692.8,447.2c1.6-2.4,2.9-5.1,3.8-7.8h-2.9c0-0.2,0-0.2,0,0s0,0.2,0,0c0,0.2-0.1,0.3-0.1,0.5c0,0.1,0,0.1,0,0l-0.1,0.3
	c-0.1,0.2-0.2,0.4-0.3,0.5c-0.4,0.7-0.8,1.3-1.2,2c-0.8,1.3-1.6,2.7-2.5,4c-0.4,0.7-0.2,1.6,0.5,2s1.6,0.2,2.1-0.5
	c0.9-1.5,1.8-2.9,2.7-4.4s2.1-3.2,1.7-5.1c-0.2-0.6-0.8-1.1-1.4-1.1c-0.7,0-1.3,0.5-1.4,1.1c-0.1,0.4-0.2,0.7-0.3,1
	c-0.1,0.1-0.1,0.3-0.2,0.4c0,0.1-0.1,0.1-0.1,0.2c-0.3,0.6-0.6,1.3-0.9,1.9c-0.7,1.2-1.3,2.4-2,3.6c-0.4,0.7-0.1,1.6,0.6,2
	C1691.5,448.1,1692.4,447.9,1692.8,447.2L1692.8,447.2z"/>
<path d="M1695,423.3c0.7,1.9,0.3,4.2,0.2,6.1c-0.2,2.2-0.5,4.4-0.9,6.5c-0.2,0.8,0.2,1.6,1,1.9c0.8,0.2,1.6-0.3,1.8-1
	c0.5-2.4,0.8-4.9,1-7.4c0.2-2.2,0.5-4.8-0.3-6.9c-0.3-0.8-1.1-1.2-1.8-1C1695.2,421.8,1694.8,422.6,1695,423.3L1695,423.3z"/>
<path d="M1695.4,421.9c0.9,5.5,0.3,11.2-1.6,16.4c-0.2,0.8,0.2,1.6,1,1.8c0.8,0.2,1.6-0.2,1.8-1c2.1-5.8,2.6-12,1.6-18
	c-0.2-0.8-1-1.3-1.8-1C1695.6,420.3,1695.2,421.1,1695.4,421.9L1695.4,421.9z"/>
<path d="M1695.6,423.2c0.7-2-1.6-3-3-3.8c-1.5-0.9-3.2-1.6-4.9-1.9c-1.8-0.2-3.7-0.1-5.4,0.4c-1.9,0.4-3.9,0.6-5.8,0.6
	c-0.8,0-1.5,0.7-1.5,1.5s0.7,1.5,1.5,1.5c1.6,0,3.2-0.1,4.8-0.4c1.5-0.3,2.9-0.6,4.4-0.8c1.3,0,2.6,0.3,3.8,0.8
	c0.7,0.3,1.3,0.6,1.9,1l0.8,0.5l0.5,0.3c0.3,0.2,0.3,0.2,0.1,0v-0.8l-0.1,0.2C1692,424.3,1694.9,425.1,1695.6,423.2L1695.6,423.2z"
	/>
<path d="M1674.5,418.4c-1.5-0.9-3.1-0.6-4.8-0.3l-5.4,0.9l0.8,2.9l9.1-2.1c0.8-0.2,1.3-1.1,1-1.9c-0.1-0.2-0.2-0.5-0.4-0.6
	c-1.2-1.1-2.8-0.6-4.2-0.4c-1.6,0.2-3.2,0.5-4.8,0.8c-1.5,0.2-2.9,0.6-4.2,1.1c-1.2,0.6-2.4,1.4-3.3,2.4c-1.3,1.4,0.8,3.5,2.1,2.1
	c0.7-0.8,1.5-1.4,2.5-1.8s2.1-0.7,3.2-0.8c1.3-0.2,2.5-0.5,3.8-0.7c0.7-0.1,1.3-0.2,2-0.3c0.3,0,0.6-0.1,0.8-0.1h0.3
	c0.3,0,0.3,0-0.2-0.2l0.7-2.5l-9.1,2.1c-0.8,0.3-1.2,1.1-1,1.9s1.1,1.2,1.8,1l4.5-0.8c1-0.2,2.4-0.6,3.3-0.1c0.7,0.4,1.6,0.1,2-0.6
	C1675.5,419.8,1675.3,418.9,1674.5,418.4L1674.5,418.4z"/>
<path class="st12" d="M1661.6,418.2c7.6-0.9,15.2-1.9,22.8-1.4c3.7,0.1,7.3,0.8,10.8,1.9c3.2,1.2,4.1,4.7,4.9,7.7
	c0.2,0.8,1.1,1.2,1.9,1s1.2-1,1-1.8c-0.9-3.2-2-6.9-5-8.8c-1.6-0.9-3.4-1.5-5.2-1.8c-2-0.5-4-0.8-6.1-1c-8.4-0.9-16.8,0.2-25.1,1.2
	C1659.7,415.5,1659.7,418.5,1661.6,418.2L1661.6,418.2z"/>
<path class="st12" d="M1661.4,418.1c3.8,0.9,8,0.1,11.8-0.1c3.9-0.2,7.8-0.1,11.6,0.2c2,0.2,4,0.4,5.9,0.8c1.8,0.2,3.5,0.7,5.1,1.4
	c3,1.4,4.5,4.8,5.9,7.6c0.8,1.7,3.4,0.2,2.6-1.5c-1.5-3-3.1-6.2-5.9-8.1c-3.1-2.1-7.6-2.5-11.2-2.9c-4.1-0.4-8.2-0.6-12.3-0.5
	c-2.1,0-4.1,0.1-6.2,0.3c-2.1,0.3-4.3,0.3-6.4,0C1660.4,414.9,1659.6,417.8,1661.4,418.1L1661.4,418.1z"/>
<path class="st10" d="M1790.8,220.7c-5.8-3.2-42.5-23.6-52-22.7c-2.7,0.3-6.1,0.7-6.2,0.7c-5,0.6-8.8,1.1-11.1,1.4
	c-8.5,1.2-14.4,2.2-19.8,3.1c-5.2,0.8-12.8,1.9-22.2,2.9c-2.6,1.9-4,4.9-3.7,8.1c0.4,2.9,2.3,5.4,5,6.5c9.5-1.3,23.7-3.5,41-7.2
	c9.7-2.1,12.2-2.8,16.2-3.4c11.6-1.6,28.3-0.4,49.9,12.9L1790.8,220.7z"/>
<path class="st10" d="M1504,143c6.7,0.1,49.3,1.2,56.8,6.7c2.1,1.6,4.8,3.6,4.8,3.6c3.9,3,6.9,5.4,8.6,6.8c6.6,5.3,11,9.1,15.1,12.5
	s9.8,8,17.3,13.5c1.8,4.4-0.3,9.4-4.7,11.2c-1.4,0.6-3,0.8-4.5,0.5c-7.3-5.9-18.1-14.8-30.8-26.6c-7.1-6.6-8.8-8.5-11.9-11
	c-8.9-7.1-23.8-14.4-49.6-14L1504,143z"/>
<path class="st25" d="M1695.8,371.5c3,8.9,4.7,12.6,2.6,16.7c-2.2,3.9-6.2,6.3-10.6,6.3c-5.1-0.1-9.6-3.2-11.5-7.9
	c-1.6-4.2,0.4-7.4,3.4-15.1c6.3-16.2,5.5-23,8.1-23C1689.8,348.5,1689.9,353.9,1695.8,371.5z"/>
<path class="st7" d="M1693.5,382c0,5.8-0.5,7.9,0,8c0.7,0.2,3-3.7,3-8s-2.3-8.2-3-8C1693,374.1,1693.5,376.2,1693.5,382z"/>
<path class="st26" d="M1472.3,453.5c26.8-11,56.2-14.2,84.8-9.3c16.9,3.1,49.5,9.2,69.2,36.4c4.1,5.7,7.5,12,9.9,18.7
	c-11.2-7.4-23.6-12.8-36.6-15.8c-20.5-4.7-25.5,0.5-46-4.2c-19.4-4.4-21.8-10.7-46-18.3C1496.1,457.4,1484.3,454.9,1472.3,453.5z"/>
<path class="st23" d="M1477.6,454.4c19.3-1.4,38.6-0.3,57.8,2.1c22.4,2.8,44.8,6.8,65.4,16.5c14,6.5,26.8,15.7,37.5,26.9
	c0.7,0.7,1.7-0.4,1.1-1.1c-9.5-10-20.7-18.4-32.9-24.7c-10.1-5.2-20.8-9.2-31.9-12c-10.8-2.7-21.7-4.7-32.8-6.1
	c-12.3-1.8-24.6-2.9-37-3.4c-7.8-0.3-15.5-0.2-23.3,0.2c-1.3,0.1-2.6,0.1-3.9,0.2C1476.7,453,1476.6,454.5,1477.6,454.4
	L1477.6,454.4z"/>
<rect x="488.7" y="568.2" class="st27" width="861.3" height="76.7"/>
<g class="st28">
	<path class="st7" d="M597.5,577.4c3.5,0,5.3,2.3,5.3,5.4c0,3.6-1.9,9-1.9,16.9c0,7.2,2.1,8.7,2.1,10.2c0,0.7-0.9,1.2-1.9,1.2
		c-1.9,0-4.6-1.5-6.8-3.6c-4.5-4.5-6.3-16.6-10.4-16.6c-1.5,0-2,1.3-2,2.7c0,6.7,4.5,8.4,4.5,13c0,2.8-3.2,4.4-5.8,4.4
		c-3.6,0-5.2-1.9-5.2-3.9c0-1.8,1-3.9,1.9-5.7c0.9-1.5,2.1-4,2.1-9.7c0-1.5-0.1-3.1-0.4-4.7c-0.7-4.9-3.1-5.4-3.1-7.2
		c0-1.1,1.3-1.8,2.8-1.8c4.4,0,8.8,3.6,13,13.8c1,2.4,1.9,5.7,4.3,5.7c1.1,0,1.8-0.9,1.8-3.2c0-4.9-6.1-5.9-6.1-11.7
		C591.9,579.2,594.5,577.4,597.5,577.4z"/>
	<path class="st7" d="M630.8,594.2c0,7.2-4.1,17-13.5,17c-10.1,0-13.2-7.7-13.2-15.5c0-12.2,4.7-17.5,14.5-17.5
		C625.7,578.1,630.8,584,630.8,594.2z M611.6,592.4c0,3.6,1.1,7,3.3,7c3,0,4.5-3.6,4.5-7.2s-1.4-7.2-4-7.2
		C612.8,584.9,611.6,588.7,611.6,592.4z"/>
	<path class="st7" d="M666.4,589.6c0,8.9-4.8,23.8-12.7,23.8c-3.3,0-3.6-3.5-3.9-6.8c-0.1-0.9-0.9-4-1.7-4c-2.3,0-2.8,8.7-8.2,8.7
		c-6.2,0-8.1-12.7-8.1-24.3c0-4.5,1.9-9.8,7-9.8c3,0,5.3,2.2,5.3,5.4c0,4.9-5,5.7-5,11.6c0,3.8,1.3,4.6,2.4,4.6
		c5.7,0,1.5-9.8,8.5-9.8c4.1,0,5.1,1.9,5.1,4.7c0,2.3-0.7,5-0.7,6.8c0,1.2,0.2,1.8,1.2,1.8c2.4,0,3.2-3.6,3.2-5.7
		c0-3.3-1.2-7-1.2-10c0-2.4,1-4.6,3.6-4.6C664.7,582,666.4,583.9,666.4,589.6z"/>
	<path class="st7" d="M698.2,585c0,1.1-0.7,1.9-1.6,1.9c-2.1,0-1.1-3.3-5.8-3.3c-1.1,0-2.2,0.7-2.2,1.9c0,4.3,10.3,3.3,10.3,12.8
		c0,8.7-5.5,11.8-11,11.8c-6.5,0-10.3-3.5-10.3-8c0-1.5,0.8-3.5,2.2-3.5c1.4,0,1,2.6,4.9,2.6c1.4,0,2.5-0.9,2.5-2.4
		c0-5-7.4-2.4-7.4-11.5c0-4.4,3.3-8.1,9.2-8.1C693.8,579.2,698.2,580.9,698.2,585z"/>
	<path class="st7" d="M721.9,577.4c3.5,0,5.3,2.3,5.3,5.4c0,3.6-1.9,9-1.9,16.9c0,7.2,2.1,8.7,2.1,10.2c0,0.7-0.9,1.2-1.9,1.2
		c-1.9,0-4.6-1.5-6.8-3.6c-4.5-4.5-6.3-16.6-10.4-16.6c-1.5,0-2,1.3-2,2.7c0,6.7,4.5,8.4,4.5,13c0,2.8-3.2,4.4-5.8,4.4
		c-3.6,0-5.2-1.9-5.2-3.9c0-1.8,1-3.9,1.9-5.7c0.9-1.5,2.1-4,2.1-9.7c0-1.5-0.1-3.1-0.4-4.7c-0.7-4.9-3.1-5.4-3.1-7.2
		c0-1.1,1.3-1.8,2.8-1.8c4.4,0,8.8,3.6,13,13.8c1,2.4,1.9,5.7,4.3,5.7c1.1,0,1.8-0.9,1.8-3.2c0-4.9-6.1-5.9-6.1-11.7
		C716.3,579.2,718.9,577.4,721.9,577.4z"/>
	<path class="st7" d="M755.2,594.2c0,7.2-4.1,17-13.5,17c-10.1,0-13.2-7.7-13.2-15.5c0-12.2,4.7-17.5,14.5-17.5
		C750.1,578.1,755.2,584,755.2,594.2z M736.1,592.4c0,3.6,1.1,7,3.3,7c3,0,4.5-3.6,4.5-7.2s-1.4-7.2-4-7.2
		C737.3,584.9,736.1,588.7,736.1,592.4z"/>
	<path class="st7" d="M782.9,594.2c0,7.2-4.1,17-13.5,17c-10.1,0-13.2-7.7-13.2-15.5c0-12.2,4.7-17.5,14.5-17.5
		C777.8,578.1,782.9,584,782.9,594.2z M763.7,592.4c0,3.6,1.1,7,3.3,7c3,0,4.5-3.6,4.5-7.2s-1.4-7.2-4-7.2
		C764.9,584.9,763.7,588.7,763.7,592.4z"/>
	<path class="st7" d="M794.3,579.9c1.4,0,4.9-1.2,8.1-1.2c3.6,0,5.5,2.2,5.5,6.8c0,16.1-16.5,6.8-16.5,12.1c0,6.1,1.7,5.4,1.7,9.9
		c0,2.6-2,3.6-4.5,3.6c-3.1,0-4.7-1.6-4.7-3.7c0-2.8,2.2-7.2,2.2-16.5c0-4-0.4-6.4-1.3-7.7c-0.4-0.5-0.7-1.3-0.7-2.2
		c0-1.3,0.9-2.4,3.2-2.4C789.6,578.7,790,579.9,794.3,579.9z M791.9,588.7c0,1.4,0.7,3.4,2.4,3.4c1.4,0,3.2-1.6,3.2-4.6
		c0-1.5-0.9-2.6-2.8-2.6C793.2,584.8,791.9,585.8,791.9,588.7z"/>
	<path class="st7" d="M819.1,609.4c0-0.7,0.2-1.3,1-2.3c1.3-1.6,1.9-4.4,1.9-12.9c0-6.7-0.8-10-2-11.7c-0.5-0.8-0.8-1.5-0.8-2.1
		c0-1.1,0.7-2,2.2-2c0.8,0,1.5,0.3,2.1,0.8c2.1,1.9,2.5,2.9,4.3,2.9c3.2,0,6.5-3.8,10.7-3.8c7.2,0,8.5,4.8,8.5,15.8
		c0,11.8-3,17.4-8.5,17.4c-3.3,0-6.3-2.2-7.1-3c-0.5-0.5-2.2-2.1-3.7-2.1c-2.8,0-2.1,5-6.2,5C819.7,611.5,819.1,610,819.1,609.4z
		 M826.6,587.6c0,1.4,0.6,3.4,0.6,5.8c0,2.3-0.6,4.3-0.6,5.8c0,1.7,0.7,3.1,3.3,3.1c3.7,0,5.1-4.2,5.1-8.5c0-5.7-1.6-8.5-5.3-8.5
		C827.5,585.3,826.6,586,826.6,587.6z"/>
	<path class="st7" d="M874.9,594.2c0,7.2-4.1,17-13.5,17c-10.1,0-13.2-7.7-13.2-15.5c0-12.2,4.7-17.5,14.5-17.5
		C869.9,578.1,874.9,584,874.9,594.2z M855.8,592.4c0,3.6,1.1,7,3.3,7c3,0,4.5-3.6,4.5-7.2s-1.3-7.2-4-7.2
		C857,584.9,855.8,588.7,855.8,592.4z"/>
	<path class="st7" d="M892.8,577.4c3.5,0,8.8,1.8,8.8,5.4c0,1.1-0.8,1.7-1.6,1.7c-0.8,0-1.4-0.4-2.1-0.9c-1.1-0.7-2.3-1.1-3.6-1.1
		c-4.8,0-7.9,5-7.9,10.7c0,4.6,1.9,9.2,6.3,9.2c1.4,0,4.1-1.3,4.1-3.3c0-1.4-1.2-2.7-1.9-3.5c-1-1-1.5-1.8-1.5-2.6
		c0-1.8,2.5-3.1,5.6-3.1c3.1,0,5.7,1.2,5.7,3.2c0,1.5-1.9,2.9-1.9,4.1c0,1.4,1.7,3,1.7,4.9c0,5.1-6.3,7.8-12,7.8
		c-9.3,0-16.6-5.2-16.6-15.5C875.9,585.4,883.2,577.4,892.8,577.4z"/>
	<path class="st7" d="M922.6,577.4c3.5,0,8.8,1.8,8.8,5.4c0,1.1-0.8,1.7-1.6,1.7c-0.8,0-1.4-0.4-2.1-0.9c-1.1-0.7-2.3-1.1-3.6-1.1
		c-4.8,0-7.9,5-7.9,10.7c0,4.6,1.9,9.2,6.3,9.2c1.4,0,4.1-1.3,4.1-3.3c0-1.4-1.2-2.7-1.9-3.5c-1-1-1.5-1.8-1.5-2.6
		c0-1.8,2.5-3.1,5.6-3.1c3.1,0,5.7,1.2,5.7,3.2c0,1.5-1.9,2.9-1.9,4.1c0,1.4,1.7,3,1.7,4.9c0,5.1-6.3,7.8-12,7.8
		c-9.3,0-16.6-5.2-16.6-15.5C905.7,585.4,913,577.4,922.6,577.4z"/>
	<path class="st7" d="M945.8,596.5c0-8.3,5.8-17.9,15.8-17.9c3.4,0,9.2,1.8,9.2,5.7c0,0.7-0.4,1.4-1.2,1.4c-1.2,0-3-1.1-5.1-1.1
		c-4.4,0-7,5.5-7,9.8c0,4.7,2.5,8,5.4,8s5.5-3,7.2-3c0.9,0,1.4,1,1.4,1.8c0,6-7.9,9.9-12.5,9.9C950.7,611.2,945.8,603.8,945.8,596.5
		z"/>
	<path class="st7" d="M993.5,582.8c0,1.6-0.9,3.3-0.9,5.2c0,2.1,0.7,4.5,1.5,6.8c1.8,5.3,6.5,8.8,6.5,12.1c0,2.2-2.5,4.5-5.3,4.5
		c-2.2,0-5.7-0.9-5.7-3.7c0-0.9,0.3-1.7,0.3-2.6c0-2.1-2-3.6-5-3.6c-2.5,0-4.6,1.2-4.6,3.4c0,1.1,0.5,1.9,0.5,2.7
		c0,2.3-2.4,3.7-5.1,3.7c-3.1,0-4.9-1.5-4.9-3.9c0-5,7.5-13.1,7.5-19.2c0-1.7-0.9-3.6-0.9-5.3c0-2.4,1.8-4.7,8.3-4.7
		C991.4,578.4,993.5,580.5,993.5,582.8z M985.4,590.1c-1.4,0-3.3,1.9-3.3,4.6c0,1.4,0.9,3.2,2.9,3.2c1.7,0,2.9-1.7,2.9-3.6
		C988,593,987.3,590.1,985.4,590.1z"/>
	<path class="st7" d="M1023.6,577.4c3.5,0,5.3,2.3,5.3,5.4c0,3.6-1.9,9-1.9,16.9c0,7.2,2.1,8.7,2.1,10.2c0,0.7-0.9,1.2-1.9,1.2
		c-1.9,0-4.6-1.5-6.8-3.6c-4.5-4.5-6.3-16.6-10.4-16.6c-1.5,0-2,1.3-2,2.7c0,6.7,4.5,8.4,4.5,13c0,2.8-3.2,4.4-5.8,4.4
		c-3.6,0-5.2-1.9-5.2-3.9c0-1.8,1-3.9,1.9-5.7c0.9-1.5,2.1-4,2.1-9.7c0-1.5-0.1-3.1-0.4-4.7c-0.7-4.9-3.1-5.4-3.1-7.2
		c0-1.1,1.3-1.8,2.8-1.8c4.4,0,8.8,3.6,13,13.8c1,2.4,1.9,5.7,4.3,5.7c1.1,0,1.8-0.9,1.8-3.2c0-4.9-6.1-5.9-6.1-11.7
		C1018.1,579.2,1020.6,577.4,1023.6,577.4z"/>
	<path class="st7" d="M1030.1,580.1c0-1.4,1.4-3.5,4-3.5c2.9,0,4.6,3.1,4.6,6.1c0,3.7-2.6,8.2-5.3,8.2c-1,0-1.5-0.8-1.5-1.7
		c0-0.6,0.2-1.3,0.2-1.9C1032.2,584.8,1030.1,583.9,1030.1,580.1z"/>
	<path class="st7" d="M1053.9,586.9c0.7,0,1.6-0.2,2.3-0.2c0.8,0,1.4,0.3,1.4,1.3c0,2.8-7.3,1.8-7.3,9.3c0,2.5,1.1,3.4,2.1,3.4
		c1.3,0,2.4-1.5,3.4-1.5c1,0,1.5,1.7,1.5,2.8c0,5.4-4.1,7-8.6,7c-6.7,0-9-2.5-9-5.8c0-4,3-8.8,3-11.2c0-2.2-3.2-0.6-3.2-2.9
		c0-2.4,5.4,0.4,8.1-7c0.4-1.1,1.2-2.2,2.7-2.2C1053.8,580.2,1050.8,586.9,1053.9,586.9z"/>
	<path class="st7" d="M1077.6,578.4c2.8,0,4.7,1.6,4.7,4.9c0,5.5-7.3,9.2-7.3,16.2c0,2,1,3.2,3.1,3.2c4.5,0,6.6-3.3,8.7-3.3
		c1.4,0,2.7,1.8,2.7,3.3c0,5.3-7.7,8.8-18.2,8.8c-2.3,0-3-1.1-3-2.5c0-7.9,4-10.8,4-24.4C1072.2,581.3,1073.8,578.4,1077.6,578.4z"
		/>
	<path class="st7" d="M1101.5,582.6c0,2.7-2.5,6-2.5,10.9c0,7,2.2,9.2,2.2,12.4c0,2.8-1.3,5.1-5.1,5.1c-4.1,0-5.7-1.8-5.7-4.5
		c0-4,2.6-5.4,2.6-10.3c0-8.7-2.7-9.7-2.7-13.2c0-3,1.4-4.8,5.7-4.8C1100.2,578.1,1101.5,579.7,1101.5,582.6z"/>
	<path class="st7" d="M1119.5,577.4c3.5,0,8.8,1.8,8.8,5.4c0,1.1-0.8,1.7-1.6,1.7c-0.8,0-1.4-0.4-2.1-0.9c-1.1-0.7-2.3-1.1-3.6-1.1
		c-4.8,0-7.9,5-7.9,10.7c0,4.6,1.9,9.2,6.3,9.2c1.4,0,4.1-1.3,4.1-3.3c0-1.4-1.2-2.7-1.9-3.5c-1-1-1.5-1.8-1.5-2.6
		c0-1.8,2.5-3.1,5.6-3.1c3.1,0,5.7,1.2,5.7,3.2c0,1.5-1.9,2.9-1.9,4.1c0,1.4,1.7,3,1.7,4.9c0,5.1-6.3,7.8-12,7.8
		c-9.3,0-16.6-5.2-16.6-15.5C1102.5,585.4,1109.9,577.4,1119.5,577.4z"/>
	<path class="st7" d="M1152.9,578.1c3.7,0,6.1,1.1,6.1,4c0,5.5-4,7.3-4,11.6c0,5.2,3.7,6.2,3.7,12.7c0,3.4-2.8,4.9-5.9,4.9
		c-3.2,0-5.1-1.7-5.1-3.9c0-2.6,2.3-5.6,2.3-8.3c0-1.7-1.3-3.8-4-3.8c-2.4,0-4.1,1.4-4.1,4.2c0,1.4,1.8,4.6,1.8,7.3
		c0,2.7-2,4.3-5.2,4.3c-3.2,0-5.8-1.4-5.8-4c0-6.7,3.3-6.8,3.3-13.5c0-7.1-3.4-6.9-3.4-11.2c0-3.3,2.6-4.5,6.3-4.5
		c3.1,0,5.7,1,5.7,3.1c0,4.2-3.2,4.1-3.2,7.5c0,2.4,1.5,3,3.7,3c3.7,0,5-1.5,5-2.9c0-2.3-3.1-4.7-3.1-7
		C1147,578.6,1150.7,578.1,1152.9,578.1z"/>
	<path class="st7" d="M1174.3,586.9c0.7,0,1.6-0.2,2.3-0.2c0.8,0,1.4,0.3,1.4,1.3c0,2.8-7.3,1.8-7.3,9.3c0,2.5,1.1,3.4,2.1,3.4
		c1.3,0,2.4-1.5,3.4-1.5c1,0,1.5,1.7,1.5,2.8c0,5.4-4.1,7-8.6,7c-6.7,0-9-2.5-9-5.8c0-4,3-8.8,3-11.2c0-2.2-3.2-0.6-3.2-2.9
		c0-2.4,5.4,0.4,8.1-7c0.4-1.1,1.2-2.2,2.7-2.2C1174.2,580.2,1171.2,586.9,1174.3,586.9z"/>
	<path class="st7" d="M1201.7,582.7c0,7-3.5,11.1-3.5,15.1c0,4.5,1.8,6.8,5.2,6.8c3.7,0,4.8-2.6,4.8-6.9c0-3-3.3-9.2-3.3-14
		c0-2.9,1.4-5.6,5.3-5.6c5.7,0,7.1,7,7.1,13.4c0,10.9-0.3,19.7-14.1,19.7c-11.6,0-14-9.2-14-18.7c0-5.6,1.2-14.4,7.5-14.4
		C1200.1,578.1,1201.7,579.3,1201.7,582.7z"/>
	<path class="st7" d="M1228.8,579.9c1.4,0,4.9-1.2,8.1-1.2c3.6,0,5.5,2.2,5.5,6.8c0,16.1-16.5,6.8-16.5,12.1c0,6.1,1.7,5.4,1.7,9.9
		c0,2.6-2,3.6-4.5,3.6c-3.2,0-4.7-1.6-4.7-3.7c0-2.8,2.2-7.2,2.2-16.5c0-4-0.4-6.4-1.3-7.7c-0.4-0.5-0.7-1.3-0.7-2.2
		c0-1.3,0.9-2.4,3.2-2.4C1224.1,578.7,1224.5,579.9,1228.8,579.9z M1226.4,588.7c0,1.4,0.7,3.4,2.4,3.4c1.4,0,3.2-1.6,3.2-4.6
		c0-1.5-0.9-2.6-2.8-2.6C1227.7,584.8,1226.4,585.8,1226.4,588.7z"/>
	<path class="st7" d="M1256.1,581.2c0,2.3-3.2,4-3.2,9.1c0,1.5,0.6,3.6,0.6,5.4c0,2.2-1.1,3.9-3.7,3.9c-2.4,0-3.3-1.8-3.3-3.6
		c0-1.3,0.3-2.8,0.3-4.9c0-3.2-3.6-5.9-3.6-9.9c0-3.2,2.2-4.3,6.3-4.3C1255.3,576.9,1256.1,579,1256.1,581.2z M1255.6,606.3
		c0,2.5-2.2,4.7-6.1,4.7c-2.7,0-5-1.7-5-4.4c0-2.5,1.6-5,5.8-5C1251.2,601.6,1255.6,602.4,1255.6,606.3z"/>
</g>
<rect x="581.2" y="765.3" class="st27" width="640.6" height="55.5"/>
<g class="st28">
	<path class="st7" d="M650.6,773.7c0.7,0,1.5-0.2,2.3-0.2c0.8,0,1.4,0.3,1.4,1.3c0,2.7-7.2,1.8-7.2,9.1c0,2.4,1.1,3.3,2.1,3.3
		c1.2,0,2.4-1.5,3.3-1.5s1.5,1.6,1.5,2.7c0,5.2-4,6.8-8.4,6.8c-6.6,0-8.8-2.5-8.8-5.7c0-3.9,2.9-8.6,2.9-10.9c0-2.2-3.1-0.6-3.1-2.9
		c0-2.4,5.2,0.4,7.9-6.9c0.4-1.1,1.1-2.2,2.6-2.2C650.5,767.1,647.6,773.7,650.6,773.7z"/>
	<path class="st7" d="M675.1,765c3.6,0,6,1.1,6,3.9c0,5.4-4,7.1-4,11.4c0,5.1,3.7,6.1,3.7,12.5c0,3.3-2.8,4.8-5.8,4.8
		c-3.1,0-5-1.6-5-3.8c0-2.5,2.3-5.5,2.3-8.1c0-1.7-1.2-3.7-4-3.7c-2.3,0-4,1.3-4,4.1c0,1.4,1.8,4.5,1.8,7.1c0,2.7-2,4.2-5.1,4.2
		c-3.2,0-5.7-1.3-5.7-3.9c0-6.5,3.3-6.6,3.3-13.2c0-6.9-3.3-6.8-3.3-11c0-3.2,2.6-4.4,6.2-4.4c3,0,5.6,1,5.6,3c0,4.1-3.1,4-3.1,7.3
		c0,2.4,1.5,2.9,3.7,2.9c3.7,0,4.9-1.5,4.9-2.9c0-2.2-3.1-4.6-3.1-6.9C669.3,765.5,672.9,765,675.1,765z"/>
	<path class="st7" d="M693.2,769.4c0,2.6-2.5,5.9-2.5,10.7c0,6.8,2.1,9,2.1,12.1c0,2.7-1.2,5-5,5c-4,0-5.6-1.7-5.6-4.4
		c0-3.9,2.5-5.3,2.5-10.1c0-8.5-2.6-9.5-2.6-12.9c0-2.9,1.4-4.7,5.6-4.7C691.9,765.1,693.2,766.6,693.2,769.4z"/>
	<path class="st7" d="M715.8,764.3c3.4,0,5.2,2.3,5.2,5.3c0,3.5-1.9,8.8-1.9,16.5c0,7,2.1,8.5,2.1,9.9c0,0.7-0.9,1.2-1.8,1.2
		c-1.9,0-4.5-1.5-6.6-3.5c-4.4-4.4-6.1-16.3-10.2-16.3c-1.5,0-2,1.3-2,2.6c0,6.5,4.4,8.2,4.4,12.7c0,2.8-3.1,4.3-5.6,4.3
		c-3.5,0-5.1-1.9-5.1-3.8c0-1.8,1-3.8,1.9-5.5c0.8-1.5,2.1-3.9,2.1-9.5c0-1.5-0.1-3-0.4-4.6c-0.7-4.8-3-5.2-3-7
		c0-1.1,1.3-1.7,2.8-1.7c4.3,0,8.6,3.5,12.7,13.5c1,2.3,1.8,5.5,4.2,5.5c1.1,0,1.8-0.9,1.8-3.2c0-4.8-5.9-5.8-5.9-11.4
		C710.4,766.1,712.9,764.3,715.8,764.3z"/>
	<path class="st7" d="M727.7,770.4c0-2.6,2-6.2,6.4-6.2c2.1,0,4.4,1.3,4.4,3.2c0,2.9-5.1,6.2-5.1,8.8c0,0.6,0.4,1.8,1.5,1.8
		c0.8,0,1.7-0.4,2.4-1.1c5-4.7,1-13,8.2-13c3.7,0,5,3.3,5,6.7c0,5.1-2.2,9.3-5.4,9.3c-2.6,0-4.5-0.7-5.8-0.7c-1,0-2,0.6-2,2.1
		c0,0.8,0.4,1.2,1.5,1.2c1.9,0,5.2-1.1,7.8-1.1c2.2,0,3.3,0.9,3.3,3c0,4.2-4.4,12.2-9,12.2c-2.5,0-4.8-1.9-4.8-4.6
		c0-2.1,1.1-4.4,1.1-5.9c0-1.1-0.5-1.8-1.6-1.8c-1.7,0-2.4,1.3-2.4,2.6c0,1.7,0.9,3.8,0.9,5.8c0,2.2-1.6,4.8-6.6,4.8
		c-2.7,0-5.2-1.5-5.2-4.4c0-2.1,1.5-4.7,2.9-6.7c2-3,3.1-6.6,3.1-10.7C728.2,773.9,727.7,772,727.7,770.4z"/>
	<path class="st7" d="M775.4,785.1c-1.8,0-4,0.7-6.2,0.7c-4.9,0-7.6-4.7-7.6-10c0-5.1,2.6-10.6,7.6-10.6c2.6,0,3.9,2,3.9,3.7
		c0,2.8-2.6,5.7-2.6,7c0,1,0.8,3.4,4.4,3.4c1.3,0,3.3-0.7,3.3-2.8c0-3.4-2.2-4.5-2.2-7.5c0-2,1.4-3.7,3.8-3.7c3,0,7.1,1,7.1,10.3
		c0,13-2.4,22.4-13.7,22.4c-3.9,0-9.2-2-9.2-6.4c0-1.4,1-2.7,2.4-2.7c2.3,0,5.2,2.7,8.2,2.7c1.5,0,4.1-1.1,4.1-3.9
		c0-0.4-0.1-0.9-0.3-1.3C777.8,785.4,776.4,785.1,775.4,785.1z"/>
	<path class="st7" d="M813.9,780.8c0,7.1-4,16.6-13.2,16.6c-9.9,0-12.9-7.6-12.9-15.1c0-12,4.6-17.1,14.2-17.2
		C809,765,813.9,770.8,813.9,780.8z M795.2,779c0,3.6,1.1,6.8,3.3,6.8c2.9,0,4.4-3.5,4.4-7c0-3.5-1.3-7.1-4-7.1
		C796.4,771.7,795.2,775.4,795.2,779z"/>
	<path class="st7" d="M827.2,769.5c0,6.9-3.4,10.8-3.4,14.7c0,4.4,1.8,6.7,5.1,6.7c3.6,0,4.7-2.5,4.7-6.7c0-2.9-3.3-9-3.3-13.6
		c0-2.9,1.4-5.5,5.1-5.5c5.6,0,6.9,6.9,6.9,13.1c0,10.7-0.3,19.2-13.8,19.2c-11.3,0-13.7-9-13.7-18.3c0-5.5,1.1-14.1,7.3-14.1
		C825.6,765,827.2,766.2,827.2,769.5z"/>
	<path class="st7" d="M853.5,783c0-8.1,5.7-17.5,15.4-17.5c3.3,0,9,1.8,9,5.5c0,0.7-0.4,1.4-1.2,1.4c-1.1,0-2.9-1.1-5-1.1
		c-4.3,0-6.9,5.4-6.9,9.6c0,4.6,2.4,7.8,5.2,7.8s5.4-2.9,7-2.9c0.9,0,1.4,1,1.4,1.8c0,5.9-7.7,9.7-12.2,9.7
		C858.3,797.4,853.5,790.2,853.5,783z"/>
	<path class="st7" d="M900.2,769.7c0,1.6-0.9,3.3-0.9,5.1c0,2,0.7,4.4,1.5,6.7c1.8,5.2,6.4,8.6,6.4,11.9c0,2.2-2.5,4.4-5.1,4.4
		c-2.1,0-5.5-0.9-5.5-3.6c0-0.8,0.3-1.7,0.3-2.5c0-2-2-3.5-4.9-3.5c-2.5,0-4.5,1.1-4.5,3.3c0,1.1,0.4,1.8,0.4,2.6
		c0,2.2-2.4,3.6-5,3.6c-3,0-4.8-1.5-4.8-3.8c0-4.9,7.3-12.8,7.3-18.8c0-1.6-0.9-3.5-0.9-5.2c0-2.3,1.8-4.6,8.1-4.6
		C898.1,765.3,900.2,767.4,900.2,769.7z M892.3,776.7c-1.4,0-3.2,1.9-3.2,4.5c0,1.4,0.9,3.2,2.9,3.2c1.7,0,2.8-1.6,2.8-3.5
		C894.8,779.6,894.1,776.7,892.3,776.7z"/>
	<path class="st7" d="M929.6,764.3c3.4,0,5.2,2.3,5.2,5.3c0,3.5-1.9,8.8-1.9,16.5c0,7,2.1,8.5,2.1,9.9c0,0.7-0.9,1.2-1.8,1.2
		c-1.9,0-4.5-1.5-6.6-3.5c-4.4-4.4-6.1-16.3-10.2-16.3c-1.5,0-2,1.3-2,2.6c0,6.5,4.4,8.2,4.4,12.7c0,2.8-3.1,4.3-5.6,4.3
		c-3.5,0-5.1-1.9-5.1-3.8c0-1.8,1-3.8,1.9-5.5c0.8-1.5,2.1-3.9,2.1-9.5c0-1.5-0.1-3-0.4-4.6c-0.7-4.8-3-5.2-3-7
		c0-1.1,1.3-1.7,2.8-1.7c4.3,0,8.6,3.5,12.7,13.5c1,2.3,1.8,5.5,4.2,5.5c1.1,0,1.8-0.9,1.8-3.2c0-4.8-5.9-5.8-5.9-11.4
		C924.2,766.1,926.7,764.3,929.6,764.3z"/>
	<path class="st7" d="M946.3,795.6c0-0.7,0.2-1.3,1-2.2c1.3-1.5,1.8-4.3,1.8-12.6c0-6.5-0.8-9.8-1.9-11.4c-0.5-0.7-0.8-1.5-0.8-2.1
		c0-1.1,0.7-1.9,2.1-1.9c0.7,0,1.5,0.3,2.1,0.8c2,1.8,2.4,2.8,4.2,2.8c3.1,0,6.4-3.7,10.5-3.7c7.1,0,8.4,4.7,8.4,15.5
		c0,11.6-2.9,17-8.4,17c-3.2,0-6.2-2.2-7-2.9c-0.5-0.5-2.1-2.1-3.6-2.1c-2.8,0-2.1,4.9-6.1,4.9C946.8,797.7,946.3,796.3,946.3,795.6
		z M953.7,774.3c0,1.4,0.6,3.3,0.6,5.6c0,2.2-0.6,4.2-0.6,5.7c0,1.6,0.7,3,3.3,3c3.6,0,5-4.1,5-8.3c0-5.5-1.5-8.3-5.2-8.3
		C954.5,772.1,953.7,772.8,953.7,774.3z"/>
	<path class="st7" d="M1000.9,780.8c0,7.1-4,16.6-13.2,16.6c-9.9,0-12.9-7.6-12.9-15.1c0-12,4.6-17.1,14.2-17.2
		C996,765,1000.9,770.8,1000.9,780.8z M982.2,779c0,3.6,1.1,6.8,3.3,6.8c2.9,0,4.4-3.5,4.4-7c0-3.5-1.3-7.1-4-7.1
		C983.4,771.7,982.2,775.4,982.2,779z"/>
	<path class="st7" d="M1029.3,766.2c4.1,0,5.6,3.4,5.6,6.5c0,2.2-0.8,4.4-2.2,5.9c-1.4,1.4-3.3,1.3-3.3,2.2c0,1.2,2.5,1.1,4.3,2.8
		c1.6,1.6,2.4,3.6,2.4,5.5c0,3.6-2.9,9.1-8.1,9.1c-3.2,0-5.1-2.6-7.4-2.6c-2.2,0-2.4,2.2-6,2.2c-1.7,0-2.4-1.4-2.4-2.5
		c0-1.2,0.7-2.5,1-3.6c0.3-1.2,0.7-4.4,0.7-12.1c0-4.3,0-6.6-0.7-7.8c-0.2-0.4-0.7-1.3-0.7-2.4c0-1.2,1-2.1,2.2-2.1
		c1.8,0,2.6,1.2,5.8,1.2C1022.7,768.6,1025.1,766.2,1029.3,766.2z M1022.5,772.8c-1.6,0-3,1.2-3,3.8c0,1.5,0.7,3.3,2.5,3.3
		c2.1,0,3.3-2,3.3-4C1025.3,774.3,1024.3,772.8,1022.5,772.8z M1022.2,790.5c1.3,0,2.8-1.1,2.8-3.3c0-1.1-1-3.9-2.9-3.9
		c-1.5,0-2.4,2.1-2.4,4.1C1019.7,788.9,1020.4,790.5,1022.2,790.5z"/>
	<path class="st7" d="M1059.3,776.7c0,12.5-11.4,8.2-11.4,11.8c0,1.4,1.6,1.9,2.6,1.9c2.3,0,4.9-1.8,5.5-2.3
		c1.1-1.1,1.7-2.2,2.6-2.2c0.5,0,0.8,0.4,0.8,1c0,6.2-5.4,8.9-10.1,8.9c-8.2,0-12.4-6.3-12.4-15.8c0-8.6,3.5-13.9,12.8-13.9
		C1056.1,766.2,1059.3,770,1059.3,776.7z M1054.2,781.9c0-1.4-1.4-2-2.6-2c-2.7,0-4.2,1.4-4.2,2.9c0,0.7,0.6,1.4,1.7,1.4
		C1051.4,784.2,1054.2,783.7,1054.2,781.9z"/>
	<path class="st7" d="M1074.3,773.7c0.7,0,1.5-0.2,2.3-0.2c0.8,0,1.4,0.3,1.4,1.3c0,2.7-7.2,1.8-7.2,9.1c0,2.4,1.1,3.3,2.1,3.3
		c1.2,0,2.4-1.5,3.3-1.5c1,0,1.5,1.6,1.5,2.7c0,5.2-4,6.8-8.4,6.8c-6.6,0-8.8-2.5-8.8-5.7c0-3.9,2.9-8.6,2.9-10.9
		c0-2.2-3.1-0.6-3.1-2.9c0-2.4,5.2,0.4,7.9-6.9c0.4-1.1,1.1-2.2,2.6-2.2C1074.3,767.1,1071.3,773.7,1074.3,773.7z"/>
	<path class="st7" d="M1092.6,773.7c0.7,0,1.5-0.2,2.3-0.2c0.8,0,1.4,0.3,1.4,1.3c0,2.7-7.2,1.8-7.2,9.1c0,2.4,1.1,3.3,2.1,3.3
		c1.2,0,2.4-1.5,3.3-1.5c1,0,1.5,1.6,1.5,2.7c0,5.2-4,6.8-8.4,6.8c-6.6,0-8.8-2.5-8.8-5.7c0-3.9,2.9-8.6,2.9-10.9
		c0-2.2-3.1-0.6-3.1-2.9c0-2.4,5.2,0.4,7.9-6.9c0.4-1.1,1.1-2.2,2.6-2.2C1092.6,767.1,1089.6,773.7,1092.6,773.7z"/>
	<path class="st7" d="M1119.4,776.7c0,12.5-11.4,8.2-11.4,11.8c0,1.4,1.6,1.9,2.6,1.9c2.3,0,4.9-1.8,5.5-2.3
		c1.1-1.1,1.7-2.2,2.6-2.2c0.5,0,0.8,0.4,0.8,1c0,6.2-5.4,8.9-10.1,8.9c-8.2,0-12.4-6.3-12.4-15.8c0-8.6,3.5-13.9,12.8-13.9
		C1116.2,766.2,1119.4,770,1119.4,776.7z M1114.3,781.9c0-1.4-1.4-2-2.6-2c-2.7,0-4.2,1.4-4.2,2.9c0,0.7,0.6,1.4,1.7,1.4
		C1111.5,784.2,1114.3,783.7,1114.3,781.9z"/>
	<path class="st7" d="M1142.2,773.7c0,6.6-5.4,5.1-5.4,7.6c0,2.4,6.7,3.3,6.7,10.3c0,3.5-2.4,6.7-6.5,6.7c-2.6,0-4.7-1.9-4.7-4.1
		c0-2.5,2.1-5,2.1-6.3c0-2.8-1.6-3.8-3.5-3.8c-2.2,0-3.3,1.5-3.3,3.1c0,2.2,1.9,4.8,1.9,7.1c0,1.5-1.1,3.8-5.1,3.8
		c-1.9,0-4.5-1.2-4.5-3.8c0-2.5,2-5.9,2-10.5c0-5.9-2.2-10-2.2-13c0-2.5,1.5-4.9,10.3-4.9C1135.3,765.8,1142.2,767.7,1142.2,773.7z
		 M1130.5,772.3c-1.7,0-2.6,1.1-2.6,2.5c0,2,1.1,2.8,2.4,2.8c1.7,0,2.9-1.2,2.9-3.2C1133.3,773,1132,772.3,1130.5,772.3z"/>
	<path class="st7" d="M1154.3,764.3c4.7,0,10.1,2.2,10.1,7c0,4.1-2.4,6.9-4.5,7.4c-2.6,0.8-3.9,1.8-3.9,3.2c0,0.7,0.3,1.5,0.3,2.2
		c0,1.4-1.6,2.1-2.9,2.1c-2.8,0-3.8-1.8-3.8-3.4c0-5.6,6-5,6-10.1c0-1.5-0.6-2.6-3.1-2.6c-3.7,0-4.4,2.3-6.7,2.3
		c-0.9,0-1.4-0.7-1.4-1.6c0-1.1,0.7-2.5,1.9-3.7C1148.1,765.3,1151.2,764.3,1154.3,764.3z M1159,792.6c0,2.4-2.1,4.6-5.9,4.6
		c-2.6,0-4.9-1.7-4.9-4.3c0-2.5,1.5-4.9,5.6-4.9C1154.7,788.1,1159,788.8,1159,792.6z"/>
</g>
</svg>
