<?xml version="1.0" encoding="utf-8"?>
<!-- Generator: Adobe Illustrator 26.0.1, SVG Export Plug-In . SVG Version: 6.00 Build 0)  -->
<svg version="1.1" id="Layer_1" xmlns="http://www.w3.org/2000/svg" xmlns:xlink="http://www.w3.org/1999/xlink" x="0px" y="0px"
	 viewBox="0 0 24 110" style="enable-background:new 0 0 24 110;" xml:space="preserve">
<style type="text/css">
	.st0{fill:#E6E6E6;}
	.st1{fill:#7DA23F;}
	.st2{fill:#CCCCCC;}
	.st3{fill:#FFFFFF;stroke:#999999;stroke-width:0.5;stroke-miterlimit:10;}
	.st4{fill:#C1272D;}
</style>
<path class="st0" d="M4.7,0H12l7.3-0.1l-3.6,5.7l-3.6,5.8c-1.2-1.9-2.5-3.8-3.7-5.7L4.7,0z"/>
<path class="st1" d="M17.5,109.9H11c-0.4-4.3-1.1-11-1.6-19.4C8.8,79.3,9.1,76.8,8.3,67.6C8,63.4,8,64.6,5.9,47.2
	c-1.4-12.5-1.6-14-2.2-18.6c-1.2-8.3-2.5-15-3.3-19.1h23.1c-0.6,5.2-1.4,11.7-2.2,19.4c-0.7,6.5-1.2,11.4-1.8,18
	c-0.7,8.1-1,14.3-1.3,20c-0.4,7.8-1.2,31.4-1,23.6l0,0C17.3,90.5,17.4,97.2,17.5,109.9z"/>
<path class="st2" d="M17.5,109.9H11l-1.7-22l8.2,0.2L17.5,109.9z"/>
<path class="st3" d="M0,28.9c-0.3-1.7,2.4-3.6,4.1-3.9s5.1,0.5,5.4,2.2s-2.6,3.6-4.3,3.9S0.3,30.5,0,28.9z"/>
<path class="st3" d="M14.6,27c0.4-1.7,3.5-2.4,5.2-2s4.5,2.4,4.2,4s-3.7,2.3-5.4,2S14.3,28.7,14.6,27z"/>
<path class="st4" d="M4.6,30.3c0.8-0.5,1.6-1.2,2.2-1.9l0.1-0.2C7,28.1,7,27.9,7,27.7c0-0.7-0.6-1.3-1.3-1.3c0,0,0,0,0,0
	c-0.4,0-0.9,0.2-1.1,0.6c-0.2-0.4-0.7-0.6-1.1-0.6c-0.7,0-1.3,0.6-1.3,1.3c0,0,0,0,0,0c0,0.2,0,0.4,0.1,0.5l0.1,0.2
	C3,29.2,3.8,29.8,4.6,30.3L4.6,30.3z"/>
<path class="st4" d="M19.3,30c0.8-0.5,1.6-1.2,2.2-1.9l0.1-0.2c0.1-0.2,0.1-0.4,0.1-0.5c0-0.7-0.6-1.3-1.3-1.3c0,0,0,0,0,0
	c-0.4,0-0.9,0.2-1.1,0.6c-0.2-0.4-0.7-0.6-1.1-0.6c-0.7,0-1.3,0.6-1.3,1.3c0,0,0,0,0,0c0,0.2,0,0.4,0.1,0.5l0.1,0.2
	C17.8,28.8,18.5,29.5,19.3,30z"/>
<path class="st3" d="M14.1,32.5c1.1-0.4,2.5-0.9,2.9-0.5s-0.3,2.8-2,4c-1.8,1.2-4.2,1.2-6.1,0c-1.6-1.2-2.3-3.5-1.7-4.1s2,0,2.6,0.2
	c1.3,0.5,1.5,1,2.4,1C12.8,33.2,12.9,32.9,14.1,32.5z"/>
<path d="M7.1,32.9c1.5,1.1,3.2,2.2,5.2,2.2c1.8,0,3.3-1.1,4.7-2.1c0.2-0.1,0-0.4-0.1-0.3c-1.3,1-2.8,2.1-4.6,2.1
	c-1.9,0-3.6-1.1-5.1-2.2C7.1,32.6,6.9,32.8,7.1,32.9L7.1,32.9z"/>
<path d="M8.2,31.9c-0.2,0.8-0.5,1.6-0.8,2.3c-0.1,0.2,0.2,0.3,0.3,0.1c0.3-0.8,0.6-1.5,0.8-2.3c0-0.1,0-0.2-0.1-0.2
	C8.3,31.8,8.3,31.8,8.2,31.9L8.2,31.9z"/>
<path d="M9.5,32.3c-0.3,1.1-0.7,2.1-1.2,3c0,0.1,0,0.2,0.1,0.2s0.2,0,0.2,0l0,0c0.6-1,1-2,1.2-3.1c0-0.1,0-0.2-0.1-0.2
	C9.6,32.2,9.5,32.2,9.5,32.3z"/>
<path d="M10.7,32.8c-0.1,0.6-0.2,1.2-0.4,1.8c-0.2,0.6-0.4,1.1-0.8,1.6c-0.1,0.2,0.1,0.4,0.2,0.2c0.4-0.5,0.7-1,0.8-1.6
	c0.2-0.7,0.4-1.3,0.5-2C11,32.6,10.7,32.6,10.7,32.8L10.7,32.8z"/>
<path d="M11.7,33.3L11.2,37c0,0.2,0.3,0.2,0.3,0l0.5-3.7C12,33.1,11.7,33.1,11.7,33.3L11.7,33.3z"/>
<path d="M12.7,33.3c-0.1,1.1,0,2.3,0.3,3.4c0.1,0.2,0.4,0.1,0.3-0.1c-0.3-1.1-0.3-2.2-0.3-3.3C13,33.1,12.7,33.1,12.7,33.3
	L12.7,33.3z"/>
<path d="M13.5,32.8c0,1.2,0.4,2.3,1.2,3.2c0.1,0.1,0.3-0.1,0.2-0.2c-0.7-0.8-1.2-1.9-1.2-3c0-0.1-0.1-0.2-0.2-0.2
	C13.6,32.6,13.5,32.7,13.5,32.8L13.5,32.8z"/>
<path d="M14.9,32.3c0,0.5,0.2,0.9,0.4,1.2c0.1,0.2,0.3,0.4,0.4,0.6c0.1,0.2,0.3,0.3,0.5,0.5c0.2,0.1,0.3-0.2,0.1-0.3
	c-0.2-0.1-0.3-0.3-0.4-0.4c-0.1-0.2-0.3-0.3-0.4-0.5c-0.3-0.3-0.4-0.7-0.4-1.1c0-0.1-0.1-0.2-0.1-0.2C15,32.1,14.9,32.2,14.9,32.3z"
	/>
</svg>
