<?xml version="1.0" encoding="utf-8"?>
<!-- Generator: Adobe Illustrator 26.0.1, SVG Export Plug-In . SVG Version: 6.00 Build 0)  -->
<svg version="1.1" id="Layer_1" xmlns="http://www.w3.org/2000/svg" xmlns:xlink="http://www.w3.org/1999/xlink" x="0px" y="0px"
	 viewBox="0 0 24.5 110.2" style="enable-background:new 0 0 24.5 110.2;" xml:space="preserve">
<style type="text/css">
	.st0{fill:#E6E6E6;}
	.st1{fill:#7DA23F;}
	.st2{fill:#CCCCCC;}
	.st3{fill:#FFFFFF;stroke:#999999;stroke-width:0.5;stroke-miterlimit:10;}
	.st4{fill:#C1272D;}
</style>
<path class="st0" d="M5,0.1h7.3L19.5,0l-3.6,5.7l-3.6,5.8c-1.2-1.9-2.5-3.8-3.7-5.7L5,0.1z"/>
<path class="st1" d="M17.8,110h-6.5c-0.4-4.3-1.1-11-1.6-19.4C9,79.4,9.3,76.9,8.6,67.6c-0.3-4.1-0.3-3-2.4-20.3
	C4.7,34.8,4.6,33.3,4,28.7C2.8,20.4,1.5,13.8,0.7,9.6h23.1c-0.6,5.2-1.4,11.7-2.2,19.4c-0.7,6.5-1.2,11.4-1.8,18
	c-0.7,8.1-1,14.3-1.3,20c-0.4,7.8-1.2,31.4-1,23.6l0,0C17.6,90.6,17.6,97.3,17.8,110z"/>
<path class="st2" d="M17.8,110h-6.5L9.5,88l8.2,0.2L17.8,110z"/>
<path class="st3" d="M0.3,28.9c-0.3-1.7,2.4-3.6,4.1-3.9s5.1,0.5,5.3,2.2s-2.6,3.6-4.3,3.9S0.6,30.6,0.3,28.9z"/>
<path class="st3" d="M14.9,27.1c0.4-1.7,3.5-2.4,5.2-2s4.5,2.4,4.2,4s-3.7,2.3-5.4,2S14.5,28.7,14.9,27.1z"/>
<path class="st4" d="M4.9,30.4c0.8-0.5,1.6-1.2,2.2-1.9l0.1-0.2c0.1-0.2,0.1-0.4,0.1-0.5c0-0.7-0.6-1.3-1.3-1.3l0,0
	c-0.4,0-0.9,0.2-1.1,0.6c-0.2-0.4-0.7-0.6-1.1-0.6c-0.7,0-1.3,0.5-1.3,1.2c0,0,0,0,0,0l0,0c0,0.2,0,0.4,0.1,0.5l0.1,0.2
	C3.3,29.3,4,29.9,4.9,30.4L4.9,30.4z"/>
<path class="st4" d="M19.6,30.1c0.8-0.5,1.6-1.2,2.2-1.9l0.1-0.2c0.1-0.2,0.1-0.4,0.1-0.5c0-0.7-0.6-1.3-1.3-1.3c0,0,0,0,0,0l0,0
	c-0.4,0-0.9,0.2-1.1,0.6c-0.2-0.4-0.7-0.6-1.1-0.6c-0.7,0-1.3,0.6-1.3,1.3c0,0,0,0,0,0l0,0c0,0.2,0,0.4,0.1,0.5l0.1,0.2
	C18,28.9,18.8,29.6,19.6,30.1z"/>
<path class="st3" d="M14.4,32.6c1.1-0.4,2.5-0.9,2.9-0.5s-0.3,2.8-2,4c-1.8,1.2-4.2,1.2-6.1,0c-1.6-1.1-2.3-3.4-1.7-4s2,0,2.6,0.2
	c1.3,0.5,1.5,1,2.4,1C13.1,33.2,13.2,33,14.4,32.6z"/>
<path d="M7.4,33c1.5,1.1,3.2,2.2,5.2,2.2c1.8,0,3.3-1.1,4.7-2.1c0.2-0.1,0-0.4-0.1-0.3c-1.3,1-2.8,2.1-4.6,2.1
	c-1.9,0-3.6-1.1-5.1-2.2C7.4,32.7,7.2,32.9,7.4,33L7.4,33z"/>
<path d="M8.5,32c-0.2,0.8-0.5,1.6-0.8,2.3C7.7,34.5,8,34.6,8,34.4c0.3-0.8,0.6-1.5,0.8-2.3c0-0.1,0-0.2-0.1-0.2
	C8.6,31.9,8.5,31.9,8.5,32C8.5,32,8.5,32,8.5,32L8.5,32z"/>
<path d="M9.8,32.4c-0.3,1.1-0.7,2.1-1.2,3c-0.1,0.1-0.1,0.2,0,0.2c0.1,0,0.2,0,0.2,0l0,0c0.6-1,1-2,1.2-3.1c0-0.1,0-0.2-0.1-0.2
	C9.8,32.3,9.8,32.3,9.8,32.4z"/>
<path d="M11,32.9c-0.1,0.6-0.2,1.2-0.4,1.8c-0.2,0.6-0.4,1.1-0.8,1.6c-0.1,0.2,0.1,0.4,0.2,0.2c0.4-0.5,0.7-1,0.8-1.6
	c0.2-0.6,0.4-1.3,0.5-2C11.3,32.7,11,32.6,11,32.9L11,32.9z"/>
<path d="M12,33.4l-0.5,3.7c0,0.2,0.3,0.2,0.3,0l0.5-3.7c0-0.1-0.1-0.2-0.1-0.2C12.1,33.2,12,33.3,12,33.4L12,33.4L12,33.4z"/>
<path d="M13,33.4c-0.1,1.1,0,2.3,0.3,3.4c0.1,0.2,0.4,0.1,0.3-0.1c-0.3-1.1-0.3-2.2-0.3-3.3c0-0.1-0.1-0.2-0.1-0.2
	C13,33.2,13,33.3,13,33.4L13,33.4L13,33.4z"/>
<path d="M13.8,32.9c0,1.2,0.4,2.3,1.2,3.2c0.1,0.1,0.3-0.1,0.2-0.2c-0.7-0.8-1.2-1.9-1.2-3c0-0.1-0.1-0.2-0.1-0.2
	C13.9,32.7,13.8,32.8,13.8,32.9L13.8,32.9z"/>
<path d="M15.2,32.3c0,0.5,0.2,0.9,0.4,1.2c0.1,0.2,0.3,0.4,0.4,0.6c0.1,0.2,0.3,0.3,0.5,0.5c0.2,0.1,0.3-0.2,0.1-0.3
	c-0.2-0.1-0.3-0.3-0.4-0.4c-0.1-0.2-0.3-0.3-0.4-0.5c-0.3-0.3-0.4-0.7-0.4-1.1c0-0.1-0.1-0.2-0.1-0.2C15.2,32.2,15.2,32.3,15.2,32.3
	C15.2,32.4,15.2,32.4,15.2,32.3z"/>
</svg>
