<?xml version="1.0" encoding="utf-8"?>
<!-- Generator: Adobe Illustrator 26.0.1, SVG Export Plug-In . SVG Version: 6.00 Build 0)  -->
<svg version="1.1" id="Layer_1" xmlns="http://www.w3.org/2000/svg" xmlns:xlink="http://www.w3.org/1999/xlink" x="0px" y="0px"
	 viewBox="0 0 1915 1080" style="enable-background:new 0 0 1915 1080;" xml:space="preserve">
<style type="text/css">
	.st0{fill:#550013;}
	.st1{fill:#B3B3B3;}
	.st2{fill:#81A199;}
	.st3{fill:#E6E6E6;}
	.st4{fill:#CCCCCC;}
	.st5{fill:#81A1A8;}
	.st6{fill:#B5CCCC;}
	.st7{fill:#009245;}
	.st8{fill:#FFFFFF;}
	.st9{fill:#8CC63F;}
	.st10{fill:#754C24;}
	.st11{stroke:#000000;stroke-width:0.5;stroke-miterlimit:10;}
	.st12{stroke:#000000;stroke-width:0.5;stroke-miterlimit:9.9998;}
	.st13{fill:#8C6239;}
	.st14{fill:#603813;}
	.st15{stroke:#000000;stroke-width:0.5;stroke-miterlimit:10.0006;}
	.st16{stroke:#000000;stroke-width:0.5;stroke-miterlimit:10.0008;}
	.st17{stroke:#000000;stroke-width:0.5;stroke-miterlimit:10.0004;}
	.st18{stroke:#000000;stroke-width:0.5;stroke-miterlimit:9.9996;}
	.st19{stroke:#000000;stroke-width:0.5;stroke-miterlimit:10.0002;}
	.st20{fill:#ED1C24;}
	.st21{fill:#8C6239;stroke:#603813;stroke-miterlimit:10;}
	.st22{opacity:0.2;fill:#FF5589;stroke:#000000;stroke-width:0.5;stroke-miterlimit:10;enable-background:new    ;}
	.st23{stroke:#000000;stroke-width:0.4998;stroke-miterlimit:9.9962;}
	.st24{opacity:0.2;fill:#FF90CD;enable-background:new    ;}
	.st25{fill:#42210B;}
	.st26{stroke:#000000;stroke-width:0.25;stroke-miterlimit:10;}
	.st27{fill:#CCCCCC;stroke:#999999;stroke-width:2;stroke-miterlimit:10;}
	.st28{fill:#F15A24;}
	.st29{fill:#F7931E;}
	.st30{fill:#FFFFFF;stroke:#000000;stroke-miterlimit:10;}
	.st31{fill:#FFFFFF;stroke:#000000;stroke-width:1;stroke-miterlimit:10;}
	.st32{stroke:#000000;stroke-miterlimit:10;}
	.st33{fill:none;}
	.st34{enable-background:new    ;}
</style>
<rect x="-1.5" y="-3.5" class="st0" width="1919" height="1090"/>
<path d="M1917-3v1089H-1V-3H1917 M1918-4H-2v1091h1920V-4z"/>
<ellipse transform="matrix(0.9839 -0.1788 0.1788 0.9839 -60.1263 309.4682)" class="st1" cx="1686.8" cy="488.3" rx="131.4" ry="122.7"/>
<ellipse transform="matrix(0.9839 -0.1788 0.1788 0.9839 -77.827 285.4677)" class="st1" cx="1544.8" cy="574.5" rx="131.4" ry="122.7"/>
<ellipse transform="matrix(0.9835 -0.1807 0.1807 0.9835 -74.7733 258.4108)" class="st1" cx="1380.8" cy="539.6" rx="97.1" ry="122.3"/>
<ellipse transform="matrix(0.9839 -0.1788 0.1788 0.9839 -38.7879 337.0344)" class="st1" cx="1850.4" cy="383.7" rx="97.4" ry="122.7"/>
<ellipse transform="matrix(0.9839 -0.1788 0.1788 0.9839 -19.0569 313.3557)" class="st1" cx="1728.9" cy="262.4" rx="126.2" ry="175"/>
<ellipse transform="matrix(0.9835 -0.1807 0.1807 0.9835 -9.4091 275.7416)" class="st1" cx="1508.6" cy="189.5" rx="91.6" ry="115.8"/>
<ellipse transform="matrix(0.9839 -0.1788 0.1788 0.9839 -47.0416 251.8519)" class="st1" cx="1373.7" cy="386.9" rx="419.1" ry="116.3"/>
<ellipse transform="matrix(0.9839 -0.1788 0.1788 0.9839 -16.8956 248.5406)" class="st1" cx="1370.4" cy="218" rx="92" ry="116.3"/>
<ellipse transform="matrix(0.9839 -0.1788 0.1788 0.9839 -81.0212 233.8252)" class="st1" cx="1256.7" cy="566.4" rx="92" ry="116.3"/>
<ellipse transform="matrix(0.9839 -0.1788 0.1788 0.9839 -27.134 228.1394)" class="st1" cx="1252.1" cy="264.6" rx="92" ry="116.3"/>
<ellipse transform="matrix(0.9839 -0.1788 0.1788 0.9839 -48.1448 207.6097)" class="st1" cx="1127.7" cy="370.9" rx="92" ry="116.3"/>
<ellipse transform="matrix(0.9839 -0.1788 0.1788 0.9839 -81.4704 205.2412)" class="st1" cx="1097.9" cy="554.6" rx="92" ry="116.3"/>
<ellipse class="st2" cx="306.9" cy="244.6" rx="133.2" ry="115.6"/>
<ellipse class="st2" cx="475.4" cy="285.8" rx="167.8" ry="104.3"/>
<ellipse class="st2" cx="687.2" cy="343.2" rx="137.6" ry="98.1"/>
<ellipse class="st2" cx="126.9" cy="353.2" rx="130.4" ry="113"/>
<ellipse class="st2" cx="173" cy="480" rx="107.3" ry="138.7"/>
<ellipse class="st2" cx="342.2" cy="389.5" rx="168.5" ry="114.3"/>
<ellipse class="st2" cx="780.8" cy="496.3" rx="110.2" ry="108.7"/>
<ellipse class="st2" cx="585.6" cy="496.3" rx="145.5" ry="136.2"/>
<ellipse class="st2" cx="378.2" cy="504.4" rx="121" ry="114.3"/>
<ellipse class="st3" cx="702.8" cy="195.4" rx="115.1" ry="116.4"/>
<ellipse class="st3" cx="903.8" cy="253.3" rx="167.5" ry="169.4"/>
<ellipse class="st3" cx="1196.7" cy="311.8" rx="208.3" ry="189.7"/>
<ellipse class="st3" cx="964.1" cy="524.9" rx="260.7" ry="237.7"/>
<ellipse class="st3" cx="682.7" cy="362.9" rx="221.7" ry="166.9"/>
<ellipse class="st3" cx="619.3" cy="502.7" rx="136.4" ry="213.1"/>
<ellipse class="st3" cx="1196.7" cy="526.1" rx="176.6" ry="156.4"/>
<ellipse class="st3" cx="761.9" cy="564.3" rx="121.8" ry="205.7"/>
<ellipse class="st4" cx="272.1" cy="649.2" rx="122" ry="107.4"/>
<ellipse class="st4" cx="416.1" cy="597.1" rx="122" ry="107.4"/>
<ellipse class="st4" cx="556.2" cy="648.8" rx="90.4" ry="107.4"/>
<ellipse class="st4" cx="105.4" cy="713.7" rx="90.4" ry="107.4"/>
<ellipse class="st4" cx="196.2" cy="837.1" rx="117.1" ry="153.2"/>
<ellipse class="st4" cx="380.4" cy="931.2" rx="85.3" ry="101.8"/>
<ellipse class="st4" cx="541.1" cy="785.5" rx="388.9" ry="101.8"/>
<ellipse class="st4" cx="516.2" cy="931.5" rx="85.3" ry="101.8"/>
<ellipse class="st4" cx="677.8" cy="649.2" rx="85.3" ry="101.8"/>
<ellipse class="st4" cx="631.9" cy="909.9" rx="85.3" ry="101.8"/>
<ellipse class="st4" cx="763.1" cy="837.8" rx="85.3" ry="101.8"/>
<ellipse class="st4" cx="820.8" cy="684.2" rx="85.3" ry="101.8"/>
<ellipse class="st5" cx="1356.7" cy="434.3" rx="127.8" ry="134.3"/>
<ellipse class="st5" cx="1518.4" cy="482.2" rx="161" ry="121.2"/>
<ellipse class="st5" cx="1721.5" cy="549" rx="131.9" ry="114"/>
<ellipse class="st5" cx="1184" cy="560.6" rx="125" ry="131.4"/>
<ellipse class="st5" cx="1228.2" cy="707.9" rx="102.9" ry="161.1"/>
<ellipse class="st5" cx="1390.6" cy="602.7" rx="161.7" ry="132.8"/>
<ellipse class="st5" cx="1811.3" cy="726.8" rx="105.7" ry="126.3"/>
<ellipse class="st5" cx="1624.1" cy="726.8" rx="139.6" ry="158.2"/>
<ellipse class="st5" cx="1425.1" cy="736.2" rx="116.1" ry="132.8"/>
<ellipse class="st6" cx="1001.4" cy="730.7" rx="116.5" ry="106.7"/>
<ellipse class="st6" cx="1148.7" cy="768.8" rx="146.7" ry="96.3"/>
<ellipse class="st6" cx="1333.8" cy="821.9" rx="120.3" ry="90.6"/>
<ellipse class="st6" cx="844" cy="831.1" rx="114" ry="104.4"/>
<ellipse class="st6" cx="884.3" cy="948.2" rx="93.8" ry="128.1"/>
<ellipse class="st6" cx="1032.2" cy="864.6" rx="147.3" ry="105.6"/>
<ellipse class="st6" cx="1415.7" cy="963.2" rx="96.3" ry="100.4"/>
<ellipse class="st6" cx="1245" cy="963.2" rx="127.2" ry="125.8"/>
<ellipse class="st6" cx="1063.7" cy="970.7" rx="105.8" ry="105.6"/>
<path d="M1466,380.2c0.8,0,1.5-0.7,1.5-1.5s-0.7-1.5-1.5-1.5s-1.5,0.7-1.5,1.5S1465.2,380.2,1466,380.2z"/>
<path class="st7" d="M580.1,380H1271c75.7,0,137.1,61.4,137.1,137.1V720c0,75.7-61.4,137.1-137.1,137.1H580.1
	C504.4,857,443,795.6,443,719.9V517.1C443,441.4,504.4,380,580.1,380z"/>
<path class="st8" d="M572.4,460.8c6.3,0,10.5,3.5,10.5,10.8c0,12.2-16.2,20.4-16.2,36c0,4.5,2.3,7.1,7,7.1c9.9,0,14.7-7.3,19.3-7.3
	c3.1,0,5.9,3.9,5.9,7.3c0,11.7-17.2,19.6-40.5,19.6c-5.1,0-6.7-2.5-6.7-5.6c0-17.5,8.9-24,8.9-54.2
	C560.5,467.3,564,460.8,572.4,460.8z"/>
<path class="st8" d="M651.2,486.7c0,28.5-26,18.6-26,26.8c0,3.1,3.6,4.4,6,4.4c5.2,0,11.1-4,12.4-5.3c2.5-2.5,3.8-4.9,6-4.9
	c1.2,0,1.9,0.9,1.9,2.2c0,14.2-12.3,20.3-22.9,20.3c-18.6,0-28.2-14.4-28.2-35.9c0-19.5,8-31.6,29-31.6
	C643.9,462.7,651.2,471.3,651.2,486.7z M639.5,498.5c0-3.2-3.2-4.5-5.9-4.5c-6.2,0-9.6,3.2-9.6,6.5c0,1.7,1.4,3.2,3.9,3.2
	C633.3,503.7,639.5,502.6,639.5,498.5L639.5,498.5z"/>
<path class="st8" d="M668,462.6c1.9,2,1.9,2.3,3.1,11.9c2.4,19,3.6,31.1,9.6,31.1c6.6,0,7.5-11,9.4-30.8
	c1.2-11.7,7.9-14.8,13.6-14.8c11,0,12.3,6.6,12.3,13.3c0,20-10.3,60.4-32.4,60.4c-19.8,0-29.9-37.4-29.9-61.7
	c0-9.4,4.1-11.5,8.1-11.5C664.2,460.6,666.5,461.1,668,462.6z"/>
<path class="st8" d="M769.1,486.7c0,28.5-26,18.6-26,26.8c0,3.1,3.6,4.4,6,4.4c5.2,0,11.1-4,12.4-5.3c2.5-2.5,3.8-4.9,6-4.9
	c1.2,0,1.9,0.9,1.9,2.2c0,14.2-12.3,20.3-22.9,20.3c-18.6,0-28.2-14.4-28.2-35.9c0-19.5,8-31.6,29-31.6
	C761.8,462.7,769.1,471.3,769.1,486.7z M757.3,498.5c0-3.2-3.2-4.5-5.9-4.5c-6.2,0-9.6,3.2-9.6,6.5c0,1.7,1.4,3.2,3.9,3.2
	C751.2,503.7,757.3,502.6,757.3,498.5z"/>
<path class="st8" d="M791.2,460.8c6.3,0,10.5,3.5,10.5,10.8c0,12.2-16.2,20.4-16.2,36c0,4.5,2.3,7.1,7,7.1c9.9,0,14.7-7.3,19.3-7.3
	c3.1,0,5.9,3.9,5.9,7.3c0,11.7-17.2,19.6-40.5,19.6c-5.1,0-6.7-2.5-6.7-5.6c0-17.5,8.9-24,8.9-54.2
	C779.5,467.3,783,460.8,791.2,460.8z"/>
<path class="st8" d="M842,501c0-18.5,13-39.7,35.1-39.7c7.6,0,20.5,4.1,20.5,12.6c0,1.6-0.9,3.1-2.7,3.1c-2.6,0-6.7-2.4-11.4-2.4
	c-9.7,0-15.6,12.2-15.6,21.8c0,10.5,5.5,17.7,11.9,17.7s12.3-6.6,15.9-6.6c2,0,3.1,2.3,3.1,4.1c0,13.3-17.5,22-27.8,22
	C853,533.6,842,517.3,842,501z"/>
<path class="st8" d="M960.2,495.8c0,16.1-9.2,37.7-30,37.7c-22.4,0-29.3-17.2-29.3-34.4c0-27.2,10.4-38.8,32.3-39
	C949,460.1,960.2,473.2,960.2,495.8z M917.8,491.8c0,8.1,2.4,15.5,7.4,15.5c6.7,0,10-8,10-16s-3-16.1-9-16.1
	C920.5,475.2,917.8,483.6,917.8,491.8z"/>
<path class="st8" d="M962.2,512.1c0-19.7,10.5-53,28.3-53c7.2,0,7.9,7.8,8.6,15.1c0.2,2.2,1.9,9,3.7,9c5.2,0,6.3-19.4,18.2-19.4
	c13.7,0,18.1,28.3,18.1,54.1c0,10.2-4.2,21.8-15.6,21.8c-6.4,0.1-11.7-5.1-11.7-11.5c0-0.2,0-0.3,0-0.5c0-10.9,11.1-12.6,11.1-25.8
	c0-8.4-3-10.1-5.3-10.1c-12.7,0-3.4,21.7-19,21.7c-9.2,0-11.3-4.3-11.3-10.4c0-5.2,1.5-11.1,1.5-15c0-2.6-0.5-4.1-2.7-4.1
	c-5.3,0-7,7.9-7,12.5c0,7.4,2.6,15.6,2.6,22.3c0,5.4-2.3,10.2-7.9,10.2C966.2,529,962.2,524.8,962.2,512.1z"/>
<path class="st8" d="M1064.7,464.2c3.2,0,10.9-2.7,18-2.7c7.9,0,12.3,4.8,12.3,15.2c0,35.7-36.6,15.2-36.6,27
	c0,13.5,3.8,12.1,3.8,21.9c0,5.8-4.5,8-9.9,8c-7,0-10.5-3.6-10.5-8.2c0-6.3,5-16.1,5-36.7c0-8.9-0.8-14.3-2.8-17.1
	c-1-1.4-1.6-3.1-1.6-4.8c0-2.9,1.9-5.4,7.1-5.4C1054.2,461.4,1055.1,464.2,1064.7,464.2z M1059.2,483.7c0,3.2,1.5,7.5,5.3,7.5
	c3.1,0,7.1-3.6,7.1-10.3c0-3.3-1.9-5.8-6.2-5.8C1062.2,475.1,1059.2,477.3,1059.2,483.7z"/>
<path class="st8" d="M1111.1,460.8c6.3,0,10.5,3.5,10.5,10.8c0,12.2-16.2,20.4-16.2,36c0,4.5,2.3,7.1,7,7.1c9.9,0,14.7-7.3,19.3-7.3
	c3.1,0,5.9,3.9,5.9,7.3c0,11.7-17.2,19.6-40.5,19.6c-5.1,0-6.7-2.5-6.7-5.6c0-17.5,8.9-24,8.9-54.2
	C1099.2,467.3,1102.8,460.8,1111.1,460.8z"/>
<path class="st8" d="M1189.8,486.7c0,28.5-26,18.6-26,26.8c0,3.1,3.6,4.4,6,4.4c5.2,0,11.1-4,12.4-5.3c2.5-2.5,3.8-4.9,6-4.9
	c1.2,0,1.9,0.9,1.9,2.2c0,14.2-12.3,20.3-22.9,20.3c-18.6,0-28.2-14.4-28.2-35.9c0-19.5,8-31.6,29-31.6
	C1182.6,462.7,1189.8,471.3,1189.8,486.7z M1178.2,498.5c0-3.2-3.2-4.5-5.9-4.5c-6.2,0-9.6,3.2-9.6,6.5c0,1.7,1.4,3.2,3.9,3.2
	C1172,503.7,1178.2,502.6,1178.2,498.5z"/>
<path class="st8" d="M1224,479.7c1.5,0,3.5-0.5,5.2-0.5s3.1,0.6,3.1,2.9c0,6.2-16.3,4.1-16.3,20.6c0,5.5,2.4,7.6,4.7,7.6
	c2.8,0,5.4-3.4,7.6-3.4s3.3,3.7,3.3,6.2c0,11.9-9.2,15.5-19.1,15.5c-14.9,0-20-5.6-20-12.9c0-8.8,6.7-19.5,6.7-24.8c0-5-7-1.3-7-6.5
	c0-5.4,11.9,1,18-15.6c0.8-2.4,2.6-4.9,6-4.9C1223.8,464.7,1217.2,479.7,1224,479.7z"/>
<path class="st8" d="M1284.8,486.7c0,28.5-26,18.6-26,26.8c0,3.1,3.6,4.4,6,4.4c5.2,0,11.1-4,12.4-5.3c2.5-2.5,3.8-4.9,6-4.9
	c1.2,0,1.9,0.9,1.9,2.2c0,14.2-12.3,20.3-22.9,20.3c-18.6,0-28.2-14.4-28.2-35.9c0-19.5,8-31.6,29-31.6
	C1277.6,462.7,1284.8,471.3,1284.8,486.7z M1273.2,498.5c0-3.2-3.2-4.5-5.9-4.5c-6.2,0-9.6,3.2-9.6,6.5c0,1.7,1.4,3.2,3.9,3.2
	C1267,503.7,1273.2,502.6,1273.2,498.5z"/>
<path class="st9" d="M411.2,777.6l-9.4-7.7c-1.8,15.3-6,30.2-12.2,44.2c-6.4,14.3-15.1,27.5-25.8,39c-2.6-5.7-10-23.4-5.4-44
	c2.5-11.3,8.4-21.7,16.9-29.6c-18.7,18-40.5,32.4-64.4,42.3c-14.2,5.9-28.9,10.3-44,13.1c3-15.4,10.2-29.6,20.7-41.2
	c22.6-24.4,53-27.3,62-27.8c-31.1,2.4-62.4-0.4-92.5-8.2c-18.8-4.8-37.1-11.5-54.7-19.8c18.7-11.5,39.8-18.6,61.6-20.9
	c23.3-2.4,46.9,0.1,69.2,7.2c-27.2-17.3-52.1-37.9-74.1-61.4c-20.8-22.1-38.9-46.7-53.8-73.1c30.9,10.7,60.1,25.8,86.8,44.8
	c24.9,17.7,47.4,38.6,66.9,62.2c-6.7-12.5-18-37.3-19.4-69c-1.5-35.3,10.1-60.5,16.4-71.9c28.1,48.3,44,102.4,45.6,155.3
	c-5.6-38.7,24.3-68.5,52-92.6c2.8,41.5-10,82-35.4,112.1c10-13.2,20.8-17,26.1-18.2s11.5-1.6,17-1.8c6.7-0.3,13.5-0.2,20.2,0.3
	c-9.7,11.5-20.8,21.7-33,30.3c-12.4,8.8-25.8,15.9-40,21.4c2.1,1.2,5.3,3.2,9.2,5.6c24.8,15.2,27.4,18.9,27.5,21.9c0,3.2-2,6-5,7
	C435.9,798.4,430.9,793.9,411.2,777.6z"/>
<path class="st9" d="M1324.6,654.2l4.9-3.3c-7.2-3.5-13.9-8-19.9-13.3c-6.2-5.6-11.5-12-15.7-19.1c7.6-0.9,15.3,0.7,21.9,4.6
	c5.2,3.2,9.5,7.7,12.2,13.2c-10.1-19.2-14.8-40.8-13.5-62.4c7.1,4.1,13.1,9.9,17.4,17c9,15.1,6.7,30.5,5.8,35
	c2.6-15.4,7.8-30.3,15.4-44c4.6-8.4,10.1-16.3,16.3-23.5c3.2,10.9,4.1,22.4,2.5,33.7c-1.6,11.7-5.7,22.8-12,32.8
	c22.8-20.5,50.8-34.4,80.8-40.5c-17.3,25.8-42,45.9-70.7,57.7c11.9-2.1,24.2-1.4,35.8,2c12.5,3.7,23.8,10.6,32.8,20
	c-26.8,5.8-54.6,4.6-80.8-3.4c19.4,3.7,30.2,23.3,38.4,40.9c-20.4-5.5-38.2-18.3-49.9-35.9c5.2,7.1,5.7,13,5.6,15.8
	c-0.1,2.9-0.6,5.8-1.2,8.6c-0.7,3.3-1.5,6.6-2.6,9.9c-8.7-13.4-14.2-28.6-16-44.4c-0.8,0.8-2.2,2.1-3.8,3.6
	c-10.4,9.7-12.5,10.3-14,9.9c-1.6-0.6-2.6-2-2.8-3.6C1311.5,662.9,1314.3,661.2,1324.6,654.2z"/>
<path class="st10" d="M1767.3,328.3c1.9,5.8,2.7,15.6-2.1,22c-3.9,5.3-8.9,4.7-10.4,9.4c-1.7,5.1,3.4,8,2.2,12.8
	c-1.6,6.6-14.2,12.8-22.6,9.5c-11.4-4.4-14.1-25.8-8.8-41.5c4.3-12.5,16.1-28,27.7-26.4C1763,315.4,1767.1,327.4,1767.3,328.3z"/>
<path class="st10" d="M1430.4,240.8c-4.8,4-11,11.9-10.5,19.8c0.4,6.5,4.9,8.4,3.6,13.1c-1.4,5.1-7.4,5.1-9,9.7
	c-2.3,6.4,4.9,18,13.9,19.4c12.1,1.9,26.4-14.9,30.6-30.9c3.3-12.8,1.9-31.8-8.8-36.3C1441.3,231.9,1431.2,240.1,1430.4,240.8z"/>
<path d="M1653,412.6c0.8,0,1.5-0.7,1.5-1.5s-0.7-1.5-1.5-1.5s-1.5,0.7-1.5,1.5S1652.2,412.6,1653,412.6z"/>
<path d="M1657.3,419.6c1.6-3.2,2.3-6.7,2-10.2c0-0.6-0.5-1.1-1.2-1.1c-0.5,0-0.9,0.3-1,0.8c-1.6,5.4-3.4,11-7.4,15.1l1.8,1.4
	c3.7-5.6,8.5-10.5,14-14.4l-1.7-1.3c-1.1,6.1-4,11.5-6.9,16.9l2,1.1c1.9-3.6,4.8-6.6,8.4-8.7l-1.7-1c0,2.3-1.1,4.4-2,6.4l-3,6.7
	c-0.6,1.3,1.3,2.5,1.9,1.1c1-2.1,2.3-4.1,3.8-5.9c0.9-1.1-0.7-2.7-1.6-1.6c-1.6,1.9-3,4-4.2,6.3l1.9,1.1c1.1-2.5,2.3-5,3.4-7.5
	c1.1-2.1,1.8-4.4,1.9-6.8c0-0.6-0.5-1.1-1.1-1.1c-0.2,0-0.4,0-0.6,0.1c-3.9,2.2-7.1,5.5-9.2,9.5c-0.7,1.3,1.2,2.4,2,1.1
	c3-5.5,6-11.2,7.2-17.4c0.2-0.9-0.8-1.9-1.7-1.3c-5.8,4.1-10.9,9.3-14.8,15.2c-0.7,1.1,0.9,2.3,1.8,1.4c4.3-4.5,6.2-10.4,8-16.1
	l-2.2-0.3c0.3,3.1-0.3,6.3-1.7,9.1c-0.6,1.3,1.3,2.4,1.9,1.1L1657.3,419.6z"/>
<path d="M1665.1,431.3c-4.7-0.6-5.7-6-6.1-9.8c0-0.5-0.8-0.5-0.8,0c0.2,2,0,4-0.5,5.9h0.7l-1.6-5c-0.2-1.1-0.7-2.2-1.6-2.9
	c-0.2-0.1-0.4,0-0.5,0.1l0,0c-0.7,1.4-1.2,2.8-1.5,4.3l0.7,0.1c0.1-2.3-0.2-4.6-0.9-6.8c-0.2-0.8-1-2.3-2-1.4
	c-0.1,0.1-0.1,0.2-0.1,0.4c0.9,2.4,1.3,5,1.2,7.6l0.7-0.1c-1.5-3.9-4.3-7.2-7.8-9.4c-0.3-0.2-0.7,0.2-0.5,0.5c0.6,1.5,1.3,2.9,2,4.3
	c0.5,1,1.1,2.6,2,3.4c0.6,0.5,1.4,0.4,1.9-0.1c1.1-0.9,2.1-1.8,3.1-2.9c3.3-3.1,9.2-7.5,7-12.8c-0.1-0.2-0.3-0.3-0.5-0.3
	c-0.2,0.1-0.3,0.3-0.3,0.5c0.3,1.5,0.8,3,1.3,4.4c0.3,1.3,0.8,2.6,1.5,3.7c1.3,1.5,2.3-1.1,3.3-1.4l-0.5-0.5l-2.6,9.5
	c0,0.2,0.1,0.4,0.3,0.5c0.1,0,0.2,0,0.3-0.1l4.6-3.5l-0.6-0.4c-0.9,2.9-1.3,5.9-1.3,8.9c0,0.4,0.5,0.5,0.7,0.2l3.9-8.3l-0.7-0.3
	l-1.6,10.4c-0.1,0.4,0.5,0.7,0.7,0.3c0.4-0.9,0.7-1.9,0.7-2.9c0-0.2-0.2-0.4-0.4-0.4c-0.1,0-0.1,0-0.2,0.1c-0.8,0.6-1.5,1.4-1.8,2.4
	c-0.1,0.2,0.1,0.4,0.3,0.5c0.2,0.1,0.4-0.1,0.5-0.3c0.2-0.8,0.7-1.5,1.4-2l-0.6-0.3c0,0.9-0.2,1.7-0.6,2.5l0.7,0.3l1.6-10.3
	c0.1-0.4-0.5-0.7-0.7-0.3l-3.9,8.3l0.7,0.2c0-3,0.4-5.9,1.3-8.7c0.1-0.4-0.3-0.6-0.6-0.4l-4.6,3.5l0.6,0.4l2.6-9.5
	c0.1-0.2-0.1-0.4-0.2-0.5c-0.1,0-0.1,0-0.2,0c-0.5,0.1-0.9,0.4-1.2,0.8c-0.2,0.2-0.4,0.6-0.7,0.8c-0.9,0.5-1.2-0.9-1.4-1.4
	c-0.8-2.1-1.5-4.2-2-6.4l-0.7,0.2c2,4.7-3,8.5-5.9,11.2l-2.6,2.4c-0.3,0.3-0.7,0.6-1,1c-0.9,0.8-1.6,0.1-2-0.7
	c-1.2-2.1-2.2-4.2-3.2-6.4l-0.5,0.5c3.4,2.2,6,5.3,7.4,9c0.1,0.2,0.3,0.3,0.5,0.2c0.1,0,0.3-0.2,0.3-0.3c0-1.1,0-2.2-0.2-3.3
	c-0.2-1.3-0.7-2.5-0.8-3.8c0-0.2-0.2-0.5,0.1,0.2c0.2,0.3,0.3,0.7,0.4,1c0.2,0.6,0.3,1.2,0.4,1.8c0.3,1.4,0.4,2.9,0.3,4.3
	c0,0.4,0.7,0.5,0.7,0.1c0.3-1.4,0.8-2.8,1.4-4.2l-0.5,0.1c1,0.8,1.3,2.7,1.7,3.9l1.1,3.6c0.1,0.2,0.3,0.3,0.5,0.2
	c0.1,0,0.2-0.1,0.2-0.2c0.5-2,0.7-4.1,0.5-6.1h-0.8c0.5,4.4,1.7,9.9,6.9,10.6C1665.5,432.1,1665.5,431.4,1665.1,431.3L1665.1,431.3z
	"/>
<path d="M1600.9,506.9c9.7-11.7,19.9-22.9,30.8-33.5c1.4-1.4-0.7-3.5-2.1-2.1c-10.9,10.6-21.2,21.8-30.8,33.5
	C1597.6,506.3,1599.7,508.4,1600.9,506.9z"/>
<ellipse transform="matrix(0.3384 -0.941 0.941 0.3384 1018.3802 1829.4955)" class="st11" cx="1810.2" cy="190.5" rx="33.4" ry="26.6"/>
<ellipse transform="matrix(0.3282 -0.9446 0.9446 0.3282 900.0395 1470.4951)" class="st12" cx="1483.8" cy="102.5" rx="33.4" ry="25.4"/>
<path class="st13" d="M1741,354.1c-0.5-3.6-1.2-4.6-2.7-13.2c-0.8-3.7-1.3-7.4-1.7-11.2c-0.4-6.4,0.4-12.9,2.4-19
	c5.9-16.5,26-35.1,27-36.8l0.6-1l0.7-1.3c8.6-15.4,15.3-31.8,19.9-48.8c4.8-19.7,0.4-19,5.9-38.6c2.4-8.5,4.5-13.1,7.3-24.3
	c2.2-8.7,3.9-17.5,5-26.3c-0.8-7.2-2.6-14.2-5.3-20.8c-1.5-3.7-3.3-7.3-5.3-10.7c-8.5-14.3-21.8-24-25.3-26.6
	c-54-38.9-93.7-49.5-93.7-49.5s-41.9-11.1-101.4-4.6c0,0-33.9,3.8-52.5,20.5c-5.5,4.9-10.1,10.6-13.8,17c-3.2,6-6,12.2-8.5,18.5
	c-4.4,11.5-5.6,18.2-8.1,26.9c-4.5,15.3-8.2,17.3-14.8,34.8c-4.2,11.1-7.8,22.2-13.5,44.8c-0.4,1.5-1,4-1.5,7.4
	c-0.7,4.6-1,9.3-0.9,14.1c0.2,10.6,1.3,12.4,1.8,21.9c0.5,10.2,0.8,15.4-1.3,21.1c-2.8,7.4-7.4,10-13.2,16.1
	c0,0-14.6,15.1-20.4,37.5c-0.9,3.7-1.2,10.2-1.1,21.3c0.3,0.5,0.5,1,0.6,1.6c0.9,1.1,1.5,2.4,1.6,3.9c4.8,9.2,7.8,19.2,8.9,29.5
	c0.7,6.6,0.7,13.3-0.1,19.9c0,0.2,0,0.5,0,0.8c0.2,3.9,0.3,7.7,0.4,11.6c1.1,16.6,3.8,33,4.3,49.7c0.5,2.6,1.1,5.5,1.7,8.5
	c0.6,1.5,1.1,3.1,1.5,4.8c1.3,5.5,2.6,11.1,2.8,16.9c0,0.8,0,1.7-0.1,2.5c0.4,2,0.7,3.9,1,5.8c2.9,9.8,5.3,19.7,7.2,29.8
	c0.7,3.7,1.3,7.4,1.9,11.2c1.1,4.3,2.3,8.5,4,13.4c2.6,7.9,2.9,7.4,5.5,15.3c3.6,11.2,3.2,12.4,5.5,15.3c3.8,4.7,9,6.3,17.6,8.9
	c8.2,2.5,9.2,1.4,20.5,4.1c9.9,2.4,10.2,3.4,18.8,5.1c8,1.5,12.8,2.4,18.6,0.8c3.5-0.9,6.4-2.7,12.1-6.4c2-1.3,5.8-3.9,15-11.2
	c4.2-3.3,7.2-5.8,11.5-9.4c7.3-6,11-9.1,13.6-11.6l1.1-1.1c3.8-5.5,8.8-10.4,13.9-15.1c1.2-1.4,2.7-3,4.4-4.9
	c1.9-2.1,2.9-3.2,4.2-4.4c1.7-1.6,3.5-3.1,5.4-4.5c0.3-0.4,0.6-0.7,0.9-1.1c8.6-11,16.9-22.7,24.7-34.3c2.5-3.7,4.7-7.6,7.1-11.2
	c0.1-0.2,0.3-0.4,0.4-0.7c1.3-2.2,2.9-4.3,4.7-6.2c3.7-6.4,7.6-13,12.3-18.5c2.1-2.3,4.4-4.4,6.8-6.3c0.5-2,1.7-3.8,3.3-5.1
	c0.9-1.8,2.3-3.2,4.1-4.1c0.9-1.3,1.9-2.5,3-3.6c1.8-1.9,3.7-3.6,5.8-5.1c1.3-1.5,2.8-2.9,4.4-4.1c0.9-1.4,2.2-2.5,3.8-3.1
	c0.5-0.4,1-0.7,1.6-1c1.1-1.5,2.7-2.6,4.5-3c0.8-0.7,1.7-1.2,2.7-1.5l3.3-1.9l0,0c2.5-2.9,5.1-5.7,7.9-8.3c0.4-0.9,1-1.7,1.7-2.5
	c0.2-0.5,0.5-0.9,0.8-1.3c2-6.2,3.6-11.6,4.8-16C1741.5,362,1741.5,357.7,1741,354.1z"/>
<path class="st14" d="M1590.9,269.6c2.7-7.6,4-15.6,3.6-23.7c-0.5-8.1-3.3-16-6.6-23.4c-1.8-4.1-4-8-6.4-11.7
	c-0.3-0.4-0.9,0-0.7,0.4c4.6,7.1,8.1,14.8,10.5,22.9c2.1,6.5,2.8,13.4,2.2,20.2c-0.5,5.1-1.7,10.2-3.4,15.1
	C1590.1,269.9,1590.8,270.1,1590.9,269.6L1590.9,269.6z"/>
<path class="st14" d="M1607.9,276.6c4.5-18,15.8-34.7,32.4-43.5c4.7-2.5,9.7-4.3,14.9-5.4c0.5-0.1,0.3-0.8-0.2-0.7
	c-21.1,4.3-37.2,20.6-44.9,40.2c-1.2,3-2.2,6-3,9.1C1607.1,276.9,1607.8,277.1,1607.9,276.6L1607.9,276.6z"/>
<path d="M1671.2,26.6c-1,6.5-2.4,12.9-4.3,19.2c-2.1,7.3-4.8,14.5-8,21.4c-25.7-3.8-51.7-5.6-77.7-5.3c-28.5,0.4-56.9,3.2-84.9,8.5
	c5-10.6,17-32.5,41.2-45.4c4.2-2.2,17.8-9,50.3-10C1616,14.3,1644.2,18.2,1671.2,26.6z"/>
<path d="M1670.4,26.5c-2.2,14-6.3,27.6-12.2,40.4l0.8-0.3c-43.3-6.5-87.2-7.1-130.6-1.8c-10.9,1.3-21.7,3-32.4,5l0.8,1.1
	c4.6-10,10.7-19.2,18.1-27.4c7.5-8.2,16.7-15.4,27-19.8c9.5-4,20-5.8,30.3-6.9c13.9-1.4,27.9-1.5,41.8-0.4
	c16.8,1.3,33.5,4.3,49.8,8.8c2.4,0.7,4.7,1.4,7.1,2.1c0.9,0.3,1.3-1.2,0.4-1.5c-16.9-5.2-34.2-8.7-51.7-10.4c-14-1.4-28-1.6-42-0.6
	c-11.5,0.9-23.3,2.5-34.2,6.6c-9.7,3.7-18.4,9.9-25.8,17.1c-8.5,8.4-15.6,18.1-20.8,28.9c-0.4,0.9-0.8,1.7-1.3,2.6
	c-0.2,0.4-0.1,0.8,0.3,1c0.2,0.1,0.4,0.1,0.5,0.1c20.1-3.8,40.3-6.3,60.7-7.5c22.7-1.4,45.5-1.2,68.2,0.6
	c11.1,0.9,22.2,2.1,33.3,3.8c0.3,0.1,0.7-0.1,0.8-0.3c6-13,10.1-26.7,12.3-40.8C1672,25.9,1670.6,25.5,1670.4,26.5z"/>
<path d="M1679.5,28.1c-6.5,12.2-10.8,25.4-12.6,39.2c51,21.2,98.1,50.8,139.3,87.5c2-12.1,4.6-37.5-8.7-59.7
	c-5.4-9-11.3-14-22.6-23.6c-16.2-13.6-34.5-24.5-54.2-32.2C1707.5,34.1,1693.6,30.4,1679.5,28.1z"/>
<path d="M1678.9,27.8c-6.6,12.3-10.9,25.7-12.7,39.5c0,0.3,0.2,0.6,0.6,0.7c40.7,16.9,79,39.2,113.8,66.3c8.6,6.7,17,13.7,25.2,21
	c0.3,0.3,0.8,0.3,1.1,0c0.1-0.1,0.2-0.2,0.2-0.4c2.1-11.4,2.2-23.1,0.4-34.6c-2.3-13.7-8.1-26.8-17.8-36.8
	c-4.8-4.8-9.9-9.3-15.2-13.5c-3.5-3-7.2-5.8-10.9-8.5c-11.3-8.1-23.5-15-36.3-20.5c-13.2-5.7-27-9.9-41.1-12.6
	c-2.1-0.4-4.2-0.8-6.3-1.1c-1-0.1-1.3,1.3-0.4,1.4c14,2.2,27.7,5.9,40.9,11c13.5,5.3,26.4,12,38.3,20.2c9.1,6.2,17.7,13.1,25.8,20.6
	c4.5,4,8.4,8.5,11.7,13.5c4,6.5,7,13.6,8.7,21c2.7,11.9,3.1,24.3,1.2,36.4c-0.2,1-0.3,2.1-0.5,3.1l1.2-0.3
	c-15.3-13.6-31.3-26.2-48.1-37.8c-19.1-13.2-39.1-25.1-59.9-35.5c-10.4-5.2-20.9-10-31.6-14.4l0.6,0.7c1.8-13.6,6-26.7,12.5-38.8
	C1680.6,27.7,1679.3,26.9,1678.9,27.8z"/>
<path d="M1793.8,193.4l9.9-30.4c1.1-3.3,2.2-6.7,1.6-10c-0.5-2.9-2.2-5.2-3.9-7.4c-3.6-4.6-7.6-9.9-12.3-13.3
	c-1.4,10.1,1.7,22.6,2.7,32.7c0.9,9.4,1.8,18.8,2.7,28.2c-0.9-9.4-1.8-18.8-2.7-28.2c-1.1-11.1-2.1-22.1-3.2-33.2"/>
<path d="M1794.5,193.6l9.3-28.5c1.4-4.2,3.2-8.7,2-13.1c-1-3.9-4-7.1-6.5-10.2c-2.8-3.8-6.1-7.2-9.8-10.1c-0.4-0.2-0.8-0.1-1,0.3
	c0,0.1-0.1,0.1-0.1,0.2c-1,7.3,0.1,14.7,1.2,21.9c1.2,8.1,2,16.2,2.8,24.3c0.5,4.9,1,9.9,1.4,14.8c0.1,1,1.6,1,1.5,0l-5.9-61.4
	c-0.1-1-1.6-1-1.5,0l5.9,61.4h1.5l-2.5-25.7c-0.7-7.5-2.2-15-2.9-22.5c-0.5-4.1-0.5-8.3-0.1-12.4l-1.1,0.4c3.2,2.4,6,5.3,8.5,8.5
	c2.5,3.1,5.6,6.3,6.9,10.1c1.5,4.4-0.4,9-1.8,13.1l-4.4,13.3l-5,15.2C1792.7,194.2,1794.2,194.6,1794.5,193.6L1794.5,193.6z"/>
<path d="M1501.1,69.1l30.3-5c-18.3,17.4-34.4,36.9-48.2,58.1c2.7-17.8,7.3-35.2,13.8-52c4.6-0.2,9-1.8,12.7-4.3"/>
<path d="M1501.3,69.8l30.3-5l-0.7-1.3c-14.2,13.6-27.2,28.4-38.8,44.4c-3.3,4.5-6.5,9.2-9.5,13.8l1.4,0.6c2.7-17.8,7.3-35.2,13.8-52
	l-0.7,0.6c4.7-0.3,9.2-1.8,13.1-4.4c0.8-0.5,0-1.8-0.8-1.3c-3.6,2.5-7.9,4-12.3,4.2c-0.3,0-0.6,0.2-0.7,0.6
	c-6.5,16.8-11.1,34.2-13.8,52c-0.1,0.4,0.1,0.8,0.5,0.9c0.3,0.1,0.7,0,0.8-0.3c10.7-16.5,22.9-32,36.4-46.3c3.8-4,7.6-7.9,11.6-11.7
	c0.6-0.6,0-1.4-0.7-1.3l-30.3,5C1499.9,68.5,1500.4,70,1501.3,69.8L1501.3,69.8z"/>
<ellipse transform="matrix(0.3384 -0.941 0.941 0.3384 1002.1829 1864.1949)" class="st11" cx="1826.8" cy="219.4" rx="31.2" ry="24.9"/>
<ellipse transform="matrix(0.3428 -0.9394 0.9394 0.3428 973.6948 1899.9833)" class="st12" cx="1844.8" cy="254.1" rx="28.9" ry="23.4"/>
<ellipse transform="matrix(0.3228 -0.9465 0.9465 0.3228 973.3054 1948.2318)" class="st15" cx="1848.1" cy="294" rx="25.2" ry="18.6"/>
<ellipse transform="matrix(0.3374 -0.9414 0.9414 0.3374 915.2469 1957.3903)" class="st16" cx="1848" cy="328.6" rx="22.6" ry="18"/>
<ellipse transform="matrix(0.3251 -0.9457 0.9457 0.3251 905.1968 1986.9633)" class="st17" cx="1844.7" cy="359.3" rx="21.2" ry="15.9"/>
<ellipse transform="matrix(0.3085 -0.9512 0.9512 0.3085 899.0046 2017.1879)" class="st18" cx="1836.9" cy="390.3" rx="22.1" ry="14.1"/>
<ellipse transform="matrix(0.3195 -0.9476 0.9476 0.3195 844.4884 2015.9186)" class="st19" cx="1825.8" cy="420" rx="17.9" ry="12.9"/>
<ellipse transform="matrix(0.3218 -0.9468 0.9468 0.3218 821.2987 2019.7314)" class="st12" cx="1820.5" cy="436.6" rx="16.1" ry="11.8"/>
<ellipse transform="matrix(0.2152 -0.9766 0.9766 0.2152 988.1264 2150.0874)" class="st20" cx="1831.8" cy="460.3" rx="17.4" ry="22.2"/>
<ellipse transform="matrix(0.219 -0.9757 0.9757 0.219 974.0094 2109.7754)" class="st20" cx="1804.9" cy="446.5" rx="17.4" ry="22.3"/>
<path class="st8" d="M1848.1,465.4c-2.5,6-11.7,7.1-12.1,6.4s5.9-2.3,8.1-7.5c2.5-6.2-2.5-12.7-1.9-13S1850.9,458.6,1848.1,465.4z"
	/>
<path d="M1517.1,479.6c13.4,5.7,27.4,9.9,41.7,12.4c1.3,0.1,2.6,0.6,3.6,1.5c1.9,2.1-0.4,5.2-2.6,7c-7.6,6.2-15.8,11.7-24.4,16.3
	c-1.9,1.2-4,1.9-6.2,2.1c-4.6,0-7.9-4-10.1-7.9c-4.7-8.2-7.9-17.2-9.3-26.5c-0.2-0.7-0.1-1.5,0.2-2.2c0.6-0.9,1.6-1.4,2.7-1.5
	c2.5-0.5,5-0.8,7.5-0.7"/>
<path d="M1516.7,480.2c8.8,3.8,17.9,6.9,27.2,9.3c4.6,1.2,9.3,2.2,14,3c1.9,0.3,5,0.7,4.3,3.4c-0.6,2.1-2.6,3.6-4.2,4.9
	c-7.3,5.9-15.1,11-23.4,15.4c-2.1,1.1-4.4,2.1-6.8,1.6c-1.9-0.5-3.6-1.5-4.9-3c-2.9-3-4.8-7.1-6.5-10.9c-2.2-4.8-3.8-9.8-5-14.9
	c-0.3-1.2-0.5-2.5-0.7-3.7c-0.2-1.5-0.6-3,1.1-3.6c2.7-0.8,5.6-1.1,8.4-0.9c0.4,0,0.8-0.3,0.8-0.8s-0.3-0.8-0.8-0.8
	c-2.7-0.1-5.4,0.2-8.1,0.8c-1.8,0.5-3.2,1.6-3.1,3.6c0.2,2.5,0.7,5.1,1.4,7.5c0.6,2.5,1.4,5,2.3,7.5c1.7,4.8,3.8,9.4,6.5,13.7
	c2.1,3.3,5.1,6.7,9.2,7.1c2.4,0.1,4.7-0.5,6.7-1.7c2.3-1.2,4.6-2.5,6.9-3.8c4.6-2.7,9.1-5.7,13.3-8.9c2-1.4,3.9-2.9,5.7-4.5
	c1.4-1.3,2.9-3.2,2.9-5.2s-1.5-3.1-3.2-3.6c-2.5-0.7-5.1-1-7.6-1.5c-12.2-2.5-24.1-6.2-35.5-11.1
	C1516.6,478.6,1515.8,479.9,1516.7,480.2L1516.7,480.2z"/>
<path d="M1518.8,527.4c0.4,0,0.8-0.3,0.8-0.8s-0.3-0.8-0.8-0.8s-0.8,0.3-0.8,0.8S1518.4,527.4,1518.8,527.4z"/>
<path d="M1572.6,559.5c-12,4.9-22.2,6.5-31.2,2.7c-1-0.4-11.8-5.2-14.3-14.9c-0.6-2.8-0.8-5.6-0.4-8.4c0.8-8.5,2.9-16.8,6-24.7
	h-10.1c-2.1,7.3-4.2,14.1-6.2,20.5c-0.8,3.1-2.2,6-4,8.6c-3.4,4.2-8.4,6.9-13.8,7.3c-11.5,0.8-21.4-11.6-26.4-18.2
	c-20.1-26.7-21.5-56-22.2-55.8c-0.3,0.1,0.5,5.1,1.8,12.2c1.6,6.4,3.1,12.9,4.3,19.4c0.6,3.2,1.2,6.5,1.7,9.8
	c0.4,1.9,0.8,3.6,1.2,5.3c2.6,11,4.3,14.7,5.6,17.8c2.2,5.4,3.7,6.9,5.6,15.6c0.6,3.1,1.9,6,3.8,8.5c3.9,5.2,10.9,7.2,17.4,8.9
	l38.5,10.1c3.6,1.1,7.3,1.8,11.1,2.1c7.4-0.9,14.5-3.2,20.9-6.8c5.8-3.3,8.5-6.4,16.2-14.3c1.2-1.2,7.2-7.3,18.6-18.9
	C1589.2,551.6,1581.1,556,1572.6,559.5z"/>
<path d="M1572.4,558.8c-10.4,4.2-22.7,7.3-33.1,1.5c-3.9-2.1-7.3-5.1-9.7-8.9c-2.9-4.9-2.5-10.3-1.8-15.7c1-7.3,2.9-14.5,5.6-21.4
	c0.1-0.4-0.1-0.8-0.5-1c-0.1,0-0.2,0-0.2,0h-10.1c-0.3,0-0.6,0.2-0.7,0.5c-1.2,4-2.4,8.1-3.6,12.1c-1.1,3.7-2.2,7.5-3.5,11.1
	c-2.1,6.5-7.7,11.3-14.4,12.5c-6.3,1.2-12.2-1.9-16.9-5.9c-4.2-3.8-8-8-11.3-12.6c-8.2-11.3-14.2-24.1-17.8-37.6
	c-1.1-4.1-2-8.3-2.8-12.5c-0.2-1.2-0.4-2.3-0.6-3.5c-0.1-0.5-0.1-1.3-0.6-1.5c-1.6-0.9-1.1,2.1-1.1,2.7c0.4,3.2,1,6.3,1.6,9.4
	c0.8,4.2,2,8.3,2.9,12.5s1.7,8.5,2.5,12.7c1.9,11.1,4.8,21.8,9.5,32c1,2.2,1.9,4.5,2.7,6.9c0.9,3,1.3,6.1,2.5,9
	c1.2,3.1,3.3,5.7,5.9,7.8c2.7,1.9,5.6,3.4,8.8,4.3c3.6,1.2,7.4,2.1,11,3l12.8,3.3c8.4,2.2,16.8,4.7,25.3,6.5
	c1.9,0.4,3.8,0.7,5.8,0.9c1.5,0,2.9-0.2,4.3-0.5c3.4-0.6,6.8-1.5,10-2.8c5.6-2,10.7-5.1,15.2-9.1c3.5-3.2,6.7-6.8,10-10.2
	c3.1-3.2,6.2-6.4,9.4-9.6l7.9-8c0.6-0.6-0.2-1.7-0.9-1.2c-7.5,5.3-15.5,9.7-23.9,13.2c-0.9,0.4-0.5,1.8,0.4,1.5
	c8.6-3.5,16.7-8,24.3-13.3l-0.9-1.2c-6.9,7-13.8,13.9-20.5,20.9c-3.8,3.9-7.5,8-12.1,11c-6,3.8-12.6,6.3-19.6,7.4
	c-1.6,0.3-3.2,0.4-4.8,0.3c-2.1-0.3-4.2-0.7-6.3-1.2c-4.1-1-8.2-2.1-12.4-3.2l-25-6.5c-6.5-1.7-14.2-3-19.2-7.8s-5.2-11.6-7.4-17.6
	c-1.4-3.7-3.2-7.3-4.7-11c-2-5.3-3.6-10.8-4.8-16.4c-1.9-8.2-3.1-16.6-4.9-24.8c-0.9-4-2-8-2.7-12.1c-0.3-1.6-0.6-3.2-0.8-4.7
	c-0.1-0.9-0.1-2-0.3-2.8c0-0.1,0-0.3,0-0.3s-1.2,0.1-1.3,0.2s0-0.2,0,0.1c0,0.3,0.1,0.6,0.2,0.9c0.2,1.2,0.4,2.3,0.6,3.5
	c0.7,4.2,1.6,8.3,2.7,12.4c3.5,13,9.2,25.4,16.9,36.4c3.2,4.7,6.9,9,10.9,12.9c4.2,3.9,9.2,7.3,15,8c6.2,0.5,12.2-1.9,16.4-6.5
	c1.9-2.3,3.4-4.9,4.3-7.8c1.3-3.6,2.3-7.3,3.4-11c1.2-3.9,2.3-7.8,3.5-11.7l-0.7,0.5h10.1l-0.6-0.8c-2.6,6.6-4.4,13.4-5.5,20.4
	c-0.8,5.3-1.4,10.9,0.8,16c3.6,8.1,12.8,13.5,21.4,14.5c8.2,1,16.5-1.5,24.1-4.6C1573.7,559.9,1573.3,558.4,1572.4,558.8z"/>
<path d="M1630.4,512.7c0.4-0.5,0.8-1.1,1.3-1.7c-1.9,1.8-8.6,8.5-20.2,20.2c-5.7,5.8-10.6,10.8-14.8,15c1.7-1.2,3.4-2.5,5-3.7
	C1609.5,531.4,1622.6,522.6,1630.4,512.7z"/>
<path d="M1631,513.2c0.5-0.6,0.9-1.2,1.4-1.8s-0.6-1.5-1.2-0.9c-2.8,2.6-5.5,5.4-8.2,8.1c-5.8,5.8-11.6,11.7-17.3,17.5l-9.5,9.6
	c-0.6,0.6,0.2,1.7,0.9,1.2c1.1-0.7,2.1-1.5,3.1-2.3c0.8-0.5,1.5-1.1,2.2-1.7c1.3-1.5,2.4-3.3,3.8-4.8c2.6-3,5.4-5.8,8.3-8.4
	C1620.2,524.4,1626.2,519.3,1631,513.2c0.6-0.8-0.5-1.8-1.1-1.1c-4.8,6-10.7,11-16.3,16.3c-2.9,2.7-5.7,5.5-8.3,8.4
	c-1.2,1.4-2.4,2.8-3.5,4.3c-1.3,1.8-3.6,3.1-5.4,4.4l0.9,1.2c10.5-10.6,20.9-21.3,31.5-31.8c1.2-1.2,2.3-2.3,3.5-3.4l-1.2-0.9
	c-0.4,0.5-0.8,1-1.2,1.5C1629.3,512.9,1630.4,514,1631,513.2z"/>
<path class="st21" d="M1576.1,393c17.7,1.1,35,5.7,50.9,13.7c3.5-3.7,5.9-8.4,6.9-13.4c0.6-3.2,0.6-6.5,0-9.7
	c-5.3-2.7-19.6-9-37.3-5.9c-6.2,1.1-12.3,3.2-17.8,6.3L1576.1,393z"/>
<path class="st21" d="M1555.1,389c-7.1-3.6-14.4-6.5-22-8.7c-9.4-2.7-19.1-4.4-28.9-5c-0.9-5-0.4-10.1,1.6-14.8
	c1.3-3,3.1-5.8,5.4-8.2c6,0.4,21.6,2.1,35,13.6c4.7,4,8.6,8.8,11.7,14.1L1555.1,389z"/>
<path class="st21" d="M1603.7,308.8c-1,6.2-2.5,12.2-4.4,18.2c-2.9,9.1-5.1,16.2-4.8,22.9c0.7,15.1,13.1,16.1,12.2,26.3
	c-1.3,14.3-29.4,25.8-31.5,26.6c-1.1,0.5-2.2,0.9-3.4,1.1c-7.2,1.2-14.5-0.8-20.1-5.4c-0.9-0.8-1.8-1.8-2.5-2.8
	c-1.5-2-17.8-23.3-11.6-37c4.4-9.6,14.6-5,23.5-17.9c2.8-4.1,4.9-10.4,9.1-23c2.6-7.9,4-13,4.7-15.7c5.7-19.7,21.1-43.9,27.6-42.2
	S1608.1,290.2,1603.7,308.8z"/>
<path class="st22" d="M1642.4,455.1c-0.2-2-5.2-3.9-25.2-5.5c-45.9-3.7-51.1,3.3-71.9-2.1c-6.6-1.7-19.5-8.8-45.5-22.9
	c-27.8-15.1-33.7-20-36.3-17.8c-5.6,4.9,9.7,38.4,36.3,57.7c12.1,8.6,25.9,14.5,40.4,17.5c5.6,1.1,11.2,1.8,16.9,1.9
	c17.5,0.3,24.6-4.8,63.5-18.8C1635.6,459.8,1642.6,457.6,1642.4,455.1z"/>
<path class="st8" d="M1542.6,460.7l-16.5-3c-0.4-1.4-0.6-2.8-0.6-4.2c0-3.4,0.9-6.8,2.7-9.7l17.8,3.2c0.5,3.4,0,6.8-1.3,9.9
	C1544.2,458.3,1543.5,459.6,1542.6,460.7z"/>
<path class="st14" d="M1645.6,454.6c-1.2-1.9-29.5,10-35.8,11.8c-3.5,1-7,1.8-7,1.8c-1.1,0.2-1,0.1-19.7,4.8
	c-13.6,3.4-15.9,4-20.3,4c-7,0.1-13.6-2-26.8-6c-10.2-3.2-15.8-4.9-23.3-8.7c-6.6-3.1-12.7-7.1-18.2-12c-1.4-1.3-2.7-2.6-3.9-4
	c-2.2-2.6-4.3-5.3-6.1-8.2c-6.8-11-20.4-33.1-23.5-31.9c-1.6,0.6-0.3,7.2,1,11.3c2.1,6.8,5.6,11,7.7,13.9
	c13.1,17.5,9.5,27.6,23.7,41.3c1.4,1.3,2.8,2.5,4.4,3.5c6.3,4.3,13.7,6.4,28.4,10.4c16.4,4.5,24.6,7,35.2,6.8
	c15.4-0.4,26.8-5.9,42.7-13.6c7.1-3.4,10-5.5,16.2-8.8c5.5-3,7.4-3.4,11.2-5.6C1638.4,461.5,1646.2,455.7,1645.6,454.6z"/>
<path class="st8" d="M1561.1,465.8l-16.1-4.3c-0.2-1.4-0.3-2.8-0.2-4.2c0.3-3.4,1.5-6.7,3.6-9.4l17.5,4.7
	C1566.1,457.4,1564.4,462.2,1561.1,465.8L1561.1,465.8z"/>
<path class="st8" d="M1575.5,464.5c-0.5,0.8-1.2,1.5-2.1,1.9c-2.6,1.2-5.5-0.2-5.7-0.3c-1.2-0.6-2.1-1.5-2.7-2.6
	c0-0.9,0-1.9,0.1-2.9c0.3-2.9,0.9-5.8,2-8.5l10.3,2.1c0,2.7-0.4,5.5-1.1,8.1C1576,463,1575.8,463.8,1575.5,464.5z"/>
<path class="st8" d="M1524.5,451.7c-0.6,0.7-1.5,1.3-2.4,1.5c-2.8,0.8-5.4-1.1-5.6-1.2c-1-0.8-1.8-1.8-2.2-3
	c0.2-0.9,0.4-1.9,0.7-2.8c0.8-2.9,2-5.6,3.6-8.1l9.7,3.8c-0.6,2.7-1.5,5.3-2.7,7.8C1525.2,450.3,1524.9,451,1524.5,451.7z"/>
<path class="st8" d="M1592.4,466.5l-13.2,0.6c-0.5-1.3-1-2.6-1.3-3.9c-0.7-3.3-0.7-6.7,0.1-10l14.3-0.6c1.1,3.2,1.4,6.6,1,9.9
	C1593.1,463.8,1592.8,465.2,1592.4,466.5z"/>
<path class="st8" d="M1511.3,448.1l-11.6-6c0.2-1.4,0.6-2.7,1.1-4c1.2-3.2,3.1-6.1,5.6-8.5l12.5,6.5c-0.9,3.3-2.4,6.4-4.6,9
	C1513.4,446.2,1512.4,447.2,1511.3,448.1z"/>
<path class="st8" d="M1498.4,438.9l-9.1-4.7c0.2-1.2,0.6-2.4,1.1-3.5c1.1-2.8,2.8-5.4,4.9-7.6l9.8,5.1c-0.9,2.9-2.3,5.6-4.2,8
	C1500.2,437.1,1499.3,438,1498.4,438.9z"/>
<path class="st8" d="M1606.4,463.4l-10.2,1.4c-0.6-1.1-1-2.2-1.4-3.4c-0.9-2.9-1.2-5.9-0.9-8.9l11.1-1.5c1.1,2.8,1.7,5.8,1.7,8.8
	C1606.7,461,1606.6,462.2,1606.4,463.4z"/>
<path class="st8" d="M1489.8,429.7l-9.3-4.8c0.2-1.2,0.6-2.3,1-3.5c1.1-2.8,2.7-5.3,4.8-7.4l10.1,5.2c-0.8,2.9-2.2,5.5-4,7.8
	C1491.6,428,1490.8,428.9,1489.8,429.7z"/>
<path class="st8" d="M1619.6,460l-10.3,2.4c-0.7-1-1.2-2.1-1.7-3.2c-1.1-2.7-1.7-5.6-1.7-8.6l11.2-2.6c1.4,2.6,2.3,5.4,2.5,8.4
	C1619.7,457.6,1619.7,458.8,1619.6,460z"/>
<path class="st14" d="M1648.2,455.4c0.3-0.9-15.2-6.1-23-7.3c-2-0.3-4.1-0.5-4.1-0.5c-3.7-0.3-6.5-0.1-20.6-1.1
	c-18.9-1.4-23.1-2.5-33.6-1.9h-0.2c0,0-13.3,0.7-17.2,2.4c-0.3,0.1-0.8,0.4-1.8,0.8c-1.5,0.6-1.8,0.6-1.8,0.8
	c-0.3,0.8,4.9,3.7,11.3,5.4c4.7,1.2,8.9,1.5,16.8,1.3c9.4-0.3,16.5-1,17.8-1.1c19.5-2,30.3-2.8,43.3-1
	C1643.3,454.2,1648.1,455.9,1648.2,455.4z"/>
<path class="st14" d="M1549.1,445.9l-1.2-1.5c-0.6-0.9-4.4-3.6-15.2-10.5c-10.2-4.3-20-9.5-30.2-14c-12.8-5.7-15.1-7.2-18.5-8.7
	c0,0-1.9-0.8-3.8-1.5c-7.6-2.7-21.7-4.9-21.8-4.3c-0.1,0.4,4.2,0.8,10.6,3.9c1.1,0.5,3.3,1.7,7.6,4.3c1.9,1.1,4.3,2.5,7.2,4.2
	c4.6,2.6,6.9,3.9,10,5.5c7.5,3.8,8.5,3.4,12.7,6.2l6,4.4c5.8,4.2,5.6,4.2,5.9,4.4c4,2.7,4.8,2.3,11.3,5.8c5.8,3.1,5.6,3.6,7.8,4.1
	c3.3,0.6,6.6,0.6,9.8,0.1l0,0l1.5-0.5l1.5-0.5L1549.1,445.9z"/>
<ellipse transform="matrix(0.3384 -0.941 0.941 0.3384 864.5783 1444.2695)" class="st11" cx="1459.4" cy="107.3" rx="33.4" ry="26.6"/>
<ellipse transform="matrix(0.3384 -0.941 0.941 0.3384 829.1901 1426.5784)" class="st11" cx="1429.1" cy="123.6" rx="31.2" ry="24.9"/>
<ellipse transform="matrix(0.3401 -0.9404 0.9404 0.3401 783.4846 1401.9957)" class="st23" cx="1390.7" cy="142.7" rx="28.9" ry="23.4"/>
<ellipse transform="matrix(0.3228 -0.9465 0.9465 0.3228 760.7487 1416.103)" class="st15" cx="1369.9" cy="176.4" rx="25.2" ry="18.6"/>
<ellipse transform="matrix(0.3374 -0.9414 0.9414 0.3374 700.8922 1407.139)" class="st16" cx="1350" cy="205.7" rx="22.6" ry="18"/>
<ellipse transform="matrix(0.3251 -0.9457 0.9457 0.3251 681.0358 1421.4165)" class="st17" cx="1336.4" cy="233.6" rx="21.2" ry="15.9"/>
<ellipse transform="matrix(0.3085 -0.9512 0.9512 0.3085 665.6107 1443.0392)" class="st18" cx="1325.3" cy="263.7" rx="22.1" ry="14.1"/>
<ellipse transform="matrix(0.3195 -0.9476 0.9476 0.3195 617.817 1449.2772)" class="st19" cx="1318" cy="294.5" rx="17.9" ry="12.9"/>
<ellipse transform="matrix(0.3218 -0.9468 0.9468 0.3218 596.1211 1454.8142)" class="st12" cx="1313.6" cy="311.3" rx="16.1" ry="11.8"/>
<ellipse transform="matrix(0.2152 -0.9766 0.9766 0.2152 694.87 1516.0723)" class="st20" cx="1290.7" cy="325.7" rx="17.4" ry="22.2"/>
<ellipse transform="matrix(0.2152 -0.9766 0.9766 0.2152 714.103 1559.8943)" class="st20" cx="1327.6" cy="335.7" rx="17.4" ry="22.2"/>
<path class="st8" d="M1273.9,322c-1.2,6.4,6,11.9,6.7,11.5s-3.8-4.9-2.7-10.4c1.3-6.5,9.2-9.5,8.8-10.1S1275.3,314.7,1273.9,322z"/>
<path class="st13" d="M1601.5,262.3c0.8,0,1.5-0.7,1.5-1.5s-0.7-1.5-1.5-1.5s-1.5,0.7-1.5,1.5S1600.7,262.3,1601.5,262.3z"/>
<path class="st13" d="M1604.8,259.5c-1.5-1.2-3.5-1.4-5.2-0.5c-1.6,0.8-3,2-4.1,3.5c-2.4,3-5.1,6.4-4.1,10.5c0.2,0.8,1.1,1.3,1.8,1
	c0.2-0.1,0.5-0.2,0.7-0.4c4.7-5.5,9.8-10.8,13.4-17l-2.7-0.4c0.8,2.3,0.4,5,0.3,7.3l-0.2,8.1l3-0.4c-1.2-3.1-2.2-6.3-2.8-9.6
	c-0.3-1.5-2.5-1.3-2.9,0l-2,6.7c-0.6,1.9,2.3,2.6,2.9,0.8l2-6.7h-2.9c0.7,3.3,1.6,6.5,2.8,9.6c0.2,0.8,1.1,1.3,1.9,1
	c0.6-0.2,1.1-0.8,1.1-1.4l0.2-8.4c0.1-2.5,0.4-5.3-0.4-7.8c-0.2-0.8-1.1-1.3-1.9-1c-0.3,0.1-0.6,0.3-0.8,0.6
	c-3.5,6-8.4,11.2-12.9,16.4l2.5,0.7c-0.6-2.7,1.4-5.2,3-7.1c0.8-1.1,1.7-2,2.7-2.8c0.6-0.5,1.9-1.1,2.7-0.5c0.6,0.6,1.5,0.6,2.1,0
	C1605.4,261.1,1605.4,260.1,1604.8,259.5L1604.8,259.5z"/>
<path class="st13" d="M1593.4,268.9c0.8,0,1.5-0.7,1.5-1.5s-0.7-1.5-1.5-1.5s-1.5,0.7-1.5,1.5S1592.6,268.9,1593.4,268.9z"/>
<path class="st13" d="M1593.2,269.4c0.8,0,1.5-0.7,1.5-1.5s-0.7-1.5-1.5-1.5s-1.5,0.7-1.5,1.5S1592.3,269.4,1593.2,269.4z"/>
<path class="st13" d="M1593.2,269.2c0.8,0,1.5-0.7,1.5-1.5s-0.7-1.5-1.5-1.5s-1.5,0.7-1.5,1.5S1592.4,269.2,1593.2,269.2z"/>
<path class="st13" d="M1593.1,270.2c0.8,0,1.5-0.7,1.5-1.5s-0.7-1.5-1.5-1.5s-1.5,0.7-1.5,1.5S1592.2,270.2,1593.1,270.2z"/>
<path class="st13" d="M1593.1,269.3c0.8,0,1.5-0.7,1.5-1.5s-0.7-1.5-1.5-1.5s-1.5,0.7-1.5,1.5S1592.3,269.3,1593.1,269.3z"/>
<path class="st13" d="M1593.1,270.1c0.8,0,1.5-0.7,1.5-1.5s-0.7-1.5-1.5-1.5s-1.5,0.7-1.5,1.5S1592.3,270.1,1593.1,270.1z"/>
<path class="st13" d="M1592.6,272c0.8,0,1.5-0.7,1.5-1.5s-0.7-1.5-1.5-1.5s-1.5,0.7-1.5,1.5S1591.8,272,1592.6,272z"/>
<path class="st13" d="M1606.3,274.7c0.8,0,1.5-0.7,1.5-1.5s-0.7-1.5-1.5-1.5s-1.5,0.7-1.5,1.5S1605.5,274.7,1606.3,274.7z"/>
<path class="st13" d="M1606.2,275.7c0.8,0,1.5-0.7,1.5-1.5s-0.7-1.5-1.5-1.5s-1.5,0.7-1.5,1.5S1605.3,275.7,1606.2,275.7z"/>
<path class="st13" d="M1605.4,277.1c0.8,0,1.5-0.7,1.5-1.5s-0.7-1.5-1.5-1.5s-1.5,0.7-1.5,1.5S1604.6,277.1,1605.4,277.1z"/>
<path class="st13" d="M1605.7,276.6c0.8,0,1.5-0.7,1.5-1.5s-0.7-1.5-1.5-1.5s-1.5,0.7-1.5,1.5S1604.9,276.6,1605.7,276.6z"/>
<path class="st13" d="M1606.1,276c0.8,0,1.5-0.7,1.5-1.5s-0.7-1.5-1.5-1.5s-1.5,0.7-1.5,1.5S1605.2,276,1606.1,276z"/>
<path class="st13" d="M1606.2,275.6c0.8,0,1.5-0.7,1.5-1.5s-0.7-1.5-1.5-1.5s-1.5,0.7-1.5,1.5S1605.4,275.6,1606.2,275.6z"/>
<path class="st13" d="M1605.2,277.8c0.8,0,1.5-0.7,1.5-1.5s-0.7-1.5-1.5-1.5s-1.5,0.7-1.5,1.5S1604.4,277.8,1605.2,277.8z"/>
<path class="st13" d="M1605.3,278.2c0.8,0,1.5-0.7,1.5-1.5s-0.7-1.5-1.5-1.5s-1.5,0.7-1.5,1.5S1604.4,278.2,1605.3,278.2z"/>
<path class="st13" d="M1605.4,277.7c0.8,0,1.5-0.7,1.5-1.5s-0.7-1.5-1.5-1.5s-1.5,0.7-1.5,1.5S1604.6,277.7,1605.4,277.7z"/>
<path class="st13" d="M1605.6,277.1c0.8,0,1.5-0.7,1.5-1.5s-0.7-1.5-1.5-1.5s-1.5,0.7-1.5,1.5S1604.8,277.1,1605.6,277.1z"/>
<path class="st13" d="M1605.8,276.5c0.8,0,1.5-0.7,1.5-1.5s-0.7-1.5-1.5-1.5s-1.5,0.7-1.5,1.5S1605,276.5,1605.8,276.5z"/>
<path d="M1610.1,527.9c-12,10.6-23.7,21.6-36.6,31.1l1.8,2.4c7-6.4,13.9-12.8,21.1-18.9c3.5-2.9,7.1-5.7,10.4-8.7s6.5-6.1,9.7-9.2
	c3.6-3.5,7.3-7.1,11.2-10.3c1.5-1.2-0.7-3.4-2.1-2.1c-6.8,5.7-12.9,12.3-19.5,18.3c-3.3,3-6.8,5.8-10.3,8.7c-3.6,3-7.2,6.1-10.7,9.3
	c-4,3.6-7.9,7.2-11.9,10.9c-1.2,1.1,0.4,3.4,1.8,2.3c13.1-9.7,25-20.8,37.2-31.6C1613.6,528.8,1611.5,526.7,1610.1,527.9z"/>
<path d="M1588.4,552.5c8.4-8.8,16.8-17.7,26.5-25c1.5-1.2,0-3.8-1.5-2.6c-9.9,7.5-18.5,16.5-27.1,25.5
	C1585,551.9,1587.1,554,1588.4,552.5L1588.4,552.5z"/>
<path d="M1447.6,455.2c1.9,9.1,3.8,18.2,5.7,27.3c1.8,9,3.5,18,3.7,27.1c0,1.9,3,1.9,3,0c-0.2-9.2-1.9-18.4-3.7-27.4
	c-1.9-9.3-3.8-18.5-5.8-27.8C1450.1,452.5,1447.2,453.3,1447.6,455.2L1447.6,455.2z"/>
<path class="st24" d="M1468.7,237.9l0.6-1.2l0.8-1.7c0.6-1.2,26.1-9.7,56.7,4.3c23.1,10.6,47.2,33.2,42.3,43.1s-37.8,6.6-61.5-4.6
	C1477.5,263.7,1468.2,239.2,1468.7,237.9z"/>
<path class="st10" d="M1468.2,235.2c2.1-4.8,6.7-7.1,14.3-10.8c6.1-2.9,12.6-4.8,19.2-5.6c11.5-1.6,25-3.5,39,3.2
	c6.7,3.3,12.6,8,17.4,13.8c4.5,4.8,8.1,10.5,10.5,16.7c2.3,6.3,3.4,13,3.5,19.7c0.1,3.5,0,6.9-0.3,10.4c-2.3-3.4-4.7-6.6-7.3-9.8
	c-1.6-1.9-3-3.5-13.6-14.1c-6.3-6.3-6.7-6.7-7.6-7.4c-3.9-3.2-7.4-4.9-14.4-8.4c-3.4-1.8-7-3.4-10.7-4.7c-3.2-1.1-6.5-1.9-9.9-2.4
	c-1.8-0.2-3.6-0.3-5.4-0.4l-5.3-0.4c-3.9,0.1-7,0.1-9.2,0c-3.9-0.2-5.9-0.5-10.7-0.7c-3.1-0.2-5.6-0.2-7.3-0.2l-0.8,1.7l-0.8,1.7
	c-0.4,0.9,2.2,5.6,14.7,21.3c7.2,8.5,16.3,15.2,26.6,19.6c11.6,4.9,21.8,5.5,31.2,6.1c10.1,0.6,20.3,0,30.3-1.7
	c-11.5,5.7-23.9,9.1-36.7,10.3c-10.8,0.9-22.1,1.9-34.2-4.3c-11.5-5.9-17.4-14.9-22.8-23.1C1471.6,256,1464.1,244.4,1468.2,235.2z"
	/>
<path class="st25" d="M1540.4,258.3c0.6-1.4,2.1-5.2,0.8-8.2c-0.6-1.3-1.5-1.7-5.2-3.8c-6.7-3.8-5.7-3.4-8.2-4.6
	c-2.7-1.4-5.6-2.6-8.5-3.5c-3.3-1-4.9-1.4-6.5-1.2c-4.9,0.6-9.5,6.2-11.4,11.2c-3.5,9.4,3,22,13.2,24.7
	C1525.8,275.8,1537.2,266.3,1540.4,258.3z"/>
<ellipse transform="matrix(0.9572 -0.2895 0.2895 0.9572 -8.5885 451.2963)" cx="1521.2" cy="254.7" rx="8.9" ry="8.5"/>
<path class="st24" d="M1731.7,309.6c0.1-0.5,0.2-1.3,0.2-1.3s0.2-1.1,0.3-1.8c0.2-1.3-16.8-21.3-50.6-24.6
	c-25.5-2.5-58.7,4.7-60,15.5s28.4,24.5,54.8,26.8C1709.8,327.1,1731.5,311,1731.7,309.6z"/>
<path class="st10" d="M1733.7,307.6c0.9-5.2-1.8-9.4-6.2-16.3c-3.6-5.5-8-10.3-13.2-14.3c-8.8-7.1-19.3-15.5-34.9-16.8
	c-7.6-0.5-15.2,0.5-22.5,3c-6.6,1.9-12.8,4.9-18.2,9c-5.4,4.2-10.2,9.3-14,15c-2,2.9-3.9,5.9-5.5,9c3.8-1.7,7.7-3.3,11.7-4.6
	c2.5-0.8,4.6-1.5,19.4-5.2c8.8-2.2,9.5-2.4,10.5-2.5c5.1-0.8,9.1-0.5,16.9,0c3.9,0.1,7.8,0.6,11.7,1.3c3.3,0.6,6.6,1.6,9.8,2.9
	c1.6,0.7,3.2,1.5,4.8,2.4l4.8,2.4c3.2,2,5.9,3.5,7.8,4.5c3.4,1.8,5.2,2.5,9.5,4.7c2.7,1.4,4.9,2.6,6.3,3.4l-0.3,1.9
	c0,0-0.2,1.8-0.3,1.9c-0.1,1-5,3.6-24.4,10.8c-10.8,3.6-22.2,4.7-33.5,3.4c-12.6-1.6-21.6-6.2-29.9-10.4
	c-8.9-4.5-17.2-10.1-24.8-16.5c6.6,10.6,15.2,19.7,25.3,27c8.7,6.2,17.7,12.6,31.5,13.4c13.1,0.8,23.2-4,32.2-8.2
	C1719.1,323.6,1732,317.4,1733.7,307.6z"/>
<path class="st25" d="M1659.4,291.2c0.3-1.4,1.1-5.5,3.9-7.4c1.3-0.8,2.2-0.7,6.6-0.6c7.8,0.2,6.7-0.1,9.5,0.1
	c3.1,0.1,6.2,0.6,9.2,1.3c3.3,0.8,5,1.2,6.2,2.2c3.8,3,4.6,10,3.4,15.2c-2.3,9.7-14.8,17.2-25.1,14.4
	C1662.1,313.3,1657.7,299.5,1659.4,291.2z"/>
<ellipse cx="1677.9" cy="297.6" rx="8.8" ry="8.6"/>
<path class="st26" d="M1554.9,414c-1.9-1.8-3.9-3.5-5.9-5.2c-27.4-23.2-58.8-35-88.5-40.6l-7.6,15.5c24,19,52.8,35.2,87,44
	c2.5,0.6,4.9,1.2,7.3,1.8c1.1-0.7,2.1-1.6,3-2.6c2-2.2,3.3-4.9,4-7.8C1554.7,417.5,1554.9,415.7,1554.9,414z"/>
<path class="st26" d="M1680,418.8c-5.6-0.6-10.1-1.1-12.8-1.4c-57-6.1-76-9.9-102.6-4.5c-3.5,0.7-6.3,1.4-7.2,1.6
	c-1.4,2.5-2.3,5.3-2.5,8.2c-0.2,2.5,0.2,5.1,1.1,7.4c2,0.6,4.1,1.1,6.2,1.7c30.9,7.9,69.6,11.6,116.2,3.9
	C1678.9,430.2,1679.4,424.5,1680,418.8z"/>
<path d="M1670.7,450.8c3.6-7.5,10-14.9,9.5-23.7c-0.2-3.6-1.5-7.5-4.6-9.5c-2.7-1.8-6.1-1.7-9.1-1.3c-3.6,0.7-7.1,1.7-10.5,2.9
	c-1.8,0.6-1.1,3.5,0.8,2.9c2.7-0.9,5.4-1.8,8.2-2.5c2.6-0.6,5.5-1.1,8,0c2.8,1.1,4,4.3,4.2,7.1c0.3,3.9-1,7.6-2.7,11
	c-2,3.9-4.5,7.6-6.3,11.6C1667.2,451,1669.8,452.5,1670.7,450.8L1670.7,450.8z"/>
<path d="M1674.4,443.7c0-3.4-0.6-6.7-2-9.7c-0.4-0.7-1.4-0.9-2.1-0.5c-0.2,0.1-0.4,0.3-0.5,0.5c-2.9,5.6-5.3,11.4-8.2,17
	c-2.5,4.8-6.2,9.7-3.6,15.2c0.8,1.7,3.4,0.2,2.6-1.5c-1.1-2.3-0.4-4.8,0.7-7s2.5-4.5,3.7-6.8c2.5-5.1,4.7-10.3,7.4-15.3h-2.6
	c1.1,2.6,1.6,5.4,1.6,8.2c0,0.8,0.7,1.5,1.5,1.5S1674.4,444.6,1674.4,443.7L1674.4,443.7z"/>
<path d="M1681.8,435.5c1.4-5.5,1.6-11.5-1.4-16.5c-0.4-0.7-1.4-0.9-2.1-0.5c-0.4,0.3-0.7,0.7-0.7,1.2c-0.9,16-10.2,30-18.7,43
	c-2.4,3.7-4.8,7.5-7.1,11.3c-0.4,0.7-0.1,1.6,0.6,2s1.6,0.1,2-0.5c8.2-14,18.7-26.9,23.7-42.6c1.4-4.3,2.2-8.8,2.5-13.3l-2.8,0.8
	c2.6,4.3,2.3,9.5,1.1,14.2C1678.5,436.6,1681.4,437.4,1681.8,435.5L1681.8,435.5z"/>
<path d="M1664.8,434.4c-6.8,21.5-16.4,42-28.8,60.9c-3.5,5.3-7.1,10.4-11,15.4c-0.4,0.7-0.2,1.6,0.5,2.1c0.7,0.4,1.6,0.1,2-0.5
	c13.8-18,25.1-37.7,33.5-58.8c2.4-6,4.6-12.1,6.5-18.2C1668.2,433.3,1665.3,432.5,1664.8,434.4L1664.8,434.4z"/>
<path d="M1447.5,446.5c1.9-4.2,2.5-8.8,1.9-13.4c-0.5-4.6-1.8-9.1-2.6-13.6c-0.9-4.6-1-9.4-0.2-14c0.9-4.9,2.2-9.7,4-14.4
	c2-5.4,4.3-10.7,6.5-16.1c0.2-0.7-0.2-1.5-0.9-1.8c-0.7-0.3-1.5,0-1.9,0.6c-4.6,6.2-8.4,12.9-11.3,20c-0.6,1.6,2,2.7,2.7,1.2
	c2.2-5,4-10.1,6.7-14.9c0.8-1.5,1.8-3,3.1-4.2c0.4-0.4,0.9-0.8,1.5-1.1c0.5-0.3,0,0.1,0.2-0.1s-0.2,0.1-0.2-0.1c0,0.3,0.2,0.7,0.3,1
	c0.4,1.9,3.3,1.1,2.9-0.8c-0.4-2.1-2-3.7-4.2-2.9c-1.9,0.7-3.4,2.5-4.5,4.1c-3.8,5.2-5.6,11.6-8.2,17.4l2.7,1.2
	c2.8-6.9,6.5-13.3,11-19.3l-2.7-1.1c-3.8,9.2-8,18.4-10,28.2c-1.1,4.6-1.3,9.4-0.8,14.1c0.6,4.5,1.9,9,2.7,13.5
	c0.9,5,1.1,10.2-1,14.9c-0.8,1.8,1.8,3.3,2.6,1.5L1447.5,446.5z"/>
<path d="M1441.5,428.5c1,6.6,2.3,13.1,3.3,19.7c0.2,0.8,1.1,1.2,1.8,1c0.8-0.3,1.2-1.1,1-1.8c-1-6.6-2.3-13.1-3.3-19.7
	c-0.2-0.8-1-1.3-1.8-1C1441.8,426.8,1441.3,427.6,1441.5,428.5L1441.5,428.5z"/>
<path d="M1464.6,373.5c-1.1-2.6-3.2-4.7-6.2-4.8c-2.8,0-5.4,1.5-7.6,3.2c-5.6,4.5-8.7,11.3-10.1,18.1c-0.9,4.5-1.4,9.1-1.3,13.7
	c0,1.9,3,1.9,3,0c0.1-7,0.8-14.3,3.7-20.7c2-4.4,5.6-9.5,10.5-11c2.7-0.9,4.4,0.5,5.4,3C1462.7,376.8,1465.3,375.3,1464.6,373.5
	L1464.6,373.5z"/>
<path d="M1460.1,371.4c-1.7-3.5-5.8-5-9.3-3.3c-0.6,0.3-1.1,0.6-1.6,1c-3.9,2.7-6.7,6.9-8.9,11.1c-1.1,1.9-1.9,3.9-2.5,5.9
	c-0.2,0.8,0.3,1.6,1.1,1.8c0.8,0.2,1.6-0.3,1.8-1c1.1-3.5,2.7-6.8,4.9-9.7c1.1-1.7,2.5-3.2,4-4.6c0.6-0.6,1.3-1.1,2.1-1.5
	c0.3-0.2,0.6-0.3,0.9-0.4c0.2-0.1,0.3-0.1,0.5-0.1l0.3-0.1c0.4-0.1-0.2,0,0.1,0c0.7-0.1,1.4,0,2,0.4c0.8,0.5,1.6,1.2,2.1,2.1
	C1458.6,374.5,1461.2,373,1460.1,371.4L1460.1,371.4z"/>
<path d="M1439.8,384c1.6,12.6,3.2,25.2,4.4,37.8l2.8-0.8c-0.3-1-0.3-2.1-0.1-3.2c0.2-1.2,0.1-2.5-0.2-3.7c-0.3-1.2-0.8-2.4-1-3.7
	c-0.2-1.4-0.3-2.8-0.2-4.3c0.3-2.7,0.7-5.5,1.3-8.1c0.5-2.8,1.1-5.7,1.7-8.5c0.4-1.9-2.5-2.7-2.9-0.8c-0.6,3-1.2,6-1.8,9
	c-0.6,2.9-1.1,5.9-1.3,8.9c-0.1,1.4,0,2.8,0.2,4.1c0.2,1.4,0.8,2.7,1.1,4.1c0.6,2.6-0.7,5.1,0.6,7.6c0.4,0.7,1.4,0.9,2.1,0.5
	c0.4-0.3,0.7-0.7,0.7-1.2c-1.2-12.6-2.8-25.2-4.4-37.8C1442.5,382.1,1439.5,382.1,1439.8,384L1439.8,384z"/>
<path d="M1446.9,437.1c0.7,10.8,2.3,21.6,4.8,32.2c0.4,1.7,2.9,1.3,2.9-0.4c0.1-11.9-1.4-23.8-4.5-35.4c-0.3-0.8-1.2-1.2-1.9-0.9
	c-0.7,0.3-1.1,1-1,1.7c3.1,11.3,4.5,22.9,4.4,34.5l2.9-0.4c-2.4-10.3-3.9-20.8-4.6-31.4C1449.8,435.2,1446.8,435.2,1446.9,437.1
	L1446.9,437.1z"/>
<path d="M1680.7,417.4c0.7-1.2,0.4-2.8-0.7-3.7c-0.3-0.3-0.7-0.5-1.1-0.6s-0.7-0.2-1.1-0.2c-0.7,0-1.3,0.1-2,0.3
	c-0.4,0.1-0.7,0.4-0.9,0.7c-0.2,0.3-0.3,0.8-0.2,1.1c0.2,0.8,1,1.2,1.8,1c0.3-0.1,0.6-0.1,0.9-0.2h-0.4c0.3,0,0.6,0,0.9,0l-0.4-0.1
	c0.2,0,0.4,0.1,0.6,0.2l-0.4-0.1c0.1,0,0.2,0.1,0.3,0.2l-0.3-0.2c0.1,0.1,0.2,0.2,0.3,0.3l-0.2-0.3c0.1,0.1,0.2,0.2,0.2,0.4
	l-0.2-0.4c0,0.1,0.1,0.2,0.1,0.4l-0.1-0.4c0,0.1,0,0.2,0,0.4l0.1-0.4c0,0.1,0,0.2-0.1,0.3l0.2-0.4c0,0.1-0.1,0.1-0.1,0.2
	c-0.4,0.7-0.2,1.6,0.5,2c0.3,0.2,0.8,0.3,1.2,0.1C1680.2,418,1680.5,417.7,1680.7,417.4L1680.7,417.4z"/>
<path d="M1680.3,430.4c-8.6,14.2-17.5,28.2-26.6,42c-2.6,3.9-5.2,7.8-7.9,11.8c-1.1,1.6,1.5,3.1,2.6,1.5
	c9.3-13.7,18.4-27.6,27.1-41.7c2.5-4,5-8,7.4-12.1C1683.9,430.2,1681.3,428.7,1680.3,430.4L1680.3,430.4z"/>
<path d="M1647.4,481.3c-2.8,4-5.8,7.8-8.7,11.6l-4.4,5.8l-2.3,3l-1.1,1.5l-0.6,0.8c-0.4,0.4-0.4,0.5,0.1,0.4l1.1,0.4l-0.1-0.1
	c-1.3-1.4-3.4,0.7-2.1,2.1c2,2.1,4.3-2,5.3-3.3l5.3-7c3.5-4.5,7.1-9,10.3-13.7C1651.1,481.2,1648.5,479.7,1647.4,481.3L1647.4,481.3
	z"/>
<path d="M1659.9,417.8c0.8,0,1.5-0.7,1.5-1.5s-0.7-1.5-1.5-1.5s-1.5,0.7-1.5,1.5S1659,417.8,1659.9,417.8z"/>
<path d="M1665.3,412.4l-6.8,0.7l0.4,3c4.3-0.8,8.7-1.2,13.1-1.2c1.9-0.1,3.7,0,5.6,0.4s2.4,1.5,2.6,3.4s3.1,1.9,3,0
	c-0.2-2.2-0.7-4.2-2.7-5.5c-1.8-1.1-4.1-1.1-6.2-1.2c-5.4-0.2-10.8,0.2-16.1,1.2c-1.7,0.3-1.3,3.1,0.4,2.9l6.8-0.7
	C1667.3,415.3,1667.3,412.3,1665.3,412.4L1665.3,412.4z"/>
<path d="M1672.7,439.5c0.8,0,1.5-0.7,1.5-1.5s-0.7-1.5-1.5-1.5s-1.5,0.7-1.5,1.5S1671.9,439.5,1672.7,439.5z"/>
<path d="M1448.2,379c-1.6,5.2-3.7,10.2-6.2,15l2.8,0.8c0.2-3.3,1-6.5,2.2-9.6c0.6-1.5,1.4-3,2.2-4.4c0.4-0.7,0.9-1.4,1.4-2.1
	c0.2-0.3,0.4-0.5,0.6-0.8c0.2-0.2,0.3-0.3,0.5-0.5s0.3-0.2-0.1-0.2c1.2,0.7,2.9-0.8,2.1-2c-1.9-2.8-5.5-2.1-7.6,0
	c-2.4,2.4-3,5.9-5.4,8.3l2.6,1.1c0.3-3.2,2.6-5.9,5.3-7.4c3.4-1.9,7.3-1.8,11.1-1.8c0.8,0,1.5-0.7,1.5-1.5s-0.7-1.5-1.5-1.5
	c-4.5,0-9.2,0.1-13.1,2.5c-3.5,2.1-5.8,5.6-6.3,9.7c-0.1,1.4,1.7,1.9,2.6,1.1c1.9-1.8,2.8-4.3,4.1-6.5c0.5-1,1.2-1.8,2.2-2.5
	c0.6-0.3,1.6-0.6,2,0.1l2-2c-2-1.1-3.8,0.7-4.9,2.2c-1.3,1.7-2.4,3.5-3.3,5.5c-1.8,3.9-2.9,8.1-3.2,12.4c0,0.8,0.7,1.5,1.5,1.5
	c0.5,0,1-0.3,1.3-0.7c2.7-5,4.9-10.3,6.5-15.7C1451.6,378,1448.7,377.2,1448.2,379L1448.2,379z"/>
<path d="M1461.3,370c-0.1-0.3-0.2-0.7-0.4-1l-1.3,2.3h0.3c1.6,0,2.1-2.6,0.4-3c-1.5-0.4-3.1-0.7-4.6-0.8c-1.6,0-3,0.8-4,2
	c-2,2-3.6,4.3-4.9,6.9c-0.4,0.7-0.1,1.6,0.5,2c0.7,0.4,1.6,0.2,2.1-0.5c1-2.1,2.4-4.1,4-5.8c0.6-0.7,1.3-1.6,2.3-1.6
	c1.3,0.1,2.6,0.4,3.8,0.7l0.4-2.9h-0.3c-0.8,0-1.5,0.7-1.5,1.5c0,0.3,0.1,0.5,0.2,0.7c0.2,0.3,0-0.1,0.1,0.2c0.2,0.8,1,1.3,1.8,1.1
	C1461,371.7,1461.5,370.9,1461.3,370L1461.3,370L1461.3,370z"/>
<path d="M1438.4,385.5c-0.4,1.4-0.5,2.9-0.2,4.3c0.3,1.3,0.4,2.7,0.2,4.1h2.9c-0.3-1.2-0.6-2.4-0.8-3.6c-0.1-0.6-0.1-1.3-0.1-1.9
	c-0.1-0.4-0.1-0.7,0-1.1l-2.5-0.7l0.5,1.9c0.2,0.5,0.3,1.1,0.1,1.7c-0.2,0.6-0.4,1.2-0.5,1.9c0,0.6,0,1.3,0,1.9c0,1.3,0,2.6,0,4
	s-0.2,2.8,1.1,3.7c0.7,0.4,1.6,0.1,2-0.5c0.4-0.7,0.2-1.6-0.5-2l-0.1-0.1l0.5,0.5c0.1,0.3,0.1,0.4,0,0.1v-0.4c0-0.3,0-0.6,0-1
	c0-0.6,0-1.1,0-1.7c0-1.3,0-2.5,0-3.8s0.7-2.1,0.6-3.3c-0.2-1.2-0.4-2.5-0.8-3.6c-0.2-0.8-1.1-1.3-1.9-1c-0.2,0.1-0.4,0.2-0.6,0.4
	c-1.2,1.1-0.9,3-0.8,4.5c0.1,1.7,0.4,3.4,0.9,5c0.4,1.4,2.6,1.5,2.9,0c0.2-1.5,0.2-3-0.1-4.5c-0.3-1.3-0.2-2.6,0.1-3.9
	c0.2-0.8-0.2-1.6-1-1.8C1439.5,384.3,1438.7,384.8,1438.4,385.5L1438.4,385.5z"/>
<path d="M1438.6,400.9c0.2,2.2,0.4,4.5,0.7,6.7c0.2,1.9,0.4,3.9,1.5,5.5c0.4,0.7,1.4,0.9,2.1,0.5c0.4-0.3,0.7-0.7,0.7-1.2l0.3-9.1
	c0-0.8-0.7-1.5-1.5-1.5s-1.5,0.7-1.5,1.5c-0.2,1.5-0.4,3-0.7,4.4h2.9l-2-7.5c-0.4-1.6-3.1-1.3-3,0.4c0.3,2.9,0.6,5.8,1.1,8.8
	c0.3,2.8,0.9,5.6,1.8,8.3c0.2,0.8,1,1.2,1.8,1s1.2-1.1,1-1.8c-0.8-2.6-1.4-5.3-1.7-8c-0.5-2.8-0.8-5.5-1.1-8.3l-2.9,0.4l2,7.5
	c0.2,0.8,1.1,1.2,1.9,1c0.5-0.1,0.9-0.5,1-1c0.4-1.7,0.7-3.5,0.8-5.2h-3l-0.3,9.1l2.8-0.8c-1-1.4-1-3.1-1.2-4.7
	c-0.2-2-0.4-4-0.6-6.1c0-0.8-0.7-1.5-1.5-1.5C1439.2,399.4,1438.5,400,1438.6,400.9L1438.6,400.9z"/>
<path d="M1441,414.9c-0.8,3.6,0.4,7.2,1,10.7c0.3,1.8,0.6,3.6,0.8,5.4c0.1,1.7,0.4,3.5,1,5.1c0.4,0.7,1.3,1,2.1,0.5
	c0.7-0.4,0.9-1.3,0.5-2c-0.4-1.5-0.7-3-0.8-4.6c-0.2-1.6-0.5-3.2-0.7-4.8s-0.6-3.1-0.9-4.7c-0.4-1.6-0.4-3.2-0.2-4.8
	C1444.3,413.8,1441.4,413,1441,414.9L1441,414.9z"/>
<path d="M1448,439.4c0.2-2.6,0.1-5.3-0.2-7.9c-0.2-1.3-0.4-2.6-0.7-4s-0.5-2.4-1.6-3.1c-0.7-0.4-1.6-0.2-2.1,0.5
	c-0.4,0.7-0.2,1.6,0.5,2.1c-0.3-0.2-0.1-0.1-0.1,0.1s0.1,0.5,0.2,0.8c0.1,0.5,0.2,1,0.3,1.5c0.2,1.1,0.4,2.1,0.5,3.2
	c0.2,2.3,0.2,4.5,0.1,6.8c0,0.8,0.7,1.5,1.5,1.5S1448,440.2,1448,439.4L1448,439.4z"/>
<path d="M1444.5,427.7l-0.4-4.5c-0.2-1.5-0.2-3-0.2-4.5c0-0.8-0.7-1.5-1.5-1.5s-1.5,0.7-1.5,1.5c-0.1,1.5,0,3,0.2,4.5l0.4,4.5
	c0,0.8,0.7,1.5,1.5,1.5S1444.5,428.5,1444.5,427.7z"/>
<path d="M1439.9,412.7c0,3.1,0.1,6.1,0.5,9.2c0.2,1.4,0.3,2.9,0.2,4.4c-0.2,1.4,0.2,3.3,1.9,3.5c0.8,0.2,1.6-0.3,1.8-1
	c0.2-0.8-0.2-1.6-1-1.8c0.4,0,0.2,0.6,0.3-0.1c0-0.3,0.1-0.6,0.1-0.9c0.1-0.6,0.1-1.3,0-1.9c-0.1-1.2-0.3-2.4-0.4-3.7
	c-0.3-2.6-0.4-5.1-0.3-7.7C1443,410.8,1440,410.8,1439.9,412.7L1439.9,412.7z"/>
<path d="M1441,428.3c0.4,3.2,0.8,6.5,1.1,9.8c0.1,1.5,0.4,2.9,0.7,4.4c0.5,1.5,0.8,3,0.9,4.5l3-0.4c-1.1-4.4-2.7-9.1-1.5-13.7
	l-3-0.4c-0.1,3.9,0.1,7.7,0.5,11.6c0.4,3.1,1,7.6,3.7,9.7c0.6,0.6,1.6,0.5,2.1-0.1c0.3-0.4,0.5-0.9,0.4-1.4c0-1.4,0-2.8,0.1-4.2
	c0-1.4-0.2-2.8-0.4-4.1c-0.3-1.9-3.2-1.1-2.9,0.8c0.2,1.4,0.4,2.9,0.3,4.3s-0.1,2.7,0,4.1l2.5-1.5c-1.2-1-1.6-2.5-2-3.9
	c-0.5-1.6-0.8-3.3-1-5c-0.3-3.4-0.4-6.9-0.4-10.3c0-0.8-0.7-1.5-1.5-1.5c-0.7,0-1.2,0.4-1.4,1.1c-1.3,5.1,0.3,10.3,1.5,15.3
	c0.2,0.8,1.1,1.3,1.9,1c0.6-0.2,1.1-0.8,1.1-1.4c-0.1-1.4-0.3-2.9-0.7-4.3c-0.4-1.5-0.7-3-0.8-4.6c-0.4-3.2-0.8-6.5-1.1-9.8
	C1443.8,426.4,1440.8,426.4,1441,428.3L1441,428.3z"/>
<path d="M1444.4,450.7c0.8,3.2,1.7,6.5,2.3,9.8c0.3,1.6,0.6,3.2,0.8,4.8s0.5,2.8,1.8,3.7c0.7,0.4,1.6,0.1,2-0.5
	c0.4-0.7,0.2-1.6-0.5-2c0.1,0.1,0.1,0.1,0-0.1c0-0.1-0.1-0.2-0.1-0.3c-0.1-0.2-0.1-0.5-0.1-0.7c-0.1-0.7-0.2-1.4-0.3-2.1
	c-0.2-1.5-0.5-2.9-0.8-4.4c-0.6-3-1.3-5.9-2.1-8.8C1446.8,448,1443.9,448.8,1444.4,450.7L1444.4,450.7z"/>
<path d="M1447.9,466.4c-0.3,1-0.4,2.2-0.2,3.2c0.1,1.2,0.3,2.5,0.4,3.7s0.3,2.4,0.4,3.6c0.1,1.1,0.5,2.1,1.1,3
	c0.6,0.6,1.6,0.6,2.1,0c0.3-0.3,0.4-0.6,0.4-1c-0.2-2.2-0.1-4.4,0.2-6.5l-3-0.4l1.2,11.9c0,0.8,0.7,1.5,1.5,1.5s1.5-0.7,1.5-1.5
	l-1.2-11.9c0-0.7-0.6-1.4-1.3-1.5c-0.7-0.1-1.4,0.4-1.6,1.1c-0.4,2.4-0.5,4.9-0.3,7.3l2.6-1.1c-0.4-0.5-0.3-1.6-0.4-2.1l-0.4-3
	c-0.1-1-0.2-1.9-0.3-2.9c-0.2-0.9-0.2-1.8,0.1-2.6c0.2-0.8-0.2-1.6-1-1.9C1449,465.1,1448.2,465.5,1447.9,466.4L1447.9,466.4
	L1447.9,466.4z"/>
<path d="M1451.3,484.4c-0.1,2.4,0.6,4.8,1.1,7.2s0.8,4.8,1.2,7.1c0.2,0.8,1.1,1.3,1.8,1c0.8-0.3,1.2-1.1,1-1.9
	c-0.3-2.3-0.7-4.6-1.1-6.9s-1.2-4.4-1-6.7c0-0.8-0.7-1.5-1.5-1.5S1451.3,483.5,1451.3,484.4L1451.3,484.4z"/>
<path d="M1454.5,469.6c-0.1-0.2,0,0.1,0,0.2c0,0.2,0,0.3-0.1,0.5l-2.8-0.8c0.1,1.2,0.2,2.5,0.2,3.7c0,0.6,0,1.2-0.1,1.8
	c-0.1,0.7-0.1,1.3,0.1,2c0.2,0.8,1,1.3,1.8,1.1c0.8-0.2,1.3-1,1.1-1.9c0-0.2,0-0.1,0,0.1c0-0.1,0-0.1,0-0.2s0-0.2,0-0.4
	c0-0.3,0-0.6,0-0.9c0-0.6,0-1.2,0-1.8C1454.7,472,1454.7,470.8,1454.5,469.6c0-0.7-0.4-1.3-1.1-1.5s-1.4,0.1-1.7,0.7
	c-0.4,0.7-0.4,1.6,0.1,2.3c0.2,0.3,0.5,0.6,0.9,0.7s0.8,0,1.2-0.1C1454.6,471.3,1454.8,470.4,1454.5,469.6L1454.5,469.6z"/>
<path d="M1605.4,533.8c-0.3,0.5-0.8,1-1.2,1.3l-1.6,1.4c-1.1,1-2.2,2-3.2,3.1c-2.1,2.1-4.2,4.2-6.1,6.5c-0.6,0.6-0.6,1.5,0,2.1
	s1.5,0.6,2.1,0c2-2.3,4.1-4.5,6.3-6.6c1.1-1,2.2-2.1,3.3-3.1c1.2-0.9,2.3-2,3.1-3.2c0.4-0.7,0.2-1.6-0.5-2.1
	C1606.8,532.9,1605.8,533.1,1605.4,533.8L1605.4,533.8z"/>
<path d="M1622.4,517.5c-0.8,0.6-1.6,1.3-2.2,2.1c-0.3,0.4-0.6,0.8-0.9,1.1l-0.3,0.4c-0.1,0.1-0.1,0.1,0,0l-0.2,0.2l-0.5,0.6
	c-1.3,1.6-2.8,3-4.4,4.3c-0.6,0.6-0.6,1.5,0,2.1l0,0c0.6,0.6,1.5,0.6,2.1,0c1.6-1.2,3-2.6,4.3-4.2c0.3-0.3,0.6-0.7,0.9-1.1l0.3-0.4
	c0.1-0.1,0.1-0.1,0,0l0.2-0.2l0.4-0.6c0.3-0.4,0.6-0.7,1-1.1l0.5-0.5l0.3-0.2c0,0,0.4-0.3,0.1-0.1c0.7-0.4,0.9-1.3,0.5-2
	C1624,517.4,1623.1,517.1,1622.4,517.5L1622.4,517.5z"/>
<path d="M1623.2,518.3c0.4-0.7,0.9-1.3,1.5-1.8c0.7-0.8,1.4-1.6,2.1-2.4c1.4-1.6,2.8-3.2,4.1-4.8l-2.4-1.8c-0.8,1.3-1.7,2.4-2.8,3.5
	l-3.2,3.8l2.6,1.1c0.1-0.8,0.9-1.6,1.4-2.2l2.2-2.8l4.3-5.6l-2.6-1.5c-0.6,0.8-1.2,1.6-2,2.3c-0.8,1-1.5,2.1-1.9,3.3
	c-0.2,0.8,0.2,1.6,1,1.9c0.8,0.2,1.6-0.2,1.8-1c0.3-0.9,0.9-1.8,1.6-2.5c0.8-0.7,1.5-1.5,2.1-2.4c0.4-0.7,0.2-1.6-0.5-2
	s-1.6-0.2-2.1,0.5l-4.6,6l-2.3,3c-0.8,0.9-1.3,2-1.4,3.2c0,0.8,0.7,1.5,1.6,1.5c0.4,0,0.7-0.2,1-0.4l3.4-4c1.2-1.2,2.2-2.5,3.1-3.9
	c0.4-0.7,0.2-1.5-0.4-1.9c-0.6-0.5-1.5-0.4-2,0.1c-1.4,1.8-2.9,3.5-4.4,5.2c-0.7,0.8-1.5,1.7-2.2,2.5c-0.8,0.8-1.4,1.7-1.9,2.7
	c-0.2,0.8,0.2,1.6,1,1.8C1622.1,519.6,1622.9,519.1,1623.2,518.3L1623.2,518.3z"/>
<path d="M1628.8,513.5c5-4.7,8-11,12.2-16.4l-2.7-1.1c-0.6,2.5-2.7,4.7-4.1,6.8c-1.6,2.4-3.2,4.9-4.7,7.3l2.6,1.5
	c3.2-6.4,9.1-11,11.6-17.8c0.6-1.8-2.3-2.6-2.9-0.8c-2.3,6.5-8.2,11-11.3,17.1c-0.4,0.7-0.2,1.6,0.5,2.1c0.7,0.4,1.6,0.2,2.1-0.5
	c1.6-2.6,3.2-5.1,4.9-7.6c1.5-2.3,3.5-4.5,4.2-7.3c0.2-0.8-0.3-1.6-1.1-1.8c-0.6-0.1-1.2,0.1-1.6,0.7c-4,5.2-6.9,11.3-11.7,15.8
	C1625.2,512.8,1627.3,514.9,1628.8,513.5L1628.8,513.5z"/>
<path d="M1642.4,496.4l5.8-8.7c1.8-2.9,3.7-5.6,5.8-8.3l-2.5-1.5c-0.4,0.8-0.8,1.6-1.4,2.3c-0.6,0.9-1.1,1.8-1.7,2.6
	c-1.1,1.6-2.1,3.3-3.2,4.9s-2.2,3.2-3.3,4.9c-0.6,0.9-1.2,1.7-1.8,2.6c-0.5,0.7-1,1.9-1.8,2.2l0.8-0.2h-0.2
	c-1.8-0.7-2.6,2.2-0.8,2.9c2.3,0.9,3.7-2.2,4.8-3.7c1.4-2,2.8-4,4.1-5.9s2.6-3.9,3.9-5.9c1.3-1.8,2.5-3.8,3.4-5.8
	c0.2-0.8-0.3-1.6-1.1-1.8c-0.5-0.1-1,0-1.4,0.4c-2.2,2.7-4.2,5.6-6.1,8.6l-6.1,9C1638.8,496.5,1641.3,498,1642.4,496.4L1642.4,496.4
	z"/>
<path d="M1656.8,462.2c-1.9,6-4.6,11.8-8,17.1l2.8,0.8c0.1-0.7,0.4-1.4,0.8-1.9c0.5-0.8,1-1.5,1.5-2.2c1-1.4,2.1-2.6,2.2-4.4
	c0-1.6-2-1.9-2.8-0.8c-0.4,0.5-0.8,1-1.2,1.4c-1.3,1.4,0.8,3.6,2.1,2.1c0.6-0.6,1.1-1.3,1.7-2l-2.8-0.8c-0.1,0.6-0.4,1.2-0.9,1.7
	c-0.6,0.7-1.1,1.4-1.7,2.2c-1,1.4-2,2.9-2,4.6c0,0.8,0.7,1.5,1.6,1.5c0.5,0,1-0.3,1.2-0.7c3.5-5.6,6.3-11.6,8.3-17.8
	C1660.3,461.2,1657.4,460.4,1656.8,462.2L1656.8,462.2z"/>
<path d="M1653.2,481.7c3.7-5.3,6.7-11,9.2-16.9c0.2-0.8-0.3-1.6-1.1-1.9c-0.8-0.2-1.6,0.2-1.8,1c-2.4,5.7-5.4,11.1-8.9,16.2
	c-0.4,0.7-0.2,1.6,0.5,2.1C1651.8,482.7,1652.7,482.5,1653.2,481.7C1653.2,481.8,1653.2,481.7,1653.2,481.7L1653.2,481.7z"/>
<path d="M1669.7,439c-1.6,3.9-3.5,7.6-5.3,11.3l-2.8,5.8c-0.8,1.8-1.8,3.6-2.9,5.2l2.7,1.1c0.9-5.2,3.3-9.9,5.6-14.6
	c1.1-2.3,2.2-4.7,3.2-7.1s1.8-4.8,0.1-7c-0.6-0.6-1.6-0.6-2.1,0c-0.2,0.2-0.3,0.4-0.4,0.6c-0.5,2.1-2.4,3.8-3.3,5.7
	c-1,2.1-1.8,4.3-2.4,6.5c-0.6,1.9,2.3,2.6,2.9,0.8c0.6-2.3,1.4-4.5,2.5-6.6c1-1.9,2.7-3.5,3.2-5.6l-2.5,0.7c0.6,0.7-0.2,2.3-0.5,3
	c-0.4,1.1-0.8,2.2-1.3,3.2c-1,2.2-2,4.3-3.1,6.5c-2.2,4.1-3.8,8.5-4.7,13c-0.2,0.8,0.3,1.6,1.1,1.8c0.6,0.1,1.3-0.1,1.6-0.7
	c1.2-1.7,2.2-3.5,3-5.4l3-6c1.9-3.8,3.8-7.6,5.4-11.6c0.7-1.8-2.2-2.6-2.9-0.8L1669.7,439z"/>
<path d="M1658.1,473.6c2.3-3,4.4-6.1,6.4-9.3c2.1-3.1,4.1-6.4,5.8-9.7c0.9-1.7-1.7-3.2-2.6-1.5c-1.7,3.2-3.6,6.4-5.7,9.4
	c-2,3-3.9,6.1-6.2,9c-0.6,0.6-0.6,1.5,0,2.1C1656.6,474.2,1657.6,474.2,1658.1,473.6L1658.1,473.6z"/>
<path d="M1668.1,459l9.9-15.4c1-1.6-1.6-3.1-2.6-1.5l-9.9,15.4C1664.5,459.1,1667.1,460.6,1668.1,459L1668.1,459z"/>
<path d="M1677.8,443.8c1.6-2.4,2.9-5.1,3.8-7.8h-2.9c0-0.2,0-0.2,0,0s0,0.2,0,0c0,0.2-0.1,0.3-0.1,0.5s0,0.1,0,0
	c0,0.1-0.1,0.2-0.1,0.3s-0.2,0.4-0.3,0.5c-0.4,0.7-0.8,1.3-1.1,2c-0.8,1.3-1.6,2.7-2.5,4c-0.4,0.7-0.2,1.6,0.5,2.1
	c0.7,0.4,1.6,0.2,2.1-0.5c0,0,0-0.1,0.1-0.1c0.9-1.5,1.8-2.9,2.7-4.4s2.1-3.2,1.7-5.1c-0.2-0.7-0.8-1.1-1.4-1.1
	c-0.7,0-1.3,0.5-1.4,1.1c-0.1,0.3-0.2,0.7-0.3,1c-0.1,0.1-0.1,0.3-0.2,0.4c0,0.1-0.1,0.1-0.1,0.2c-0.3,0.6-0.6,1.3-0.9,1.9
	c-0.7,1.2-1.3,2.4-2,3.6c-0.4,0.7-0.1,1.6,0.6,2C1676.5,444.7,1677.4,444.4,1677.8,443.8L1677.8,443.8z"/>
<path d="M1680.1,419.9c0.7,1.9,0.3,4.2,0.2,6.1c-0.2,2.2-0.5,4.4-0.9,6.5c-0.2,0.8,0.3,1.6,1.1,1.9c0.8,0.2,1.6-0.3,1.8-1
	c0.5-2.4,0.8-4.9,1-7.4c0.2-2.2,0.5-4.8-0.3-6.9c-0.2-0.8-1.1-1.2-1.8-1C1680.3,418.3,1679.9,419.1,1680.1,419.9L1680.1,419.9z"/>
<path d="M1680.4,418.4c0.9,5.5,0.4,11.2-1.6,16.4c-0.2,0.8,0.2,1.6,1,1.9c0.8,0.2,1.6-0.2,1.9-1v-0.1c2.1-5.8,2.6-12,1.6-18
	c-0.2-0.8-1.1-1.3-1.8-1C1680.7,416.8,1680.3,417.6,1680.4,418.4L1680.4,418.4z"/>
<path d="M1680.6,419.8c0.7-2-1.6-3-3-3.8c-1.5-0.9-3.2-1.6-4.9-1.9c-1.8-0.2-3.7-0.1-5.4,0.4c-1.9,0.4-3.9,0.6-5.8,0.6
	c-0.8,0-1.5,0.7-1.5,1.5s0.7,1.5,1.5,1.5c1.6,0,3.2-0.1,4.8-0.4c1.5-0.3,2.9-0.6,4.4-0.8c1.3,0,2.6,0.3,3.8,0.8
	c0.7,0.3,1.3,0.6,1.9,1l0.8,0.5l0.5,0.3c0.3,0.2,0.3,0.2,0.1,0v-0.8l-0.1,0.2C1677,420.8,1679.9,421.6,1680.6,419.8L1680.6,419.8z"
	/>
<path d="M1659.6,415c-1.5-0.9-3.2-0.6-4.8-0.3l-5.4,0.9l0.8,2.9l9.1-2.1c0.8-0.2,1.3-1.1,1-1.9c-0.1-0.2-0.2-0.5-0.4-0.6
	c-1.2-1.1-2.8-0.6-4.2-0.4s-3.2,0.5-4.8,0.8c-1.5,0.2-2.9,0.6-4.2,1.1c-1.2,0.6-2.4,1.4-3.3,2.4c-1.3,1.4,0.8,3.5,2.1,2.1
	c0.7-0.8,1.5-1.4,2.5-1.8s2.1-0.7,3.2-0.8c1.3-0.2,2.5-0.5,3.8-0.7c0.7-0.1,1.3-0.2,2-0.3c0.3-0.1,0.6-0.1,0.8-0.1h0.3
	c0.3,0,0.3,0-0.2-0.2l0.7-2.5l-9.1,2.1c-0.8,0.2-1.3,1-1.1,1.8c0.2,0.8,1,1.3,1.8,1.1l4.5-0.8c1-0.2,2.4-0.6,3.3-0.1
	c0.7,0.4,1.6,0.2,2.1-0.5C1660.6,416.4,1660.3,415.4,1659.6,415L1659.6,415L1659.6,415z"/>
<path class="st13" d="M1646.6,414.8c7.6-0.9,15.2-1.9,22.8-1.4c3.7,0.1,7.3,0.8,10.8,1.9c3.2,1.2,4.1,4.7,4.9,7.7
	c0.2,0.8,1.1,1.2,1.9,1s1.2-1,1-1.8c-0.9-3.2-2-6.9-5-8.8c-1.6-0.9-3.4-1.5-5.2-1.8c-2-0.5-4-0.8-6.1-1c-8.4-0.9-16.8,0.2-25.1,1.2
	C1644.7,412,1644.7,415,1646.6,414.8L1646.6,414.8z"/>
<path class="st13" d="M1646.5,414.7c3.8,0.9,7.9,0.1,11.8-0.1s7.8-0.1,11.6,0.2c2,0.2,3.9,0.4,5.9,0.8c1.8,0.2,3.5,0.7,5.1,1.4
	c3,1.4,4.5,4.8,5.9,7.6c0.8,1.7,3.4,0.2,2.6-1.5c-1.5-3-3.1-6.2-5.9-8.1c-3.1-2.1-7.6-2.5-11.2-2.9c-4.1-0.4-8.2-0.6-12.3-0.5
	c-2.1,0.1-4.1,0.1-6.2,0.3c-2.1,0.3-4.3,0.3-6.4,0C1645.4,411.4,1644.6,414.3,1646.5,414.7L1646.5,414.7z"/>
<path class="st11" d="M1775.9,217.3c-5.8-3.2-42.5-23.6-52-22.7c-2.7,0.3-6.2,0.7-6.2,0.7c-5,0.6-8.8,1.1-11.1,1.4
	c-8.5,1.2-14.4,2.2-19.8,3.1c-5.2,0.8-12.8,1.9-22.2,2.9c-2.6,1.9-4,4.9-3.7,8.1c0.4,2.9,2.3,5.4,5,6.5c9.5-1.3,23.7-3.5,41-7.2
	c9.7-2.1,12.2-2.8,16.2-3.4c11.6-1.6,28.3-0.4,49.9,12.9L1775.9,217.3z"/>
<path class="st11" d="M1489,139.6c6.7,0.1,49.3,1.2,56.8,6.7c2.1,1.6,4.9,3.6,4.9,3.6c3.9,3,6.9,5.4,8.6,6.8
	c6.6,5.3,11,9.1,15.1,12.5c3.9,3.3,9.8,8,17.3,13.5c1.8,4.4-0.3,9.4-4.7,11.2c-1.4,0.6-3,0.8-4.5,0.5c-7.3-5.9-18.1-14.8-30.8-26.6
	c-7.1-6.6-8.7-8.5-11.9-11c-8.9-7.1-23.8-14.4-49.6-14L1489,139.6z"/>
<path class="st9" d="M1564,471.2l9.3-9.1c7.2,4.5,18.4,11.8,31.9,21.3c18,12.7,21.4,16.1,36.7,26.3c6.8,4.5,5,3.1,34.5,21.3
	c21.2,13.1,23.6,14.7,31.7,19.5c14.4,8.4,26.4,14.7,34,18.5l-33.2,32.4c-7-7.2-15.9-16.2-26.5-26.6c-8.9-8.8-15.7-15.5-25-24.2
	c-11.5-10.8-20.4-18.7-28.8-26c-11.4-10.1-46.3-39.9-34.7-29.9l0,0L1564,471.2z"/>
<path class="st27" d="M1564,471.2l9.3-9.1l36.2,24.2l-12,11.4L1564,471.2z"/>
<path class="st28" d="M1706,599l4,4c13.3-8.8,24.6-20.4,33-34l-4-2L1706,599z"/>
<circle class="st29" cx="1711" cy="599" r="2"/>
<ellipse class="st29" cx="1738" cy="571.5" rx="2" ry="1.5"/>
<circle class="st29" cx="1714.5" cy="593.5" r="1.5"/>
<ellipse transform="matrix(0.1371 -0.9906 0.9906 0.1371 899.8817 2215.1101)" class="st29" cx="1721.3" cy="591.1" rx="2.1" ry="1.8"/>
<circle class="st29" cx="1724" cy="585" r="2"/>
<ellipse transform="matrix(0.1371 -0.9906 0.9906 0.1371 916.7708 2215.1196)" class="st29" cx="1729.8" cy="581.4" rx="1.4" ry="1.6"/>
<ellipse transform="matrix(0.8036 -0.5952 0.5952 0.8036 -2.6862 1145.0659)" class="st29" cx="1733.6" cy="576.6" rx="1.4" ry="1.6"/>
<path class="st3" d="M1805.3,527.8c10.5-13.2,54.8,19.4,71.9,5.1c21.5-17.9-15.2-96.5-17-95.9c-0.9,0.3,10.8,19.5,2.8,33.6
	c-16,28.1-92.4,3.7-100.9,24.5c-6.2,15.2,32.9,35.5,25.8,58.7c-4.4,14.5-24.8,24.3-32.8,28.1c-13,6.2-21.2,6.3-21.1,7.4
	c0.4,3.2,67,8.6,77.7-16.3C1819,556,1797.8,537.2,1805.3,527.8z"/>
<path class="st30" d="M1743.8,390.9c-9.6,1.1-17.6,1.6-23,1.8c-26.6,1.1-66,2.3-105.5-18.1c-5.4-2.8-10.5-5.8-15.5-9.2
	c-1.7-7-2.7-14.1-2.9-21.3c-0.3-7-0.9-32.1,12.3-57.8c2.3-4.5,5-8.9,8-13c3,0.1,8.1,0.3,14.4,0.7c17.2,1.1,64,4.9,123.5,23.6
	c4,1.3,9.1,2.9,15,4.9c1.1,3.5,1.8,7.1,2.2,10.8c3,28-14.3,55.9-20.9,66.6C1748.1,384.9,1745.3,388.7,1743.8,390.9z"/>
<path class="st30" d="M1539.6,347.7c-9.7-0.8-17.5-1.9-22.9-2.7c-26.4-4.2-65.3-10.9-101.1-40.5c-4.9-4-9.6-8.3-14-12.9
	c-0.6-7.7-0.6-15.5,0.2-23.2c0.8-7.5,3.8-34.3,20.6-58.9c2.9-4.3,6.2-8.4,9.8-12.2c2.9,0.7,7.9,1.9,14,3.6
	c16.8,4.6,62.2,18.1,118.1,50c3.8,2.2,8.5,4.9,14,8.2c0.6,4,0.8,7.9,0.6,11.9c-1.1,30.4-22.2,56.4-30.3,66.5
	C1544.7,342.2,1541.4,345.7,1539.6,347.7z"/>
<rect x="1578.4" y="282" transform="matrix(0.3014 -0.9535 0.9535 0.3014 826.6423 1722.2803)" class="st31" width="20.5" height="30.1"/>
<path class="st32" d="M1536.4,336.1c-3.3,0.1-7.9,0.1-13.4-0.3c-5.2-0.4-21.9-1.8-59.3-16.8c-26.9-10.8-36.3-17.3-43.6-23.6
	c-3.2-2.8-6.3-5.7-9.2-8.8c0-7.7,0.4-15.4,1.3-23.1c1.9-16.2,3.7-30.4,12.1-43.1c2.6-4,5.8-7.6,9.4-10.7c3.7,1.1,8.8,2.7,15,4.8
	c15.1,4.9,30.9,10,50,17.8c15.5,6.3,30.7,12.5,49.7,23.5c7.9,4.6,14.3,8.8,18.8,11.8c0.3,6.4-0.3,12.8-1.5,19.1
	c-4.3,21.4-16.1,35.6-20.3,40.5C1542.5,330.4,1539.6,333.4,1536.4,336.1z"/>
<path class="st32" d="M1738.5,379.8c-3.1,0.7-7.6,1.6-13,2.4c-5,0.7-21.4,2.8-59.5-3.3c-27.5-4.4-37.4-8.4-45.3-12.6
	c-3.5-1.8-6.9-3.9-10.1-6.1c-1.1-7-1.7-14-1.9-21.1c-0.4-15-0.6-28.2,5.8-41.4c2-4.2,4.6-8.1,7.6-11.6c3.7,0.3,8.9,0.7,15.1,1.3
	c15.2,1.4,31.2,2.9,50.6,6.1c15.8,2.6,31.3,5.1,51.1,11.3c8.3,2.6,15,5.1,19.8,6.9c1.1,5.8,1.5,11.7,1.1,17.5
	c-1.2,20.2-10.7,35.4-14.1,40.7C1743.6,373.4,1741.2,376.7,1738.5,379.8z"/>
<rect x="597.2" y="760.4" class="st33" width="596.4" height="85"/>
<g class="st34">
	<path class="st8" d="M626.3,768.8c0.7,0,1.5-0.2,2.3-0.2c0.8,0,1.4,0.3,1.4,1.3c0,2.7-7.2,1.8-7.2,9.1c0,2.4,1.1,3.3,2.1,3.3
		c1.2,0,2.4-1.5,3.3-1.5s1.5,1.6,1.5,2.7c0,5.2-4,6.8-8.4,6.8c-6.6,0-8.8-2.5-8.8-5.7c0-3.9,2.9-8.6,2.9-10.9c0-2.2-3.1-0.6-3.1-2.9
		c0-2.4,5.2,0.4,7.9-6.9c0.4-1.1,1.1-2.2,2.6-2.2C626.2,762.2,623.3,768.8,626.3,768.8z"/>
	<path class="st8" d="M650.8,760.2c3.6,0,6,1.1,6,3.9c0,5.4-4,7.1-4,11.4c0,5.1,3.7,6.1,3.7,12.5c0,3.3-2.8,4.8-5.8,4.8
		c-3.1,0-5-1.6-5-3.8c0-2.5,2.3-5.5,2.3-8.1c0-1.7-1.2-3.7-4-3.7c-2.3,0-4,1.3-4,4.1c0,1.4,1.8,4.5,1.8,7.1c0,2.7-2,4.2-5.1,4.2
		c-3.2,0-5.7-1.3-5.7-3.9c0-6.5,3.3-6.6,3.3-13.2c0-6.9-3.3-6.8-3.3-11c0-3.2,2.6-4.4,6.2-4.4c3,0,5.6,1,5.6,3c0,4.1-3.1,4-3.1,7.3
		c0,2.4,1.5,2.9,3.7,2.9c3.7,0,4.9-1.5,4.9-2.9c0-2.2-3.1-4.6-3.1-6.9C645,760.7,648.6,760.2,650.8,760.2z"/>
	<path class="st8" d="M668.9,764.6c0,2.6-2.5,5.9-2.5,10.6c0,6.8,2.1,9,2.1,12.1c0,2.7-1.2,5-5,5c-4,0-5.6-1.7-5.6-4.4
		c0-3.9,2.5-5.3,2.5-10.1c0-8.5-2.6-9.5-2.6-12.9c0-2.9,1.4-4.7,5.6-4.7C667.6,760.3,668.9,761.8,668.9,764.6z"/>
	<path class="st8" d="M691.5,759.5c3.4,0,5.2,2.3,5.2,5.3c0,3.5-1.9,8.8-1.9,16.5c0,7,2.1,8.5,2.1,9.9c0,0.7-0.9,1.2-1.8,1.2
		c-1.9,0-4.5-1.5-6.6-3.5c-4.4-4.4-6.1-16.3-10.2-16.3c-1.5,0-2,1.3-2,2.6c0,6.5,4.4,8.2,4.4,12.7c0,2.8-3.1,4.3-5.6,4.3
		c-3.5,0-5.1-1.9-5.1-3.8c0-1.8,1-3.8,1.9-5.5c0.8-1.5,2.1-3.9,2.1-9.5c0-1.5-0.1-3-0.4-4.6c-0.7-4.8-3-5.2-3-7
		c0-1.1,1.3-1.7,2.8-1.7c4.3,0,8.6,3.5,12.7,13.5c1,2.3,1.8,5.5,4.2,5.5c1.1,0,1.8-0.9,1.8-3.2c0-4.8-5.9-5.8-5.9-11.4
		C686.1,761.3,688.6,759.5,691.5,759.5z"/>
	<path class="st8" d="M703.4,765.5c0-2.6,2-6.2,6.4-6.2c2.1,0,4.4,1.3,4.4,3.2c0,2.9-5.1,6.2-5.1,8.8c0,0.6,0.4,1.8,1.5,1.8
		c0.8,0,1.7-0.4,2.4-1.1c5-4.7,1-13,8.2-13c3.7,0,5,3.3,5,6.7c0,5.1-2.2,9.3-5.4,9.3c-2.6,0-4.5-0.7-5.8-0.7c-1,0-2,0.6-2,2.1
		c0,0.8,0.4,1.2,1.5,1.2c1.9,0,5.2-1.1,7.8-1.1c2.2,0,3.3,0.9,3.3,3c0,4.2-4.4,12.2-9,12.2c-2.5,0-4.8-1.9-4.8-4.6
		c0-2.1,1.1-4.4,1.1-5.9c0-1.1-0.5-1.8-1.6-1.8c-1.7,0-2.4,1.3-2.4,2.6c0,1.7,0.9,3.8,0.9,5.8c0,2.2-1.6,4.8-6.6,4.8
		c-2.7,0-5.2-1.5-5.2-4.4c0-2.1,1.5-4.7,2.9-6.7c2-3,3.1-6.6,3.1-10.7C703.9,769.1,703.4,767.2,703.4,765.5z"/>
	<path class="st8" d="M751.1,780.3c-1.8,0-4,0.7-6.2,0.7c-4.9,0-7.6-4.7-7.6-10c0-5.1,2.6-10.6,7.6-10.6c2.6,0,3.9,2,3.9,3.7
		c0,2.8-2.6,5.7-2.6,7c0,1,0.8,3.4,4.4,3.4c1.3,0,3.3-0.7,3.3-2.8c0-3.4-2.2-4.5-2.2-7.5c0-2,1.4-3.7,3.8-3.7c3,0,7.1,1,7.1,10.3
		c0,13-2.4,22.4-13.7,22.4c-3.9,0-9.2-2-9.2-6.4c0-1.4,1-2.7,2.4-2.7c2.3,0,5.2,2.7,8.2,2.7c1.5,0,4.1-1.1,4.1-3.9
		c0-0.4-0.1-0.9-0.3-1.3C753.5,780.6,752.1,780.3,751.1,780.3z"/>
	<path class="st8" d="M789.6,775.9c0,7.1-4,16.6-13.2,16.6c-9.9,0-12.9-7.6-12.9-15.1c0-12,4.6-17.1,14.2-17.2
		C784.6,760.2,789.6,766,789.6,775.9z M770.9,774.2c0,3.6,1.1,6.8,3.3,6.8c2.9,0,4.4-3.5,4.4-7s-1.3-7.1-4-7.1
		C772.1,766.9,770.9,770.6,770.9,774.2z"/>
	<path class="st8" d="M802.9,764.7c0,6.9-3.4,10.8-3.4,14.7c0,4.4,1.8,6.7,5.1,6.7c3.6,0,4.7-2.5,4.7-6.7c0-2.9-3.3-9-3.3-13.6
		c0-2.9,1.4-5.5,5.1-5.5c5.6,0,6.9,6.9,6.9,13.1c0,10.6-0.3,19.2-13.8,19.2c-11.3,0-13.7-9-13.7-18.3c0-5.5,1.1-14.1,7.3-14.1
		C801.3,760.2,802.9,761.4,802.9,764.7z"/>
	<path class="st8" d="M829.2,778.2c0-8.1,5.7-17.5,15.4-17.5c3.3,0,9,1.8,9,5.5c0,0.7-0.4,1.4-1.2,1.4c-1.1,0-2.9-1.1-5-1.1
		c-4.3,0-6.9,5.4-6.9,9.6c0,4.6,2.4,7.8,5.2,7.8s5.4-2.9,7-2.9c0.9,0,1.4,1,1.4,1.8c0,5.9-7.7,9.7-12.2,9.7
		C834,792.6,829.2,785.4,829.2,778.2z"/>
	<path class="st8" d="M875.9,764.8c0,1.6-0.9,3.3-0.9,5.1c0,2,0.7,4.4,1.5,6.7c1.8,5.1,6.4,8.6,6.4,11.9c0,2.2-2.5,4.4-5.1,4.4
		c-2.1,0-5.5-0.9-5.5-3.6c0-0.8,0.3-1.7,0.3-2.5c0-2-2-3.5-4.9-3.5c-2.5,0-4.5,1.1-4.5,3.3c0,1.1,0.4,1.8,0.4,2.6
		c0,2.2-2.4,3.6-5,3.6c-3,0-4.8-1.5-4.8-3.8c0-4.9,7.3-12.8,7.3-18.8c0-1.6-0.9-3.5-0.9-5.2c0-2.3,1.8-4.6,8.1-4.6
		C873.8,760.5,875.9,762.6,875.9,764.8z M868,771.9c-1.4,0-3.2,1.9-3.2,4.5c0,1.4,0.9,3.2,2.9,3.2c1.7,0,2.8-1.6,2.8-3.5
		C870.4,774.8,869.8,771.9,868,771.9z"/>
	<path class="st8" d="M905.3,759.5c3.4,0,5.2,2.3,5.2,5.3c0,3.5-1.9,8.8-1.9,16.5c0,7,2.1,8.5,2.1,9.9c0,0.7-0.9,1.2-1.8,1.2
		c-1.9,0-4.5-1.5-6.6-3.5c-4.4-4.4-6.1-16.3-10.2-16.3c-1.5,0-2,1.3-2,2.6c0,6.5,4.4,8.2,4.4,12.7c0,2.8-3.1,4.3-5.6,4.3
		c-3.5,0-5.1-1.9-5.1-3.8c0-1.8,1-3.8,1.9-5.5c0.8-1.5,2.1-3.9,2.1-9.5c0-1.5-0.1-3-0.4-4.6c-0.7-4.8-3-5.2-3-7
		c0-1.1,1.3-1.7,2.8-1.7c4.3,0,8.6,3.5,12.7,13.5c1,2.3,1.8,5.5,4.2,5.5c1.1,0,1.8-0.9,1.8-3.2c0-4.8-5.9-5.8-5.9-11.4
		C899.9,761.3,902.4,759.5,905.3,759.5z"/>
	<path class="st8" d="M922,790.8c0-0.7,0.2-1.3,1-2.2c1.3-1.5,1.8-4.3,1.8-12.6c0-6.5-0.8-9.8-1.9-11.4c-0.5-0.7-0.8-1.5-0.8-2.1
		c0-1.1,0.7-1.9,2.1-1.9c0.7,0,1.5,0.3,2.1,0.8c2,1.8,2.4,2.8,4.2,2.8c3.1,0,6.4-3.7,10.5-3.7c7.1,0,8.4,4.7,8.4,15.5
		c0,11.6-2.9,17-8.4,17c-3.2,0-6.2-2.2-7-2.9c-0.5-0.5-2.1-2.1-3.6-2.1c-2.8,0-2.1,4.9-6.1,4.9C922.5,792.9,922,791.5,922,790.8z
		 M929.4,769.5c0,1.4,0.6,3.3,0.6,5.6c0,2.2-0.6,4.2-0.6,5.7c0,1.6,0.7,3,3.3,3c3.6,0,5-4.1,5-8.3c0-5.5-1.5-8.3-5.2-8.3
		C930.2,767.3,929.4,768,929.4,769.5z"/>
	<path class="st8" d="M976.6,775.9c0,7.1-4,16.6-13.2,16.6c-9.9,0-12.9-7.6-12.9-15.1c0-12,4.6-17.1,14.2-17.2
		C971.6,760.2,976.6,766,976.6,775.9z M957.9,774.2c0,3.6,1.1,6.8,3.3,6.8c2.9,0,4.4-3.5,4.4-7s-1.3-7.1-4-7.1
		C959.1,766.9,957.9,770.6,957.9,774.2z"/>
	<path class="st8" d="M998.7,764.6c0,2.6-2.5,5.9-2.5,10.6c0,6.8,2.1,9,2.1,12.1c0,2.7-1.2,5-5,5c-4,0-5.6-1.7-5.6-4.4
		c0-3.9,2.5-5.3,2.5-10.1c0-8.5-2.6-9.5-2.6-12.9c0-2.9,1.4-4.7,5.6-4.7C997.4,760.3,998.7,761.8,998.7,764.6z"/>
	<path class="st8" d="M1013.6,768.8c0.7,0,1.5-0.2,2.3-0.2c0.8,0,1.4,0.3,1.4,1.3c0,2.7-7.2,1.8-7.2,9.1c0,2.4,1.1,3.3,2.1,3.3
		c1.2,0,2.4-1.5,3.3-1.5c1,0,1.5,1.6,1.5,2.7c0,5.2-4,6.8-8.4,6.8c-6.6,0-8.8-2.5-8.8-5.7c0-3.9,2.9-8.6,2.9-10.9
		c0-2.2-3.1-0.6-3.1-2.9c0-2.4,5.2,0.4,7.9-6.9c0.4-1.1,1.1-2.2,2.6-2.2C1013.6,762.2,1010.6,768.8,1013.6,768.8z"/>
	<path class="st8" d="M1050.2,764.8c0,1.6-0.9,3.3-0.9,5.1c0,2,0.7,4.4,1.5,6.7c1.8,5.1,6.4,8.6,6.4,11.9c0,2.2-2.5,4.4-5.1,4.4
		c-2.1,0-5.5-0.9-5.5-3.6c0-0.8,0.3-1.7,0.3-2.5c0-2-2-3.5-4.9-3.5c-2.5,0-4.5,1.1-4.5,3.3c0,1.1,0.4,1.8,0.4,2.6
		c0,2.2-2.4,3.6-5,3.6c-3,0-4.8-1.5-4.8-3.8c0-4.9,7.3-12.8,7.3-18.8c0-1.6-0.9-3.5-0.9-5.2c0-2.3,1.8-4.6,8.1-4.6
		C1048.2,760.5,1050.2,762.6,1050.2,764.8z M1042.4,771.9c-1.4,0-3.2,1.9-3.2,4.5c0,1.4,0.9,3.2,2.9,3.2c1.7,0,2.8-1.6,2.8-3.5
		C1044.8,774.8,1044.2,771.9,1042.4,771.9z"/>
	<path class="st8" d="M1072.4,759.5c3.4,0,8.6,1.8,8.6,5.2c0,1.1-0.7,1.6-1.5,1.6c-0.7,0-1.4-0.4-2.1-0.9c-1.1-0.7-2.3-1.1-3.5-1.1
		c-4.7,0-7.7,4.9-7.7,10.4c0,4.5,1.9,9,6.1,9c1.4,0,4-1.3,4-3.3c0-1.3-1.1-2.7-1.8-3.4c-1-1-1.5-1.8-1.5-2.5c0-1.8,2.5-3,5.5-3
		s5.5,1.2,5.5,3.1c0,1.5-1.8,2.9-1.8,4c0,1.4,1.6,2.9,1.6,4.8c0,5-6.2,7.7-11.8,7.7c-9.1,0-16.2-5.1-16.2-15.2
		C1055.9,767.4,1063,759.5,1072.4,759.5z"/>
	<path class="st8" d="M1105.8,764.8c0,1.6-0.9,3.3-0.9,5.1c0,2,0.7,4.4,1.5,6.7c1.8,5.1,6.4,8.6,6.4,11.9c0,2.2-2.5,4.4-5.1,4.4
		c-2.1,0-5.5-0.9-5.5-3.6c0-0.8,0.3-1.7,0.3-2.5c0-2-2-3.5-4.9-3.5c-2.5,0-4.5,1.1-4.5,3.3c0,1.1,0.4,1.8,0.4,2.6
		c0,2.2-2.4,3.6-5,3.6c-3,0-4.8-1.5-4.8-3.8c0-4.9,7.3-12.8,7.3-18.8c0-1.6-0.9-3.5-0.9-5.2c0-2.3,1.8-4.6,8.1-4.6
		C1103.8,760.5,1105.8,762.6,1105.8,764.8z M1097.9,771.9c-1.4,0-3.2,1.9-3.2,4.5c0,1.4,0.9,3.2,2.9,3.2c1.7,0,2.8-1.6,2.8-3.5
		C1100.4,774.8,1099.7,771.9,1097.9,771.9z"/>
	<path class="st8" d="M1124.8,764.6c0,2.6-2.5,5.9-2.5,10.6c0,6.8,2.1,9,2.1,12.1c0,2.7-1.2,5-5,5c-4,0-5.6-1.7-5.6-4.4
		c0-3.9,2.5-5.3,2.5-10.1c0-8.5-2.6-9.5-2.6-12.9c0-2.9,1.4-4.7,5.6-4.7C1123.5,760.3,1124.8,761.8,1124.8,764.6z"/>
	<path class="st8" d="M1147.4,759.5c3.4,0,5.2,2.3,5.2,5.3c0,3.5-1.9,8.8-1.9,16.5c0,7,2.1,8.5,2.1,9.9c0,0.7-0.9,1.2-1.8,1.2
		c-1.9,0-4.5-1.5-6.6-3.5c-4.4-4.4-6.1-16.3-10.2-16.3c-1.5,0-2,1.3-2,2.6c0,6.5,4.4,8.2,4.4,12.7c0,2.8-3.1,4.3-5.6,4.3
		c-3.5,0-5.1-1.9-5.1-3.8c0-1.8,1-3.8,1.9-5.5c0.8-1.5,2.1-3.9,2.1-9.5c0-1.5-0.1-3-0.4-4.6c-0.7-4.8-3-5.2-3-7
		c0-1.1,1.3-1.7,2.8-1.7c4.3,0,8.6,3.5,12.7,13.5c1,2.3,1.8,5.5,4.2,5.5c1.1,0,1.8-0.9,1.8-3.2c0-4.8-5.9-5.8-5.9-11.4
		C1142,761.3,1144.5,759.5,1147.4,759.5z"/>
	<path class="st8" d="M1163.6,759.5c4.7,0,10.1,2.2,10.1,7c0,4.1-2.4,6.9-4.5,7.4c-2.6,0.7-3.9,1.8-3.9,3.2c0,0.7,0.3,1.5,0.3,2.2
		c0,1.4-1.6,2.1-2.9,2.1c-2.8,0-3.8-1.8-3.8-3.4c0-5.6,6-5,6-10.1c0-1.5-0.6-2.6-3.1-2.6c-3.7,0-4.4,2.3-6.7,2.3
		c-0.9,0-1.4-0.7-1.4-1.6c0-1.1,0.7-2.5,1.9-3.7C1157.5,760.4,1160.5,759.5,1163.6,759.5z M1168.3,787.8c0,2.4-2.1,4.6-5.9,4.6
		c-2.6,0-4.9-1.7-4.9-4.3c0-2.5,1.5-4.9,5.6-4.9C1164.1,783.2,1168.3,784,1168.3,787.8z"/>
</g>
<rect x="493.9" y="571.6" class="st33" width="847.7" height="123.2"/>
<g class="st34">
	<path class="st8" d="M610.2,588.6c3.5,0,5.3,2.3,5.3,5.4c0,3.6-1.9,9-1.9,16.9c0,7.2,2.1,8.7,2.1,10.2c0,0.7-0.9,1.2-1.9,1.2
		c-1.9,0-4.6-1.5-6.8-3.6c-4.5-4.5-6.3-16.6-10.4-16.6c-1.5,0-2,1.3-2,2.7c0,6.7,4.5,8.4,4.5,13c0,2.8-3.2,4.4-5.8,4.4
		c-3.6,0-5.2-1.9-5.2-3.9c0-1.8,1-3.9,1.9-5.7c0.9-1.5,2.1-4,2.1-9.7c0-1.5-0.1-3.1-0.4-4.7c-0.7-4.9-3.1-5.4-3.1-7.2
		c0-1.1,1.3-1.8,2.8-1.8c4.4,0,8.8,3.6,13,13.8c1,2.4,1.9,5.7,4.3,5.7c1.1,0,1.8-0.9,1.8-3.2c0-4.9-6.1-5.9-6.1-11.7
		C604.7,590.4,607.3,588.6,610.2,588.6z"/>
	<path class="st8" d="M643.5,605.4c0,7.2-4.1,17-13.5,17c-10.1,0-13.2-7.7-13.2-15.5c0-12.2,4.7-17.5,14.5-17.5
		C638.5,589.3,643.5,595.2,643.5,605.4z M624.4,603.6c0,3.6,1.1,7,3.3,7c3,0,4.5-3.6,4.5-7.2s-1.4-7.2-4-7.2
		C625.6,596.1,624.4,599.9,624.4,603.6z"/>
	<path class="st8" d="M679.2,600.8c0,8.9-4.8,23.8-12.7,23.8c-3.3,0-3.6-3.5-3.9-6.8c-0.1-0.9-0.9-4-1.7-4c-2.3,0-2.8,8.7-8.2,8.7
		c-6.2,0-8.1-12.7-8.1-24.3c0-4.5,1.9-9.8,7-9.8c3,0,5.3,2.2,5.3,5.4c0,4.9-5,5.7-5,11.6c0,3.8,1.3,4.6,2.4,4.6
		c5.7,0,1.5-9.8,8.5-9.8c4.1,0,5.1,1.9,5.1,4.7c0,2.3-0.7,5-0.7,6.8c0,1.2,0.2,1.8,1.2,1.8c2.4,0,3.1-3.6,3.1-5.7
		c0-3.3-1.2-7-1.2-10c0-2.4,1-4.6,3.6-4.6C677.5,593.2,679.2,595.1,679.2,600.8z"/>
	<path class="st8" d="M711,596.2c0,1.1-0.7,1.9-1.6,1.9c-2.1,0-1.1-3.3-5.8-3.3c-1.1,0-2.2,0.7-2.2,1.9c0,4.3,10.3,3.3,10.3,12.8
		c0,8.7-5.5,11.8-11,11.8c-6.5,0-10.3-3.5-10.3-8c0-1.5,0.8-3.5,2.2-3.5c1.4,0,1,2.6,4.9,2.6c1.4,0,2.5-0.9,2.5-2.4
		c0-5-7.4-2.4-7.4-11.5c0-4.4,3.3-8.1,9.2-8.1C706.6,590.4,711,592.1,711,596.2z"/>
	<path class="st8" d="M734.7,588.6c3.5,0,5.3,2.3,5.3,5.4c0,3.6-1.9,9-1.9,16.9c0,7.2,2.1,8.7,2.1,10.2c0,0.7-0.9,1.2-1.9,1.2
		c-1.9,0-4.6-1.5-6.8-3.6c-4.5-4.5-6.3-16.6-10.4-16.6c-1.5,0-2,1.3-2,2.7c0,6.7,4.5,8.4,4.5,13c0,2.8-3.2,4.4-5.8,4.4
		c-3.6,0-5.2-1.9-5.2-3.9c0-1.8,1-3.9,1.9-5.7c0.9-1.5,2.1-4,2.1-9.7c0-1.5-0.1-3.1-0.4-4.7c-0.7-4.9-3.1-5.4-3.1-7.2
		c0-1.1,1.3-1.8,2.8-1.8c4.4,0,8.8,3.6,13,13.8c1,2.4,1.9,5.7,4.3,5.7c1.1,0,1.8-0.9,1.8-3.2c0-4.9-6.1-5.9-6.1-11.7
		C729.1,590.4,731.7,588.6,734.7,588.6z"/>
	<path class="st8" d="M768,605.4c0,7.2-4.1,17-13.5,17c-10.1,0-13.2-7.7-13.2-15.5c0-12.2,4.7-17.5,14.5-17.5
		C762.9,589.3,768,595.2,768,605.4z M748.8,603.6c0,3.6,1.1,7,3.3,7c3,0,4.5-3.6,4.5-7.2s-1.4-7.2-4-7.2
		C750.1,596.1,748.8,599.9,748.8,603.6z"/>
	<path class="st8" d="M795.6,605.4c0,7.2-4.1,17-13.5,17c-10.1,0-13.2-7.7-13.2-15.5c0-12.2,4.7-17.5,14.5-17.5
		C790.6,589.3,795.6,595.2,795.6,605.4z M776.5,603.6c0,3.6,1.1,7,3.3,7c3,0,4.5-3.6,4.5-7.2s-1.4-7.2-4-7.2
		C777.7,596.1,776.5,599.9,776.5,603.6z"/>
	<path class="st8" d="M807.1,591.2c1.4,0,4.9-1.2,8.1-1.2c3.6,0,5.5,2.2,5.5,6.8c0,16.1-16.5,6.8-16.5,12.1c0,6.1,1.7,5.4,1.7,9.9
		c0,2.6-2,3.6-4.5,3.6c-3.1,0-4.7-1.6-4.7-3.7c0-2.8,2.2-7.2,2.2-16.5c0-4-0.4-6.4-1.3-7.7c-0.4-0.5-0.7-1.3-0.7-2.2
		c0-1.3,0.9-2.4,3.2-2.4C802.3,589.9,802.8,591.2,807.1,591.2z M804.6,599.9c0,1.4,0.7,3.4,2.4,3.4c1.4,0,3.2-1.6,3.2-4.6
		c0-1.5-0.9-2.6-2.8-2.6C805.9,596.1,804.6,597,804.6,599.9z"/>
	<path class="st8" d="M831.9,620.6c0-0.7,0.2-1.3,1-2.3c1.3-1.6,1.9-4.4,1.9-12.9c0-6.7-0.8-10-2-11.7c-0.5-0.8-0.8-1.5-0.8-2.1
		c0-1.1,0.7-2,2.2-2c0.8,0,1.5,0.3,2.1,0.8c2.1,1.9,2.5,2.9,4.3,2.9c3.1,0,6.5-3.8,10.7-3.8c7.2,0,8.5,4.8,8.5,15.8
		c0,11.8-3,17.4-8.5,17.4c-3.3,0-6.3-2.2-7.1-3c-0.5-0.5-2.2-2.1-3.7-2.1c-2.8,0-2.1,5-6.2,5C832.5,622.7,831.9,621.3,831.9,620.6z
		 M839.4,598.8c0,1.4,0.6,3.4,0.6,5.8c0,2.3-0.6,4.3-0.6,5.8c0,1.7,0.7,3.1,3.3,3.1c3.7,0,5.1-4.2,5.1-8.5c0-5.7-1.6-8.5-5.3-8.5
		C840.3,596.5,839.4,597.2,839.4,598.8z"/>
	<path class="st8" d="M887.7,605.4c0,7.2-4.1,17-13.5,17c-10.1,0-13.2-7.7-13.2-15.5c0-12.2,4.7-17.5,14.5-17.5
		C882.7,589.3,887.7,595.2,887.7,605.4z M868.6,603.6c0,3.6,1.1,7,3.3,7c3,0,4.5-3.6,4.5-7.2s-1.4-7.2-4-7.2
		C869.8,596.1,868.6,599.9,868.6,603.6z"/>
	<path class="st8" d="M905.6,588.6c3.5,0,8.8,1.8,8.8,5.4c0,1.1-0.8,1.7-1.6,1.7c-0.8,0-1.4-0.4-2.1-0.9c-1.1-0.7-2.3-1.1-3.6-1.1
		c-4.8,0-7.9,5-7.9,10.7c0,4.6,1.9,9.2,6.3,9.2c1.4,0,4.1-1.3,4.1-3.3c0-1.4-1.2-2.7-1.9-3.5c-1-1-1.5-1.8-1.5-2.6
		c0-1.8,2.5-3.1,5.6-3.1c3.1,0,5.7,1.2,5.7,3.2c0,1.5-1.9,2.9-1.9,4.1c0,1.4,1.7,3,1.7,4.9c0,5.1-6.3,7.8-12,7.8
		c-9.3,0-16.6-5.2-16.6-15.5C888.7,596.6,896,588.6,905.6,588.6z"/>
	<path class="st8" d="M935.4,588.6c3.5,0,8.8,1.8,8.8,5.4c0,1.1-0.8,1.7-1.6,1.7c-0.8,0-1.4-0.4-2.1-0.9c-1.1-0.7-2.3-1.1-3.6-1.1
		c-4.8,0-7.9,5-7.9,10.7c0,4.6,1.9,9.2,6.3,9.2c1.4,0,4.1-1.3,4.1-3.3c0-1.4-1.2-2.7-1.9-3.5c-1-1-1.5-1.8-1.5-2.6
		c0-1.8,2.5-3.1,5.6-3.1c3.1,0,5.7,1.2,5.7,3.2c0,1.5-1.9,2.9-1.9,4.1c0,1.4,1.7,3,1.7,4.9c0,5.1-6.3,7.8-12,7.8
		c-9.3,0-16.6-5.2-16.6-15.5C918.4,596.6,925.8,588.6,935.4,588.6z"/>
	<path class="st8" d="M958.5,607.7c0-8.3,5.8-17.9,15.8-17.9c3.4,0,9.2,1.8,9.2,5.7c0,0.7-0.4,1.4-1.2,1.4c-1.2,0-3-1.1-5.1-1.1
		c-4.4,0-7,5.5-7,9.8c0,4.7,2.5,8,5.4,8s5.5-3,7.2-3c0.9,0,1.4,1,1.4,1.8c0,6-7.9,9.9-12.5,9.9C963.5,622.4,958.5,615,958.5,607.7z"
		/>
	<path class="st8" d="M1006.3,594c0,1.6-0.9,3.3-0.9,5.2c0,2.1,0.7,4.5,1.5,6.8c1.8,5.3,6.5,8.8,6.5,12.1c0,2.2-2.5,4.5-5.3,4.5
		c-2.2,0-5.7-0.9-5.7-3.7c0-0.9,0.3-1.7,0.3-2.6c0-2.1-2-3.6-5-3.6c-2.5,0-4.6,1.2-4.6,3.4c0,1.1,0.5,1.9,0.5,2.7
		c0,2.3-2.4,3.7-5.1,3.7c-3.1,0-4.9-1.5-4.9-3.9c0-5,7.5-13.1,7.5-19.2c0-1.7-0.9-3.6-0.9-5.3c0-2.4,1.8-4.7,8.3-4.7
		C1004.2,589.6,1006.3,591.7,1006.3,594z M998.2,601.3c-1.4,0-3.3,1.9-3.3,4.6c0,1.4,0.9,3.2,2.9,3.2c1.7,0,2.9-1.7,2.9-3.6
		C1000.7,604.2,1000.1,601.3,998.2,601.3z"/>
	<path class="st8" d="M1036.4,588.6c3.5,0,5.3,2.3,5.3,5.4c0,3.6-1.9,9-1.9,16.9c0,7.2,2.1,8.7,2.1,10.2c0,0.7-0.9,1.2-1.9,1.2
		c-1.9,0-4.6-1.5-6.8-3.6c-4.5-4.5-6.3-16.6-10.4-16.6c-1.5,0-2,1.3-2,2.7c0,6.7,4.5,8.4,4.5,13c0,2.8-3.2,4.4-5.8,4.4
		c-3.6,0-5.2-1.9-5.2-3.9c0-1.8,1-3.9,1.9-5.7c0.9-1.5,2.1-4,2.1-9.7c0-1.5-0.1-3.1-0.4-4.7c-0.7-4.9-3.1-5.4-3.1-7.2
		c0-1.1,1.3-1.8,2.8-1.8c4.4,0,8.8,3.6,13,13.8c1,2.4,1.9,5.7,4.3,5.7c1.1,0,1.8-0.9,1.8-3.2c0-4.9-6.1-5.9-6.1-11.7
		C1030.9,590.4,1033.4,588.6,1036.4,588.6z"/>
	<path class="st8" d="M1062.1,589.6c2.8,0,4.7,1.6,4.7,4.9c0,5.5-7.3,9.2-7.3,16.2c0,2,1,3.2,3.2,3.2c4.5,0,6.6-3.3,8.7-3.3
		c1.4,0,2.7,1.8,2.7,3.3c0,5.3-7.7,8.8-18.2,8.8c-2.3,0-3-1.1-3-2.5c0-7.9,4-10.8,4-24.4C1056.8,592.5,1058.4,589.6,1062.1,589.6z"
		/>
	<path class="st8" d="M1086.1,593.8c0,2.7-2.5,6-2.5,10.9c0,7,2.2,9.2,2.2,12.4c0,2.8-1.3,5.1-5.1,5.1c-4.1,0-5.7-1.8-5.7-4.5
		c0-4,2.6-5.4,2.6-10.3c0-8.7-2.7-9.7-2.7-13.2c0-3,1.4-4.8,5.7-4.8C1084.8,589.4,1086.1,590.9,1086.1,593.8z"/>
	<path class="st8" d="M1104,588.6c3.5,0,8.8,1.8,8.8,5.4c0,1.1-0.8,1.7-1.6,1.7c-0.8,0-1.4-0.4-2.1-0.9c-1.1-0.7-2.3-1.1-3.6-1.1
		c-4.8,0-7.9,5-7.9,10.7c0,4.6,1.9,9.2,6.3,9.2c1.4,0,4.1-1.3,4.1-3.3c0-1.4-1.2-2.7-1.9-3.5c-1-1-1.5-1.8-1.5-2.6
		c0-1.8,2.5-3.1,5.6-3.1c3.1,0,5.7,1.2,5.7,3.2c0,1.5-1.9,2.9-1.9,4.1c0,1.4,1.7,3,1.7,4.9c0,5.1-6.3,7.8-12,7.8
		c-9.3,0-16.6-5.2-16.6-15.5C1087.1,596.6,1094.4,588.6,1104,588.6z"/>
	<path class="st8" d="M1137.5,589.3c3.7,0,6.1,1.1,6.1,4c0,5.5-4,7.3-4,11.6c0,5.2,3.7,6.2,3.7,12.7c0,3.4-2.8,4.9-5.9,4.9
		c-3.2,0-5.1-1.7-5.1-3.9c0-2.6,2.3-5.6,2.3-8.3c0-1.7-1.3-3.8-4-3.8c-2.4,0-4.1,1.4-4.1,4.2c0,1.4,1.8,4.6,1.8,7.3
		c0,2.7-2,4.3-5.2,4.3c-3.2,0-5.8-1.4-5.8-4c0-6.7,3.3-6.8,3.3-13.5c0-7.1-3.4-6.9-3.4-11.2c0-3.3,2.6-4.5,6.3-4.5
		c3.1,0,5.7,1,5.7,3.1c0,4.2-3.2,4.1-3.2,7.5c0,2.4,1.5,3,3.7,3c3.7,0,5-1.5,5-2.9c0-2.3-3.1-4.7-3.1-7
		C1131.6,589.8,1135.2,589.3,1137.5,589.3z"/>
	<path class="st8" d="M1158.8,598.1c0.7,0,1.6-0.2,2.3-0.2c0.8,0,1.4,0.3,1.4,1.3c0,2.8-7.3,1.8-7.3,9.3c0,2.5,1.1,3.4,2.1,3.4
		c1.3,0,2.4-1.5,3.4-1.5c1,0,1.5,1.7,1.5,2.8c0,5.4-4.1,7-8.6,7c-6.7,0-9-2.5-9-5.8c0-4,3-8.8,3-11.2c0-2.2-3.2-0.6-3.2-2.9
		c0-2.4,5.4,0.4,8.1-7c0.4-1.1,1.2-2.2,2.7-2.2C1158.8,591.4,1155.8,598.1,1158.8,598.1z"/>
	<path class="st8" d="M1186.3,593.9c0,7-3.5,11.1-3.5,15.1c0,4.5,1.8,6.8,5.2,6.8c3.7,0,4.8-2.6,4.8-6.9c0-3-3.3-9.2-3.3-14
		c0-2.9,1.4-5.6,5.3-5.6c5.7,0,7.1,7,7.1,13.4c0,10.9-0.3,19.7-14.1,19.7c-11.6,0-14-9.2-14-18.7c0-5.6,1.2-14.4,7.5-14.4
		C1184.7,589.3,1186.3,590.5,1186.3,593.9z"/>
	<path class="st8" d="M1213.4,591.2c1.4,0,4.9-1.2,8.1-1.2c3.6,0,5.5,2.2,5.5,6.8c0,16.1-16.5,6.8-16.5,12.1c0,6.1,1.7,5.4,1.7,9.9
		c0,2.6-2,3.6-4.5,3.6c-3.1,0-4.7-1.6-4.7-3.7c0-2.8,2.2-7.2,2.2-16.5c0-4-0.4-6.4-1.3-7.7c-0.4-0.5-0.7-1.3-0.7-2.2
		c0-1.3,0.9-2.4,3.2-2.4C1208.6,589.9,1209,591.2,1213.4,591.2z M1210.9,599.9c0,1.4,0.7,3.4,2.4,3.4c1.4,0,3.2-1.6,3.2-4.6
		c0-1.5-0.9-2.6-2.8-2.6C1212.2,596.1,1210.9,597,1210.9,599.9z"/>
	<path class="st8" d="M1240.6,592.4c0,2.3-3.2,4-3.2,9.1c0,1.5,0.6,3.6,0.6,5.4c0,2.2-1.1,3.9-3.7,3.9c-2.4,0-3.3-1.8-3.3-3.6
		c0-1.3,0.3-2.8,0.3-4.9c0-3.2-3.6-5.9-3.6-9.9c0-3.2,2.2-4.3,6.3-4.3C1239.8,588.1,1240.6,590.2,1240.6,592.4z M1240.1,617.5
		c0,2.5-2.2,4.7-6.1,4.7c-2.7,0-5-1.7-5-4.4c0-2.5,1.6-5,5.8-5C1235.8,612.8,1240.1,613.6,1240.1,617.5z"/>
</g>
</svg>
