<svg id="Layer_1" data-name="Layer 1" xmlns="http://www.w3.org/2000/svg" width="160" height="160" viewBox="0 0 160 160"><defs><style>.cls-1{fill:#8cc63f;}</style></defs><path class="cls-1" d="M77.61,142.45c-.1-2.82-.19-5.07-.24-6.24a89.13,89.13,0,0,1-23,10.37A87.45,87.45,0,0,1,28.45,150a37,37,0,0,1,16.39-17.06,34.93,34.93,0,0,1,18.65-3.61A124,124,0,0,1,21.91,119,125.48,125.48,0,0,1,.12,106.52,51,51,0,0,1,25,100.44c18.59.35,31.06,11.1,34.58,14.35A147.09,147.09,0,0,1,28.76,76.38a149.76,149.76,0,0,1-12-27.8A84.12,84.12,0,0,1,48.36,65.15,87.74,87.74,0,0,1,71,94.25a181.26,181.26,0,0,1,8.9-95A164.93,164.93,0,0,1,93.3,47.86,166.08,166.08,0,0,1,92.08,94.8a82.66,82.66,0,0,1,21.73-31A79.06,79.06,0,0,1,150,45.58a169.42,169.42,0,0,1-48.12,70.53c14.1-15.34,37.68-14,58-11.56a91.74,91.74,0,0,1-60,24.61c9.24-.66,14.78,2.21,17.3,3.83a53.15,53.15,0,0,1,7.06,5.91,86.48,86.48,0,0,1,7.37,7.88,107,107,0,0,1-24.92-2.37,108.17,108.17,0,0,1-23.78-8.09c.26,1.21.64,3.11,1.09,5.44,2.81,14.73,2.26,17,1,18.05a4.39,4.39,0,0,1-4.76.47C78.08,159,78.1,155.56,77.61,142.45Z"/></svg>