<svg id="Layer_1" data-name="Layer 1" xmlns="http://www.w3.org/2000/svg" width="269.06" height="291.85" viewBox="0 0 269.06 291.85"><defs><style>.cls-1{fill:#009245;}.cls-2{fill:none;stroke:#fff;stroke-miterlimit:10;stroke-width:6px;}.cls-3{fill:#fff;}</style></defs><path class="cls-1" d="M121.88,250.69c-4.06-3.9-16,12.92-32.33,19.35-9.48,3.72-23.2,5-42.57-4.13,6.14-16.42,18.33-29.44,32.72-35-30.16-3.95-59-21.34-79.7-48a212.76,212.76,0,0,1,67.88-9c-24.32-21.36-40.08-56-41.74-91.75A85.52,85.52,0,0,1,67.26,94.63C86.2,106,97.34,122,102.51,130.44a322.58,322.58,0,0,1-1.93-67c1.39-17.72,3.76-27.48,6.77-35.79a102.27,102.27,0,0,1,15-27.6c17.9,12.09,29,35.22,33.77,59s3.88,48.48,3,72.82c22.2-27.9,47.51-57.62,79.87-60.34,1.09,8.56,3.26,33.14-8,59.54-11.59,27.17-30.24,39.5-36.64,43.31,9.92-.31,21.51-.63,34.52-.88,7-.14,11.36-.21,17.3.84a71,71,0,0,1,22.89,8.4,159.6,159.6,0,0,1-42.35,30.88,141.61,141.61,0,0,1-42,13.28C199.82,234,213,246.75,222,262.92c-25.37,6.34-42.89,2.16-54.45-3.17-10-4.62-23.34-13.7-26.16-9.6-1.06,1.53.2,3.63,1.3,9.37.55,2.87,4.24,22.14-3,29.26-3.22,3.18-8.9,4.22-12.41,1.53-5.51-4.22-5.26-17.32-5.06-28.12C122.33,254.17,123.21,252,121.88,250.69Z"/><ellipse class="cls-2" cx="131.54" cy="189.29" rx="53.16" ry="54.12" transform="translate(-63.78 311.7) rotate(-87.28)"/><path class="cls-3" d="M168.47,194.36l-2.69-.73a30.52,30.52,0,0,0-2-13l2.38-1.23a4.19,4.19,0,0,0,1.92-5.59c-.07-.14-.15-.28-.23-.41l-1.79-3a5.1,5.1,0,0,0-6.56-1.78l-2.38,1.27a36.09,36.09,0,0,0-11.28-8.23l.69-2.47a4.58,4.58,0,0,0-3.38-5.51h-.06l-3.48-.94a4.67,4.67,0,0,0-5.83,3l-.69,2.46a37,37,0,0,0-14,1.4l-1.41-2.26a5.09,5.09,0,0,0-6.55-1.77l-3.07,1.57a4.19,4.19,0,0,0-1.91,5.61c.07.13.14.26.22.39l1.4,2.25a31.1,31.1,0,0,0-8.48,10.21l-2.68-.72a4.67,4.67,0,0,0-5.84,3l-.89,3.2a4.58,4.58,0,0,0,3.38,5.51h.06l2.68.73a30.52,30.52,0,0,0,2,13l-2.38,1.23a4.2,4.2,0,0,0-1.9,5.63,2.71,2.71,0,0,0,.21.37l1.82,2.93a5.11,5.11,0,0,0,6.56,1.77l2.38-1.23A36.4,36.4,0,0,0,116,219.25l-.7,2.47a4.58,4.58,0,0,0,3.42,5.51h0l3.47.94a4.67,4.67,0,0,0,5.83-3l.7-2.47a36.81,36.81,0,0,0,14-1.39l1.41,2.25a5.1,5.1,0,0,0,6.56,1.78l3.09-1.6a4.2,4.2,0,0,0,1.9-5.63,2.71,2.71,0,0,0-.21-.37l-1.42-2.18a31,31,0,0,0,8.49-10.21l2.68.73a4.68,4.68,0,0,0,5.83-3l.9-3.2a4.57,4.57,0,0,0-3.38-5.51Zm-42.08,12.22c-9.65-2.61-15.46-11.93-13-20.81s12.33-14,22-11.35,15.46,11.93,13,20.81-12.33,14-22,11.35Z"/></svg>