<svg id="Layer_1" data-name="Layer 1" xmlns="http://www.w3.org/2000/svg" width="131.42" height="122" viewBox="0 0 131.42 122"><defs><style>.cls-1{fill:#fb4c24;}.cls-2{fill:#fff;}</style></defs><ellipse class="cls-1" cx="65.71" cy="61" rx="65.71" ry="61"/><path class="cls-2" d="M104.36,77.52c-6.73,10.22-16.9,18.57-28.82,22.14-1.46.43-2.94.79-4.45,1.09-.66.13-1.33.25-2,.35s-.89.14-1.86.23a43.41,43.41,0,0,1-8.68,0c-.59-.07-.74-.09-1.54-.21s-1.48-.27-2.22-.43a41.3,41.3,0,0,1-4.09-1.14,31.67,31.67,0,0,1-3.38-1.34c-1.32-.61-2.61-1.29-3.87-2C32.92,90,25.16,79.28,24.15,67.27c-1-12.46,4.65-24.66,14.46-32.91a38.88,38.88,0,0,1,18.15-8.44,40.84,40.84,0,0,1,10-.39,32.33,32.33,0,0,1,3.92.51c1.12.2,2.23.44,3.32.72.78.2,1.56.42,2.32.66a2.69,2.69,0,0,0,3.29-1.78,2.53,2.53,0,0,0-1.78-3.09l-.09,0c-13-4-27.51-2.46-38.73,5.06a45.3,45.3,0,0,0-20.32,34.6C18,76.06,25,89.27,36.52,97.69a44.31,44.31,0,0,0,35.73,8c13.6-2.6,25.34-10.83,33.55-21.23,1.12-1.46,2.2-2.9,3.2-4.4,1.78-2.76-2.79-5.31-4.62-2.53Z"/><path class="cls-2" d="M69.56,15.26c.69,1,1.32,2,2,3h0l.27.43c.14.22.28.44.4.67.32.51.61,1,.9,1.57q1.77,3.15,3.23,6.47A3,3,0,0,0,81.83,25h0a80.88,80.88,0,0,0-7.61-13.48A3,3,0,0,0,70,11h0a3.09,3.09,0,0,0-.42,4.23Z"/><path class="cls-2" d="M77.41,24.4a71.69,71.69,0,0,1-6.53,3.76c-1.12.57-2.26,1.11-3.4,1.62l-.69.3-.46.2h0c-.62.25-1.23.5-1.85.73a3.07,3.07,0,0,0-2.1,3.7c.46,1.42,2.12,2.69,3.69,2.09a78.35,78.35,0,0,0,14.35-7.21,3,3,0,1,0-2.49-5.46l-.16.08-.36.2Z"/></svg>