<?xml version="1.0" encoding="utf-8"?>
<!-- Generator: Adobe Illustrator 26.0.1, SVG Export Plug-In . SVG Version: 6.00 Build 0)  -->
<svg version="1.1" id="Layer_1" xmlns="http://www.w3.org/2000/svg" xmlns:xlink="http://www.w3.org/1999/xlink" x="0px" y="0px"
	 viewBox="0 0 106.1 113.9" style="enable-background:new 0 0 106.1 113.9;" xml:space="preserve">
<style type="text/css">
	.st0{fill:#D9E021;}
</style>
<g>
	<path class="st0" d="M53,113.8c-29.2,0-53-25.5-53-56.9S23.8,0,53,0c29.2,0,53,25.5,53,56.9S82.2,113.8,53,113.8z M53,6
		C27.1,6,6,28.8,6,56.9c0,28.1,21.1,50.9,47,50.9s47-22.8,47-50.9C100,28.8,78.9,6,53,6z"/>
</g>
<g>
	<polygon class="st0" points="25.6,93.6 27.8,57 30.1,20.5 63.3,36.8 96.6,53 61.1,73.3 	"/>
</g>
</svg>
