<?xml version="1.0" encoding="utf-8"?>
<!-- Generator: Adobe Illustrator 26.0.1, SVG Export Plug-In . SVG Version: 6.00 Build 0)  -->
<svg version="1.1" id="Layer_1" xmlns="http://www.w3.org/2000/svg" xmlns:xlink="http://www.w3.org/1999/xlink" x="0px" y="0px"
	 viewBox="0 0 1920 1080" style="enable-background:new 0 0 1920 1080;" xml:space="preserve">
<style type="text/css">
	.st0{fill:#550013;}
	.st1{fill:#C69C6D;}
	.st2{fill:#FBC93B;}
	.st3{fill:#A67C52;}
	.st4{fill:#CCCCCC;}
	.st5{fill:#2E3192;}
	.st6{fill:#1B1464;}
	.st7{fill:#0071BC;}
	.st8{fill:#8C6239;}
	.st9{fill:#603813;}
	.st10{fill:#BFE1FF;}
	.st11{fill:#754C24;}
	.st12{stroke:#000000;stroke-width:0.5;stroke-miterlimit:10;}
	.st13{fill:#ED1C24;}
	.st14{fill:#FFFFFF;}
	.st15{fill:#8C6239;stroke:#603813;stroke-miterlimit:10;}
	.st16{opacity:0.2;fill:#FF5589;stroke:#000000;stroke-width:0.5;stroke-miterlimit:10;enable-background:new    ;}
	.st17{opacity:0.2;fill:#FF90CD;enable-background:new    ;}
	.st18{fill:#42210B;}
	.st19{stroke:#000000;stroke-width:0.25;stroke-miterlimit:10;}
	.st20{fill:#FFFFFF;stroke:#000000;stroke-miterlimit:10;}
	.st21{stroke:#000000;stroke-miterlimit:10;}
</style>
<rect x="0.5" y="-2.9" class="st0" width="1919" height="1090"/>
<rect x="857" y="218.6" class="st1" width="225.7" height="243.5"/>
<ellipse class="st2" cx="968.7" cy="320.8" rx="89.5" ry="85.5"/>
<ellipse class="st1" cx="969.8" cy="320.8" rx="24.3" ry="23.2"/>
<rect x="889.1" y="417.5" class="st3" width="161.5" height="31.6"/>
<rect x="588.6" y="215.6" class="st1" width="221.1" height="244.8"/>
<ellipse class="st2" cx="700.2" cy="318.4" rx="87.7" ry="86"/>
<ellipse class="st1" cx="699.1" cy="318.4" rx="23.8" ry="23.4"/>
<rect x="620" y="415.5" class="st3" width="158.2" height="31.8"/>
<rect x="1404.7" y="489.6" class="st1" width="219" height="223"/>
<ellipse class="st4" cx="1515.3" cy="583.2" rx="86.8" ry="78.3"/>
<ellipse class="st1" cx="1514.2" cy="583.2" rx="23.6" ry="21.3"/>
<rect x="1435.9" y="671.7" class="st3" width="156.7" height="28.9"/>
<rect x="308.7" y="491.8" class="st1" width="229" height="249.8"/>
<ellipse class="st4" cx="424.4" cy="596.7" rx="90.8" ry="87.7"/>
<ellipse class="st1" cx="423.2" cy="596.7" rx="24.7" ry="23.8"/>
<rect x="341.3" y="695.8" class="st3" width="163.9" height="32.4"/>
<rect x="26.7" y="211.6" class="st1" width="234" height="253"/>
<ellipse class="st2" cx="143.7" cy="317.8" rx="92.8" ry="88.8"/>
<ellipse transform="matrix(0.2118 -0.9773 0.9773 0.2118 -197.3082 390.9107)" class="st1" cx="143.7" cy="317.8" rx="24.1" ry="25.2"/>
<rect x="60" y="418.2" class="st3" width="167.4" height="32.8"/>
<rect x="307.7" y="213.6" class="st1" width="234" height="248"/>
<ellipse class="st2" cx="425.9" cy="317.7" rx="92.8" ry="87.1"/>
<ellipse class="st1" cx="424.7" cy="317.7" rx="25.2" ry="23.7"/>
<rect x="341" y="416.1" class="st3" width="167.4" height="32.2"/>
<rect x="1405" y="217.6" class="st1" width="218.7" height="244.8"/>
<ellipse class="st2" cx="1514.3" cy="320.3" rx="86.7" ry="85.9"/>
<ellipse transform="matrix(0.804 -0.5947 0.5947 0.804 106.3799 963.3353)" class="st1" cx="1514.3" cy="320.3" rx="23.7" ry="23.2"/>
<rect x="1436.1" y="417.5" class="st3" width="156.5" height="31.8"/>
<rect x="1147" y="217.6" class="st1" width="213.7" height="244.8"/>
<ellipse class="st2" cx="1252.8" cy="320.3" rx="84.8" ry="85.9"/>
<ellipse class="st1" cx="1253.8" cy="320.3" rx="23" ry="23.4"/>
<rect x="1177.4" y="417.5" class="st3" width="152.9" height="31.8"/>
<rect x="26.7" y="491.6" class="st1" width="234" height="246.1"/>
<ellipse class="st4" cx="144.9" cy="594.9" rx="92.8" ry="86.4"/>
<ellipse class="st1" cx="143.7" cy="594.9" rx="25.2" ry="23.5"/>
<rect x="60" y="692.6" class="st3" width="167.4" height="31.9"/>
<rect x="1664.7" y="489.6" class="st1" width="210" height="223.1"/>
<ellipse class="st4" cx="1770.8" cy="583.3" rx="83.3" ry="78.4"/>
<ellipse class="st1" cx="1769.7" cy="583.3" rx="22.6" ry="21.3"/>
<rect x="1694.6" y="671.8" class="st3" width="150.3" height="29"/>
<rect x="1663.8" y="217.6" class="st1" width="209.9" height="244.7"/>
<ellipse class="st2" cx="1769.8" cy="320.3" rx="83.2" ry="85.9"/>
<ellipse class="st1" cx="1768.7" cy="320.3" rx="22.6" ry="23.4"/>
<rect x="1693.7" y="417.5" class="st3" width="150.2" height="31.8"/>
<path class="st5" d="M986,628.7c-0.1-22.2-0.3-40-0.4-50.1c-9.8-2.4-27.8-6.5-50.4-10.7c-160.7-29.7-289.6-10.4-340.9-0.9
	c-22.2,4.1-40.6,8.4-53.4,11.6c-8,25.9-14.1,52.4-18,79.3c-15,101.6,2.6,187.8,18,240.4h444.8c0.2-31.8,0.3-57.3,0.4-73.3
	C986.5,715.7,986.2,654.4,986,628.7z"/>
<path class="st5" d="M1449.9,657.8c-3.9-26.8-10-53.4-18-79.3c-12.8-3.2-31.2-7.5-53.4-11.6c-51.3-9.5-180.2-28.8-340.9,0.9
	c-22.6,4.2-40.6,8.3-50.4,10.7c-0.1,10.1-0.2,27.9-0.4,50.1c-0.2,25.7-0.4,87,0,196.3c0.1,16,0.2,41.5,0.4,73.3H1432
	C1447.3,845.7,1464.9,759.5,1449.9,657.8z"/>
<rect x="430.3" y="761.9" class="st6" width="136.8" height="263.5"/>
<rect x="1365" y="766.5" class="st6" width="136.8" height="263.5"/>
<ellipse class="st7" cx="499.2" cy="725.6" rx="106.2" ry="80"/>
<ellipse class="st7" cx="1433.8" cy="730.1" rx="106.2" ry="80"/>
<path class="st8" d="M957.5,613h69c-12.1,47.6-12.1,97.4,0,145h-69C977.7,711.8,977.7,659.2,957.5,613z"/>
<path class="st9" d="M990.2,692.8c-0.3,3.4,0.2,7.5,3.1,9.7c2.4,1.8,6,2,7.9-0.6c1-1.6,1.6-3.3,1.8-5.2c0.4-2,0.5-4.1,0.5-6.1
	c-0.1-4.3-1-8.5-2.7-12.4c-0.2-0.4-0.8-0.1-0.7,0.4c2.7,6.3,3.7,14.2,1.4,20.8c-0.4,1.7-1.6,3-3.3,3.6c-1.5,0.3-3.1-0.1-4.4-1
	c-2.9-2-3.3-6-3-9.3C990.9,692.3,990.2,692.3,990.2,692.8L990.2,692.8z"/>
<path class="st8" d="M978,737.2c-54.6-10.1-94.7-17.1-105.8-19c-4.9-0.8-9.9-0.5-14.6,0.8c-6.1,1.7-10.1,5.4-13.1,9.2
	c-6,7.5-9.5,15.8-10.4,24.2c-0.2,0.8,0.1,1.6,0.7,2.1c0.8,0.4,1.6,0.6,2.5,0.7c13.2,1.5,26.5,3,39.8,2.7c18.4-0.4,17.1-2.1,30.9-2.3
	c8-0.3,16.1,0,24.1,0.7c9.6,0.9,27.8,3.5,35.2-1c1.1-0.7,2.1-1.4,3.1-2.2c2.6-2.2,4.8-4.8,6.5-7.9"/>
<path class="st8" d="M1015.1,741.9c10.4-11.4,87.8-20.5,105-23.6c5-0.8,10.1-0.5,14.9,0.8c6.2,1.8,10.3,5.8,13.4,9.9
	c5.9,7.5,9.5,16.5,10.6,26c0.2,0.8-0.1,1.7-0.7,2.3c-0.8,0.4-1.7,0.7-2.6,0.7c-13.4,1.6-27,3.3-40.6,3c-21.4-0.5-17.7-1.9-31.5-2.5
	c-20.3-0.9-58.8-1-61.2-0.3c-0.3,0.1-0.7,0.1-1,0c-1.1-0.4-1.4-2-1.5-2.5c-1.1-4.3-6.6-5.6-6.8-9.4
	C1012.9,744.3,1014.3,742.7,1015.1,741.9z"/>
<path class="st10" d="M946,758l-15-2c2.7-9.1,2.7-18.9,0-28l16,3C944.6,739.8,944.3,749,946,758z"/>
<path class="st10" d="M1038.4,759.2l15-2c-2.7-9.1-2.7-18.9,0-28l-16,3C1039.8,741.1,1040.1,750.3,1038.4,759.2z"/>
<path class="st11" d="M1122.9,405.8c2.6,4,5.2,11.1,3.2,16.9c-1.7,4.8-5.3,5.3-5.4,9.1c-0.1,4.1,4.1,5.3,4.3,9.1
	c0.3,5.2-7.3,12.5-14,11.7c-9-1-15.5-16.5-15.1-29.3c0.4-10.3,5.4-24.2,14-25.4C1117,397,1122.5,405.2,1122.9,405.8z"/>
<path class="st11" d="M865.8,408.3c-2.6,4-5.2,11.1-3.2,16.9c1.7,4.8,5.3,5.3,5.4,9.1c0.1,4.1-4.1,5.3-4.3,9.1
	c-0.3,5.2,7.3,12.5,14,11.7c9-1,15.5-16.5,15.1-29.3c-0.4-10.2-5.4-24.2-14-25.4C871.6,399.5,866.2,407.7,865.8,408.3z"/>
<path d="M1059.7,492.3c0.8,0,1.5-0.7,1.5-1.5s-0.7-1.5-1.5-1.5s-1.5,0.7-1.5,1.5S1058.8,492.3,1059.7,492.3z"/>
<path d="M1064.8,496.4c0.5-2.8,0.2-5.6-0.7-8.2c-0.2-0.6-0.8-0.9-1.4-0.7c-0.5,0.1-0.8,0.6-0.8,1c0,4.3,0,8.8-1.9,12.7l2.1,0.9
	c1.5-5,3.8-9.6,6.9-13.7l-2.1-0.6c0.5,4.7-0.4,9.4-1.3,14l2.2,0.6c0.5-3,1.9-5.8,4-8.1l-1.9-0.5c0.3,1.8,0.3,3.6-0.1,5.3l-0.7,5.6
	c-0.2,1.2,2,1.5,2.2,0.3c0.3-1.8,0.8-3.6,1.5-5.4c0.2-0.6-0.1-1.2-0.7-1.5c-0.6-0.2-1.2,0.1-1.5,0.7c0,0.1,0,0.1-0.1,0.2
	c-0.7,1.7-1.2,3.5-1.5,5.4l2.2,0.3l0.8-6c0.4-1.9,0.3-3.8-0.1-5.6c-0.2-0.6-0.8-0.9-1.4-0.8c-0.2,0.1-0.3,0.1-0.5,0.3
	c-2.3,2.5-3.9,5.7-4.6,9.1c-0.3,1.4,1.9,2,2.2,0.6c1-4.8,1.9-9.7,1.4-14.5c0-0.6-0.6-1.1-1.2-1.1c-0.4,0-0.7,0.2-0.9,0.5
	c-3.3,4.3-5.7,9.1-7.2,14.3c-0.3,1.2,1.5,2,2.1,0.9c2.1-4.3,2.2-9.1,2.2-13.8l-2.2,0.3c0.8,2.2,1.1,4.6,0.7,7
	C1062.4,497.2,1064.6,497.8,1064.8,496.4L1064.8,496.4z"/>
<path d="M1072.5,503.4c-3.5,0.5-5.2-3.4-6.3-6.1c-0.2-0.4-0.9-0.3-0.7,0.2c0.5,1.4,0.9,3,0.9,4.5l0.7-0.2l-2.2-3.5
	c-0.4-0.8-1-1.4-1.7-1.8c-0.2-0.1-0.4,0.1-0.5,0.3c-0.2,1.2-0.2,2.4-0.1,3.6l0.7-0.1c-0.4-1.7-1.1-3.3-2-4.8
	c-0.3-0.5-1.3-1.8-1.9-0.8c-0.1,0.1-0.1,0.3,0,0.4c1.1,1.7,2,3.5,2.5,5.4l0.7-0.3c-1.9-2.6-4.5-4.5-7.6-5.5
	c-0.4-0.1-0.6,0.4-0.4,0.6c0.7,0.9,1.4,1.8,2.2,2.7c0.6,0.8,1.4,1.6,2.2,2.2c0.5,0.3,1.1,0.2,1.5-0.3c0.7-0.9,1.2-1.9,1.7-2.9
	c1.8-3.1,4.9-7.5,2.2-11c-0.1-0.2-0.4-0.2-0.5-0.1s-0.2,0.3-0.1,0.4c0.6,1,1.2,2.1,1.8,3c0.5,0.9,1.1,1.8,1.9,2.5
	c1.3,0.9,1.4-1.2,2.2-1.7l-0.6-0.3l0.2,7.6c0,0.2,0.2,0.4,0.4,0.4c0.1,0,0.2-0.1,0.3-0.2l2.5-3.6l-0.7-0.2c0,2.4,0.3,4.7,1,7
	c0.1,0.3,0.7,0.4,0.7,0l1-7h-0.7l1.1,8.1c0.1,0.2,0.3,0.3,0.5,0.2c0.1,0,0.2-0.1,0.2-0.2c0.1-0.8,0.1-1.6-0.1-2.3
	c-0.1-0.2-0.3-0.3-0.5-0.3c-0.1,0-0.2,0.1-0.2,0.2c-0.5,0.6-0.7,1.4-0.7,2.1c0,0.2,0.2,0.3,0.4,0.3c0.2,0,0.3-0.2,0.3-0.3
	c0-0.6,0.2-1.3,0.6-1.8l-0.7-0.1c0.2,0.6,0.2,1.3,0.1,1.9h0.7l-1.1-8.1c0-0.2-0.2-0.3-0.4-0.3c-0.1,0-0.2,0.1-0.3,0.3l-1,7h0.7
	c-0.6-2.2-1-4.5-1-6.8c0-0.2-0.2-0.4-0.4-0.4c-0.1,0-0.2,0.1-0.3,0.2l-2.5,3.6l0.7,0.2l-0.2-7.6c0-0.2-0.2-0.4-0.4-0.4
	c-0.1,0-0.1,0-0.2,0.1c-0.3,0.2-0.6,0.5-0.7,0.9c-0.1,0.2-0.2,0.6-0.3,0.7c-0.5,0.4-0.8-0.4-1.1-0.8c-1-1.4-1.9-2.8-2.8-4.4
	l-0.7,0.4c2.3,3-0.2,6.7-1.7,9.5l-1.3,2.3c-0.2,0.4-0.3,0.7-0.6,1c-0.6,0.6-1.2,0-1.7-0.4c-1.2-1.2-2.3-2.5-3.3-3.9l-0.4,0.6
	c2.9,0.9,5.4,2.8,7.1,5.2c0.1,0.2,0.3,0.2,0.5,0.1c0.1-0.1,0.2-0.2,0.2-0.4c-0.2-0.9-0.5-1.8-0.9-2.6c-0.2-0.4-0.4-0.9-0.6-1.3
	c-0.1-0.2-0.6-1.4-0.8-1.4c-0.3,0,0.2,0.5,0.2,0.6c0.1,0.2,0.2,0.4,0.4,0.6c0.2,0.4,0.4,0.8,0.7,1.2c0.5,1,0.9,2,1.1,3.1
	c0.1,0.4,0.8,0.3,0.7-0.1c-0.1-1.1-0.1-2.3,0.1-3.4l-0.5,0.3c0.9,0.4,1.4,1.7,1.9,2.5l1.6,2.5c0.2,0.3,0.7,0.2,0.7-0.2
	c-0.1-1.6-0.4-3.2-0.9-4.7l-0.7,0.2c1.3,3.1,3.2,7.1,7.2,6.6C1073.1,504.1,1072.9,503.4,1072.5,503.4L1072.5,503.4z"/>
<path d="M1043.7,572.9c4.3-10.6,9.1-20.9,14.5-31c0.9-1.7-1.7-3.2-2.6-1.5c-5.5,10.3-10.4,20.8-14.8,31.7
	C1040.1,573.9,1043,574.7,1043.7,572.9L1043.7,572.9z"/>
<ellipse class="st12" cx="1123.9" cy="294" rx="19.7" ry="25.9"/>
<ellipse class="st12" cx="874" cy="294" rx="18.8" ry="25.9"/>
<path class="st8" d="M1109.8,430.5c-1.1-2.6-1.8-3.2-4.7-9.4c-1.3-2.6-2.5-5.3-3.6-8c-1.7-4.7-2.5-9.7-2.4-14.7
	c0.6-13.5,10.9-31.5,11.2-33c0.1-0.4,0.2-0.8,0.2-0.8c0.1-0.3,0.2-0.7,0.2-1.1c2.8-13.3,4.1-26.9,3.7-40.5
	c-0.8-15.7-3.8-14.3-4.1-30.1c-0.1-6.8,0.4-10.7,0-19.7c-0.3-6.9-0.9-13.9-2-20.7c-2.1-5.2-4.8-10.1-8.2-14.5
	c-1.9-2.5-3.9-4.8-6.1-7c-9.2-9-20.6-13.6-23.6-14.8c-46.6-18.2-76.9-18.1-76.9-18.1s-32,0.1-72.7,17.1c0,0-23.2,9.6-32.8,25.9
	c-2.8,4.8-4.9,10.1-6.2,15.5c-1,5.1-1.6,10.3-2,15.5c-0.7,9.5-0.1,14.8,0,21.8c0.1,12.3-2.1,14.6-3.1,29c-0.6,9.2-0.8,18.2,0,36.3
	c0,1.2,0.2,3.2,0.5,5.9c0.5,3.6,1.3,7.2,2.4,10.7c2.4,7.9,3.5,9,5.9,16c2.6,7.5,3.8,11.3,3.6,16c-0.4,6.1-3.1,9-5.9,14.7
	c-4.6,10.1-6.7,21.1-6.4,32.2c0.1,2.9,1.4,7.9,3.8,16.2c0.3,0.3,0.5,0.7,0.8,1.1c0.9,0.6,1.6,1.5,2,2.6c5.4,5.9,9.6,12.8,12.6,20.2
	c1.9,4.8,3.3,9.8,4.2,14.9c0.1,0.2,0.1,0.4,0.2,0.6c1,2.9,1.9,5.7,2.8,8.6c4.3,12.2,9.7,24,13.7,36.3l3,6c0.8,1,1.4,2.1,2.1,3.2
	c2.2,3.8,4.1,7.9,5.6,12.1c0.2,0.6,0.3,1.3,0.4,1.9c0.7,1.4,1.3,2.8,2,4.1c4.1,6.7,7.9,13.7,11.4,20.9c1.3,2.6,2.5,5.3,3.8,8
	c1.7,3,3.5,5.9,5.7,9.2c3.5,5.4,3.7,4.9,7.2,10.4c4.9,7.6,4.9,8.7,7.2,10.4c3.7,2.7,7.8,2.9,14.3,3.1c6.3,0.2,6.8-0.8,15.4-1
	c7.5-0.2,8,0.5,14.3,0c6-0.5,9.6-0.8,13.3-3.1c2.3-1.4,4-3.3,7.2-7.3c1.1-1.4,3.2-4.1,8.2-11.4c2.3-3.4,3.9-5.8,6.2-9.3
	c3.9-6,5.8-9,7.2-11.4c0.2-0.3,0.4-0.7,0.6-1c1.7-4.9,3.9-9.7,6.6-14.1c0.6-1.3,1.2-2.8,2-4.5s1.4-2.9,2.1-4.1
	c0.9-1.6,1.8-3.1,2.8-4.5l0.4-1c3.8-9.9,7.1-20.4,10.1-30.7c1-3.3,1.7-6.6,2.6-9.8c0-0.2,0.1-0.4,0.1-0.6c0.5-1.9,1.2-3.8,2-5.6
	c1.3-5.5,2.6-11.2,4.8-16.4c1-2.1,2.2-4.2,3.5-6.1c-0.1-1.6,0.4-3.2,1.2-4.5c0.2-1.5,0.9-2.8,2-3.9c0.4-1.1,0.8-2.2,1.3-3.3
	c0.8-1.8,1.8-3.4,3-5c0.6-1.4,1.4-2.8,2.2-4c0.3-1.2,1-2.3,2-3.1c0.3-0.4,0.6-0.8,0.9-1.1c0.4-1.3,1.3-2.4,2.5-3.1
	c0.4-0.7,0.9-1.2,1.6-1.7l2-2.1l0,0c1.1-2.7,2.4-5.3,3.8-7.8c0.1-0.8,0.3-1.5,0.7-2.2c0.1-0.4,0.2-0.8,0.3-1.1c0.1-5,0.1-9.4,0-12.9
	C1111.8,436.3,1110.8,433,1109.8,430.5z"/>
<path class="st9" d="M985.6,397.5c0.3-6.2-0.5-12.4-2.5-18.3c-2.1-5.9-5.7-11.3-9.5-16.1c-2.2-2.7-4.6-5.3-7.2-7.7
	c-0.3-0.3-0.9,0.2-0.5,0.5c6.4,5.7,11.6,12.6,15.3,20.4c2.9,6.7,4.1,14,3.7,21.2C984.9,398,985.6,398,985.6,397.5L985.6,397.5z"/>
<path class="st9" d="M999.1,399.3c-0.6-14.4,3.8-29.6,14.4-39.8c2.6-2.5,5.5-4.6,8.6-6.3c0.4-0.2,0-0.9-0.4-0.6
	c-14.2,7.6-21.8,23.1-23.2,38.7c-0.2,2.7-0.3,5.3-0.2,8C998.4,399.8,999.2,399.8,999.1,399.3L999.1,399.3z"/>
<path d="M990.4,199.5c0.7,5.1,1,10.2,1.1,15.3c0.1,5.9-0.3,11.8-1.1,17.6c-19,2.3-37.8,6.2-56.1,11.7c-20.1,6-39.6,13.9-58.2,23.5
	c1.2-8.9,5.1-27.8,19.4-42.3c2.5-2.5,10.6-10.3,33.5-17.6C948.7,201.4,969.5,198.6,990.4,199.5z"/>
<path d="M989.6,199.5c1.4,10.9,1.4,22,0,32.9l0.8-0.8c-15.4,1.9-30.6,4.8-45.5,8.7c-16.1,4.3-31.9,9.7-47.2,16.2
	c-7.5,3.2-14.8,6.6-22,10.4l1.1,0.9c1.1-8.5,3.5-16.8,7.2-24.6c3.6-7.5,8.5-14.7,15-20c6.2-5.1,13.7-8.7,21.2-11.6
	c9.3-3.6,19-6.4,28.8-8.2c13.7-2.6,27.6-3.7,41.6-3.1c1,0,1-1.5,0-1.5c-22.9-0.9-45.9,2.5-67.5,10.2c-8.3,3-16.7,6.7-23.8,12.1
	c-6.1,4.9-11.1,10.9-14.7,17.8c-4.7,8.9-7.8,18.5-9.2,28.5c-0.1,0.4,0.1,0.8,0.6,0.9c0.2,0,0.4,0,0.5-0.1c13.3-6.8,27-12.7,41-17.8
	c15.8-5.7,32-10.2,48.4-13.4c8.1-1.6,16.3-2.9,24.5-3.9c0.4,0,0.7-0.3,0.8-0.8c1.4-10.9,1.4-22,0-32.9
	C991,198.5,989.5,198.5,989.6,199.5z"/>
<path d="M996.6,198.9c-0.9,4.6-1.4,9.3-1.6,14c-0.2,6,0.1,12,1.1,17.9c18.5,2.5,36.8,6.5,54.7,11.9c21.6,6.5,42.5,15,62.6,25.4
	c-1.1-9.5-4.8-29-18.9-42.9c-5.7-5.7-11-8.2-21-13.1C1049.6,200.5,1022.9,195.9,996.6,198.9L996.6,198.9z"/>
<path d="M995.9,198.7c-2,10.6-2.2,21.5-0.5,32.2c0.1,0.3,0.3,0.5,0.5,0.5c15.8,2.2,31.5,5.4,46.9,9.7c16.3,4.5,32.3,10.2,47.8,17
	c7.6,3.3,15,6.8,22.4,10.6c0.4,0.2,1.2,0,1.1-0.6c-2.2-18-9.3-37-24.5-48c-4.1-2.8-8.5-5.2-13-7.3c-3.5-1.7-7-3.4-10.7-4.9
	c-9.7-4-19.7-6.9-30.1-8.6c-13-2.2-26.2-2.6-39.3-1.1c-1,0.1-1,1.6,0,1.5c22.2-2.5,44.6,0.3,65.4,8.2c3.4,1.3,6.7,2.7,10,4.3
	c4.5,2.2,9.1,4.3,13.4,6.9c8.6,5.2,15.1,13.2,19.6,22.2c4,8.4,6.6,17.5,7.6,26.8l1.1-0.6c-13.6-7-27.6-13.2-41.9-18.5
	c-16.2-6-32.8-10.8-49.8-14.4c-8.5-1.8-17.1-3.3-25.7-4.5l0.5,0.5c-1.6-10.4-1.4-21.1,0.5-31.4C997.5,198.1,996.1,197.7,995.9,198.7
	z"/>
<path d="M1112.8,299.5l0.5-24.7c0.1-2.7,0.1-5.5-1-7.8c-1-1.9-2.5-3.6-4.3-4.8c-3.5-2.8-7.5-5.9-11.5-7.4c1.2,7.8,6,16.5,8.9,23.9
	c2.7,6.8,5.3,13.7,7.9,20.5c-2.7-6.8-5.3-13.7-7.9-20.5c-3.1-8.1-6.2-16.1-9.3-24.2"/>
<path d="M1113.5,299.5l0.3-14.9l0.2-7.4c0.1-2.3,0.1-4.6-0.1-6.9c-0.2-1.9-0.9-3.8-2-5.3c-1.3-1.5-2.7-2.9-4.3-4
	c-3.4-2.7-6.9-5.4-11-7c-0.6-0.2-1,0.4-0.9,0.9c1.1,7.4,4.7,14.1,7.7,20.9c3.3,7.7,6.1,15.7,9.2,23.6c0.3,0.9,1.8,0.5,1.4-0.4
	c-5.8-14.9-11.5-29.8-17.3-44.7c-0.3-0.9-1.8-0.5-1.4,0.4c5.8,14.9,11.5,29.8,17.3,44.7l1.4-0.4c-3-7.8-5.8-15.6-9-23.2
	c-2.9-6.9-6.6-13.7-7.8-21.2l-0.9,0.9c4,1.6,7.5,4.4,10.8,7c1.6,1.1,3.1,2.5,4.2,4.2c0.9,1.8,1.4,3.8,1.3,5.8
	c0.1,4.4-0.2,8.8-0.2,13.2l-0.3,13.9c0,0.4,0.3,0.8,0.8,0.8S1113.5,300,1113.5,299.5L1113.5,299.5z"/>
<path d="M879.1,265.6l20.4-9.9c-9.2,16.8-16.5,34.7-21.7,53.2c-1.9-13.8-2.4-27.8-1.3-41.8c3.2-1.1,6-3.1,8.1-5.8"/>
<path d="M879.5,266.2l20.4-9.9l-1-1c-9.3,16.9-16.6,34.8-21.8,53.4h1.5c-1.9-13.8-2.3-27.7-1.3-41.5l-0.5,0.7c3.3-1.2,6.2-3.2,8.4-6
	c0.6-0.8-0.5-1.8-1.1-1.1c-2,2.6-4.7,4.5-7.7,5.6c-0.3,0.1-0.5,0.4-0.5,0.7c-1,14-0.6,28.1,1.4,42c0.1,0.8,1.3,0.6,1.5,0
	c5.2-18.4,12.4-36.2,21.6-53c0.2-0.4,0-0.8-0.4-1c-0.2-0.1-0.4-0.1-0.6,0L879,265C877.9,265.4,878.7,266.7,879.5,266.2L879.5,266.2z
	"/>
<ellipse class="st12" cx="1141.8" cy="312.3" rx="18.4" ry="24.1"/>
<ellipse class="st12" cx="1161.9" cy="334.6" rx="17.3" ry="22.4"/>
<ellipse class="st12" cx="1172.5" cy="363.9" rx="13.8" ry="19.6"/>
<ellipse class="st12" cx="1180.1" cy="389.9" rx="13.3" ry="17.5"/>
<ellipse class="st12" cx="1184.1" cy="413.4" rx="11.7" ry="16.4"/>
<ellipse class="st12" cx="1185.4" cy="438" rx="10.4" ry="17.1"/>
<ellipse class="st12" cx="1183.9" cy="462.7" rx="9.5" ry="13.8"/>
<ellipse class="st12" cx="1183.5" cy="476.1" rx="8.7" ry="12.5"/>
<ellipse class="st13" cx="1196.6" cy="491.6" rx="16.4" ry="13.5"/>
<ellipse class="st13" cx="1168.4" cy="491.6" rx="16.4" ry="13.5"/>
<path class="st14" d="M1209.2,492.1c-0.5,5-6.8,7.7-7.2,7.2s3.7-2.9,4.1-7.2c0.5-5.1-4.5-9-4.1-9.3S1209.8,486.4,1209.2,492.1z"/>
<path d="M978.1,569.6c10.6,1.6,21.4,1.9,32.2,0.8c1-0.2,2-0.1,2.8,0.4c1.8,1.2,0.8,4-0.4,5.8c-4,6.2-8.6,11.9-13.8,17.1
	c-1.1,1.2-2.4,2.2-3.9,2.8c-3.2,1-6.5-1.4-8.8-3.8c-5.1-5.2-9.3-11.3-12.3-18c-0.3-0.5-0.4-1.1-0.4-1.7c0.3-0.8,0.8-1.4,1.6-1.7
	c1.6-0.9,3.4-1.6,5.2-2"/>
<path d="M977.9,570.3c7.3,1.1,14.7,1.6,22.1,1.5c3.5-0.1,7.1-0.4,10.6-0.6c4.8-0.3,1.8,4.5,0.5,6.5c-3.8,5.7-8.2,11-13,15.8
	c-1.2,1.2-2.5,2.4-4.3,2.5c-1.8,0-3.4-0.6-4.8-1.7c-2.6-2.1-4.9-4.5-6.9-7.2c-2.2-2.9-4.2-5.9-5.9-9.2c-0.4-0.8-0.8-1.7-1.2-2.5
	c-0.5-1.2-1.1-2.3,0.2-3.1c1.6-1,3.4-1.7,5.3-2.1c0.4-0.1,0.6-0.5,0.5-0.9s-0.5-0.6-0.9-0.5c-1.8,0.5-3.5,1.1-5.2,2
	c-1.2,0.7-2.3,1.6-2.2,3.1c0.2,1.7,1.5,3.6,2.3,5.1c0.9,1.7,1.9,3.4,3,5c2.1,3.2,4.4,6.1,7,8.8c2.3,2.4,5.3,5.1,8.8,4.9
	s6.2-3.7,8.4-6.2c2.7-2.9,5.2-6,7.5-9.2c1.2-1.6,2.4-3.3,3.5-5c0.8-1.2,1.4-2.6,1.5-4c0.2-1.2-0.4-2.4-1.5-3.1
	c-1.5-0.8-3.4-0.3-5-0.2c-10,0.8-20.1,0.5-30-1C977.3,568.7,976.9,570.1,977.9,570.3L977.9,570.3z"/>
<path d="M989.4,605.2c0.4,0,0.8-0.3,0.8-0.8s-0.3-0.8-0.8-0.8s-0.8,0.3-0.8,0.8S989,605.2,989.4,605.2z"/>
<path d="M1034.5,618.2c-7.4,6.1-14.4,9.3-21.5,8.3c-0.8-0.1-9.5-1.5-13.3-8.3c-1-1.9-1.7-4-2-6.2c-1.2-6.5-1.5-13.1-1-19.7l-7.2,2.1
	c0.1,5.9,0,11.4,0,16.6c0.1,2.5-0.2,4.9-1,7.2c-1.4,3.8-4.4,6.8-8.2,8.3c-8,2.9-17.6-4.4-22.5-8.3c-19.9-15.9-27.2-37.5-27.7-37.3
	c-0.2,0.1,1.4,3.7,3.9,8.8c2.5,4.5,4.9,9,7.2,13.7c1.1,2.3,2.2,4.6,3.3,7c0.7,1.3,1.4,2.6,2,3.7c2.2,4.3,4.8,8.4,7.8,12.2
	c2.8,3.6,4.1,4.5,7.3,10.5c1.1,2.2,2.6,4.1,4.5,5.6c3.9,3.1,9.3,3.2,14.2,3.2l29.4-0.3c2.8,0.1,5.6-0.2,8.3-0.7
	c5-2.1,9.6-5.3,13.4-9.3c3.4-3.7,4.7-6.5,8.4-14c0.6-1.2,3.5-7,9.1-17.9C1044.6,608.9,1039.8,613.8,1034.5,618.2z"/>
<path d="M1034,617.6c-6.5,5.2-14.6,10-23.2,7.6c-3.4-0.8-6.5-2.7-8.9-5.2c-2.7-3.1-3.5-7.1-4-11.1c-0.8-5.5-1-11.1-0.5-16.7
	c0-0.4-0.3-0.7-0.8-0.7c-0.1,0-0.1,0-0.2,0l-7.2,2.1c-0.3,0.1-0.5,0.4-0.5,0.7c0.1,6.2,0.3,12.5-0.1,18.7
	c-0.3,5.5-3.3,10.7-8.6,12.7c-4.8,1.8-10.1-0.4-14.3-2.8c-4.2-2.5-8.2-5.5-11.8-8.9c-7-6.6-13-14.2-17.7-22.5
	c-1.5-2.6-2.8-5.3-4.1-8c-0.3-0.8-0.7-1.5-1-2.3c-0.2-0.3-0.3-0.8-0.7-1c-1.2-0.7-1.2,1-0.9,1.6c0.8,2.1,1.8,4,2.7,6
	c2.8,5.9,6.2,11.6,9.1,17.5c3.8,8,7.9,15.8,13.5,22.7c1.2,1.4,2.3,2.8,3.4,4.3c1.3,1.9,2.3,4,3.5,5.9c1.3,2.2,3,4,5.2,5.4
	c2.2,1.3,4.6,2,7.2,2.3c2.8,0.2,5.6,0.3,8.3,0.2l10.5-0.1c6.7-0.1,13.3,0,20-0.2c1.4,0,2.8-0.2,4.1-0.4c1.2-0.2,2.3-0.6,3.4-1.2
	c2.2-1.1,4.4-2.4,6.4-3.9c3.6-2.6,6.7-6,9.1-9.8c1.9-3.2,3.5-6.7,5.2-10.1c1.5-3,3.1-6.1,4.6-9.1l4-7.8c0.4-0.7-0.6-1.6-1.2-0.9
	C1044.1,608.3,1039.3,613.3,1034,617.6c-0.8,0.6,0.3,1.7,1.1,1.1c5.3-4.4,10.1-9.3,14.2-14.8l-1.2-0.9c-3.5,6.8-7,13.5-10.3,20.3
	c-1.8,3.7-3.6,7.5-6.4,10.6c-3.5,3.9-7.7,7.1-12.4,9.3c-2.7,1.3-5.8,1.2-8.7,1.2l-9.9,0.1l-20,0.2c-5.6,0-11.5-0.1-15.6-4.5
	c-1.5-1.8-2.8-3.8-3.8-5.9c-1-1.7-2.1-3.4-3.3-5c-1.8-2.3-3.7-4.5-5.3-6.9c-2.8-4.1-5.4-8.5-7.5-13c-2.8-5.8-5.6-11.6-8.7-17.2
	c-1.4-2.6-2.8-5.3-4-8c-0.4-0.8-0.8-1.7-1.1-2.5c0-0.2-0.1-0.5-0.2-0.7c-0.1-0.1,0-0.1,0-0.1s-1.3,0.8-1.3,0.4c0,0.2,0.5,1,0.6,1.2
	c0.4,0.9,0.8,1.7,1.2,2.6c1.3,2.8,2.8,5.6,4.4,8.3c4.8,8.3,10.8,15.7,17.9,22.2c3.4,3.1,7.1,5.9,11.1,8.4c3.9,2.3,8.5,4.3,13.2,3.7
	c4.7-0.8,8.8-3.8,10.8-8.2c2.2-4.8,1.6-10.6,1.6-15.8c0-3.2,0-6.3,0-9.5l-0.5,0.7l7.2-2.1l-1-0.7c-0.4,5.4-0.3,10.8,0.4,16.1
	c0.6,4.2,1.3,8.5,3.9,11.9c4.2,5.4,11.9,7.9,18.5,6.9c6.2-1,11.6-4.6,16.3-8.5C1035.8,618.1,1034.7,617,1034,617.6z"/>
<path d="M1065.4,571.5l0.5-1.5c-1,1.7-4.2,8.1-9.9,19.2c-2.8,5.5-5.2,10.2-7.3,14.2c1-1.3,1.9-2.5,2.8-3.8
	C1054.6,589.7,1062,580.5,1065.4,571.5z"/>
<path d="M1066.1,571.7c0.2-0.5,0.4-1,0.6-1.5c0.3-0.8-1-1.3-1.4-0.6c-2.2,3.8-4.1,7.8-6.1,11.7c-3.7,7.3-7.5,14.5-11.2,21.8
	c-0.2,0.4-0.1,0.8,0.3,1s0.8,0.1,1-0.3c1.1-1.2,2-2.6,2.8-4c0.7-1.4,1-2.9,1.6-4.3c1.3-2.8,2.6-5.6,4.2-8.2
	C1060.9,582.1,1064,577.1,1066.1,571.7c0.4-0.9-1.1-1.3-1.4-0.4c-2.1,5.5-5.3,10.5-8.2,15.6c-1.4,2.6-2.8,5.2-4,7.8
	c-0.6,1.3-1,2.6-1.5,3.9c-0.8,1.6-1.8,3.1-3,4.4l1.3,0.8c3.7-7.2,7.4-14.5,11.2-21.8c2-3.9,3.9-7.8,6.1-11.7l-1.4-0.6
	c-0.2,0.5-0.4,1-0.6,1.5C1064.3,572.2,1065.8,572.6,1066.1,571.7z"/>
<path class="st15" d="M1001.4,492.8c12.8-2.8,26.1-2.8,38.9,0c1.7-3.5,2.4-7.5,2.1-11.4c-0.3-2.5-0.9-5-2.1-7.2
	c-4.3-0.9-15.8-2.8-27.7,3.1c-4.2,2.1-8,4.9-11.3,8.3L1001.4,492.8z"/>
<path class="st15" d="M985.6,494.1c-12.8-2.8-26.1-2.8-38.9,0c-1.7-3.5-2.4-7.5-2-11.4c0.2-2.5,0.9-5,2-7.2
	c4.3-0.9,15.8-2.8,27.7,3.1c4.2,2.1,8,4.9,11.3,8.3L985.6,494.1L985.6,494.1z"/>
<path class="st15" d="M1002.9,424.3c0.6,4.8,0.8,9.7,0.8,14.5c-0.1,7.4-0.2,13.1,1.5,18.1c3.8,11.2,12.8,9.4,14.3,17.2
	c2.2,10.9-15.3,25.2-16.6,26.3c-0.7,0.6-1.4,1.1-2.2,1.5c-4.9,2.3-10.5,2.3-15.4,0c-0.9-0.4-1.7-1-2.4-1.6
	c-1.5-1.2-17.6-13.9-16.1-25.3c1.1-8.1,9.3-6.7,12.8-18.1c1.1-3.7,1.2-8.8,1.5-19c0.2-6.4,0-10.5,0-12.7
	c-0.1-15.9,5.5-37.2,10.5-37.2S1002,409.4,1002.9,424.3z"/>
<path class="st16" d="M1061.6,526c-0.6-1.5-4.5-1.8-19,1c-33.3,6.5-35.4,12.8-51.3,12.9c-5,0-15.7-2.6-37.1-8
	c-22.9-5.7-28.1-8.2-29.5-6c-2.9,4.8,15.1,26.7,38,35.8c10.3,4,21.3,5.7,32.3,5c4.2-0.3,8.3-0.9,12.4-2c12.5-3.3,16.4-8.5,40.9-26.9
	C1057.8,530.8,1062.2,527.8,1061.6,526z"/>
<path class="st14" d="M992.1,550.3l-12.3,1.1c-0.5-0.9-1-2-1.3-3c-0.7-2.5-0.8-5.2-0.2-7.8l13.3-1.2c1.1,2.4,1.5,5.1,1.2,7.7
	C992.8,548.2,992.5,549.3,992.1,550.3z"/>
<path class="st9" d="M1063.7,525c-1.2-1.2-18.8,13.4-22.8,16.1c-2.2,1.5-4.5,2.7-4.5,2.7c-0.7,0.4-0.7,0.3-12.9,7.5
	c-8.9,5.2-10.4,6.2-13.5,7.1c-4.9,1.5-10,1.3-20.2,0.9c-7.9-0.3-12.2-0.5-18.3-1.8c-5.4-1-10.6-2.8-15.4-5.3
	c-1.2-0.7-2.4-1.4-3.6-2.2c-2.1-1.5-4.1-3.1-6-4.9c-7.2-6.9-21.5-20.6-23.5-19.1c-1,0.8,1.3,5.4,3.1,8.3c2.3,3.4,5.1,6.4,8.4,8.8
	c13,10.4,12.6,18.8,25.6,26.2c1.2,0.7,2.5,1.3,3.8,1.7c5.4,2,11,2,22.3,2.1c12.6,0.1,18.9,0.3,26.4-2.1c10.8-3.4,17.7-9.8,27.3-18.8
	c4.3-4,5.9-6.1,9.6-9.8c3.3-3.3,4.5-4,6.7-6.5C1060.1,531.5,1064.4,525.6,1063.7,525z"/>
<path class="st14" d="M1006.3,550.4H994c-0.5-1-0.8-2-1-3.1c-0.5-2.6-0.3-5.3,0.5-7.8h13.4c0.9,2.5,1,5.2,0.5,7.8
	C1007.2,548.3,1006.8,549.4,1006.3,550.4z"/>
<path class="st14" d="M1016.2,546.5c-0.2,0.7-0.5,1.3-1,1.8c-1.2,0.9-2.7,1.3-4.1,1c-1-0.2-1.8-0.7-2.5-1.4
	c-0.2-0.7-0.4-1.4-0.5-2.2c-0.5-2.2-0.6-4.5-0.4-6.8l7.7-0.5c0.6,2.1,0.9,4.2,0.9,6.3C1016.3,545.3,1016.3,545.9,1016.2,546.5z"/>
<path class="st14" d="M977.4,547.2c-0.3,0.7-0.8,1.2-1.4,1.6c-1.3,0.7-2.9,0.7-4.2,0.2c-0.9-0.4-1.7-1-2.2-1.8
	c-0.1-0.7-0.1-1.5-0.1-2.2c0-2.3,0.2-4.6,0.8-6.8l7.7,0.9c0.2,2.1,0.1,4.3-0.2,6.4C977.7,546,977.5,546.6,977.4,547.2z"/>
<path class="st14" d="M1028.6,544.5l-9.2,3.1c-0.7-0.8-1.2-1.7-1.7-2.7c-1.2-2.3-1.9-4.9-2.1-7.5l10-3.4c1.4,2.2,2.4,4.7,2.8,7.2
	C1028.6,542.4,1028.6,543.5,1028.6,544.5z"/>
<path class="st14" d="M967.3,547.2l-9.5-2.2c-0.1-1.1-0.2-2.1-0.1-3.2c0.2-2.6,0.9-5.2,2.1-7.5l10.2,2.3c0.1,2.6-0.3,5.2-1.3,7.7
	C968.4,545.3,967.9,546.3,967.3,547.2z"/>
<path class="st14" d="M956.2,542.9l-7.4-1.7c-0.1-0.9-0.1-1.9,0-2.8c0.2-2.3,0.8-4.6,1.8-6.7l8,1.8c0,2.3-0.4,4.7-1.2,6.8
	C957.1,541.2,956.7,542.1,956.2,542.9z"/>
<path class="st14" d="M1037.8,539.4l-6.9,3.1c-0.6-0.7-1.2-1.5-1.7-2.3c-1.2-2-2.1-4.2-2.5-6.5l7.5-3.4c1.4,1.9,2.5,4,3.1,6.2
	C1037.6,537.5,1037.7,538.5,1037.8,539.4z"/>
<path class="st14" d="M948.2,537.8l-7.6-1.8c-0.1-0.9-0.1-1.9,0-2.8c0.2-2.3,0.8-4.5,1.8-6.5l8.2,1.9c0,2.3-0.4,4.5-1.2,6.7
	C949.1,536.1,948.7,537,948.2,537.8z"/>
<path class="st14" d="M1046.4,534.2l-6.8,3.8c-0.7-0.6-1.3-1.3-1.9-2c-1.4-1.8-2.4-3.9-3-6.1l7.4-4.2c1.6,1.7,2.8,3.6,3.6,5.8
	C1046,532.4,1046.3,533.3,1046.4,534.2z"/>
<path class="st9" d="M1065.7,525c0-0.7-12-1.5-17.8-0.8c-1.5,0.2-3,0.4-3,0.4c-2.7,0.5-4.6,1.2-14.8,3.3
	c-13.7,2.8-16.9,2.8-24.2,5.3h-0.1c0,0-9.3,3.2-11.7,5.3c-0.2,0.1-0.5,0.5-1.1,1c-1,0.8-1.1,0.8-1.1,1c0,0.7,4.2,1.8,9.2,1.8
	c3.6,0,6.6-0.7,12.2-2.5c6.6-2.1,11.5-4.1,12.3-4.5c13.3-5.5,20.8-8.2,30.4-9.5C1062,525.1,1065.7,525.3,1065.7,525z"/>
<path class="st9" d="M993.6,537.9l-1.1-0.9c-0.6-0.5-3.9-1.8-13-4.8c-8.2-1.1-16.2-3.1-24.3-4.4c-10.3-1.7-12.2-2.3-15-2.8
	c0,0-1.5-0.2-3-0.3c-6-0.5-16.4,0.7-16.4,1.2c0,0.3,3.2-0.2,8.3,0.8c0.9,0.2,2.7,0.6,6.3,1.7c1.5,0.5,3.6,1,6,1.7
	c3.8,1,5.7,1.5,8.2,2.1c6.1,1.3,6.7,0.8,10.3,2.1l5.1,2.1c5,2,4.9,2,5.1,2.1c3.4,1.2,3.9,0.8,9.3,2.1c4.8,1.2,4.8,1.6,6.4,1.5
	c2.4-0.2,4.8-0.9,7-1.9l0,0l1-0.6l1-0.6L993.6,537.9z"/>
<ellipse class="st12" cx="857.8" cy="302.6" rx="19.7" ry="25.9"/>
<ellipse class="st12" cx="839.8" cy="320.9" rx="18.4" ry="24.1"/>
<ellipse class="st12" cx="819.8" cy="343.2" rx="17.3" ry="22.4"/>
<ellipse class="st12" cx="809.1" cy="372.4" rx="13.8" ry="19.6"/>
<ellipse class="st12" cx="801.5" cy="398.4" rx="13.3" ry="17.5"/>
<ellipse class="st12" cx="797.6" cy="422" rx="11.7" ry="16.4"/>
<ellipse class="st12" cx="796.3" cy="446.6" rx="10.4" ry="17.1"/>
<ellipse class="st12" cx="797.8" cy="471.3" rx="9.5" ry="13.8"/>
<ellipse class="st12" cx="798.1" cy="484.7" rx="8.7" ry="12.5"/>
<ellipse class="st13" cx="785" cy="500.2" rx="16.4" ry="13.5"/>
<ellipse class="st13" cx="813.2" cy="500.2" rx="16.4" ry="13.5"/>
<path class="st14" d="M772.4,500.7c0.5,5,6.8,7.7,7.2,7.2s-3.7-2.9-4.1-7.2c-0.5-5.1,4.5-9,4.1-9.3S771.8,495,772.4,500.7z"/>
<path class="st8" d="M991.1,390.3c0.8,0,1.5-0.7,1.5-1.5s-0.7-1.5-1.5-1.5s-1.5,0.7-1.5,1.5S990.3,390.3,991.1,390.3z"/>
<path class="st8" d="M993.4,386.9c-1.4-0.6-3.1-0.4-4.2,0.6c-1.1,1.1-1.9,2.4-2.4,3.8c-1.1,2.8-2.1,5.9-0.6,8.7
	c0.7,1.3,2.3,0.7,2.7-0.4c2.1-5,4.5-9.9,5.7-15.2l-2.7,0.4c1,1.5,1.3,3.5,1.8,5.3l1.6,6.1l2.7-1.2c-1.5-2.1-2.9-4.3-4-6.6
	c-0.5-0.7-1.4-0.9-2.1-0.5c-0.4,0.3-0.7,0.7-0.7,1.2v5.4c0,0.8,0.7,1.5,1.5,1.5s1.5-0.7,1.5-1.5v-5.4l-2.8,0.8
	c1.1,2.3,2.5,4.5,4,6.6c0.4,0.6,1.2,0.9,1.9,0.6s1.1-1,0.9-1.8l-1.7-6.4c-0.5-1.9-0.9-4-2-5.7c-0.5-0.7-1.4-0.9-2.1-0.5
	c-0.3,0.2-0.5,0.5-0.6,0.8c-1.2,5.3-3.6,10.2-5.7,15.2l2.7-0.4c-0.9-1.7-0.1-3.8,0.5-5.4c0.3-0.9,0.7-1.8,1.2-2.6
	c0.2-0.3,0.9-1.3,1.4-1.1c0.7,0.4,1.6,0.1,2-0.5C994.3,388.2,994,387.3,993.4,386.9L993.4,386.9z"/>
<path class="st8" d="M986.8,396.9c0.8,0,1.5-0.7,1.5-1.5s-0.7-1.5-1.5-1.5s-1.5,0.7-1.5,1.5S986,396.9,986.8,396.9z"/>
<path class="st8" d="M986.7,397.3c0.8,0,1.5-0.7,1.5-1.5s-0.7-1.5-1.5-1.5s-1.5,0.7-1.5,1.5S985.9,397.3,986.7,397.3z"/>
<path class="st8" d="M986.7,397.1c0.8,0,1.5-0.7,1.5-1.5s-0.7-1.5-1.5-1.5s-1.5,0.7-1.5,1.5S985.9,397.1,986.7,397.1z"/>
<path class="st8" d="M986.8,397.9c0.8,0,1.5-0.7,1.5-1.5s-0.7-1.5-1.5-1.5s-1.5,0.7-1.5,1.5S986,397.9,986.8,397.9z"/>
<path class="st8" d="M986.7,397.2c0.8,0,1.5-0.7,1.5-1.5s-0.7-1.5-1.5-1.5s-1.5,0.7-1.5,1.5S985.8,397.2,986.7,397.2L986.7,397.2z"
	/>
<path class="st8" d="M986.8,397.8c0.8,0,1.5-0.7,1.5-1.5s-0.7-1.5-1.5-1.5s-1.5,0.7-1.5,1.5S986,397.8,986.8,397.8z"/>
<path class="st8" d="M986.9,399.3c0.8,0,1.5-0.7,1.5-1.5s-0.7-1.5-1.5-1.5s-1.5,0.7-1.5,1.5S986,399.3,986.9,399.3L986.9,399.3z"/>
<path class="st8" d="M997.1,398.6c0.8,0,1.5-0.7,1.5-1.5s-0.7-1.5-1.5-1.5l0,0c-0.8,0-1.5,0.7-1.5,1.5S996.3,398.6,997.1,398.6z"/>
<path class="st8" d="M997.3,399.4c0.8,0,1.5-0.7,1.5-1.5s-0.7-1.5-1.5-1.5l0,0c-0.8,0-1.5,0.7-1.5,1.5S996.4,399.4,997.3,399.4z"/>
<path class="st8" d="M997,400.6c0.8,0,1.5-0.7,1.5-1.5s-0.7-1.5-1.5-1.5s-1.5,0.7-1.5,1.5S996.2,400.6,997,400.6z"/>
<path class="st8" d="M997.1,400.2c0.8,0,1.5-0.7,1.5-1.5s-0.7-1.5-1.5-1.5s-1.5,0.7-1.5,1.5S996.3,400.2,997.1,400.2z"/>
<path class="st8" d="M997.2,399.6c0.8,0,1.5-0.7,1.5-1.5s-0.7-1.5-1.5-1.5s-1.5,0.7-1.5,1.5S996.4,399.6,997.2,399.6z"/>
<path class="st8" d="M997.3,399.3c0.8,0,1.5-0.7,1.5-1.5s-0.7-1.5-1.5-1.5l0,0c-0.8,0-1.5,0.7-1.5,1.5S996.4,399.3,997.3,399.3z"/>
<path class="st8" d="M997,401.1c0.8,0,1.5-0.7,1.5-1.5s-0.7-1.5-1.5-1.5s-1.5,0.7-1.5,1.5S996.2,401.1,997,401.1z"/>
<path class="st8" d="M997.2,401.4c0.8,0,1.5-0.7,1.5-1.5s-0.7-1.5-1.5-1.5s-1.5,0.7-1.5,1.5S996.3,401.4,997.2,401.4z"/>
<path class="st8" d="M997.2,401c0.8,0,1.5-0.7,1.5-1.5s-0.7-1.5-1.5-1.5s-1.5,0.7-1.5,1.5S996.3,401,997.2,401z"/>
<path class="st8" d="M997.2,400.5c0.8,0,1.5-0.7,1.5-1.5s-0.7-1.5-1.5-1.5s-1.5,0.7-1.5,1.5S996.3,400.5,997.2,400.5z"/>
<path class="st8" d="M997.2,400c0.8,0,1.5-0.7,1.5-1.5s-0.7-1.5-1.5-1.5s-1.5,0.7-1.5,1.5S996.3,400,997.2,400z"/>
<path d="M1053.9,586.8c-6.3,10.4-12.3,21-19.4,30.9l2.6,1.5c4.5-7.8,9-15.6,14-23.2c4.8-7.3,8.3-15.3,13-22.7c1-1.6-1.6-3.1-2.6-1.5
	c-4.7,7.4-8.2,15.4-13,22.7c-5,7.5-9.5,15.3-14,23.2c-1,1.7,1.5,3,2.6,1.5c7.1-9.9,13.1-20.5,19.4-30.9
	C1057.5,586.7,1054.9,585.1,1053.9,586.8L1053.9,586.8z"/>
<path d="M1044.5,609.9c4.1-8.3,8.2-16.7,13.6-24.3c1.1-1.6-1.5-3.1-2.6-1.5c-5.4,7.6-9.5,16-13.6,24.3
	C1041.1,610.1,1043.7,611.7,1044.5,609.9z"/>
<path d="M923.4,565.5c3.3,6.5,6.7,13,10,19.5c3.3,6.2,6.1,12.6,8.3,19.3c0.6,1.8,3.5,1.1,2.9-0.8c-2.3-6.7-5.1-13.3-8.4-19.5
	c-3.4-6.7-6.8-13.3-10.2-19.9C925.1,562.3,922.5,563.9,923.4,565.5L923.4,565.5z"/>
<path class="st17" d="M892.3,398.5c0.1-0.4,0.2-1,0.2-1s0.1-0.9,0.2-1.4c0.2-1,16.4-12.5,41.1-8.2c18.6,3.3,40.5,15.3,39.1,23.7
	s-25.3,12.6-44.5,9C904,416,892.1,399.5,892.3,398.5z"/>
<path class="st11" d="M891.3,396.6c0.5-4,3.2-6.6,7.8-11c3.6-3.4,7.8-6.1,12.4-8.1c7.8-3.5,16.9-7.7,28.3-5.5
	c10.5,2.6,19.7,8.6,26.2,17.2c3,4.3,5.2,9,6.7,14c0.8,2.6,1.5,5.2,2,7.9c-2.3-2.1-4.8-4-7.3-5.8c-1.6-1.1-2.9-2-12.6-7.8
	c-5.8-3.5-6.2-3.7-6.9-4c-3.5-1.6-6.3-2.2-12-3.4c-2.8-0.7-5.7-1.1-8.5-1.4c-2.5-0.2-5-0.1-7.5,0.2c-1.3,0.2-2.6,0.5-3.9,0.8
	l-3.9,0.8c-2.7,0.9-5,1.5-6.5,1.8c-2.8,0.7-4.2,0.8-7.7,1.6c-2.2,0.5-4,1-5.2,1.3l-0.2,1.4c0,0-0.2,1.4-0.2,1.5
	c-0.1,0.7,2.8,3.7,15,13c6.8,4.8,14.7,8,23,9.3c9.3,1.4,16.6-0.3,23.4-1.8c7.3-1.6,14.4-4.1,21.1-7.4c-6.9,6.6-15,11.7-23.8,15.2
	c-7.5,2.9-15.2,5.9-25.2,3.7c-9.4-2.1-15.5-7.6-21-12.7C898.2,411.4,890.4,404.2,891.3,396.6z"/>
<path class="st18" d="M947.3,399.3c0.1-1.1,0.4-4.4-1.2-6.3c-0.7-0.9-1.4-1-4.5-1.8c-5.6-1.5-4.7-1.4-6.8-1.8
	c-2.2-0.5-4.5-0.8-6.8-0.9c-2.5-0.1-3.8-0.1-4.9,0.4c-3.3,1.5-5.4,6.6-5.7,10.7c-0.5,7.7,6.8,15.9,14.7,15.8
	C940.7,415.3,946.8,405.9,947.3,399.3z"/>
<ellipse transform="matrix(0.2745 -0.9616 0.9616 0.2745 291.7954 1187.4824)" cx="932.8" cy="400.4" rx="6.7" ry="6.5"/>
<path class="st17" d="M1093.6,399c-0.1-0.4-0.2-1-0.2-1s-0.1-0.9-0.2-1.4c-0.2-1-16.4-12.5-41.1-8.2c-18.6,3.3-40.5,15.3-39.1,23.7
	s25.3,12.6,44.5,9C1081.9,416.5,1093.8,400.1,1093.6,399z"/>
<path class="st11" d="M1094.6,397.1c-0.5-4-3.2-6.6-7.8-11c-3.6-3.4-7.8-6.1-12.4-8.1c-7.8-3.5-16.9-7.7-28.3-5.5
	c-10.5,2.6-19.7,8.6-26.2,17.2c-3,4.3-5.2,9-6.7,14c-0.8,2.6-1.5,5.2-2,7.9c2.3-2.1,4.7-4,7.3-5.8c1.6-1.1,2.9-2,12.6-7.8
	c5.8-3.5,6.2-3.7,6.9-4c3.5-1.6,6.3-2.2,12-3.4c2.8-0.7,5.7-1.1,8.5-1.4c2.5-0.2,5-0.1,7.5,0.2c1.3,0.2,2.6,0.5,3.9,0.8l3.9,0.8
	c2.7,0.9,5,1.5,6.5,1.8c2.8,0.7,4.3,0.8,7.7,1.6c2.2,0.5,4,1,5.2,1.3l0.2,1.4c0,0,0.2,1.4,0.2,1.5c0.1,0.7-2.8,3.7-15,13
	c-6.8,4.8-14.7,8-23,9.3c-9.3,1.4-16.6-0.3-23.4-1.8c-7.3-1.6-14.4-4.1-21.1-7.4c6.9,6.5,14.9,11.7,23.8,15.2
	c7.5,2.9,15.2,5.9,25.2,3.7c9.4-2.1,15.6-7.6,21-12.7C1087.7,412,1095.5,404.8,1094.6,397.1z"/>
<path class="st18" d="M1038.6,399.8c-0.1-1.1-0.4-4.4,1.2-6.3c0.7-0.9,1.4-1,4.5-1.8c5.6-1.5,4.7-1.4,6.8-1.8
	c2.2-0.5,4.5-0.8,6.8-0.9c2.5-0.1,3.8-0.1,4.8,0.4c3.3,1.5,5.4,6.6,5.7,10.7c0.4,7.7-6.8,15.9-14.7,15.8
	C1045.2,415.8,1039.2,406.4,1038.6,399.8z"/>
<ellipse transform="matrix(0.9616 -0.2745 0.2745 0.9616 -69.5903 304.4484)" cx="1053" cy="400.9" rx="6.5" ry="6.7"/>
<path class="st19" d="M990.8,512.8c-1.7-0.9-3.5-1.8-5.3-2.7c-24.4-11.8-49.1-14.3-71.3-12.5c-0.7,4.4-1.4,8.8-2.1,13.2
	c21,9.4,44.9,15.7,71,15.4c1.9,0,3.7-0.1,5.6-0.2c0.6-0.8,1.1-1.6,1.5-2.5c0.9-2.1,1.3-4.4,1.2-6.7
	C991.5,515.5,991.2,514.1,990.8,512.8z"/>
<path class="st19" d="M1080.4,491.2c-4.1,0.7-7.4,1.3-9.4,1.6c-41.6,6.9-55.9,8-73.6,17.4c-2.3,1.2-4.2,2.3-4.8,2.7
	c-0.5,2.2-0.5,4.5,0,6.7c0.4,1.9,1.2,3.7,2.4,5.3c1.6,0,3.2,0,4.8,0c23.6-0.3,51.7-5.3,83-20.6
	C1082,499.9,1081.2,495.6,1080.4,491.2z"/>
<path d="M1081,517.1c0.9-6.2,3.6-12.5,2-18.8c-0.7-2.7-2.3-5.8-4.9-7.1c-2.3-1.2-5-0.8-7.3,0.2c-2.7,1.3-5.2,2.8-7.5,4.6
	c-1.6,1.1-0.1,3.7,1.5,2.6c3.6-2.5,10.4-8.3,14-2.8c3.9,6.2,0.3,13.9-0.6,20.4c-0.2,0.8,0.2,1.6,1,1.8
	C1080,518.3,1080.8,517.9,1081,517.1L1081,517.1z"/>
<path d="M1082.2,510.8c-0.7-2.5-1.9-4.9-3.5-7c-0.6-0.6-1.6-0.6-2.1,0c-0.2,0.2-0.3,0.4-0.4,0.6c-0.9,5.1-1.3,10.2-2.4,15.2
	c-0.8,4-1.9,8.1,1,11.5c1.2,1.5,3.4-0.7,2.1-2.1c-2.3-2.8-0.4-7.2,0.1-10.3c0.8-4.5,1.2-9,2-13.5l-2.5,0.7c1.3,1.7,2.2,3.6,2.8,5.7
	c0.2,0.8,1.1,1.2,1.9,1C1081.9,512.4,1082.3,511.6,1082.2,510.8L1082.2,510.8z"/>
<path d="M1085.7,503.3c-0.2-4.5-1.3-9.1-4.6-12.3c-0.6-0.6-1.6-0.6-2.1,0c-0.4,0.4-0.5,0.9-0.4,1.4c3.5,15.5-3.1,30.8-6.6,45.7
	c-0.4,1.9,2.4,2.7,2.9,0.8c3.6-15.5,10.3-31.2,6.6-47.3l-2.5,1.5c2.7,2.7,3.6,6.5,3.7,10.2C1082.8,505.2,1085.8,505.2,1085.7,503.3
	L1085.7,503.3z"/>
<path d="M1072.6,505.9c-0.2,17.3-2.6,34.6-7.3,51.2c-1.3,4.7-2.8,9.3-4.5,13.8c-0.7,1.8,2.2,2.6,2.9,0.8c6-16.4,9.7-33.5,11.2-50.9
	c0.4-4.9,0.7-9.9,0.7-14.9c0-0.8-0.7-1.5-1.5-1.5S1072.6,505.1,1072.6,505.9L1072.6,505.9L1072.6,505.9z"/>
<path d="M922.2,558.6c0.9-6.7-2.6-12.6-5.5-18.4c-1.6-2.9-2.8-6-3.5-9.2c-0.7-4.2-1-8.5-0.7-12.8c0.2-4.9,0.8-9.8,1.2-14.7
	c0.2-1.8-2.4-1.9-2.9-0.4c-2,5.6-3.2,11.4-3.8,17.3c-0.2,2,2.8,1.9,3,0c0.5-4,0.6-8,1.4-11.9c0.2-1.2,0.6-2.5,1.1-3.6
	c0.2-0.4,0.6-0.9,0.8-1.2s0.2,0.1-0.1-0.1c-0.7-0.3-0.2,0.1,0,0.5c0.9,1.7,3.5,0.2,2.6-1.5c-0.8-1.5-2.3-2.6-4-1.5
	c-1.4,0.9-2.1,2.6-2.6,4.1c-1.7,4.8-1.6,10.3-2.2,15.3h3c0.5-5.6,1.8-11.2,3.6-16.5l-3-0.4c-0.8,8.5-1.9,17.1-0.8,25.6
	c0.4,3.5,1.4,6.8,2.9,10c1.4,3,3.1,5.8,4.5,8.8c1.7,3.3,2.4,7,2,10.7C918.9,560.4,921.9,560.4,922.2,558.6L922.2,558.6z"/>
<path d="M913.4,546.7c2.1,4.7,4.4,9.4,6.6,14.1c0.4,0.7,1.3,1,2.1,0.5c0.7-0.4,0.9-1.3,0.5-2c-2.1-4.7-4.4-9.4-6.6-14.1
	c-0.4-0.7-1.3-0.9-2-0.5C913.2,545.1,913,546,913.4,546.7L913.4,546.7z"/>
<path d="M918.6,500.5c-1.8-2.3-4.7-3.3-7.3-1.7c-2.4,1.4-4,4.1-5,6.5c-3.1,7.3-1.7,15.9,0.3,23.3c0.3,0.8,1.2,1.2,1.9,0.9
	s1.1-1,1-1.7c-1.8-6.4-3-13.5-1-20c0.6-2.1,1.8-4.1,3.3-5.7c0.6-0.6,1.3-1.1,2.1-1.2c1.1-0.1,2,0.9,2.6,1.7
	C917.7,504.1,919.8,502,918.6,500.5L918.6,500.5z"/>
<path d="M915,499.9c-1.3-1.4-3.2-2.1-5.1-1.9c-1.5,0.3-2.8,1.1-3.6,2.4c-2.3,2.9-3.4,6.7-4.1,10.2c-0.4,1.7-0.5,3.4-0.5,5.1
	c0.1,1.9,3.1,1.9,3,0c0-0.5,0-1.1,0-1.6c0-0.3,0.1-0.7,0.1-1v-0.2c0-0.2,0,0.3,0,0s0-0.4,0.1-0.6c0.3-1.6,0.6-3.2,1.1-4.7
	c0.4-1.5,1-2.9,1.8-4.2c0.2-0.3,0.4-0.6,0.6-0.9s-0.2,0.2,0,0l0.2-0.2l0.4-0.4c0.1-0.1,0.2-0.2,0.3-0.3l0.2-0.1
	c0.2-0.1-0.2,0.1-0.1,0l0.3-0.2c0,0,0.1-0.1,0.2-0.1c0.3-0.2-0.1,0,0,0l0.4-0.1h0.2c0.3-0.1-0.3,0,0,0h0.5c-0.4,0,0,0,0.2,0
	s0.5,0.2,0.2,0c0.2,0.1,0.4,0.2,0.5,0.3c0.4,0.2,0.7,0.4,1,0.7C914.3,503.2,916.4,501.1,915,499.9L915,499.9z"/>
<path d="M902.8,514.1c3.8,9,7.6,18,11,27.1l2.5-1.5c-0.4-0.7-0.6-1.4-0.7-2.2c-0.1-0.9-0.4-1.7-0.8-2.5c-0.9-1.9-2.1-3.4-2.6-5.5
	c-1-4.3-1.2-9-1.5-13.4c-0.2-1.9-3.2-1.9-3,0c0.2,2.6,0.4,5.2,0.7,7.9c0.2,2.3,0.5,4.5,1,6.8c0.3,1,0.6,2,1.1,2.9
	c0.5,1,1.2,1.9,1.7,2.9c0.8,1.8,0.5,3.7,1.9,5.3c0.6,0.6,1.6,0.6,2.1,0c0.4-0.4,0.5-0.9,0.4-1.4c-3.6-9.3-7.5-18.6-11.4-27.8
	c-0.4-0.7-1.4-0.9-2.1-0.5C902.6,512.5,902.3,513.4,902.8,514.1L902.8,514.1z"/>
<path d="M919,552c2.8,8,6.3,15.7,10.3,23.2c0.8,1.5,3.2,0.5,2.8-1.2c-2.5-9-6.1-17.6-10.8-25.6c-0.4-0.7-1.3-1-2.1-0.5
	c-0.7,0.4-1,1.3-0.5,2.1c4.6,7.8,8.1,16.2,10.5,24.9l2.7-1.2c-3.9-7.2-7.2-14.7-10-22.5C921.2,549.4,918.3,550.2,919,552L919,552z"
	/>
<path d="M1081,490.1c0.2-0.7,0.1-1.4-0.3-1.9c-0.3-0.5-0.7-0.9-1.2-1.1c-0.4-0.2-0.7-0.3-1.1-0.3c-0.3,0-0.6,0-0.9,0.1
	c-0.5,0.1-1,0.4-1.4,0.6c-0.7,0.4-1,1.3-0.5,2c0.2,0.3,0.5,0.6,0.9,0.7s0.8,0,1.2-0.1c0.2-0.1,0.5-0.2,0.7-0.4l-0.4,0.1
	c0.2-0.1,0.4-0.1,0.6-0.2h-0.4c0.1,0,0.3,0,0.4,0h-0.4l0.2,0.1l-0.4-0.1c0.1,0,0.2,0.1,0.3,0.2l-0.3-0.2c0.1,0.1,0.2,0.2,0.2,0.2
	l-0.2-0.3c0.1,0.1,0.1,0.2,0.2,0.3l-0.2-0.4c0,0.1,0.1,0.2,0.1,0.3l-0.1-0.4c0,0.1,0,0.2,0,0.2l0.1-0.4v0.1c-0.1,0.4,0,0.8,0.2,1.2
	c0.2,0.3,0.5,0.6,0.9,0.7s0.8,0.1,1.2-0.1C1080.7,490.8,1080.9,490.5,1081,490.1L1081,490.1z"/>
<path d="M1082.7,499.7c-3.9,15.8-8.2,31.6-12.9,47.2c-0.6,1.8,2.3,2.6,2.9,0.8c4.7-15.6,9-31.4,12.9-47.2
	C1086.1,498.6,1083.2,497.8,1082.7,499.7z"/>
<path d="M1070.3,544.4c-1.1,3.5-2.4,7-3.7,10.5l-1.9,5.2l-0.9,2.6l-0.4,1.2c-0.1,0.2-0.7,1.4-0.2,1.1l1.2-0.2l-0.2-0.1
	c-0.8-0.2-1.6,0.2-1.8,1c-0.2,0.8,0.2,1.6,1,1.8c2.2,0.9,2.9-2.8,3.4-4.2l2.2-6c1.5-4.1,3.1-8.1,4.4-12.3
	C1073.7,543.3,1070.8,542.6,1070.3,544.4L1070.3,544.4z"/>
<path d="M1065.6,494.9c0.8,0,1.5-0.7,1.5-1.5s-0.7-1.5-1.5-1.5s-1.5,0.7-1.5,1.5S1064.8,494.9,1065.6,494.9z"/>
<path d="M1068.6,489l-4.7,1.9l1.2,2.7c2.8-1.4,5.7-2.6,8.7-3.4c1.3-0.5,2.7-0.8,4.1-0.9c1.3-0.1,1.8,0.5,2.2,1.8
	c0.2,0.8,1,1.2,1.8,1s1.2-1.1,1-1.9c-0.6-1.7-1.4-3.2-3.2-3.7s-3.6,0-5.2,0.4c-3.8,0.9-7.5,2.3-11,4.1c-1.5,0.8-0.4,3.4,1.2,2.7
	l4.7-1.9c0.8-0.3,1.2-1.1,1-1.9S1069.3,488.7,1068.6,489L1068.6,489z"/>
<path d="M1079.3,508.5c0.8,0,1.5-0.7,1.5-1.5s-0.7-1.5-1.5-1.5s-1.5,0.7-1.5,1.5S1078.5,508.5,1079.3,508.5z"/>
<path d="M907.5,508.2c0,4.2-0.4,8.3-1.2,12.4h2.9c-0.5-2.5-0.7-5.1-0.5-7.7c0.1-1.2,0.3-2.4,0.6-3.6c0.2-0.7,0.5-2.7,1.2-3l-0.8,0.2
	l0,0c1.4,0.3,2.7-1.5,1.5-2.5c-2-1.7-4.7-0.7-6,1.5s-0.9,5.1-2.1,7.4l2.7,0.4c-0.3-2.4,0.5-4.8,2.2-6.4c1.9-1.9,4.6-2.6,7.1-3.3
	c0.8-0.3,1.2-1.2,0.9-1.9c-0.3-0.7-1-1.1-1.7-1c-3.2,0.9-6.5,2-8.8,4.5c-2.2,2.4-3.2,5.8-2.6,9c0.2,0.8,1.1,1.3,1.9,1
	c0.4-0.1,0.7-0.3,0.9-0.7c0.7-1.7,1.2-3.6,1.5-5.5c0.1-0.8,0.4-1.6,0.8-2.3c0.2-0.2,0.7-0.8,1-0.5l1.5-2.5c-1.7-0.4-2.8,0.9-3.3,2.4
	c-0.6,1.6-1,3.3-1.3,5c-0.5,3.4-0.4,7,0.3,10.4c0.2,0.8,1.1,1.2,1.9,1c0.5-0.1,0.9-0.5,1-1c0.8-4.4,1.3-8.8,1.3-13.2
	c0-0.8-0.7-1.5-1.5-1.5S907.4,507.4,907.5,508.2L907.5,508.2z"/>
<path d="M915.6,498.6c-0.1-0.3-0.3-0.5-0.5-0.7l-0.7,2.5l0.2-0.1C915.3,500.1,915.8,499.4,915.6,498.6c0-0.6-0.6-1.2-1.4-1.2
	c-1.2,0-2.4,0.1-3.5,0.3c-1.2,0.3-2.2,1.2-2.6,2.4c-1.1,2.1-1.8,4.4-2.1,6.7c0,0.8,0.7,1.5,1.5,1.5l0,0c0.8,0,1.5-0.7,1.5-1.5
	c0-0.5,0,0.2,0-0.1l0.1-0.4c0-0.2,0.1-0.5,0.2-0.7c0.1-0.5,0.2-0.9,0.4-1.4s0.3-0.9,0.5-1.3c0,0,0.2-0.4,0.1-0.2s0.1-0.2,0.1-0.2
	l0.3-0.6c0.1-0.2,0.2-0.4,0.3-0.6l0.1-0.2c0,0,0.3-0.4,0-0.1l0.2-0.2c0.2-0.2-0.2,0.1,0.1-0.1s0.1,0,0,0l0.3-0.1c0.2,0,0.2,0,0,0
	c0.1,0,0.2,0,0.3,0l0.8-0.1l1.6-0.1l-0.4-2.9l-0.2,0.1c-0.8,0.2-1.3,1.1-1,1.9c0.1,0.2,0.2,0.5,0.4,0.6c0.2,0.2-0.1-0.2,0,0.1
	c0.4,0.7,1.3,0.9,2,0.5S916.1,499.4,915.6,498.6L915.6,498.6z"/>
<path d="M902,515c0,1.2,0.3,2.4,0.8,3.5c0.5,0.9,0.8,1.8,1,2.8l2.8-0.8c-0.5-0.8-0.9-1.6-1.2-2.5c-0.2-0.4-0.3-0.9-0.5-1.4
	c-0.1-0.2-0.1-0.5-0.2-0.7s0,0-0.1,0.1H902c0.3,0.5,0.6,1,0.8,1.4c0.2,0.2,0.3,0.5,0.4,0.8c0,0.3,0,0.5,0,0.8s0,0.7,0.1,1
	c0.1,0.5,0.3,1,0.4,1.4c0.3,1,0.6,2,0.9,3s0.5,2.3,1.8,2.8c0.8,0.2,1.6-0.2,1.8-1s-0.3-1.6-1.1-1.8H907l0.7,0.4
	c0,0.1,0.1,0.1,0.1,0.2l-0.1-0.4l-0.2-0.6c-0.1-0.5-0.3-0.9-0.4-1.4c-0.3-0.9-0.5-1.8-0.8-2.7s0-1.7-0.3-2.6
	c-0.4-0.9-0.8-1.8-1.4-2.6c-0.4-0.7-1.4-0.9-2.1-0.5c-0.2,0.1-0.4,0.3-0.5,0.5c-0.7,1.2-0.1,2.7,0.4,3.9s1,2.4,1.7,3.5
	c0.4,0.6,1,0.9,1.7,0.7c0.6-0.2,1.1-0.8,1.1-1.4c-0.2-1.2-0.5-2.5-1.1-3.6c-0.1-0.2-0.2-0.3-0.2-0.5c-0.1-0.3-0.2-0.5-0.3-0.8
	c-0.2-0.5-0.2-1-0.2-1.5c0-0.8-0.7-1.5-1.5-1.5C902.7,513.5,902,514.2,902,515z"/>
<path d="M905.4,526.6c0.6,1.6,1.3,3.2,1.9,4.8c0.4,1.5,1.3,2.9,2.4,4.1c0.6,0.6,1.6,0.5,2.1-0.1c0.3-0.4,0.5-0.9,0.4-1.4l-1.7-6.9
	c-0.2-0.8-1.1-1.2-1.8-1c-0.8,0.3-1.2,1.1-1,1.8c0.2,1.1,0.3,2.2,0.4,3.4l2.8-0.8l-3-5.2c-0.4-0.6-1.2-0.9-1.9-0.6
	c-0.7,0.3-1.1,1-0.9,1.8c0.8,2.2,1.7,4.3,2.7,6.4c0.5,1,1,2,1.5,3s1,1.9,1.6,2.8c0.4,0.7,1.3,0.9,2,0.5s0.9-1.3,0.5-2
	c-0.6-0.9-1.1-1.8-1.6-2.8c-0.5-0.9-0.9-1.9-1.4-2.8c-0.9-2-1.7-3.9-2.5-5.9l-2.7,1.2l3,5.2c0.4,0.7,1.4,0.9,2.1,0.5
	c0.4-0.3,0.7-0.7,0.7-1.3c-0.1-1.4-0.3-2.8-0.5-4.2l-2.9,0.8l1.7,6.9l2.5-1.5c-0.8-0.9-1.5-2-1.8-3.2c-0.6-1.5-1.2-2.9-1.7-4.4
	c-0.3-0.8-1.1-1.2-1.8-1c-0.8,0.2-1.2,1.1-1,1.8L905.4,526.6z"/>
<path d="M910,536.5c0.2,2.8,1.8,5.3,3,7.9c0.6,1.3,1.2,2.7,1.8,4c0.5,1.3,1.1,2.5,1.9,3.7c0.6,0.6,1.5,0.6,2.1,0s0.6-1.5,0-2.1
	c-0.3-0.4-0.5-0.9-0.7-1.3c-0.3-0.7-0.6-1.3-0.8-2c-0.5-1.2-1-2.3-1.6-3.5s-1.1-2.2-1.6-3.3c-0.5-1-0.9-2.1-1-3.2
	c0-0.8-0.7-1.5-1.5-1.5C910.8,535,910.1,535.7,910,536.5L910,536.5z"/>
<path d="M921,553.3c-0.4-1.9-1-3.9-1.8-5.7c-0.4-1-0.8-1.9-1.3-2.8c-0.4-1.1-1.1-1.9-2.1-2.4c-0.8-0.2-1.6,0.3-1.8,1
	c-0.2,0.8,0.2,1.6,1,1.8c-0.4-0.2-0.4-0.3-0.2-0.1c-0.1-0.1-0.1-0.1,0,0.1s0.2,0.4,0.3,0.6c0.2,0.4,0.4,0.7,0.5,1.1
	c0.4,0.8,0.7,1.4,0.9,2.1c0.6,1.6,1.1,3.3,1.5,5c0.2,0.8,1,1.3,1.8,1.1C920.7,555,921.2,554.2,921,553.3
	C920.9,553.3,920.9,553.3,921,553.3L921,553.3z"/>
<path d="M916.1,545.3l-1.3-3.4c-0.4-1-0.7-2.1-1-3.2c-0.2-0.8-1-1.3-1.8-1c-0.8,0.2-1.3,1.1-1,1.8c0.3,1.1,0.6,2.2,1,3.2
	c0.4,1.1,0.8,2.3,1.2,3.4c0.3,0.8,1.1,1.2,1.8,1C915.8,546.9,916.3,546.1,916.1,545.3L916.1,545.3z"/>
<path d="M908.8,535.2c0.6,2.3,1.4,4.6,2.4,6.8c0.4,1,0.8,2,1,3c0.2,1.2,0.9,2.8,2.4,2.6c0.8,0,1.5-0.7,1.5-1.5s-0.7-1.5-1.5-1.5
	c0.3,0,0.5,0.2,0.6,0.5c0-0.1-0.1-0.2-0.1-0.3c0-0.2-0.1-0.3-0.1-0.5c-0.1-0.5-0.2-0.9-0.4-1.4c-0.3-0.9-0.8-1.8-1.1-2.7
	c-0.8-1.9-1.4-3.8-1.9-5.8c-0.2-0.8-1.1-1.2-1.9-1C909.1,533.6,908.6,534.4,908.8,535.2L908.8,535.2z"/>
<path d="M913,546.7c1,2.4,2,4.8,3,7.2c0.4,1.1,0.9,2.2,1.5,3.2c0.6,0.9,1.1,1.9,1.4,2.9l2.8-1.2c-1.7-3-3.8-6.2-3.9-9.8l-2.9,0.4
	c0.7,2.9,1.7,5.7,2.8,8.5c0.6,1.3,1.2,2.6,2,3.8c0.7,1.3,1.7,2.3,2.9,3c0.8,0.4,1.7,0.1,2-0.7c0.2-0.4,0.2-0.9,0-1.3
	c-0.2-0.5-0.3-0.9-0.3-1.4c-0.1-0.5-0.3-1.1-0.4-1.6c-0.3-1.1-0.8-2.1-1.2-3.2c-0.4-0.7-1.3-1-2-0.6s-1,1.3-0.6,2c0,0,0,0.1,0.1,0.1
	c0.5,1,0.8,2,1.1,3c0.2,1.1,0.5,2.2,0.9,3.2l2-2c-0.9-0.5-1.7-1.4-2.1-2.4c-0.7-1.1-1.2-2.3-1.7-3.5c-1-2.5-1.8-5.1-2.5-7.6
	c-0.1-0.8-0.9-1.4-1.7-1.3s-1.4,0.9-1.3,1.7c0.2,4.2,2.4,7.7,4.3,11.3c0.5,0.7,1.4,0.9,2.1,0.5c0.5-0.3,0.8-1,0.7-1.6
	c-0.6-2.2-2.1-4-2.9-6.1c-1-2.4-2-4.8-3-7.2c-0.2-0.8-1-1.2-1.8-1s-1.2,1.1-1,1.8L913,546.7z"/>
<path d="M920.2,562.8c1.3,2.2,2.5,4.5,3.7,6.7c0.5,1.1,1,2.2,1.5,3.3s1,2.3,2.4,2.8c0.8,0.2,1.6-0.3,1.8-1c0.2-0.8-0.2-1.6-1-1.8
	c0.2,0.1,0.2,0.2,0.1,0s-0.2-0.4-0.3-0.6c-0.2-0.4-0.5-1.1-0.7-1.6c-0.5-1-1-2.1-1.5-3.1c-1.1-2.1-2.2-4.1-3.3-6.1
	c-0.4-0.7-1.3-1-2.1-0.5C920,561.2,919.8,562.1,920.2,562.8L920.2,562.8z"/>
<path d="M926,573.7c0,1,0.2,1.9,0.6,2.8l1.1,2.6c0.7,1.6,1.1,3.7,2.6,4.7c0.7,0.4,1.7,0.1,2.1-0.6c0.2-0.3,0.2-0.7,0.1-1.1
	c-0.6-1.6-1-3.2-1.2-4.8l-2.9,0.4l3.4,8.6c0.3,0.8,1.1,1.2,1.8,1c0.8-0.2,1.3-1,1-1.8l-3.4-8.6c-0.2-0.7-0.9-1.2-1.7-1.1
	c-0.7,0.1-1.3,0.7-1.3,1.5c0.2,1.9,0.7,3.8,1.3,5.6l2.2-1.7c0.1,0,0.1,0.1,0,0s-0.2-0.3-0.2-0.4s-0.2-0.5-0.3-0.8l-0.9-2.1l-0.9-2.1
	c-0.3-0.6-0.5-1.3-0.5-2c0-0.8-0.7-1.5-1.5-1.5C926.7,572.1,926,572.8,926,573.7L926,573.7z"/>
<path d="M932.2,586.5c0.6,1.8,1.3,3.5,2.3,5.1c0.8,1.7,1.6,3.5,2.4,5.2c0.4,0.7,1.3,1,2,0.5c0.7-0.4,0.9-1.3,0.5-2
	c-0.8-1.7-1.5-3.4-2.3-5.1c-0.9-1.4-1.6-3-2.1-4.6c-0.2-0.8-1-1.3-1.8-1C932.5,585,932,585.8,932.2,586.5L932.2,586.5z"/>
<path d="M932,574.5c-0.1-0.1-0.1,0,0.1,0.2c0.1,0.2,0.1,0.3,0.1,0.2v0.4c0-0.1,0-0.2,0-0.2l-3,0.4c0.4,0.9,0.7,1.8,0.9,2.7
	c0.1,0.5,0.2,0.9,0.3,1.4s0.3,1.1,0.5,1.5c0.4,0.7,1.3,0.9,2,0.5s0.9-1.3,0.5-2l-0.1-0.1c0.1,0.2,0.1,0.3,0.1,0.1l-0.1-0.2
	c0-0.2-0.1-0.4-0.1-0.7c-0.1-0.5-0.2-0.9-0.4-1.4C932.6,576.4,932.3,575.5,932,574.5c-0.1-0.3-0.3-0.6-0.7-0.8
	c-0.3-0.2-0.7-0.2-1-0.2s-0.6,0.2-0.9,0.4c-0.3,0.3-0.4,0.7-0.4,1.1c-0.1,0.6,0.2,1.2,0.7,1.7c0.3,0.3,0.7,0.4,1.1,0.4
	c0.8,0,1.5-0.7,1.5-1.5c0-0.4-0.2-0.8-0.4-1.1L932,574.5L932,574.5z"/>
<path d="M1051.8,592.2c-0.3,0.9-0.8,1.8-1.4,2.6c-0.6,1-1.1,1.9-1.6,2.9c-1.1,2-2,4-2.9,6.1c-0.4,0.7-0.1,1.6,0.5,2
	c0.7,0.4,1.6,0.1,2-0.5c0.9-2.1,1.9-4.2,3-6.2c0.5-1,1.1-2,1.6-2.9c0.7-1,1.2-2,1.6-3.1c0.2-0.8-0.2-1.6-1-1.8
	C1052.9,590.9,1052.1,591.4,1051.8,592.2L1051.8,592.2z"/>
<path d="M1060.2,576.8c-0.8,1.3-1.4,2.7-1.9,4.2c0,0-0.2,0.6-0.1,0.3c-0.1,0.2-0.2,0.3-0.2,0.5c-0.2,0.3-0.3,0.7-0.5,1
	c-0.4,0.7-0.7,1.3-1.2,1.9c-0.4,0.7-0.2,1.6,0.5,2s1.6,0.2,2.1-0.5c0.9-1.3,1.6-2.8,2.2-4.2c0.3-0.7,0.5-1.4,0.8-2.1
	c0-0.1,0.1-0.2,0.1-0.3c-0.1,0.2-0.1,0.1,0,0s0.2-0.3,0.2-0.5c0.2-0.3,0.3-0.6,0.6-0.9c0.4-0.7,0.1-1.6-0.5-2
	C1061.5,575.9,1060.7,576.1,1060.2,576.8L1060.2,576.8z"/>
<path d="M1061.9,577.1c0.1-0.6,0.4-1.1,0.7-1.6c0.3-0.8,0.7-1.5,1-2.2c0.7-1.5,1.3-3.1,1.9-4.6l-2.9-0.8c-0.3,1.1-0.7,2.1-1.2,3.1
	l-1.5,3.5l2.8,0.4c0-0.3,0-0.6,0.2-0.8c0.1-0.4,0.3-0.8,0.4-1.2l0.9-2.4l1.8-4.9l-2.9-0.8c-0.3,0.8-0.6,1.5-1,2.2
	c-0.4,0.9-0.6,1.9-0.6,2.9c0,0.8,0.7,1.5,1.5,1.5s1.5-0.7,1.5-1.5c0-0.7,0.2-1.4,0.5-2c0.4-0.7,0.8-1.5,1-2.3s-0.3-1.6-1.1-1.8
	c-0.8-0.2-1.5,0.3-1.7,1l-1.9,5.3c-0.6,1.8-1.7,3.7-1.3,5.6c0.2,1.2,2.2,1.5,2.7,0.3l1.6-3.7c0.6-1.1,1.1-2.4,1.4-3.6
	c0.2-0.8-0.2-1.6-1-1.9c-0.8-0.2-1.6,0.2-1.9,1v0.1c-0.6,1.5-1.2,3-1.9,4.5s-1.7,3.1-1.8,4.8c0,0.8,0.7,1.5,1.5,1.5
	C1061.2,578.6,1061.8,577.9,1061.9,577.1L1061.9,577.1z"/>
<path d="M1064.7,572.6c2.6-4.6,3.4-9.9,5.2-14.8l-2.9-0.4c0.1,2-0.9,4-1.4,6c-0.6,2.1-1.2,4.2-1.7,6.3l2.9,0.8
	c0.9-5.4,4.1-10.2,4.4-15.8c0.1-1.9-2.9-1.9-3,0c-0.2,5.3-3.5,9.8-4.3,15c-0.2,0.8,0.2,1.6,1,1.8s1.6-0.2,1.8-1
	c0.6-2.2,1.2-4.4,1.8-6.6s1.6-4.2,1.4-6.4c0-0.8-0.7-1.5-1.5-1.5c-0.7,0-1.2,0.4-1.4,1.1c-1.7,4.7-2.4,9.7-4.9,14.1
	c-0.4,0.7-0.2,1.6,0.5,2.1c0.7,0.4,1.6,0.2,2.1-0.5V572.6z"/>
<path d="M1070.8,556.9l2.3-7.7c0.6-2.5,1.4-4.9,2.3-7.3l-2.8-0.8c-0.2,1.4-0.5,2.8-1,4.1c-0.4,1.5-0.8,3-1.3,4.5s-0.9,2.9-1.3,4.3
	l-0.7,2.2c-0.2,0.5-0.3,1.5-0.6,1.8l0.7-0.4l0,0c-0.8,0-1.5,0.7-1.5,1.5s0.7,1.5,1.5,1.5c2,0.2,2.4-2.2,2.9-3.7
	c0.6-1.8,1.1-3.5,1.7-5.3s1-3.6,1.5-5.4c0.6-1.7,1-3.5,1.2-5.3c0.1-1.4-2.2-2.1-2.8-0.8c-1,2.5-1.8,5.1-2.5,7.7l-2.4,8
	C1067.3,558,1070.2,558.7,1070.8,556.9L1070.8,556.9z"/>
<path d="M1072.9,528.4c-0.1,4.8-0.8,9.6-2,14.3h2.9c-0.1-0.5,0-1,0.2-1.5c0.2-0.7,0.3-1.3,0.6-1.9c0.5-1.3,1-2.5,0.7-3.9
	c-0.2-0.8-1.1-1.2-1.9-1c-0.5,0.1-0.9,0.5-1,1c-0.1,0.4-0.3,0.8-0.5,1.2c-0.4,0.7-0.1,1.6,0.5,2c0.7,0.4,1.6,0.2,2.1-0.5
	c0.3-0.7,0.6-1.3,0.8-2h-2.9c0,0.5-0.1,1-0.3,1.5c-0.2,0.6-0.5,1.2-0.7,1.9c-0.5,1.3-0.6,2.7-0.4,4c0.2,0.8,1.1,1.2,1.9,1
	c0.5-0.1,0.9-0.5,1-1c1.3-4.9,2-10,2.1-15.1c0-0.8-0.7-1.5-1.5-1.5S1072.8,527.5,1072.9,528.4L1072.9,528.4z"/>
<path d="M1075.2,543.8c1.5-4.8,2.4-9.7,2.9-14.6c0-0.8-0.7-1.5-1.5-1.5s-1.5,0.7-1.5,1.5c-0.5,4.7-1.4,9.3-2.8,13.8
	C1071.8,544.8,1074.7,545.6,1075.2,543.8z"/>
<path d="M1077.1,508.4c-0.3,3.2-0.8,6.4-1.3,9.5s-0.7,6.3-1.7,9.3l3,0.4c-0.4-4.1,0.2-8.2,0.8-12.3c0.3-2,0.6-4,0.7-6
	c0.1-1.7,0.2-3.8-1.3-5c-0.9-0.7-2.6-0.4-2.6,1.1c0.1,1.6-0.9,3.3-1.1,5c-0.2,1.8-0.3,3.5-0.3,5.3c0,0.8,0.7,1.5,1.5,1.5
	s1.5-0.7,1.5-1.5c-0.1-1.8,0-3.5,0.3-5.3c0.3-1.7,1.2-3.2,1.1-5l-2.6,1.1c1,0.8,0.4,3.4,0.3,4.5c-0.2,1.9-0.5,3.8-0.8,5.7
	c-0.7,3.6-0.9,7.3-0.6,11c-0.1,0.8,0.5,1.6,1.3,1.7c0.8,0.1,1.6-0.5,1.7-1.3c1-3.1,1.2-6.5,1.8-9.7s1.1-6.6,1.4-9.9
	C1080.3,506.4,1077.3,506.4,1077.1,508.4L1077.1,508.4z"/>
<path d="M1077.1,536.4c1-2.6,1.7-5.3,2.5-8c0.8-2.8,1.5-5.6,2.1-8.5c0.2-0.8-0.2-1.6-1-1.8s-1.6,0.2-1.8,1c-0.5,2.8-1.2,5.7-2.1,8.4
	c-0.8,2.7-1.5,5.4-2.5,8c-0.2,0.8,0.2,1.6,1,1.8C1076,537.6,1076.9,537.1,1077.1,536.4L1077.1,536.4z"/>
<path d="M1080.9,523.8l3.7-13.5c0.2-0.8-0.3-1.6-1.1-1.8c-0.8-0.2-1.6,0.3-1.8,1L1078,523c-0.2,0.8,0.3,1.6,1.1,1.8
	C1079.9,525,1080.7,524.6,1080.9,523.8L1080.9,523.8z"/>
<path d="M1084.5,510.4c0.6-2.2,1-4.5,1.1-6.7l-2.8,0.8c-0.1-0.2-0.1-0.2,0,0s0,0.1,0,0s0,0.2,0,0.3s0,0.4,0,0.1c0,0.1,0,0.2-0.1,0.4
	c-0.1,0.6-0.3,1.2-0.4,1.8c-0.3,1.2-0.6,2.4-0.9,3.5c-0.2,0.8,0.2,1.6,1,1.9c0.8,0.2,1.6-0.2,1.9-1v-0.1c0.4-1.3,0.7-2.6,1-3.9
	c0.1-0.6,0.3-1.2,0.4-1.9c0.2-0.8,0.1-1.7-0.3-2.5c-0.3-0.6-1-0.9-1.7-0.7c-0.6,0.2-1.1,0.8-1.1,1.5c0,0.5,0,1.1-0.1,1.6
	c0,0.1,0,0.1,0,0.2c0-0.2,0-0.2,0-0.1s0,0.2,0,0.4s-0.1,0.5-0.2,0.8c-0.2,1-0.4,2-0.7,3c-0.2,0.8,0.2,1.6,1,1.9
	C1083.5,511.7,1084.4,511.2,1084.5,510.4C1084.6,510.4,1084.6,510.4,1084.5,510.4L1084.5,510.4z"/>
<path d="M1080.3,492.1c0.8,1.4,1.2,2.9,1.4,4.4c0.3,1.7,0.6,3.4,0.8,5c0,0.8,0.7,1.5,1.5,1.5s1.5-0.7,1.5-1.5
	c-0.2-2-0.5-3.9-0.9-5.9c-0.2-1.8-0.8-3.6-1.7-5.1c-0.4-0.7-1.3-0.9-2.1-0.5C1080.2,490.5,1079.9,491.4,1080.3,492.1L1080.3,492.1z"
	/>
<path d="M1080.3,491c1.8,3.9,2.6,8.2,2.3,12.4c0,0.8,0.7,1.5,1.5,1.5s1.5-0.7,1.5-1.5c0.2-4.8-0.7-9.6-2.8-14
	c-0.4-0.7-1.3-0.9-2-0.5C1080.2,489.4,1079.9,490.3,1080.3,491L1080.3,491z"/>
<path d="M1081.4,491.8c0.1-1.7-1.8-2.1-3.1-2.5c-1.4-0.4-2.9-0.6-4.4-0.5c-1.4,0.2-2.7,0.8-3.9,1.5c-1.2,0.6-2.4,1.1-3.7,1.5
	c-0.8,0.2-1.2,1.1-1,1.9s1,1.2,1.8,1c1.1-0.3,2.2-0.7,3.2-1.2c0.9-0.4,1.8-1,2.7-1.4c0.9-0.4,1.8-0.5,2.8-0.3
	c0.6,0.1,1.1,0.2,1.7,0.4l0.7,0.2l0.5,0.1c0.5,0.2,0.4,0-0.3-0.7c0,0.8,0.7,1.5,1.5,1.5S1081.4,492.6,1081.4,491.8L1081.4,491.8z"/>
<path d="M1065.3,492.1c-1.4-0.4-2.7,0.2-4,0.9l-3.4,1.6l1.5,2.6l6-3.4c0.7-0.4,0.9-1.4,0.5-2.1c-0.1-0.2-0.3-0.4-0.5-0.5
	c-1.3-0.7-2.5,0.1-3.7,0.6c-1,0.5-2,1-3,1.5s-2,1.1-2.8,1.7c-0.8,0.7-1.4,1.6-1.9,2.5c-0.4,0.7-0.2,1.6,0.5,2.1
	c0.7,0.4,1.6,0.2,2.1-0.5c0.3-0.7,0.7-1.3,1.3-1.8c0.6-0.5,1.3-0.9,2-1.2c0.8-0.4,1.6-0.8,2.4-1.2l1.3-0.6c0.2-0.1,0.4-0.2,0.7-0.3
	h0.1c0.3-0.1,0.2-0.1-0.5-0.1v-2.6l-6,3.4c-0.7,0.4-0.9,1.3-0.5,2s1.3,0.9,2.1,0.5l2.9-1.4c0.5-0.2,0.9-0.5,1.4-0.7
	c-0.1,0,0.1,0,0.1,0c0.1,0,0.2-0.1,0.3-0.1c0.4-0.1,0,0,0.2,0s-0.3-0.1,0.2,0c0.8,0.2,1.6-0.2,1.8-1
	C1066.5,493.2,1066.1,492.4,1065.3,492.1L1065.3,492.1z"/>
<path class="st8" d="M1056.4,495.1c5-2.2,10.1-4.4,15.5-5.5c2.5-0.6,5.2-0.9,7.8-0.7c2.5,0.2,3.8,2.6,4.9,4.6c0.4,0.7,1.3,1,2.1,0.5
	c0.7-0.4,1-1.3,0.5-2.1l0,0c-1.3-2.2-2.7-4.6-5.2-5.6c-2.7-1.1-6.3-0.5-9.2,0c-6.3,1-12.2,3.7-18,6.2
	C1053.1,493.3,1054.6,495.9,1056.4,495.1L1056.4,495.1z"/>
<path class="st8" d="M1055.8,495.2c2.7-0.1,5.3-1.4,7.9-2.3c2.7-0.9,5.5-1.7,8.4-2.3c2.6-0.5,5.6-1.2,8.2-0.8s4.3,2.6,5.8,4.5
	c1.3,1.5,3.4-0.7,2.1-2.1c-1.7-2-3.5-4-6-4.9c-2.7-1-6-0.4-8.7,0c-3,0.5-6,1.2-8.9,2.1c-1.5,0.5-3,1-4.5,1.5c-1.4,0.6-2.9,1-4.4,1.2
	C1053.8,492.3,1053.8,495.3,1055.8,495.2L1055.8,495.2z"/>
<path class="st12" d="M1105.2,321c-4.8-1.2-35.1-9.1-41.6-6.5c-1.8,0.7-4.2,1.7-4.2,1.7c-3.4,1.4-6,2.6-7.6,3.3
	c-5.8,2.6-9.7,4.6-13.4,6.3s-8.6,4-15.1,6.6c-1.4,2-1.8,4.5-0.9,6.8c0.8,2.1,2.7,3.5,4.9,3.8c6.4-2.9,16-7.4,27.5-13.7
	c6.4-3.5,8-4.6,10.8-5.8c7.8-3.5,19.9-6,38.1-0.5L1105.2,321z"/>
<path class="st12" d="M885.6,320.8c4.8-1.2,35.1-9.1,41.6-6.5c1.8,0.7,4.2,1.7,4.2,1.7c3.4,1.4,6,2.6,7.5,3.3
	c5.8,2.6,9.7,4.6,13.4,6.3s8.6,4,15.1,6.6c1.4,2,1.8,4.5,0.9,6.8c-0.8,2.1-2.7,3.5-4.9,3.8c-6.4-2.9-16-7.4-27.5-13.7
	c-6.4-3.5-8-4.6-10.8-5.8c-7.8-3.5-19.9-6-38.1-0.5L885.6,320.8z"/>
<path class="st14" d="M1380.6,46c3.8,0,13.1-3.2,21.6-3.2c9.5,0,14.8,5.8,14.8,18.2c0,42.8-43.9,18.2-43.9,32.4
	c0,16.2,4.6,14.5,4.6,26.3c0,7-5.4,9.6-11.9,9.6c-8.4,0-12.6-4.3-12.6-9.8c0-7.6,6-19.3,6-44c0-10.7-1-17.2-3.4-20.5
	c-1.2-1.7-1.9-3.7-1.9-5.8c0-3.5,2.3-6.5,8.5-6.5C1368,42.6,1369.1,46,1380.6,46z M1374.2,69.4c0,3.8,1.8,9,6.4,9
	c3.7,0,8.5-4.3,8.5-12.3c0-4-2.3-7-7.4-7C1377.6,59.1,1374.2,61.7,1374.2,69.4z"/>
<path class="st14" d="M1490.1,83.9c0,19.3-11,45.2-36,45.2c-26.9,0-35.2-20.6-35.2-41.3c0-32.6,12.5-46.5,38.8-46.8
	C1476.6,41.1,1490.1,56.8,1490.1,83.9z M1439.1,79.1c0,9.7,2.9,18.6,8.9,18.6c8,0,12-9.6,12-19.2s-3.6-19.3-10.8-19.3
	C1442.3,59.2,1439.1,69.3,1439.1,79.1z"/>
<path class="st14" d="M1520.6,53.1c0,7.2-6.7,16.1-6.7,29c0,18.6,5.8,24.5,5.8,33c0,7.4-3.4,13.6-13.7,13.6c-11,0-15.2-4.7-15.2-12
	c0-10.6,6.8-14.4,6.8-27.5c0-23.2-7.2-25.9-7.2-35.2c0-8,3.7-12.8,15.2-12.8S1520.6,45.4,1520.6,53.1z"/>
<path class="st14" d="M1582.1,39.2c9.2,0,14.2,6.2,14.2,14.5c0,9.6-5.2,24-5.2,45c0,19.1,5.6,23.2,5.6,27.1c0,1.9-2.5,3.2-5,3.2
	c-5.2,0-12.4-4-18-9.6c-11.9-12-16.7-44.4-27.8-44.4c-4,0-5.4,3.6-5.4,7.2c0,17.8,12.1,22.3,12.1,34.6c0,7.6-8.5,11.8-15.4,11.8
	c-9.5,0-13.8-5.2-13.8-10.4c0-4.9,2.6-10.4,5.2-15.1c2.3-4.1,5.6-10.6,5.6-25.9c0-4.2-0.4-8.4-1.1-12.6c-1.9-13-8.3-14.3-8.3-19.2
	c0-3,3.5-4.7,7.6-4.7c11.6,0,23.4,9.5,34.7,36.7c2.6,6.4,5,15.1,11.5,15.1c2.9,0,4.9-2.5,4.9-8.6c0-13.2-16.2-15.8-16.2-31.1
	C1567.4,44,1574.2,39.2,1582.1,39.2z"/>
<path class="st14" d="M1635,64.6c1.8,0,4.2-0.6,6.2-0.6s3.7,0.7,3.7,3.5c0,7.4-19.6,4.9-19.6,24.7c0,6.6,2.9,9.1,5.6,9.1
	c3.4,0,6.5-4.1,9.1-4.1s4,4.4,4,7.4c0,14.3-11,18.6-22.9,18.6c-17.9,0-24-6.7-24-15.5c0-10.6,8-23.4,8-29.8c0-6-8.4-1.6-8.4-7.8
	c0-6.5,14.3,1.2,21.6-18.7c1-2.9,3.1-5.9,7.2-5.9C1634.9,46.6,1626.9,64.6,1635,64.6z"/>
<path class="st14" d="M84.2,47.7c7.6,0,12.6,4.2,12.6,13c0,14.6-19.4,24.5-19.4,43.2c0,5.4,2.8,8.5,8.4,8.5
	c11.9,0,17.6-8.8,23.2-8.8c3.7,0,7.1,4.7,7.1,8.8c0,14-20.6,23.5-48.6,23.5c-6.1,0-8-3-8-6.7c0-21,10.7-28.8,10.7-65
	C70,55.5,74.2,47.7,84.2,47.7z"/>
<path class="st14" d="M148.1,58.9c0,7.2-6.7,16.1-6.7,29c0,18.6,5.8,24.5,5.8,33c0,7.4-3.4,13.6-13.7,13.6c-11,0-15.2-4.7-15.2-12
	c0-10.6,6.8-14.4,6.8-27.5c0-23.2-7.2-25.9-7.2-35.2c0-8,3.7-12.8,15.2-12.8S148.1,51.2,148.1,58.9z"/>
<path class="st14" d="M168,49.9c2.3,2.4,2.3,2.8,3.7,14.3c2.9,22.8,4.3,37.3,11.5,37.3c7.9,0,9-13.2,11.3-37
	c1.4-14,9.5-17.8,16.3-17.8c13.2,0,14.8,7.9,14.8,16c0,24-12.4,72.5-38.9,72.5c-23.8,0-35.9-44.9-35.9-74c0-11.3,4.9-13.8,9.7-13.8
	C163.5,47.5,166.2,48.1,168,49.9z"/>
<rect x="981" y="413.5" class="st20" width="22.6" height="14.8"/>
<path class="st20" d="M1125.1,445.1c-6.7,2.9-12.2,4.9-16.1,6.3c-18.8,6.6-46.8,16-79.7,10.5c-4.5-0.7-8.9-1.7-13.2-3
	c-2.8-4.4-5.1-9.1-6.9-14.1c-1.8-4.8-7.9-22-4.3-42.6c0.6-3.6,1.6-7.2,2.8-10.7c2.2-0.6,5.9-1.6,10.5-2.7
	c12.6-3,46.9-10.6,93.9-10.6c3.2,0,7.2,0,11.8,0.1c1.6,2.2,2.9,4.5,4,7c8.5,18.7,2.4,41.6,0.1,50.4
	C1126.8,440.1,1125.7,443.3,1125.1,445.1z"/>
<path class="st20" d="M971.1,458.5c-7.1,1.6-13,2.5-17.1,3.1c-19.8,2.9-49.2,6.7-81.7-5.9c-4.4-1.7-8.7-3.7-12.9-5.9
	c-2.2-5.2-3.9-10.5-5.1-16.1c-1.2-5.3-5.1-24.5,1.4-45.1c1.1-3.6,2.6-7.2,4.2-10.5c2.3-0.2,6.1-0.4,10.9-0.6
	c13.1-0.5,48.7-1.1,96,8.8c3.2,0.7,7.2,1.5,11.9,2.6c1.3,2.6,2.3,5.3,3.1,8.1c6.1,21.2-3.1,43.8-6.7,52.4
	C973.5,453.6,972,456.7,971.1,458.5z"/>
<path class="st21" d="M965.5,450.5c-2.3,0.8-5.7,1.8-9.7,2.7c-3.8,0.9-16.1,3.5-46.3,1.4c-21.8-1.6-30-4-36.6-6.7
	c-3.6-1.5-6.6-3-8.6-4c-1.8-5.3-3.2-10.7-4.3-16.2c-2.3-11.6-4.3-21.7-1.1-32.4c1-3.4,2.5-6.5,4.3-9.4c2.9,0,6.9,0,11.8,0
	c11.9,0.1,24.4,0.2,39.8,1.4c12.6,1,24.8,1.9,40.9,5.4c6.7,1.4,12.3,2.9,16.1,4c1.6,4.3,2.7,8.9,3.2,13.5
	c1.8,15.7-3.5,28.1-5.4,32.4C968.6,445.2,967.1,447.9,965.5,450.5z"/>
<path class="st21" d="M1117.1,438.2c-2.1,1.2-5.1,2.8-8.8,4.5c-3.5,1.6-14.7,6.6-43.4,10.7c-20.7,3-28.7,2.4-35.3,1.2
	c-3.6-0.6-6.6-1.4-8.7-2c-2.3-4.6-4.4-9.3-6.1-14.1c-3.7-10.3-6.8-19.3-5.2-29.8c0.5-3.3,1.5-6.6,2.8-9.6c2.7-0.6,6.5-1.4,11.1-2.4
	c11.2-2.3,23-4.8,37.7-6.9c11.9-1.7,23.6-3.3,39.2-3.3c6.5,0,11.9,0.2,15.7,0.5c2.1,3.7,3.7,7.7,4.8,11.9
	c3.7,14.2,0.3,26.8-0.9,31.1C1119.3,432.7,1118.3,435.5,1117.1,438.2z"/>
</svg>
