<?xml version="1.0" encoding="utf-8"?>
<!-- Generator: Adobe Illustrator 26.0.1, SVG Export Plug-In . SVG Version: 6.00 Build 0)  -->
<svg version="1.1" id="Layer_1" xmlns="http://www.w3.org/2000/svg" xmlns:xlink="http://www.w3.org/1999/xlink" x="0px" y="0px"
	 viewBox="0 0 1920 1085" style="enable-background:new 0 0 1920 1085;" xml:space="preserve">
<style type="text/css">
	.st0{fill:url(#SVGID_1_);}
	.st1{fill:#8CC63F;}
	.st2{fill:#39B54A;}
	.st3{fill:#D9E021;}
	.st4{fill:#009245;}
	.st5{fill:#ED1C24;}
	.st6{fill:#FFFFFF;}
	.st7{fill:#754C24;}
	.st8{stroke:#000000;stroke-width:0.5;stroke-miterlimit:10;}
	.st9{fill:#8C6239;}
	.st10{fill:#603813;}
	.st11{fill:#8C6239;stroke:#603813;stroke-miterlimit:10;}
	.st12{opacity:0.2;fill:#FF5589;stroke:#000000;stroke-width:0.5;stroke-miterlimit:10;enable-background:new    ;}
	.st13{opacity:0.2;fill:#FF90CD;enable-background:new    ;}
	.st14{fill:#42210B;}
	.st15{stroke:#000000;stroke-width:0.25;stroke-miterlimit:10;}
	.st16{fill:#FFFFFF;stroke:#000000;stroke-miterlimit:10;}
	.st17{stroke:#000000;stroke-miterlimit:10;}
</style>
<radialGradient id="SVGID_1_" cx="960" cy="542.5644" r="778.5187" gradientTransform="matrix(1 0 0 1.01 0 -1.06)" gradientUnits="userSpaceOnUse">
	<stop  offset="0" style="stop-color:#FFFFFF"/>
	<stop  offset="9.000000e-02" style="stop-color:#FFEDD8"/>
	<stop  offset="0.21" style="stop-color:#FFD5A7"/>
	<stop  offset="0.33" style="stop-color:#FFC17D"/>
	<stop  offset="0.46" style="stop-color:#FFB05B"/>
	<stop  offset="0.59" style="stop-color:#FFA340"/>
	<stop  offset="0.72" style="stop-color:#FF9A2D"/>
	<stop  offset="0.86" style="stop-color:#FF9522"/>
	<stop  offset="1" style="stop-color:#FF931E"/>
</radialGradient>
<rect x="0" y="2.5" class="st0" width="1920" height="1085"/>
<path class="st1" d="M1243.7,835c1.2-1.4,2.1-2.6,2.6-3.2c-5.3-0.7-10.5-2.3-15.4-4.5c-5-2.3-9.7-5.4-13.7-9.2
	c4.8-2.1,10.1-2.7,15.2-1.5c4,1,7.6,3,10.4,6c-6.4-6.5-11.5-14.1-15.2-22.5c-2.1-4.9-3.8-10-4.9-15.2c5.4,1.2,10.3,3.7,14.4,7.4
	c8.6,7.9,9.9,18.5,10.1,21.5c-1.1-10.6-0.3-21.4,2.1-31.8c1.5-6.4,3.7-12.7,6.5-18.7c4.1,6.5,6.7,13.8,7.7,21.3c1,8,0.3,16.1-2,23.8
	c5.8-9.2,12.7-17.6,20.6-25c7.5-7,15.9-13.1,24.9-18c-3.4,10.5-8.4,20.5-14.8,29.5c-5.9,8.5-13,16.1-21,22.6
	c7.3-3.8,15.5-5.9,23.8-6.1c8.7-0.2,17.4,1.9,25,6.2c-16.3,9.3-34.7,14.3-53.4,14.6c13.3-1.7,23.9,8.9,32.4,18.6
	c-14.2,0.7-28.1-3.9-39.1-13c4.7,3.5,6,7.3,6.5,9.1c0.4,1.9,0.7,3.9,0.8,5.9c0.2,2.3,0.2,4.7,0.1,7c-4-3.4-7.7-7.3-10.8-11.6
	c-3.1-4.3-5.7-9-7.7-13.9c-0.4,0.7-1,1.8-1.8,3.1c-5.1,8.4-6.3,9.3-7.4,9.3s-2.1-0.7-2.4-1.8C1236.7,843.4,1238.2,841.7,1243.7,835z
	"/>
<path class="st1" d="M533.7,753c-2.5-3.2-4.5-5.7-5.5-7c-5.1,11.6-11.7,22.5-19.8,32.3c-8.4,10.3-18.2,19.3-29.1,26.8
	c-1.8-11.8,0.3-23.8,6-34.3c4.7-8.5,11.6-15.6,20-20.6c-18.5,11.4-38.7,19.7-59.8,24.6c-12.2,2.8-24.7,4.4-37.2,4.8
	c6.1-11.6,14.9-21.5,25.6-29c23.2-16,47.5-14.5,54.5-13.9c-24.1-1.8-47.7-7.6-69.9-17.4c-13.3-5.9-26-13.1-37.8-21.7
	c16.8-6.5,34.7-9.4,52.6-8.6c18.1,0.8,35.9,5.5,52,13.8c-33.4-32.1-56.9-73.1-67.9-118.1c41.2,22.6,74.2,57.6,94.4,100.1
	c-4-18.2-3.7-37.1,1-55.1c5.2-19.9,15.3-38.1,29.4-53.1c10.6,40.8,10.4,83.6-0.7,124.3c4.6-30.2,34.8-49.5,61.9-64.6
	c-7.8,32.6-26.7,61.4-53.5,81.5c10.8-8.9,20-10.5,24.5-10.8c4.5-0.2,9.1,0,13.6,0.6c5.3,0.5,10.5,1.4,15.7,2.6
	c-10.2,7.6-21.1,14.1-32.7,19.2c-11.5,5.2-23.6,9.1-36,11.6c1.3,1.2,3.4,3,5.9,5.4c15.7,14.6,16.9,17.7,16.2,20
	c-0.8,2.5-2.9,4.3-5.5,4.7C548.1,771.9,545.2,767.8,533.7,753z"/>
<path class="st1" d="M230.8,282.7c-1.7-4.6-3.1-8.2-3.8-10.1c-19.9,23.5-46.2,40.9-75.6,50c2-14.1,8.5-27.2,18.6-37.2
	c8.3-8,18.5-13.6,29.7-16.3c-24.9,6.3-50.7,8.5-76.2,6.2c-14.8-1.3-29.5-4.1-43.7-8.3c10.8-11.1,24.2-19.3,39-23.9
	c31.8-9.8,58.8,0.9,66.5,4.3c-26.8-11-51.5-26.6-73.1-45.9c-13.1-11.7-24.9-24.8-35.3-39c43.5-2.5,86,13.8,116.7,44.8
	c-26.7-49.3-39.3-105.1-36.3-161.1c20.1,21.4,36.6,45.8,49.1,72.4c11.5,24.7,19.4,50.9,23.3,77.8c3.6-47.3,30.5-89.8,71.8-113.2
	c-2,50.5-17,99.7-43.6,142.7c15.7-33.1,56.4-44.1,92.3-51.4c-19.8,34.4-51.2,60.7-88.6,74c15.3-6.2,26.3-4.6,31.5-3.4
	s10.4,3.6,15.2,5.8c5.8,2.6,11.4,5.5,16.8,8.8c-28.3,10-58.5,13.4-88.4,10c1.1,1.9,2.8,4.8,4.8,8.3c12.7,22.6,13,26.6,11.5,29.1
	c-1.7,2.5-4.8,3.9-7.8,3.4C240.5,309.6,238.7,303.9,230.8,282.7z"/>
<path class="st2" d="M1682.9,251.7c3.1-5,5.5-9,6.8-11.1c-17.7-0.5-35.3-3.5-52.1-8.9c-17.5-5.6-34-13.8-49.1-24.3
	c5.9-3.5,24.3-13.4,48.3-10.4c13.4,1.7,26.1,7.1,36.7,15.5c-23.8-18.5-44.3-41-60.5-66.4c-9.4-14.8-17.3-30.6-23.6-46.9
	c18.1,1.8,35.4,8.2,50.4,18.5c32,22.3,41.3,55.5,43.6,65.2c-14.3-54-13.5-110.9,2.1-164.5c16.5,19,28.7,41.4,35.8,65.5
	c7.3,24.9,9.3,51.1,5.7,76.8c27.2-61.7,70.6-115,125.5-154.1c-5.8,34.8-16.9,68.5-32.9,99.9c-14.9,29.2-33.9,56-56.5,79.8
	c22.1-15,47.3-24.7,73.7-28.3c28.5-3.8,57.5-0.1,84.2,10.6c-48.6,35.8-105.6,58.5-165.5,66c42.3-10.1,81.9,19.7,114.5,47.6
	c-46.1,7.3-94.2-2.6-133.1-27.4c16.9,9.6,23.2,21.1,25.7,26.8s4,12.4,5.5,18.5c1.7,7.3,2.9,14.7,3.7,22.2
	c-29.7-19-54.7-44.6-72.8-74.9c-1,2.4-2.5,6.1-4.4,10.7c-12.2,28.8-15.7,32-19.1,32.4c-3.6,0.3-7.1-1.6-8.8-4.7
	C1664.5,281,1668.6,275,1682.9,251.7z"/>
<path class="st1" d="M171.8,597.2c-1.5-4-2.6-7.1-3.2-8.8c-7.2,9.5-15.8,17.8-25.5,24.7c-9.9,7.1-20.9,12.5-32.5,16
	c0.5-4.8,2.4-19.5,13.6-31.4c6.1-6.6,14.1-11.2,22.9-13.2c-19.5,4.8-39.8,5.9-59.7,3.2c-11.8-1.6-23.4-4.3-34.6-8.3
	c8-9.1,18.4-15.8,30-19.4c24.7-7.5,46.2,2.4,52.3,5.5C113.4,555,93.6,541,76.4,524.1c-10.7-10.5-20.3-22.1-28.8-34.4
	c17-0.4,33.9,3,49.4,10c16.5,7.5,31.3,18.2,43.5,31.7c-11.4-22-20-45.4-25.6-69.6c-5.3-22.8-7.7-46.2-7.3-69.6
	c16.5,19.1,30.1,40.5,40.5,63.5c9.7,21.5,16.6,44.1,20.5,67.4c0.6-18.7,5.5-37,14.1-53.5c9-17.2,22.5-31.6,39.1-41.6
	c-0.1,43.1-10.6,85.4-30.3,121.3c11.4-28,43.1-36.3,71-41.6c-14.4,28.8-38.8,50.9-67.5,61c11.9-4.9,20.5-3.2,24.6-2
	c4.2,1.4,8.2,3.3,12.1,5.4c4.6,2.4,9.1,5.1,13.4,8c-11,3.9-22.4,6.4-34,7.4c-11.7,1-23.5,0.6-35.1-1.2c0.9,1.6,2.3,4.2,4,7.3
	c10.6,19.8,11,23.2,9.8,25.3s-3.6,3.2-6,2.7C180.2,620.6,178.6,615.7,171.8,597.2z"/>
<path class="st3" d="M450,500.7c-1.3-4-15.2,2.5-28.4,0.6c-7.6-1.1-17.2-5.2-26.9-18.2c9.9-8.3,22.7-12.2,34.2-10.6
	c-18.7-13.5-31.8-35.3-36.1-60c17,3.8,33.4,10.2,48.4,19c-8.6-22.6-6.8-50.7,4.8-74.3c9.5,5.6,17.4,13.5,23,23
	c6.4,10.9,10.1,23.2,10.8,35.9c5.9-15.4,13.5-30.1,22.5-43.9c7.2-10.9,12.3-16.3,17.2-20.6c5.9-5.1,12.6-9.3,19.8-12.3
	c7.6,14.3,6.8,33.3,1.6,50.3s-14.6,32.7-23.9,48c24.7-9.9,52.1-19.7,74.6-9.7c-5.5,14-14.6,26.2-26.5,35.4
	c-17.4,13.3-34.2,14.4-39.8,14.5c6.7,3.4,14.6,7.5,23.3,12c4,1.9,7.7,4.2,11.2,6.9c4.8,3.9,9,8.5,12.3,13.8
	c-12.7,3.6-26,5.1-39.2,4.5c-11.2-0.6-22.2-2.9-32.7-6.8c7.5,10.1,11.8,23.1,12,36.8c-19.1-5.2-29.3-14.3-35.1-21.9
	c-5-6.6-10.7-17.3-14-15.7c-1.2,0.6-1.1,2.4-2.5,6.5c-0.7,2-5,15.8-12.4,17.8c-3.3,0.9-7.4-0.5-8.8-3.5c-2.2-4.7,2.6-13.1,6.6-19.9
	C449.1,503.1,450.5,502,450,500.7z"/>
<path class="st1" d="M1420.9,536.7c-1.5-4-2.6-7.2-3.2-8.8c-7.2,9.5-15.8,17.8-25.5,24.7c-9.9,7.1-20.9,12.5-32.5,16.1
	c0.5-4.8,2.4-19.5,13.6-31.4c6.1-6.6,14.1-11.2,22.9-13.2c-19.5,4.8-39.8,5.9-59.7,3.2c-11.8-1.5-23.3-4.3-34.5-8.2
	c8-9.1,18.4-15.8,30-19.4c24.7-7.5,46.2,2.4,52.3,5.5c-21.7-10.5-41.5-24.5-58.7-41.4c-10.7-10.5-20.3-22.1-28.8-34.4
	c17-0.4,33.9,3,49.4,10c16.5,7.4,31.3,18.2,43.5,31.7c-11.4-22-20-45.4-25.6-69.6c-5.3-22.8-7.7-46.2-7.3-69.6
	c16.5,19.1,30.1,40.5,40.5,63.5c9.7,21.5,16.6,44.1,20.4,67.4c0.6-18.7,5.4-37,14.1-53.5c9-17.2,22.5-31.6,39.1-41.6
	c-0.1,43.1-10.6,85.4-30.3,121.3c11.4-28,43.1-36.3,71-41.6c-14.3,28.8-38.8,50.8-67.5,61c11.9-5,20.5-3.3,24.6-2
	c4.2,1.4,8.2,3.2,12.1,5.4c4.6,2.4,9.1,5.1,13.4,8c-11,3.9-22.4,6.4-34,7.4c-11.7,1-23.5,0.6-35.1-1.2c0.9,1.6,2.3,4.2,4,7.3
	c10.6,19.8,11,23.2,9.8,25.3s-3.7,3.2-6.1,2.7C1429.3,560.1,1427.7,555.1,1420.9,536.7z"/>
<path class="st3" d="M1660.4,532.7l7.8-5.3c-10.9-4.7-21.1-11.1-30.2-18.8c-9.2-7.9-17.1-17.3-23.4-27.7c4.8-0.7,19.5-2.3,33.8,5.6
	c7.9,4.4,14.2,11,18.3,19c-9.3-17.8-15.3-37.2-17.5-57.1c-1.3-11.8-1.4-23.7-0.2-35.5c10.7,5.6,19.8,14,26.1,24.4
	c13.2,22.1,8.8,45.4,7.2,52.1c5-23.6,13.8-46.2,26.1-66.9c7.7-12.9,16.5-25,26.5-36.2c4.5,16.4,5.2,33.6,2.2,50.3
	c-3.3,17.8-10.2,34.8-20.3,49.8c18.7-16.4,39.3-30.3,61.4-41.5c20.9-10.6,43-18.6,65.8-23.8c-14.6,20.6-32.1,39-51.9,54.6
	c-18.5,14.6-38.9,26.7-60.5,36c18.3-3.9,37.2-3.6,55.4,0.8c18.9,4.6,36.1,14.3,49.8,28c-41.9,10.3-85.4,10.2-125-0.3
	c29.9,4.3,45.6,33.1,57.4,59c-31.4-7-58.7-25.4-75.5-50.9c7.7,10.3,8.1,19.2,7.9,23.4c-0.4,4.4-1.2,8.7-2.3,13
	c-1.2,5.1-2.7,10.1-4.6,15c-6.4-9.7-11.6-20.2-15.3-31.2c-3.8-11.1-6.3-22.7-7.2-34.4c-1.3,1.3-3.5,3.2-6.1,5.6
	c-16.7,15.1-19.9,16.2-22.2,15.6c-2.3-0.7-4-2.8-4.1-5.2C1639.7,546.5,1644.1,543.7,1660.4,532.7z"/>
<path class="st1" d="M810.6,904.4l-3.2-2.6c-0.7,5.3-2.3,10.5-4.5,15.4c-2.3,5-5.4,9.7-9.1,13.7c-2.2-4.7-2.7-10.1-1.6-15.2
	c1-4,3-7.6,6-10.4c-6.5,6.4-14.1,11.5-22.5,15.2c-4.9,2.1-10,3.8-15.2,4.9c1.2-5.4,3.7-10.3,7.4-14.4c7.9-8.7,18.4-9.9,21.5-10.1
	c-10.6,1.1-21.4,0.4-31.8-2.1c-6.4-1.5-12.7-3.7-18.7-6.4c6.5-4.1,13.7-6.7,21.3-7.7c8-1,16.1-0.4,23.8,1.9
	c-9.2-5.7-17.7-12.7-25.1-20.6c-7-7.5-13.1-15.9-18-24.9c10.5,3.4,20.5,8.4,29.6,14.8c8.5,5.9,16.1,13,22.6,21
	c-3.8-7.3-6-15.5-6.2-23.7c-0.2-8.7,1.9-17.4,6.1-25c9.3,16.3,14.4,34.6,14.7,53.4c-1.7-13.3,8.8-23.9,18.5-32.5
	c0.7,14.2-3.9,28.1-12.9,39.1c3.5-4.7,7.3-6,9.1-6.5c1.9-0.4,3.9-0.7,5.9-0.8c2.3-0.2,4.7-0.2,7-0.1c-3.4,4.1-7.3,7.7-11.6,10.8
	s-9,5.7-14,7.7c0.7,0.4,1.8,1,3.1,1.8c8.4,5.1,9.3,6.3,9.3,7.4c0,1.1-0.7,2.1-1.8,2.5C819,911.4,817.2,909.9,810.6,904.4z"/>
<path class="st3" d="M1238.8,274.4c-1-2-8.5,0.3-16-1.3c-4.4-1-10-3.5-16.3-10.4c5.6-3.5,12.3-4.7,18.7-3.1
	c-11.3-7.6-20-18.9-23.8-31.1c9.9,2.8,19.5,6.9,28.5,12c-6.2-11.4-6.8-24.9-1.6-35.7c5.5,3.2,10.4,7.4,14.3,12.5
	c4.1,5.3,6.9,11.4,8.2,18c2.4-7.1,5.9-13.8,10.2-20c3.4-4.9,6-7.2,8.6-9c3.2-2.2,6.7-3.8,10.5-4.8c5.1,7.4,5.8,16.5,3.8,24.4
	s-6.4,15-10.7,21.9c13.4-3.4,28.3-6.6,41.6-0.4c-2.4,6.5-6.9,12.1-12.9,15.6c-6.6,3.8-14.1,5.4-21.7,4.7c4,2,8.7,4.5,13.9,7.2
	c2.3,1.2,4.6,2.5,6.7,4c2.9,2.1,5.5,4.6,7.7,7.4c-7.3,1-14.6,1-21.9-0.1c-6.5-1-12.8-2.7-18.9-5.2c4.8,5.1,7.9,11.6,8.9,18.5
	c-11.1-3.6-17.4-8.6-21.1-12.6c-3.2-3.5-7-9-8.8-8.4c-0.7,0.2-0.5,1.1-1,3c-0.2,1-1.9,7.4-6,7.9c-2,0.2-4-0.6-5.2-2.2
	c-1.5-2.4,0.8-6.2,2.6-9.3C1238.4,275.6,1239.1,275.1,1238.8,274.4z"/>
<path class="st3" d="M573.7,1041.2c-2.2,0.2-2.8,8-7,14.5c-2.5,3.7-6.9,8.1-15.5,11.4c-1.3-6.5,0.1-13.2,3.8-18.6
	c-11.2,7.8-24.8,11.8-37.6,11c6.2-8.2,13.4-15.7,21.4-22.2c-12.9,1.6-25.7-2.7-33.8-11.4c5-4,10.7-7,16.8-8.8
	c6.4-1.9,13.2-2.3,19.7-1.1c-5.7-4.9-10.7-10.5-14.9-16.7c-3.3-5-4.5-8.2-5.3-11.2c-0.9-3.8-1.1-7.7-0.7-11.5
	c8.7-2.1,17.5,0.6,24.1,5.3s11.7,11.4,16.5,17.9c1.7-13.7,4.1-28.8,14.7-39c5.2,4.6,8.7,10.8,9.9,17.7c1.1,7.5,0,15.1-3.4,21.9
	c3.3-3,7.3-6.5,11.7-10.4c1.9-1.8,4-3.4,6.1-4.8c3-1.9,6.2-3.5,9.7-4.5c-1.7,7.1-4.4,14-8,20.4c-3.2,5.7-7.1,11-11.6,15.8
	c6.5-2.6,13.6-3.2,20.5-1.6c-7.4,9.1-14.3,13.1-19.4,15.2c-4.4,1.8-10.9,3.3-11,5.2c0,0.7,0.8,0.9,2.4,2c0.8,0.6,6.2,4.5,5.2,8.4
	c-0.5,1.9-2,3.4-3.9,4c-2.8,0.5-5.5-2.9-7.7-5.8C574.7,1042,574.5,1041.1,573.7,1041.2z"/>
<path class="st4" d="M1558.3,957.3c-3.5-8.9-35.2,4.1-66.1-1.2c-17.9-3.1-40.7-13.1-64.4-42.5c22.3-17.4,51.7-24.8,78.7-20
	c-44.8-31.5-77.3-80.5-89.7-135.2c40.2,9.9,78.8,25.5,114.6,46.2c-22.2-50.5-20.6-112,4.2-162.8c22.3,13.1,41.4,31.2,55.7,52.8
	c15.8,24,25.5,51.4,28.4,79.9c12.3-33.2,28.6-64.9,48.4-94.3c15.8-23.3,27-34.7,38.2-43.6c13.5-10.8,28.7-19.3,45-25.2
	c19.1,32.2,19,73.8,8.3,110.7s-31,70.3-51.1,103.2c56.6-19.3,119.6-38.5,173-14.3c-4.8,12.8-20.2,48.6-58.4,75.3
	c-26.7,18.8-58.7,28.6-91.3,28.2c16,8.2,34.6,17.7,55.4,28.6c11.1,5.8,18.2,9.5,26.8,16.1c11.5,8.8,21.6,19.4,29.9,31.4
	c-29.8,6.7-60.4,8.8-90.9,6c-26.3-2.4-52.2-8.5-76.9-18c18.7,23.4,29.7,52.1,31.4,82c-45.1-13.2-69.7-34.1-84-51.4
	c-12.4-15.1-26.5-39.1-34.1-35.9c-2.8,1.2-2.4,5.2-5.1,14.1c-1.3,4.5-10.3,34.2-27.1,37.9c-7.6,1.6-17.3-1.9-20.8-8.6
	c-5.5-10.6,4.9-28.5,13.5-43.2C1556.3,962.5,1559.4,960.2,1558.3,957.3z"/>
<path class="st4" d="M181.1,1025.7c-6-3.3-14.4,20.5-31.5,33.4c-9.9,7.5-25.5,13.4-51.2,8.8c1.8-21.5,11.8-40.9,26.8-52.2
	c-36.6,5-76-6.4-108.9-31.4c23.5-15,49.3-26,76.4-32.6C57.2,934.1,27.5,898,13.9,856c17.2-4,35.2-3.4,52.2,1.6
	c25.9,7.5,44.1,22.8,53,31.3c-10.8-25.5-18.9-52-24.2-79.2c-4.2-21.5-4.6-33.9-3.8-44.8c0.9-12.9,3.8-25.6,8.5-37.7
	c24.9,8.6,45.5,32.5,58.8,59.3s20.4,56.4,27.4,85.7c16.8-40.3,36.7-83.9,73.7-97.5c4.1,9.8,14.7,38.4,10.1,73.4
	c-4.6,36.1-22.4,56.7-28.7,63.3c11.5-3.6,25-7.7,40.1-12.2c8.1-2.4,13.2-3.9,20.5-4.6c9.9-0.8,19.8,0,29.4,2.6
	c-10.3,18.9-23.6,35.9-39.4,50.4c-13.3,12.1-28.4,22-44.8,29.3c20,3.6,39.6,14.5,55.4,30.9c-27.6,15.7-49.5,16.4-64.7,13.8
	c-13.3-2.3-31.8-8.8-33.8-3c-0.7,2.2,1.4,4.2,4.6,10.7c1.6,3.2,12.2,25,6.1,35.8c-2.7,4.8-9,7.9-14,5.8
	c-7.8-3.2-11.8-18.9-15.1-31.8C182.8,1029.7,183.1,1026.8,181.1,1025.7z"/>
<path class="st5" d="M363,161.8c2.9-0.6,6.5-2.7,9.8-3.4c3.5-0.7,6.3,0.3,7.5,6.4c3.4,16.2-29.2,17.2-20.3,60.3
	c3,14.4,8.7,18.9,13.1,18c5.4-1.1,8.6-11,12.8-11.9s8.3,8.4,9.7,14.9c6.4,31.1-9.4,44.2-28.5,48.1c-28.7,5.9-41.6-6.7-45.5-25.8
	c-4.7-23,2.4-53.6-0.4-67.5c-2.7-13.1-14.2-0.6-17-14.2c-2.9-14.1,23.5-2.1,26.3-47.9c0.2-6.6,2.4-13.8,8.9-15.2
	C354.8,122.6,349.9,164.5,363,161.8z"/>
<path class="st5" d="M453,94.3c16-2.4,27.5,2.7,30,19.6c4.8,32.2-11.2,45.4-7.4,70.7c4.6,30.6,21.6,34,27.3,72.3
	c3,20.1-8,30.3-21.5,32.3c-13.8,2.1-23.6-6.5-25.6-19.7c-2.2-15,5.2-34.2,2.9-50.4c-1.5-10-8.8-21.4-20.8-19.6
	c-10.3,1.5-16.7,10.6-14.2,27.5c1.2,8.2,12,25.7,14.3,41.6c2.4,16.1-5,26.4-18.8,28.4c-14,2.1-26.5-4.1-28.8-19.7
	c-5.8-39.1,8.5-41.7,2.7-81.1c-6.2-41.4-20.6-38.5-24.4-63.6c-2.9-19.3,7.3-28.3,23.3-30.7c13.2-2,25.6,2.1,27.4,14.3
	c3.7,24.6-10,26.1-7.1,45.8c2.1,14.2,9,16.5,18.8,15c16.1-2.4,20.5-12,19.2-20.4c-2-13.5-17.7-25.4-19.8-39.2
	C427.9,101.2,443.4,95.7,453,94.3z"/>
<path class="st5" d="M577.2,151.8c8.2,75.6-45.5,54.9-43.1,76.7c0.9,8.2,8.3,10.9,13,10.4c10.2-1.1,20.6-13,22.7-16.7
	c4.2-7.2,6-13.8,10.3-14.3c2.3-0.2,4,2,4.4,5.4c4.1,37.7-18.2,56.5-38.9,58.8c-36.4,4-59.3-32.2-65.5-89.2
	c-5.6-51.7,6.5-85.6,47.6-90C556,89.7,572.8,110.9,577.2,151.8z M557.8,185.6c-0.9-8.5-7.6-11.2-12.8-10.7
	c-12.1,1.3-17.8,10.5-16.9,19.3c0.5,4.5,3.7,8.2,8.6,7.7C547.2,200.7,559,196.5,557.8,185.6z"/>
<path class="st5" d="M685.9,113.4c0.5,6.4-2.1,11.4-6,11.7c-9,0.7-6.3-19.3-27-17.8c-4.7,0.3-9.5,5-9,12.2
	c1.8,25.3,46.4,16.1,50.5,72.6c3.8,51.4-19,71.5-43,73.3c-28.5,2.1-46.3-17.5-48.2-44.1c-0.7-9.1,2-20.8,8.3-21.2
	c6.1-0.4,5.6,15.1,22.3,13.9c6.1-0.4,10.4-6.1,9.8-14.9c-2.2-29.3-33.2-12-37.2-65.8c-1.9-26.1,10.8-49,36.5-50.8
	C664.4,80.7,684.1,89.4,685.9,113.4z"/>
<path class="st5" d="M773.7,63.8c15.1-0.7,23.9,12.7,24.8,31.1c1,21.3-5.8,53.7-3.6,100.4c2.1,42.4,11.8,51,12.2,59.8
	c0.2,4.3-3.8,7.4-7.9,7.6c-8.5,0.4-20.7-7.8-30.5-19.9c-20.8-25.7-32.1-97.3-50.4-96.4c-6.5,0.3-8.5,8.4-8.1,16.4
	c1.9,39.4,22.3,48.6,23.6,75.8c0.9,14.1-9.8,26.3-23.9,27.3c-15.5,0.8-23.2-10.4-23.7-22.1c-0.5-10.9,3.2-23.4,6.8-34
	c3.3-9.2,8.1-23.9,6.4-58c-0.5-9.4-1.5-18.7-3.1-27.9c-4.5-28.6-15.1-31.1-15.7-42c-0.3-6.7,5.2-10.7,11.9-11
	c19.1-0.9,39.4,19.2,60.8,78.8c5,13.9,9.9,33.2,20.5,32.7c4.7-0.2,7.8-6,7.1-19.6c-1.4-29.3-28.3-33.9-29.9-67.8
	C750,75.7,760.7,64.5,773.7,63.8z"/>
<path class="st5" d="M909.4,159.6c1.1,43-15.6,101-56.5,102.1c-44.1,1.1-58.8-44.5-59.9-90.4c-1.8-72.6,17.9-104,61-105.6
	C885.1,64.9,908,99.3,909.4,159.6z M825.6,151c0.5,21.6,5.7,41.2,15.6,41c13.2-0.3,19.1-21.8,18.6-43.2s-7-42.8-18.8-42.5
	C829.8,106.6,825,129.1,825.6,151z"/>
<path class="st5" d="M1015.7,159.4c0.1,43-17.8,100.7-58.8,100.8c-44.1,0.1-57.8-45.8-57.9-91.7C898.8,96,919.2,65,962.3,64.3
	C993.4,64.2,1015.5,99.1,1015.7,159.4z M932,149c0.1,21.6,4.8,41.4,14.7,41.3c13.2,0,19.6-21.4,19.6-42.8s-6-42.9-17.8-42.9
	C937.2,104.7,932,127.1,932,149z"/>
<path class="st5" d="M1052.2,75.9c6.3,0.1,21.6-6.8,35.5-6.6c15.5,0.3,24,13.2,23.5,41c-1.7,95.3-72.7,39.3-73.3,70.8
	c-0.6,36,6.9,32.4,6.5,58.6c-0.3,15.5-9.2,21.2-19.9,21c-13.8-0.2-20.5-10-20.3-22.2c0.3-16.8,10.6-42.8,11.5-97.8
	c0.4-23.8-0.9-38.2-4.7-45.7c-2-4-3-8.4-2.9-12.9c0.1-7.7,4-14.3,14.2-14.2C1031.7,68.1,1033.3,75.6,1052.2,75.9z M1040.7,127.8
	c-0.2,8.5,2.6,20.1,10.1,20.2c6.1,0.1,14.1-9.4,14.4-27.2c0.2-8.8-3.5-15.5-11.9-15.7C1046.8,104.9,1041,110.7,1040.7,127.8
	L1040.7,127.8z"/>
<path class="st5" d="M1206.6,65.7c15.1,0.7,38,12.5,37,33.5c-0.3,6.4-3.8,9.7-7.3,9.5c-3.3-0.2-6-2.4-9-5.8
	c-4.5-4.5-9.9-7.2-15.4-7.4c-21-1-35.8,28.2-37.4,61.6c-1.3,27.2,5.9,55.1,24.8,55.9c6.3,0.3,18.2-6.9,18.8-18.9
	c0.4-8-4.3-16.5-7.3-20.9c-4.2-6.1-6-11-5.8-15.5c0.5-10.9,11.9-17.6,25.4-17s24.4,8.4,23.9,20.1c-0.4,9.1-9.1,16.9-9.4,24.1
	c-0.4,8.5,6.4,18.2,5.9,29.4c-1.4,30.1-29.9,45.1-54.7,43.9c-40.5-1.9-71.1-34.1-68.2-95.4C1130.5,109.7,1164.7,63.7,1206.6,65.7z"
	/>
<path class="st5" d="M1341.5,106.8c-0.7,9.6-5.4,19.4-6.2,30.6c-0.9,12.2,1,26.8,3.6,40.9c5.7,31.8,24.6,54,23.1,74
	c-1,13.3-13,25.8-25,24.9c-9.4-0.7-24.3-7.2-23.1-23.7c0.4-5.1,1.9-10,2.3-15.1c0.9-12.2-7.2-21.7-20.2-22.7
	c-11-0.8-20.7,5.4-21.7,18.7c-0.5,6.6,1.1,11.3,0.8,16.1c-1,13.6-12.2,21-23.8,20.2c-13.3-1-20.7-10.6-19.7-24.8
	c2.2-29.8,38.6-75.2,41.3-111.2c0.7-9.8-2.5-21.3-1.8-31.7c1-14.1,10.1-27.1,38.4-25C1334.5,80.1,1342.6,93,1341.5,106.8z
	 M1303.2,147.1c-6.3-0.5-15.2,10.4-16.4,26.1c-0.6,8.2,2.5,19.4,11.3,20.1c7.5,0.6,13.3-8.9,14.2-20.4
	C1312.9,165.2,1311.2,147.7,1303.2,147.1L1303.2,147.1z"/>
<path class="st5" d="M1352.5,218.1c6.1-52.2,37-138.1,71.8-134c14.1,1.7,13,22.5,12.1,42c-0.3,5.9,0.9,24.3,4.4,24.7
	c10.2,1.2,18.3-50,41.6-47.3c26.8,3.1,26.6,79.1,18.6,147.6c-3.2,27-15,56.8-37.2,54.2c-12.9-1.5-21.3-16.2-19.1-34.5
	c3.4-28.9,25.6-30.9,29.7-65.9c2.6-22.3-2.7-27.5-7.2-28c-24.8-2.9-13.4,56.8-43.9,53.2c-18-2.1-20.8-14-18.9-30.2
	c1.6-13.8,6.4-29.1,7.6-39.4c0.8-6.9,0.3-11-4-11.5c-10.4-1.2-16.1,19.3-17.6,31.5c-2.3,19.6,0.2,42-1.8,59.7
	c-1.7,14.3-7.7,26.5-18.6,25.2C1354.9,263.8,1348.6,251.8,1352.5,218.1z"/>
<path class="st5" d="M1602,184.8c-13,75-58.9,40.2-62.6,61.8c-1.4,8.1,5,12.8,9.6,13.6c10.1,1.8,23.3-6.8,26.4-9.8
	c6-5.7,9.6-11.6,13.9-10.9c2.3,0.4,3.3,3,2.7,6.4c-6.5,37.3-33.1,49.3-53.6,45.7c-36.1-6.2-48.1-47.3-38.4-103.9
	c8.9-51.3,29.9-80.4,70.6-73.4C1598.8,119.2,1609,144.3,1602,184.8z M1573.9,211.9c1.5-8.4-4.2-12.9-9.4-13.8
	c-12-2.1-20.1,5.2-21.6,13.9c-0.8,4.5,1.3,8.9,6.1,9.7C1559.6,223.5,1572.1,222.7,1573.9,211.9z"/>
<path class="st6" d="M626.1,714c0.8,7.3,10,11.3,10.6,10.7c0.6-0.6-5.5-4.3-6-10.7c-0.7-7.6,6.6-13.2,6-13.7
	C636,699.8,625.2,705.7,626.1,714z"/>
<g>
	<path d="M834,648.6c0-0.5,0.1-1.1,0.1-1.6c0-0.3,0,0.3,0-0.1l0.1-0.4c0-0.3,0.1-0.5,0.2-0.8c0.1-0.4,0.3-1,0.3-1.4l0.3-0.7
		c0-0.1,0.1-0.2,0.1-0.3c-0.1,0.3,0.1-0.2,0.1-0.2l-2.4-0.7c0.1,1.7,0.1,3.3,0,5c0,0.7,0.6,1.3,1.3,1.3c0.7,0,1.3-0.6,1.3-1.3
		c0.1-1.7,0.1-3.3,0-5c0-0.7-0.6-1.3-1.3-1.3c-0.4,0-0.9,0.3-1.1,0.6c-0.9,2.1-1.4,4.4-1.5,6.8c0,0.7,0.6,1.3,1.3,1.3
		C833.3,649.8,834,649.3,834,648.6L834,648.6z"/>
	<path class="st7" d="M1136,575c3.7,5.8,7.7,16.3,4.8,24.8c-2.4,7-7.8,7.8-7.9,13.3c-0.2,6,6,7.8,6.3,13.3
		c0.3,7.6-10.8,18.3-20.6,17.2c-13.2-1.5-22.8-24.2-22.1-42.9c0.5-15,7.9-35.5,20.6-37.3C1127.4,562.1,1135.4,574.1,1136,575z"/>
	<path class="st7" d="M757.9,578.7c-3.8,5.8-7.7,16.3-4.8,24.8c2.4,7,7.8,7.8,7.9,13.3c0.2,6-6,7.8-6.3,13.3
		c-0.4,7.6,10.8,18.3,20.6,17.2c13.2-1.5,22.8-24.2,22.1-42.9c-0.5-15-7.9-35.5-20.6-37.3C766.4,565.8,758.4,577.8,757.9,578.7z"/>
	<path d="M1043.1,701.1c0.7,0,1.3-0.6,1.3-1.3s-0.6-1.3-1.3-1.3s-1.3,0.6-1.3,1.3S1042.3,701.1,1043.1,701.1z"/>
	<path d="M1049.9,707.9c0.7-3.9,0.3-8-1.1-11.7c-0.2-0.5-0.7-0.8-1.2-0.6c-0.4,0.1-0.7,0.5-0.7,0.9c0,6.4-0.1,13.2-3,18.9l1.8,0.8
		c2.1-7.3,5.5-14.1,10.1-20.1l-1.6-0.7c0.8,6.9-0.5,13.9-1.9,20.6l1.9,0.5c0.9-4.5,3-8.8,6-12.2l-1.6-0.4c0.8,2.6,0.3,5.2-0.1,7.8
		l-1,8.2c-0.2,1.2,1.6,1.8,1.9,0.5c0.4-2.7,1.1-5.2,2.1-7.6c0.5-1.2-1.2-2.2-1.6-1c-1.1,2.6-1.9,5.3-2.3,8.1l1.9,0.5l1.2-9.1
		c0.3-2.7,0.7-5.4-0.1-8.1c-0.2-0.5-0.7-0.8-1.2-0.7c-0.2,0.1-0.3,0.1-0.4,0.3c-3.3,3.6-5.6,8.1-6.6,13c-0.3,1.2,1.6,1.8,1.9,0.5
		c1.4-6.9,2.7-14,2-21.2c-0.1-0.7-1-1.5-1.6-0.7c-4.8,6.2-8.4,13.3-10.6,21c-0.2,0.5,0.2,1.1,0.7,1.2c0.4,0.1,0.9-0.1,1.1-0.4
		c3.1-6.1,3.2-13.2,3.2-20l-1.9,0.3c1.3,3.4,1.6,7.1,1.1,10.7C1047.9,708.6,1049.7,709.1,1049.9,707.9L1049.9,707.9z"/>
	<path d="M1061.9,718.6c-5.3,0.8-7.9-5-9.6-9.2c-0.2-0.4-0.7-0.1-0.6,0.3c0.8,2.1,1.3,4.4,1.4,6.7l0.6-0.2l-3.2-5
		c-0.7-1.1-1.3-2.3-2.6-2.8c-0.2-0.1-0.3,0.1-0.4,0.3c-0.3,1.7-0.3,3.5-0.2,5.2l0.6-0.1c-0.6-2.3-1.5-4.6-2.7-6.7
		c-0.3-0.5-1.9-2.9-2.6-1.4c-0.1,0.1-0.1,0.3,0,0.4c1.7,2.4,2.9,5.2,3.7,8l0.5-0.4c-2.8-3.7-6.6-6.5-11-7.9
		c-0.3-0.1-0.5,0.4-0.3,0.5c1,1.3,2.1,2.7,3.2,3.9c0.9,1.1,2,2.5,3.2,3.2c0.7,0.4,1.5,0.2,2-0.4c0.9-1.4,1.8-2.9,2.6-4.4
		c2.5-4.4,6.9-10.8,3-15.7c-0.3-0.3-0.7,0.1-0.5,0.4c0.8,1.5,1.7,2.9,2.6,4.4c0.8,1.3,1.6,2.6,2.7,3.6c1.8,1.5,2-1.8,3.1-2.4
		l-0.5-0.3l0.3,11.2c0,0.2,0.2,0.4,0.3,0.4c0.1,0,0.2-0.1,0.3-0.2l3.7-5.2l-0.6-0.2c0,3.5,0.5,6.8,1.4,10.1c0.1,0.3,0.6,0.4,0.6,0
		l1.4-10.2h-0.6l1.6,11.9c0,0.2,0.2,0.3,0.3,0.3c0.1,0,0.2-0.1,0.3-0.3c0.2-1.1,0.1-2.2-0.2-3.3c-0.1-0.2-0.3-0.3-0.4-0.3
		c-0.1,0-0.1,0-0.2,0.1c-0.7,0.9-1.1,2-1,3.1c0,0.2,0.2,0.3,0.3,0.3c0.2,0,0.3-0.2,0.3-0.3c0-1,0.3-2,0.9-2.7l-0.5-0.2
		c0.3,1,0.3,2,0.2,2.9h0.6l-1.6-11.9c0-0.2-0.2-0.3-0.3-0.3c-0.1,0-0.2,0.1-0.3,0.3l-1.4,10.2h0.6c-0.9-3.2-1.4-6.6-1.4-10
		c0-0.2-0.2-0.4-0.3-0.4c-0.1,0-0.2,0.1-0.3,0.2l-3.7,5.2l0.6,0.2l-0.3-11.2c0-0.2-0.2-0.4-0.3-0.4c-0.1,0-0.1,0-0.2,0.1
		c-0.5,0.4-0.9,0.8-1,1.4c-0.1,0.4-0.3,0.6-0.4,0.9c-0.7,0.7-1.3-0.4-1.7-0.9c-1.6-2.1-3.1-4.4-4.3-6.8l-0.5,0.4
		c3.5,4.4-0.4,10.2-2.7,14.2l-2,3.4c-0.3,0.5-0.6,1.1-0.9,1.6c-1,1.2-1.8,0.1-2.5-0.6c-1.8-1.9-3.5-3.8-5.1-5.9l-0.3,0.5
		c4.3,1.4,8,4.1,10.7,7.7c0.2,0.3,0.6,0,0.5-0.4c-0.3-1.3-0.8-2.7-1.4-4c-0.3-0.6-0.6-1.2-0.9-1.9c-0.4-0.6-0.9-1.2-1.1-2
		c-0.1-0.4,0.1-0.2,0.3,0.1c0.3,0.4,0.5,0.7,0.8,1.1c0.4,0.6,0.8,1.3,1.1,2c0.7,1.5,1.3,3,1.7,4.6c0.1,0.4,0.7,0.3,0.6-0.1
		c-0.2-1.7-0.1-3.4,0.2-5l-0.4,0.3c1.4,0.4,2.1,2.4,2.8,3.6l2.5,3.8c0.1,0.2,0.3,0.2,0.4,0.1c0.1-0.1,0.2-0.2,0.2-0.3
		c-0.1-2.3-0.6-4.7-1.4-6.8l-0.6,0.3c1.8,4.4,4.8,10.3,10.3,9.4C1062.4,719.2,1062.3,718.5,1061.9,718.6L1061.9,718.6z"/>
	<path d="M1018.6,820.5c6.4-15.7,13.5-31,21.6-46c0.8-1.5-1.4-2.8-2.2-1.3c-8,14.8-15.2,30.2-21.6,46c-0.3,0.6-0.1,1.4,0.4,1.8
		C1017.5,821.2,1018.2,821,1018.6,820.5L1018.6,820.5z"/>
	<ellipse class="st8" cx="1137.5" cy="410.8" rx="29" ry="38"/>
	<ellipse class="st8" cx="770" cy="410.8" rx="27.7" ry="38"/>
	<path class="st9" d="M1116.7,611.1c-1.6-3.7-2.7-4.7-7-13.7c-2-3.8-3.7-7.7-5.2-11.7c-0.9-2.6-3.9-11.6-3.5-21.6
		c0.9-19.8,16-46.2,16.5-48.5l0.3-1.2c0.1-0.4,0.3-1,0.3-1.6c4.2-19.6,6-39.6,5.4-59.6c-1.2-23.1-5.6-21-6-44.1
		c-0.2-10,0.6-15.6,0-28.9c-0.4-10.2-1.4-20.4-3-30.4c-3.1-7.6-7.2-14.8-12.1-21.3c-2.7-3.6-5.7-7-8.9-10.2
		c-13.5-13.2-30.2-20-34.8-21.8C990.2,269.7,945.6,270,945.6,270s-47,0.2-107,25.1c0,0-34.2,14.1-48.2,38.1c-4.2,7-7.2,14.8-9,22.9
		c-1.4,7.6-2.5,15.1-3,22.9c-1,14-0.1,21.7,0,32c0.2,18.1-3.2,21.4-4.5,42.6c-0.9,13.5-1.1,26.7,0,53.3c0.1,1.8,0.2,4.7,0.7,8.6
		c0.7,5.3,1.9,10.6,3.5,15.6c3.6,11.6,5.2,13.2,8.7,23.6c3.7,11.1,5.7,16.6,5.3,23.6c-0.6,9-4.5,13.2-8.7,21.6c0,0-10.5,21-9.5,47.2
		c0.2,4.3,2,11.6,5.5,23.8c0.4,0.4,0.8,1,1.1,1.5c1.3,1,2.3,2.2,2.9,3.7c7.8,8.6,14.1,18.8,18.5,29.7c2.8,7,4.9,14.4,6.1,22
		c0.1,0.3,0.2,0.5,0.3,0.8c1.4,4.2,2.7,8.4,4.1,12.6c6.3,18,14.3,35.2,20.1,53.4c1.4,2.8,2.9,5.7,4.5,8.9c1.1,1.5,2.1,3.1,3.1,4.8
		c3.1,5.7,6.2,11.5,8.3,17.7c0.3,0.9,0.5,1.9,0.7,2.8c1,2.1,2,4.1,2.9,6c6,9.9,11.7,20.1,16.8,30.7c1.9,3.8,3.7,7.8,5.5,11.7
		c2.6,4.4,5.1,8.6,8.3,13.5c5.2,7.8,5.4,7.2,10.6,15.2c7.2,11.2,7.2,12.7,10.6,15.2c5.5,4,11.4,4.3,21.1,4.5
		c9.3,0.4,10-1.2,22.6-1.5c11.1-0.4,11.7,0.7,21.1,0c8.9-0.7,14.1-1.2,19.6-4.5c3.3-2,5.9-4.9,10.6-10.7c1.6-2,4.8-6,12.1-16.7
		c3.3-4.9,5.7-8.5,9-13.7c5.7-8.8,8.6-13.2,10.6-16.7c0.3-0.5,0.6-1,0.9-1.5c2.2-7.1,5.9-14,9.7-20.8c0.9-1.9,1.8-4.1,3-6.7
		c1.3-2.8,2-4.4,3-6c1.3-2.3,2.6-4.4,4.2-6.6c0.2-0.4,0.4-1,0.6-1.5c5.5-14.6,10.5-30,14.9-45c1.4-4.8,2.6-9.7,3.9-14.4
		c0.1-0.3,0.2-0.5,0.2-0.9c0.7-2.8,1.7-5.6,2.9-8.3c1.9-8.1,3.7-16.5,7-24c1.4-3.1,3.2-6.1,5.1-9c-0.1-2.3,0.5-4.7,1.8-6.7
		c0.3-2.2,1.4-4.2,3-5.7c0.6-1.7,1.2-3.3,2-4.8c1.3-2.6,2.7-5,4.4-7.3c0.9-2,2-4,3.3-5.9c0.5-1.8,1.5-3.4,3-4.5
		c0.3-0.6,0.9-1.2,1.4-1.6c0.7-2,2-3.6,3.7-4.6c0.6-1,1.4-1.9,2.3-2.5l2.9-3.1l0,0c1.6-3.9,3.5-7.7,5.6-11.5
		c0.2-1.1,0.5-2.2,0.9-3.2c0.1-0.5,0.3-1.2,0.4-1.7c0.2-7.4,0.1-13.8-0.1-19C1119.8,619.7,1118.3,614.9,1116.7,611.1z"/>
	<path class="st10" d="M933.9,562.8c0.5-9.2-0.8-18.3-3.7-26.9c-3.1-8.7-8.4-16.6-14.1-23.7c-3.2-3.9-6.6-7.6-10.3-11
		c-0.3-0.3-0.8,0.2-0.4,0.4c7.1,6.6,13.2,14,18.3,22.3c4.2,6.5,7,13.8,8.4,21.4c1,5.8,1.4,11.6,1.2,17.5
		C933.2,563.2,933.9,563.2,933.9,562.8L933.9,562.8z"/>
	<path class="st10" d="M953.8,565.4c-0.3-8.3,0.4-16.5,2.4-24.6c3.2-12.9,9.5-25.1,18.9-34.1c3.8-3.6,8-6.7,12.6-9.1
		c0.3-0.2,0-0.8-0.3-0.6c-9.7,5.2-17.9,13.2-23.6,22.9c-6,10.3-9.5,22-10.4,34c-0.3,3.8-0.4,7.7-0.3,11.6
		C953.2,566,953.8,566,953.8,565.4L953.8,565.4z"/>
	<path d="M941.2,272c2.1,16,2.1,32.3,0,48.3c-27.9,3.4-55.5,9.2-82.5,17.3c-29.5,8.8-58.2,20.4-85.7,34.5
		c1.8-13.1,7.5-40.7,28.5-62.1c3.7-3.7,15.7-15.1,49.2-25.9C870.6,277.7,901.5,270.6,941.2,272z"/>
	<path d="M940.5,272.2c2.1,15.9,2.1,32,0,47.9l0.6-0.4c-46.9,5.7-92.8,18.1-136.5,36.8c-10.8,4.6-21.5,9.6-32,15l0.9,0.8
		c1.7-12.8,5.4-25.3,10.9-36.8c5.4-10.9,12.7-21.4,22.1-29.1c9.4-7.6,20.4-12.8,31.5-17.1c13.8-5.2,27.9-9.3,42.4-12
		c17.5-3.3,35.3-4.9,53.2-4.7c2.6,0,5.1,0.1,7.7,0.2c0.9,0,0.9-1.3,0-1.3c-18.6-0.7-37.2,0.4-55.6,3.6c-14.3,2.4-28.5,6-42.2,10.9
		c-12.4,4.4-25,9.8-35.7,17.9c-8.9,6.7-16.1,15.9-21.6,25.8c-6.6,12.1-11.2,25.3-13.3,39c-0.2,1.2-0.3,2.2-0.5,3.4
		c-0.1,0.4,0.1,0.7,0.5,0.8c0.2,0,0.3,0,0.4-0.1c41.7-21.4,86.1-36.8,131.9-45.9c11.9-2.4,24-4.3,36.1-5.8c0.3,0,0.6-0.2,0.6-0.4
		c2.1-16.1,2.1-32.5,0-48.6C941.7,271,940.4,271.4,940.5,272.2z"/>
	<path d="M950.3,271.2c-3,15.4-3.2,31.2-0.8,46.8c27.2,3.7,54.1,9.6,80.4,17.5c31.7,9.6,62.5,22.1,92.1,37.3
		c-1.7-13.9-7.1-42.5-27.9-63c-8.4-8.4-16.1-12.1-30.9-19.3c-21-10.1-43.4-16.7-66.5-19.3C981.3,269.4,965.8,269.4,950.3,271.2z"/>
	<path d="M949.7,271c-3,15.6-3.2,31.5-0.8,47.1c0,0.4,0.3,0.4,0.6,0.4c23.4,3.2,46.6,8,69.3,14.3c23.8,6.7,47.1,14.9,69.8,24.8
		c11.2,4.9,22.1,10,33,15.6c0.3,0.2,1,0,0.9-0.5c-1.4-12.1-4.4-23.9-9.1-35.1c-6-14-15.2-27-27.6-35.7c-6.2-4.4-13-7.6-19.8-10.8
		c-4.9-2.3-9.7-4.6-14.7-6.7c-29.8-12.1-61.8-17.1-93.7-14.7c-2.5,0.2-4.9,0.4-7.4,0.7c-0.9,0.1-0.9,1.4,0,1.3
		c16.4-1.9,32.9-1.7,49.2,0.4c15.9,2,31.5,6,46.6,11.6c5,1.9,10,4,14.8,6.3c6.6,3.1,13.2,6.2,19.5,10c12.8,7.6,22.7,19.2,29.4,32.8
		c5.6,11.5,9.3,23.9,11,36.6c0.2,1.1,0.3,2.1,0.4,3.2l0.9-0.5c-20.1-10.4-40.8-19.5-61.9-27.2c-23.9-8.8-48.4-15.9-73.3-21.2
		c-12.4-2.7-25-4.8-37.6-6.5l0.6,0.4c-2.4-15.4-2.1-31.1,0.9-46.4C951.1,270.5,949.8,270.1,949.7,271z"/>
	<path d="M1121.1,418.9l0.8-36.4c0.1-3.9,0.2-8-1.5-11.5c-1.4-3-3.9-5.2-6.4-7c-5.2-4-11-8.6-17-10.9c1.7,11.5,8.9,24.3,13,35.1
		l11.7,30.1l-11.7-30.1l-13.7-35.6"/>
	<path d="M1121.8,418.9l0.8-34.1c0.1-4.8,0.5-10-1.7-14.3c-2-4.1-6.1-6.8-9.6-9.4c-4.3-3.4-8.9-6.6-14-8.5c-0.5-0.2-0.9,0.4-0.8,0.8
		c1.3,8.4,4.9,16.2,8.2,23.8c3.7,8.4,7.1,17.1,10.5,25.8c2,5.2,4.1,10.5,6,15.6c0.3,0.8,1.5,0.4,1.2-0.4
		c-6.6-17.1-13.2-34.1-19.8-51.2l-5.6-14.6c-0.3-0.8-1.5-0.4-1.2,0.4c6.6,17.1,13.2,34.1,19.8,51.2l5.6,14.5l1.2-0.4
		c-3.6-9.2-7.2-18.5-10.7-27.7c-3.2-8.1-7-15.9-10.1-24c-1.8-4.4-3.1-8.9-3.8-13.5l-0.8,0.8c4.3,1.7,8.3,4.4,12.1,7.2
		c1.9,1.4,3.7,2.8,5.5,4.3c1.8,1.3,3.3,3,4.6,4.9c2.6,4.3,2.1,9.6,2,14.4l-0.3,16.2l-0.4,18.1c0,0.4,0.3,0.7,0.7,0.7
		S1121.8,419.3,1121.8,418.9L1121.8,418.9z"/>
	<path d="M777.5,369.1l30-14.5c-13.5,24.6-24.3,50.9-31.9,78.1c-2.8-20.3-3.5-40.8-2-61.3c4.7-1.6,8.8-4.5,11.8-8.5"/>
	<path d="M777.8,369.6l30-14.5l-0.9-0.9c-10.6,19.2-19.4,39.3-26.4,60.2c-2,6-3.8,11.9-5.5,18.1h1.2c-2.2-15.7-3.1-31.7-2.6-47.7
		c0.2-4.5,0.3-9,0.7-13.5l-0.4,0.6c4.8-1.7,8.9-4.7,12.1-8.7c0.5-0.6-0.3-1.6-0.9-1c-3.1,3.8-7.1,6.8-11.6,8.4
		c-0.3,0.1-0.4,0.4-0.4,0.6c-1.2,16-1,32.1,0.4,48.1c0.4,4.4,0.9,8.9,1.5,13.3c0.1,0.7,1,0.6,1.2,0c6-21.3,13.8-41.9,23.3-61.7
		c2.6-5.5,5.5-10.9,8.4-16.3c0.2-0.4,0-0.7-0.3-0.9c-0.2-0.1-0.3-0.1-0.5,0l-30,14.5C776.4,368.8,777.1,370,777.8,369.6z"/>
	<ellipse class="st8" cx="1163.9" cy="437.8" rx="27.1" ry="35.4"/>
	<ellipse class="st8" cx="1193.4" cy="470.5" rx="25.5" ry="32.9"/>
	<ellipse class="st8" cx="1209" cy="513.3" rx="20.3" ry="28.7"/>
	<ellipse class="st8" cx="1220.3" cy="551.6" rx="19.5" ry="25.7"/>
	<ellipse class="st8" cx="1226.1" cy="586.1" rx="17.2" ry="24.1"/>
	<ellipse class="st8" cx="1228" cy="622.3" rx="15.3" ry="25.2"/>
	<ellipse class="st8" cx="1225.8" cy="658.5" rx="14" ry="20.4"/>
	<ellipse class="st8" cx="1225.2" cy="678.2" rx="12.8" ry="18.3"/>
	<ellipse class="st5" cx="1244.5" cy="701" rx="24.1" ry="19.7"/>
	<ellipse class="st5" cx="1203" cy="701" rx="24.1" ry="19.7"/>
	<path class="st6" d="M1263,701.8c-0.8,7.3-10,11.3-10.6,10.7s5.5-4.3,6-10.7c0.7-7.6-6.6-13.2-6-13.7
		C1253.1,687.5,1264,693.4,1263,701.8z"/>
	<path d="M923.1,815.5c15.7,2.3,31.5,2.8,47.3,1.2c1.4-0.2,3-0.3,4.2,0.5c2.6,1.8,1.2,5.8-0.5,8.4c-6,9.1-12.7,17.5-20.3,25.2
		c-1.7,1.7-3.5,3.4-5.8,4.1c-4.8,1.4-9.5-2-13-5.6c-7.5-7.6-13.6-16.5-18.1-26.3c-0.4-0.7-0.6-1.6-0.5-2.5c0.3-1.2,1.3-2,2.4-2.5
		c2.4-1.3,5-2.3,7.7-3"/>
	<path d="M922.9,816.1c10.8,1.6,21.8,2.3,32.7,2.1c2.7-0.1,5.4-0.2,8.1-0.4s5.3-0.5,8-0.6c1.1-0.2,2.3,0.3,3.1,1.2
		c0.5,0.9,0.7,2,0.4,3c-0.4,2.2-1.7,4-3,5.8c-5.8,8.8-12.5,16.9-20,24.2c-1.9,1.8-3.9,3.2-6.6,3.2c-2.4-0.1-4.7-1-6.6-2.5
		c-4-2.8-7.4-7-10.5-10.9c-3.5-4.4-6.5-9.2-9.1-14.1c-0.6-1.2-1.3-2.5-1.9-3.7c-0.4-0.7-0.8-1.6-0.8-2.5c0.1-0.8,0.6-1.4,1.2-1.8
		c2.6-1.6,5.4-2.8,8.3-3.4c0.8-0.2,0.4-1.5-0.3-1.3c-2.7,0.7-5.4,1.7-7.8,3c-2,1.2-3.2,2.8-2.3,5.2c2.1,5.2,4.9,10,8,14.5
		c3.1,4.5,6.6,8.8,10.4,12.6c3.4,3.4,7.9,6.9,12.9,6c2.5-0.5,4.4-2.2,6.2-3.9c2-2,4-4.1,6-6.2c3.7-4.2,7.3-8.6,10.6-13.2
		c1.7-2.2,3.2-4.5,4.8-6.9c1.1-1.7,1.7-3.7,1.6-5.8c-0.2-2-1.7-3.5-3.6-3.6c-1.3-0.1-2.6-0.1-3.9,0.2c-1.5,0.2-3.1,0.3-4.5,0.4
		c-13.8,0.9-27.7,0.4-41.3-1.7C922.5,814.7,922.2,815.9,922.9,816.1L922.9,816.1z"/>
	<path d="M939.7,867.2c0.3,0,0.7-0.3,0.7-0.7c0-0.4-0.3-0.7-0.7-0.7l0,0c-0.3,0-0.7,0.3-0.7,0.7C939,867,939.4,867.2,939.7,867.2z"
		/>
	<path d="M1006,886.8c-10.9,8.9-21.1,13.7-31.7,12.2c-1.2-0.2-14-2.2-19.6-12.2c-1.4-2.4-2.1-4.6-3-9.2c-1.8-9.5-2.3-19.3-1.5-28.9
		l-10.6,3c0.1,8.6,0.1,16.7,0,24.4c-0.1,4.4-0.3,7.1-1.5,10.7c-2,5.7-7.2,10.4-12.1,12.2c-11.8,4.3-26-6.4-33.1-12.2
		c-29.3-23.3-39.9-55.1-40.7-54.8c-0.3,0.2,2.1,5.4,5.7,12.9c3.7,6.6,7.2,13.2,10.6,20.1c1.7,3.4,3.2,6.8,4.9,10.2c1,2,2,3.7,3,5.5
		c6.2,11.3,9.1,14.8,11.4,17.9c4.1,5.3,6,6.5,10.8,15.5c1.6,3.2,3.9,6,6.6,8.3c5.7,4.5,13.6,4.7,21,4.6l43.3-0.4
		c4.1,0,8.2-0.1,12.2-1.1c7.4-3.1,14.1-7.7,19.7-13.7c5-5.3,6.8-9.5,12.3-20.5c0.9-1.8,5.2-10.2,13.4-26.2
		C1020.8,873.1,1013.8,880.4,1006,886.8z"/>
	<path d="M1005.5,886.4c-9.7,7.8-21.6,14.7-34.2,11.3c-4.9-1.2-9.3-3.6-12.9-7.1c-4.4-4.4-5.7-10.5-6.6-16.6
		c-1.2-8.3-1.5-16.7-0.9-25.1c0-0.4-0.3-0.6-0.7-0.6c-0.1,0-0.1,0-0.2,0l-10.6,3c-0.3,0.1-0.5,0.4-0.4,0.6c0.1,4.8,0.1,9.6,0.1,14.4
		c0,4.5,0.1,9.1-0.2,13.6c-0.3,8.1-5.1,15.3-12.3,18.2c-6.8,2.8-14.3,0.4-20.4-3c-6-3.4-11.6-7.4-16.8-12.1
		c-10.7-9.4-19.9-20.7-27.3-33.3c-2.4-4-4.5-8.2-6.6-12.4c-0.6-1.2-1.2-2.6-1.8-3.8c-0.3-0.6-0.6-1.2-0.9-1.9
		c-0.3-0.4-0.7-0.5-1.1-0.2c-0.4,0.4-0.2,1.1,0,1.5c1.1,2.8,2.3,5.5,3.7,8.2c2,4.4,4.4,8.4,6.6,12.6c2.2,4.2,4.5,8.6,6.6,13
		c2.1,4.4,4.2,8.8,6.5,13.1c1.9,3.6,3.9,7,6,10.4c2.3,3.7,4.9,7.3,7.7,10.7c1.6,2,3.4,4,4.9,6.2c1.9,2.8,3.4,5.9,5.1,8.8
		c1.9,3.2,4.4,5.9,7.4,7.8c3.3,2,7,3.1,10.7,3.4c4.1,0.4,8.3,0.4,12.4,0.3l14.4-0.1c9.5-0.1,19.2,0,28.7-0.3c2.2,0,4.4-0.2,6.6-0.5
		c0.9-0.1,2-0.4,2.8-0.6c0.7-0.3,1.4-0.6,2-0.9c3.2-1.5,6.2-3.3,9-5.3c5.5-3.8,10.3-8.9,13.9-14.7c2.9-4.8,5.1-10,7.7-14.9
		c2.3-4.4,4.5-9,6.8-13.4l5.8-11.3c0.3-0.6-0.5-1.4-1-0.8c-6.1,8-13.2,15.3-21,21.7c-0.7,0.5,0.3,1.4,0.9,1
		c7.8-6.4,14.7-13.7,21-21.7l-1-0.8c-5.2,10.2-10.5,20.4-15.5,30.6c-2.6,5.4-5.4,10.8-9.4,15.3c-5.2,5.7-11.4,10.2-18.3,13.4
		c-0.6,0.4-1.3,0.6-2,0.9c-1.2,0.3-2.4,0.5-3.7,0.6c-2.3,0.3-4.6,0.3-6.9,0.4c-4.8,0.1-9.5,0.1-14.4,0.2l-28.5,0.3
		c-7.7,0.1-16.5,0.4-22.8-5c-2.5-2.2-4.6-5-6.1-8c-1.5-3-3.3-5.9-5.4-8.6c-2.6-3.6-5.5-6.8-8.1-10.4c-3.9-5.8-7.5-11.7-10.6-18
		c-2.3-4.3-4.3-8.9-6.4-13.2c-2.1-4.4-4.3-8.5-6.6-12.7c-1.1-2-2.4-4.1-3.4-6.2c-0.9-2-1.9-3.9-2.8-6c-0.7-1.4-1.3-2.8-2-4.3
		c-0.1-0.3-0.7-1.9-0.7-1.9s-1.1,0.8-1,0.4c0,0,0-0.1,0,0c0,0.1,0.2,0.2,0.2,0.3c0.2,0.4,0.3,0.6,0.5,1c0.5,1.2,1,2.3,1.6,3.4
		c1.9,4,3.9,7.8,6,11.6c6.8,12.1,15.4,23,25.4,32.4c5,4.7,10.4,9,16.2,12.7c5.7,3.6,12.4,6.8,19.3,6.7s13.4-4.8,16.6-11
		c1.6-3.3,2.5-6.8,2.6-10.5c0.3-4.4,0.2-8.9,0.2-13.2c0-4.6,0-9.3-0.1-14l-0.5,0.6l10.8-3.1l-0.9-0.6c-0.6,7.9-0.4,15.8,0.7,23.7
		c0.9,6.2,2,12.6,5.9,17.5c3.5,4.3,8.5,7,13.6,8.6c4.3,1.3,8.7,1.7,13.1,1c8.9-1.4,16.7-6.7,23.6-12.3
		C1007.1,886.7,1006.2,885.8,1005.5,886.4z"/>
	<path d="M1051.5,818.2c0.3-0.7,0.5-1.5,0.8-2.2c-1.4,2.5-6.2,11.9-14.7,28.2l-10.7,20.9c1.4-1.9,2.8-3.7,4.1-5.5
		C1035.6,845,1046.5,831.4,1051.5,818.2z"/>
	<path d="M1052.1,818.4c0.3-0.7,0.5-1.5,0.8-2.2c0.3-0.7-0.9-1.2-1.2-0.5c-2.1,3.7-4,7.6-6,11.4c-4.3,8.2-8.4,16.4-12.6,24.5
		c-2.3,4.4-4.5,8.7-6.7,13.1c-0.3,0.6,0.5,1.4,1,0.8c1.1-1.4,2.2-2.9,3.2-4.4c0.5-0.6,0.9-1.3,1.2-2.1c0.3-0.8,0.5-1.6,0.9-2.4
		c1.3-3.3,2.7-6.6,4.4-9.7c3.2-6.2,7-12.2,10.2-18.4C1049.2,825.2,1050.8,821.9,1052.1,818.4c0.3-0.8-0.9-1.2-1.3-0.4
		c-4.9,12.7-13.4,23.4-18.5,36c-0.7,1.6-1.2,3.4-1.9,5c-0.5,1-1.2,2-2,2.8c-0.7,1-1.4,1.9-2.1,2.8l1,0.8
		c7.6-14.8,15.2-29.6,22.8-44.4c0.9-1.6,1.6-3.1,2.5-4.7l-1.2-0.5c-0.3,0.7-0.5,1.5-0.8,2.2C1050.5,818.9,1051.8,819.2,1052.1,818.4
		z"/>
	<path class="st11" d="M957.3,702.7c18.9-4.1,38.4-4.1,57.2,0c2.5-5.2,3.6-10.9,3-16.7c-0.3-3.7-1.4-7.4-3-10.7
		c-6.4-1.3-23.2-4.1-40.7,4.5c-6.1,3-11.8,7.1-16.6,12.2L957.3,702.7z"/>
	<path class="st11" d="M934.2,704.6c-18.9-4.1-38.4-4.1-57.2,0c-2.5-5.2-3.5-10.9-3-16.7c0.3-3.7,1.4-7.4,3-10.7
		c6.4-1.3,23.2-4.1,40.7,4.5c6.1,3,11.8,7.1,16.6,12.2L934.2,704.6z"/>
	<path class="st11" d="M959.6,602.1c0.9,7.1,1.2,14.2,1.1,21.3c-0.2,10.8-0.3,19.3,2.2,26.7c5.5,16.4,18.7,13.8,21,25.3
		c3.2,16-22.5,37-24.4,38.6c-1,0.9-2,1.6-3.2,2.2c-7.1,3.6-15.9,3.2-22.6,0c-1.3-0.6-2.5-1.4-3.5-2.3c-2.2-1.7-25.9-20.4-23.7-37.2
		c1.6-11.9,13.6-9.8,18.8-26.6c1.6-5.3,1.9-12.9,2.2-28c0.3-9.4,0-15.5,0-18.7c-0.2-23.3,8.2-54.5,15.5-54.6
		C950.4,548.8,958.3,580.3,959.6,602.1z"/>
	<path class="st12" d="M1045.8,751.4c-0.9-2.2-6.6-2.7-27.9,1.4c-49,9.5-52.1,18.8-75.6,19c-7.3,0.1-23.1-3.8-54.5-11.6
		c-33.6-8.4-41.3-12-43.4-8.8c-4.3,7,22.1,39.3,56,52.6c15.2,5.8,31.4,8.3,47.5,7.3c6.1-0.4,12.2-1.3,18.1-2.9
		c18.3-4.9,24.1-12.5,60.1-39.5C1040.2,758.5,1046.9,754,1045.8,751.4z"/>
	<path class="st6" d="M943.7,787.1l-18.1,1.6c-0.8-1.4-1.4-2.8-1.9-4.4c-1.1-3.7-1.2-7.6-0.3-11.4l19.6-1.8
		c1.5,3.6,2.2,7.5,1.8,11.3C944.6,784,944.3,785.6,943.7,787.1z"/>
	<path class="st10" d="M1049,749.9c-1.8-1.8-27.6,19.7-33.6,23.6c-3.2,2.1-6.6,4-6.6,4c-1,0.6-0.9,0.4-19,11.1
		c-13,7.7-15.2,9.1-19.8,10.4c-7.2,2.1-14.7,1.9-29.8,1.3c-11.6-0.4-18-0.7-26.9-2.6c-6-1.3-14-3-22.7-7.8c-2-1.1-3.7-2.2-5.3-3.3
		c-3.2-2.1-6.1-4.5-8.9-7.2c-10.6-10-31.7-30.3-34.5-28c-1.4,1.2,1.9,8,4.5,12.2c4.3,6.8,9.3,10.4,12.4,13
		c19.1,15.3,18.6,27.6,37.6,38.4c1.8,1,3.7,1.9,5.7,2.6c7.9,2.8,16.2,2.9,32.9,3c18.5,0.2,27.8,0.4,38.8-3
		c15.9-5,26.1-14.4,40.2-27.6c6.3-5.9,8.8-9,14.1-14.5c4.8-4.9,6.6-6,9.9-9.5C1043.7,759.6,1050,750.9,1049,749.9z"/>
	<path class="st6" d="M964.6,787.2h-18.1c-0.7-1.4-1.2-3-1.5-4.5c-0.8-3.8-0.5-7.7,0.8-11.4h19.7c1.3,3.6,1.5,7.6,0.8,11.4
		C965.8,784.3,965.3,785.8,964.6,787.2z"/>
	<path class="st6" d="M979.2,781.5c-0.3,1.1-0.8,2-1.5,2.7c-2.3,2.1-5.8,1.4-6,1.4c-1.4-0.3-2.6-1-3.7-2c-0.3-1.1-0.6-2.1-0.8-3.2
		c-0.7-3.3-0.9-6.7-0.6-10l11.3-0.8c0.9,3,1.3,6.1,1.4,9.2C979.2,779.7,979.2,780.6,979.2,781.5z"/>
	<path class="st6" d="M922.1,782.6c-0.4,1-1.1,1.8-2,2.4c-2.7,1.7-6,0.4-6.2,0.3c-1.3-0.5-2.5-1.4-3.2-2.7c-0.1-1.1-0.2-2.1-0.2-3.3
		c-0.1-3.4,0.3-6.8,1.2-10l11.3,1.3c0.3,3.1,0.2,6.3-0.3,9.4C922.4,780.9,922.2,781.8,922.1,782.6z"/>
	<path class="st6" d="M997.4,778.7l-13.5,4.5c-0.9-1.2-1.8-2.6-2.6-3.9c-1.8-3.4-2.8-7.1-3.1-11l14.7-4.9c2.1,3.2,3.5,6.8,4.2,10.7
		C997.3,775.6,997.5,777.1,997.4,778.7z"/>
	<path class="st6" d="M907.2,782.5l-13.9-3.1c-0.2-1.6-0.3-3.1-0.2-4.7c0.3-3.8,1.3-7.6,3.1-11l15.1,3.5c0.2,3.8-0.5,7.6-2,11.3
		C908.8,779.8,908,781.2,907.2,782.5z"/>
	<path class="st6" d="M890.9,776.3l-10.9-2.5c-0.1-1.4-0.1-2.8,0-4.2c0.3-3.5,1.2-6.8,2.7-9.9l11.8,2.7c0,3.5-0.6,6.8-1.8,10
		C892.2,773.8,891.6,775,890.9,776.3z"/>
	<path class="st6" d="M1011,771.1l-10.2,4.5c-0.9-1.1-1.8-2.1-2.5-3.4c-1.8-2.9-3.1-6.1-3.7-9.5l11.1-5c2,2.8,3.6,5.9,4.5,9.2
		C1010.6,768.4,1010.8,769.8,1011,771.1z"/>
	<path class="st6" d="M879.1,768.7l-11.2-2.6c-0.2-1.3-0.2-2.8-0.1-4.1c0.3-3.4,1.2-6.6,2.6-9.6l12.1,2.8c0.1,3.4-0.5,6.7-1.7,9.8
		C880.4,766.3,879.8,767.6,879.1,768.7z"/>
	<path class="st6" d="M1023.6,763.5l-10.1,5.6c-1-0.9-2-2-2.7-3c-2-2.7-3.5-5.7-4.4-8.9l10.8-6.1c2.3,2.4,4.1,5.3,5.3,8.4
		C1023,760.8,1023.4,762.1,1023.6,763.5z"/>
	<path class="st10" d="M1052,749.9c0-1.1-17.7-2.1-26.2-1.2c-2.2,0.3-4.4,0.6-4.4,0.6c-3.9,0.7-6.8,1.8-21.8,4.9
		c-20.1,4.1-24.9,4.2-35.5,7.8l-0.2,0.1c0,0-13.6,4.7-17.1,7.7c-0.3,0.2-0.8,0.7-1.6,1.4c-1.4,1.2-1.6,1.2-1.6,1.4
		c0,1,6.2,2.7,13.5,2.6c5.3-0.1,9.8-1,17.9-3.6c9.7-3.1,16.9-6,18.1-6.6c19.6-8,30.7-12.1,44.7-14C1046.5,750,1052,750.5,1052,749.9
		z"/>
	<path class="st10" d="M945.8,769l-1.7-1.3c-0.9-0.7-5.7-2.7-19.2-7c-12-1.7-23.9-4.4-35.8-6.4c-15.2-2.5-18.1-3.5-22-4
		c0,0-2.2-0.3-4.4-0.4c-8.8-0.6-24.1,1.1-24.1,1.8c0,0.4,4.7-0.4,12.3,1.2c1.4,0.3,4,0.9,9.3,2.5c2.3,0.7,5.3,1.5,8.8,2.5
		c5.6,1.5,8.4,2.2,12.1,3c8.9,1.9,9.9,1.2,15.2,3l7.6,3c7.3,2.9,7.2,2.9,7.6,3c5,1.8,5.7,1.1,13.6,3c7,1.7,7,2.3,9.5,2.1
		c3.6-0.4,7-1.2,10.3-2.8l0,0l1.4-0.9l1.4-1L945.8,769z"/>
	<ellipse class="st8" cx="746.1" cy="423.4" rx="29" ry="38"/>
	<ellipse class="st8" cx="719.8" cy="450.3" rx="27.1" ry="35.4"/>
	<ellipse class="st8" cx="690.2" cy="483.1" rx="25.5" ry="32.9"/>
	<ellipse class="st8" cx="674.5" cy="526" rx="20.3" ry="28.7"/>
	<ellipse class="st8" cx="663.4" cy="564.2" rx="19.5" ry="25.7"/>
	<ellipse class="st8" cx="657.6" cy="598.7" rx="17.2" ry="24.1"/>
	<ellipse class="st8" cx="655.7" cy="634.9" rx="15.3" ry="25.2"/>
	<ellipse class="st8" cx="657.8" cy="671.2" rx="14" ry="20.4"/>
	<ellipse class="st8" cx="658.4" cy="690.8" rx="12.8" ry="18.3"/>
	<ellipse class="st5" cx="639.1" cy="713.6" rx="24.1" ry="19.7"/>
	<ellipse class="st5" cx="680.7" cy="713.6" rx="24.1" ry="19.7"/>
	<path class="st9" d="M942.3,551.3c0.7,0,1.3-0.6,1.3-1.3c0-0.7-0.6-1.3-1.3-1.3l0,0c-0.7,0-1.3,0.6-1.3,1.3
		C941,550.7,941.6,551.3,942.3,551.3z"/>
	<path class="st9" d="M944.8,547.7c-4.1-1.8-6.7,3-8,6.2c-1.5,3.8-3.1,8.2-0.9,12.1c0.3,0.6,1.1,0.9,1.8,0.4
		c0.2-0.1,0.3-0.3,0.4-0.4c3.2-7.4,6.7-14.8,8.5-22.6l-2.4,0.4c1.5,2.3,2,5.3,2.7,8l2.4,9l2.1-1.3c-2.2-2.9-4.1-6.1-5.8-9.4
		c-0.3-0.6-1.2-0.8-1.8-0.4c-0.3,0.3-0.6,0.6-0.6,1.2v7.9c0,0.7,0.6,1.3,1.3,1.3c0.7,0,1.3-0.6,1.3-1.3v-7.9l-2.4,0.7
		c1.8,3.5,3.8,6.8,6.2,10c0.9,1.1,2.5-0.1,2.1-1.3l-2.5-9.3c-0.7-2.8-1.3-5.8-2.8-8.2c-0.3-0.6-1.2-0.8-1.8-0.4
		c-0.3,0.2-0.4,0.4-0.5,0.7c-1.7,7.6-5.3,14.8-8.3,22h2.2c-1.5-2.8-0.3-6.2,0.8-9c0.9-2,2.4-6.7,5.3-5.4
		C945.7,551,946.3,548.5,944.8,547.7L944.8,547.7z"/>
	<path class="st9" d="M936,561c0.7,0,1.3-0.6,1.3-1.3s-0.6-1.3-1.3-1.3c-0.7,0-1.3,0.6-1.3,1.3S935.3,561,936,561L936,561z"/>
	<path class="st9" d="M935.8,561.6c0.7,0,1.3-0.6,1.3-1.3c0-0.7-0.6-1.3-1.3-1.3s-1.3,0.6-1.3,1.3
		C934.5,561,935.1,561.6,935.8,561.6z"/>
	<path class="st9" d="M935.8,561.4c0.7,0,1.3-0.6,1.3-1.3c0-0.7-0.6-1.3-1.3-1.3l0,0c-0.7,0-1.3,0.6-1.3,1.3
		C934.5,560.8,935,561.4,935.8,561.4z"/>
	<path class="st9" d="M936,562.4c0.7,0,1.3-0.6,1.3-1.3c0-0.7-0.6-1.3-1.3-1.3c-0.7,0-1.3,0.6-1.3,1.3
		C934.7,561.8,935.3,562.4,936,562.4L936,562.4z"/>
	<path class="st9" d="M935.7,561.5c0.7,0,1.3-0.6,1.3-1.3s-0.6-1.3-1.3-1.3c-0.7,0-1.3,0.6-1.3,1.3S935,561.5,935.7,561.5z"/>
	<path class="st9" d="M936,562.4c0.7,0,1.3-0.6,1.3-1.3c0-0.7-0.6-1.3-1.3-1.3c-0.7,0-1.3,0.6-1.3,1.3
		C934.7,561.8,935.3,562.4,936,562.4L936,562.4z"/>
	<path class="st9" d="M936,564.6c0.7,0,1.3-0.6,1.3-1.3c0-0.7-0.6-1.3-1.3-1.3c-0.7,0-1.3,0.6-1.3,1.3
		C934.7,563.9,935.3,564.6,936,564.6L936,564.6z"/>
	<path class="st9" d="M951.1,563.5c0.7,0,1.3-0.6,1.3-1.3s-0.6-1.3-1.3-1.3c-0.7,0-1.3,0.6-1.3,1.3S950.4,563.5,951.1,563.5z"/>
	<path class="st9" d="M951.3,564.6c0.7,0,1.3-0.6,1.3-1.3s-0.6-1.3-1.3-1.3c-0.7,0-1.3,0.6-1.3,1.3S950.6,564.6,951.3,564.6z"/>
	<path class="st9" d="M950.9,566.4c0.7,0,1.3-0.6,1.3-1.3s-0.6-1.3-1.3-1.3c-0.7,0-1.3,0.6-1.3,1.3S950.3,566.4,950.9,566.4
		L950.9,566.4z"/>
	<path class="st9" d="M951,565.8c0.7,0,1.3-0.6,1.3-1.3s-0.6-1.3-1.3-1.3l0,0c-0.7,0-1.3,0.6-1.3,1.3S950.4,565.8,951,565.8z"/>
	<path class="st9" d="M951.3,565c0.7,0,1.3-0.6,1.3-1.3c0-0.7-0.6-1.3-1.3-1.3c-0.7,0-1.3,0.6-1.3,1.3
		C950,564.4,950.6,565,951.3,565z"/>
	<path class="st9" d="M951.3,564.6c0.7,0,1.3-0.6,1.3-1.3c0-0.7-0.6-1.3-1.3-1.3c-0.7,0-1.3,0.6-1.3,1.3
		C950,563.9,950.6,564.6,951.3,564.6z"/>
	<path class="st9" d="M950.9,567.3c0.7,0,1.3-0.6,1.3-1.3c0-0.7-0.6-1.3-1.3-1.3c-0.7,0-1.3,0.6-1.3,1.3
		C949.7,566.7,950.3,567.3,950.9,567.3z"/>
	<path class="st9" d="M951.1,567.7c0.7,0,1.3-0.6,1.3-1.3c0-0.7-0.6-1.3-1.3-1.3c-0.7,0-1.3,0.6-1.3,1.3
		C949.8,567,950.4,567.7,951.1,567.7z"/>
	<path class="st9" d="M951.1,567c0.7,0,1.3-0.6,1.3-1.3c0-0.7-0.6-1.3-1.3-1.3c-0.7,0-1.3,0.6-1.3,1.3
		C949.8,566.4,950.4,567,951.1,567z"/>
	<path class="st9" d="M951.1,566.4c0.7,0,1.3-0.6,1.3-1.3s-0.6-1.3-1.3-1.3c-0.7,0-1.3,0.6-1.3,1.3S950.4,566.4,951.1,566.4z"/>
	<path class="st9" d="M951.1,565.6c0.7,0,1.3-0.6,1.3-1.3s-0.6-1.3-1.3-1.3c-0.7,0-1.3,0.6-1.3,1.3S950.4,565.6,951.1,565.6z"/>
	<path d="M1035.4,841.2c-7.2,11.9-14.1,24-21.8,35.7c-2.2,3.3-4.4,6.6-6.7,9.8l2.2,1.3c5.2-9.1,10.4-18.1,16-27
		c2.7-4.3,5.6-8.4,8.2-12.7c2.6-4.4,4.8-8.5,7.1-12.9c2.6-5,5.4-10,8.4-14.8c0.9-1.4-1.3-2.8-2.2-1.3c-5.4,8.4-9.6,17.4-14.6,26.1
		c-2.6,4.4-5.4,8.4-8.1,12.6c-2.7,4.2-5.5,8.7-8.1,13.2c-3.1,5.2-6,10.2-8.9,15.5c-0.9,1.5,1.3,2.7,2.2,1.3
		c8.1-11.2,15.2-23.2,22.4-35.1c2-3.5,4.1-6.8,6.1-10.3C1038.5,841,1036.3,839.7,1035.4,841.2L1035.4,841.2z"/>
	<path d="M1019.9,874.3c6-12.3,12-24.6,19.9-35.7c1-1.3-1.2-2.7-2.2-1.3c-7.8,11.1-14,23.5-19.9,35.7
		C1017,874.4,1019.3,875.8,1019.9,874.3z"/>
	<path d="M843.5,809.1l11.6,22.7c3.7,7.1,7.3,14.2,10.5,21.6c1.8,4.2,3.4,8.4,4.9,12.8c0.5,1.6,3,0.9,2.5-0.7
		c-4.9-15.7-13-30.1-20.4-44.6l-6.7-13.2C844.9,806.2,842.7,807.6,843.5,809.1L843.5,809.1z"/>
	<path class="st13" d="M796.9,564.2l0.3-1.5l0.3-2c0.3-1.5,24.1-18.4,60.4-12c27.3,4.8,59.5,22.5,57.5,34.8
		c-2,12.3-37.2,18.5-65.3,13.2C814.1,589.9,796.7,565.7,796.9,564.2z"/>
	<path class="st7" d="M795.4,561.4c0.7-6,4.8-9.8,11.5-16.1c3.8-3.6,9.1-7.6,18.2-11.8c11.4-5.2,25-11.3,41.6-8.1
		c10.7,2.1,18.4,7.3,22.4,10c6.3,4,11.8,9.2,16.2,15.3c4.3,6.3,7.7,13.2,9.8,20.6c1.2,3.8,2.2,7.6,2.9,11.6c-3.4-3-7-5.9-10.6-8.5
		c-2.3-1.7-4.3-2.9-18.6-11.5c-8.5-5.1-9.1-5.3-10.1-5.9c-5.1-2.3-9.3-3.2-17.6-5c-4.2-1-8.3-1.7-12.5-2c-3.7-0.3-7.4-0.2-11.1,0.4
		c-1.9,0.3-3.8,0.7-5.7,1.2l-5.7,1.2c-4,1.3-7.3,2.1-9.5,2.7c-4.2,1-6.2,1.2-11.3,2.4c-3.2,0.7-5.9,1.4-7.7,1.9l-0.3,2.1l-0.3,2.1
		c-0.2,1.1,4.1,5.4,22,19.1c10.1,7.1,21.7,11.8,33.8,13.6c13.6,2,24.4-0.4,34.4-2.6c10.6-2.4,21.1-6,31-10.8
		c-10.1,9.7-22,17.2-34.8,22.2c-11,4.3-22.4,8.6-37,5.4c-13.9-3-22.9-11.2-30.9-18.6C805.5,583.2,794,572.6,795.4,561.4z"/>
	<path class="st14" d="M877.9,565.4c0.2-1.7,0.6-6.4-1.8-9.2c-1-1.2-2.1-1.5-6.6-2.7c-8.2-2.1-7-2-10-2.7c-3.2-0.8-6.6-1.2-10-1.3
		c-3.7-0.1-5.5-0.1-7.2,0.6c-4.9,2.1-8,9.7-8.3,15.7c-0.7,11.4,10.1,23.3,21.6,23.2C868.2,588.9,877,575,877.9,565.4z"/>
	<ellipse transform="matrix(0.3271 -0.945 0.945 0.3271 40.7081 1190.8948)" cx="856.5" cy="566.9" rx="9.8" ry="9.6"/>
	<path class="st13" d="M1093,565c-0.1-0.6-0.2-1.5-0.2-1.5s-0.2-1.3-0.3-2c-0.3-1.5-24.1-18.4-60.4-12
		c-27.3,4.8-59.5,22.5-57.5,34.8c2,12.3,37.3,18.5,65.4,13.2C1075.7,590.7,1093.3,566.6,1093,565z"/>
	<path class="st7" d="M1094.5,562.2c-0.7-6-4.8-9.8-11.5-16.1c-3.8-3.6-9.1-7.6-18.2-11.8c-11.4-5.2-25-11.3-41.6-8.1
		c-10.7,2.1-18.4,7.2-22.4,10c-6.3,4-11.8,9.2-16.2,15.3c-4.3,6.3-7.7,13.2-9.9,20.6c-1.2,3.8-2.2,7.6-2.9,11.6
		c3.4-3,7-5.9,10.6-8.5c2.3-1.6,4.3-2.9,18.6-11.5c8.5-5.1,9.1-5.4,10.1-5.9c5.1-2.3,9.3-3.2,17.6-5c4.2-1,8.3-1.7,12.6-2
		c3.7-0.3,7.4-0.2,11.1,0.4c1.9,0.3,3.8,0.7,5.7,1.2l5.7,1.2c4,1.3,7.3,2.1,9.5,2.7c4.2,1,6.2,1.2,11.3,2.4c3.2,0.7,5.9,1.4,7.6,1.9
		l0.3,2.1c0,0,0.3,2,0.3,2.1c0.2,1.1-4.1,5.4-22,19.1c-10.1,7.1-21.7,11.8-33.8,13.6c-13.6,2-24.4-0.4-34.4-2.6
		c-10.7-2.4-21.1-6-31-10.8c10.1,9.6,22,17.2,34.8,22.2c11,4.3,22.4,8.6,37,5.4c13.9-3,22.8-11.2,30.9-18.6
		C1084.3,584,1095.8,573.5,1094.5,562.2z"/>
	<path class="st14" d="M1012,566.2c-0.2-1.7-0.6-6.4,1.8-9.2c1-1.2,2.1-1.5,6.6-2.7c8.2-2.1,7-2,10-2.7c3.2-0.8,6.6-1.2,10-1.3
		c3.7-0.1,5.5-0.1,7.2,0.6c4.9,2.1,8,9.6,8.3,15.7c0.7,11.4-10.1,23.3-21.6,23.2C1021.7,589.7,1012.9,575.9,1012,566.2z"/>
	<ellipse transform="matrix(0.945 -0.3271 0.3271 0.945 -128.8722 369.1964)" cx="1033.4" cy="567.8" rx="9.6" ry="9.8"/>
	<path class="st15" d="M941.8,732.2c-2.6-1.3-5.1-2.7-7.8-4c-35.9-17.4-72.2-21.1-104.9-18.3c-1,6.4-2,12.9-3.1,19.3
		c30.9,13.8,66,23,104.3,22.6c2.7,0,5.5-0.1,8.2-0.3c0.9-1.2,1.7-2.4,2.3-3.6c1.4-3,2-6.4,1.7-9.8C942.8,736,942.4,734,941.8,732.2z
		"/>
	<path class="st15" d="M1073.5,700.3c-6,1.1-10.9,1.9-13.8,2.3c-61.2,10.1-82.2,11.7-108.2,25.5c-3.4,1.8-6.1,3.4-7,3.9
		c-0.7,3.2-0.7,6.6,0,9.8c0.6,2.8,1.8,5.5,3.5,7.8c2.3,0,4.7,0,7,0c34.7-0.4,76-7.8,122.1-30.2
		C1076,713.1,1074.8,706.7,1073.5,700.3z"/>
	<path d="M1073.5,738.1c1.3-8.9,5.1-18,3-27c-0.9-4-3.3-8.4-7.1-10.1c-3.2-1.5-6.7-0.8-9.9,0.5c-3.8,1.7-7.2,4.3-10.7,6.7
		c-1.4,1-0.1,3.3,1.3,2.3c2.7-2,5.5-3.8,8.3-5.5c2.6-1.4,5.8-2.8,8.8-2c3.6,0.9,5.7,4.8,6.6,8.2c1.1,4,0.8,8.2,0,12.2
		c-0.9,4.7-2.2,9.3-2.8,14C1070.8,739.1,1073.3,739.8,1073.5,738.1L1073.5,738.1z"/>
	<path d="M1075.2,729.4c-0.9-3.6-2.6-7-4.9-10c-0.5-0.5-1.3-0.5-1.8,0c-0.2,0.2-0.3,0.4-0.3,0.6c-1.4,7.3-2,14.8-3.4,22.1
		c-1.1,5.5-3,11.6,1.1,16.4c1.1,1.2,2.9-0.6,1.8-1.9c-3.6-4.2-1-10.5-0.2-15.3c1.2-6.8,1.9-13.8,3.2-20.5l-2.1,0.6
		c2,2.6,3.5,5.6,4.3,8.8c0.2,0.7,0.9,1.1,1.6,0.9C1075.1,730.8,1075.4,730.1,1075.2,729.4z"/>
	<path d="M1080.3,718.1c-0.3-6.4-1.9-13-6.6-17.4c-0.5-0.5-1.4-0.5-1.8,0c-0.3,0.4-0.4,0.8-0.3,1.2c4.1,17.9-1.2,36-6,53.1
		c-1.4,4.8-2.6,9.6-3.8,14.4c-0.3,1.7,2,2.4,2.5,0.7c4.2-17.7,11-35.1,11.3-53.6c0.1-5.2-0.4-10.3-1.5-15.3l-2.1,1.3
		c4.1,4,5.5,9.9,5.8,15.6C1077.9,719.9,1080.4,719.9,1080.3,718.1L1080.3,718.1z"/>
	<path d="M1063,721.9c-0.3,25.5-3.8,50.9-10.7,75.3c-2,6.9-4.2,13.7-6.6,20.5c-0.6,1.6,1.9,2.3,2.5,0.7c8.8-24,14.3-49.1,16.4-74.7
		c0.6-7.2,0.9-14.5,1-21.7c0-0.7-0.6-1.3-1.3-1.3C1063.6,720.7,1063,721.2,1063,721.9L1063,721.9z"/>
	<path d="M840,799.7c0.6-4.7,0-9.6-1.8-14c-1.7-4.5-4.1-8.6-6.2-12.9c-2.1-4.3-4.3-8.6-5.2-13.4c-1.1-6.3-1.5-12.8-1.2-19.2
		c0.3-7.3,1.1-14.5,1.8-21.7c0.2-1.6-2-1.7-2.6-0.4c-2.8,8.1-4.7,16.6-5.5,25.2c0,0.7,0.6,1.3,1.3,1.3c0.7,0,1.3-0.6,1.3-1.3
		c0.8-6.2,0.9-12.5,2.4-18.7c0.3-1.9,1-3.6,1.9-5.2c0.3-0.5,0.8-1.4,1.4-1.7c0.1,0,0-0.1,0.2,0.1c0.3,0.3,0.5,0.6,0.7,1.1
		c0.8,1.5,3,0.2,2.2-1.3c-1.1-2.2-3.2-3.3-5.1-1.4c-1.4,1.5-2.5,3.5-3,5.5c-2.2,6.9-2.1,14.6-3.1,21.7h2.6
		c0.8-8.4,2.6-16.6,5.4-24.5l-2.6-0.4c-1.1,12.6-2.8,25.3-1.1,38.1c0.7,5.1,2.2,10,4.4,14.5c2.1,4.4,4.5,8.4,6.6,12.8
		c2.1,4.7,3.6,10,2.8,15.2c-0.2,0.7,0.2,1.4,0.9,1.6C839,800.6,839.7,800.3,840,799.7L840,799.7z"/>
	<path d="M828.7,781.4c3.2,6.9,6.5,13.8,9.6,20.6c0.7,1.5,2.9,0.2,2.2-1.3c-3.2-6.9-6.5-13.8-9.6-20.6
		C830.2,778.6,828,779.9,828.7,781.4z"/>
	<path d="M834.9,714.6c-1.9-2.4-4.7-4.1-7.8-3.3c-2.8,0.8-4.9,3.2-6.6,5.6c-4.4,6.6-5.4,14.9-4.8,22.8c0.5,5.2,1.4,10.3,2.9,15.3
		c0.3,0.7,0.9,1.1,1.6,0.9c0.6-0.2,1-0.9,0.9-1.5c-2.1-7.8-3.7-16.2-2.6-24.5c0.4-3.2,1.3-6.2,2.7-9.1c1.2-2.3,2.8-4.8,5-6.2
		c0.9-0.7,2-1,3.2-0.8c1.5,0.3,2.6,1.5,3.6,2.7C834.2,717.9,836,716,834.9,714.6L834.9,714.6z"/>
	<path d="M829.7,713.7c-1.8-1.6-3.9-2.9-6.4-2.7c-2.1,0.4-4,1.6-5.3,3.4c-3.2,4-4.7,9.4-5.6,14.5c-0.5,2.4-0.8,4.8-0.8,7.3
		c0.1,1.7,2.6,1.7,2.6,0c-0.2-4.1,0.9-8.4,2-12.3c0.7-2.2,1.6-4.4,2.7-6.3c0.9-1.5,2-2.8,3.5-3.6c0.8-0.4,1.5-0.4,2.3-0.2
		c1.1,0.4,2.1,1,3,1.8C829.1,716.7,830.8,714.7,829.7,713.7L829.7,713.7z"/>
	<path d="M813.1,733.5c5.6,13.2,11.2,26.5,16.4,39.9l2.1-1.3c-0.9-0.9-0.9-2.2-1.2-3.5c-0.2-1.3-0.6-2.7-1.2-3.9
		c-0.7-1.3-1.5-2.5-2.3-3.8c-0.7-1.3-1.2-2.8-1.5-4.4c-0.7-3.2-1.1-6.3-1.3-9.6c-0.3-3.4-0.7-6.8-0.9-10.2c-0.2-1.7-2.7-1.7-2.6,0
		c0.3,3.6,0.6,7.3,1,10.9c0.3,3.4,0.7,6.8,1.4,10c0.3,1.5,0.9,3,1.6,4.4c0.7,1.4,1.6,2.7,2.3,4c1.3,2.6,0.8,5.7,2.8,7.9
		c0.9,0.9,2.6,0,2.1-1.3c-5.2-13.7-10.9-27.2-16.6-40.6C814.7,730.6,812.4,732,813.1,733.5L813.1,733.5z"/>
	<path d="M837.1,789.4c4,11.8,9.3,22.9,15,33.9c0.4,0.6,1.2,0.8,1.8,0.4c0.4-0.3,0.7-0.9,0.6-1.4c-3.6-13.2-8.9-25.7-15.8-37.4
		c-0.9-1.5-3.1-0.1-2.2,1.3c6.7,11.5,11.9,23.8,15.5,36.7l2.3-1.1c-5.6-10.8-10.8-21.6-14.7-33.3C839,787.1,836.6,787.8,837.1,789.4
		L837.1,789.4z"/>
	<path d="M1073.5,698.5c0.2-0.7,0.1-1.5-0.3-2.1s-0.9-1.2-1.6-1.4c-0.7-0.2-1.4-0.2-2,0c-0.6,0.2-1.3,0.4-1.9,0.8
		c-0.6,0.4-0.9,1.2-0.4,1.9c0.3,0.6,1.1,0.9,1.8,0.4c0.3-0.2,0.6-0.4,0.9-0.4l-0.3,0.2c0.3-0.2,0.7-0.3,1-0.3h-0.3
		c0.2,0,0.4,0,0.6,0h-0.3c0.2,0,0.3,0.1,0.4,0.1l-0.3-0.2c0.2,0.1,0.3,0.2,0.3,0.3l-0.3-0.2c0.2,0.1,0.3,0.3,0.3,0.4l-0.2-0.3
		c0.1,0.1,0.2,0.3,0.3,0.4l-0.2-0.3c0.1,0.1,0.1,0.3,0.1,0.4l-0.1-0.4c0,0.1,0,0.3,0,0.4l0.1-0.4l-0.1,0.2c-0.2,0.7,0.2,1.4,0.9,1.7
		c0.7,0.2,1.4-0.2,1.6-0.9C1073.4,698.6,1073.4,698.6,1073.5,698.5L1073.5,698.5z"/>
	<path d="M1077.9,713c-4.5,18.1-9.3,36.2-14.5,54.1c-1.4,5.1-3,10.1-4.5,15.2c-0.5,1.6,2,2.3,2.5,0.7c5.4-17.9,10.4-35.8,15.1-53.9
		c1.4-5.2,2.6-10.3,3.9-15.5C1080.8,712.1,1078.3,711.4,1077.9,713L1077.9,713z"/>
	<path d="M1059.6,778.8c-1.6,5.2-3.6,10.3-5.5,15.4l-2.8,7.7l-1.4,3.7l-0.8,2l-0.3,0.8c0,0-0.5,1.1-0.1,0.9l1,0.2l-0.2-0.1
		c-1.4-0.9-2.7,1.4-1.3,2.3c1.1,0.7,2.1-0.2,2.6-1.2c0.6-1.4,1-2.9,1.5-4.4l3.2-9c2.1-5.9,4.4-11.7,6.3-17.7
		C1062.6,777.8,1060.1,777.2,1059.6,778.8L1059.6,778.8z"/>
	<path d="M1051.8,704.9c0.7,0,1.3-0.6,1.3-1.3s-0.6-1.3-1.3-1.3s-1.3,0.6-1.3,1.3S1051.1,704.9,1051.8,704.9z"/>
	<path d="M1056.4,698l-6.8,2.8l1,2.4c4.2-2.1,8.5-3.8,13-5.1c2-0.7,4.1-1.2,6.2-1.3c0.9-0.1,1.8,0.1,2.6,0.5
		c0.9,0.7,1.4,1.6,1.7,2.7c0.6,1.6,3.1,0.9,2.5-0.7c-0.9-2.3-2-4.4-4.4-5c-2.5-0.6-4.9,0.2-7.3,0.7c-5.4,1.3-10.6,3.4-15.5,5.9
		c-1.3,0.6-0.3,2.9,1,2.4l6.8-2.8C1058.7,700,1058,697.4,1056.4,698L1056.4,698z"/>
	<path d="M1072,725c0.7,0,1.3-0.6,1.3-1.3c0-0.7-0.6-1.3-1.3-1.3s-1.3,0.6-1.3,1.3C1070.7,724.3,1071.3,725,1072,725z"/>
	<path d="M820.2,725.3c0,6.2-0.6,12.4-1.8,18.5h2.5c-0.9-3.7-1-7.6-0.7-11.5c0.2-1.9,0.5-3.6,0.9-5.5c0.3-0.9,0.5-1.8,0.8-2.7
		c0.2-0.4,0.3-0.9,0.5-1.3c0.1-0.2,0.4-0.7,0.4-0.7c1.2,0.4,2.3-1.3,1.3-2.2c-2.6-2.3-6-0.5-7.4,2.3c-1.6,3.3-1.2,7.3-2.9,10.5
		l2.3,0.3c-0.8-3.8,0.9-7.8,3.6-10.4c3-2.8,7-4,10.7-5.1c0.7-0.3,1-1,0.9-1.7c-0.2-0.6-0.9-1.1-1.4-0.9c-4.4,1.2-9,2.7-12.4,6.1
		c-3.2,3.3-4.6,7.9-3.8,12.5c0.2,0.7,0.9,1.2,1.6,0.9c0.3-0.1,0.5-0.3,0.7-0.5c1.4-2.5,1.5-5.3,2.1-8.1c0.2-1.3,0.8-2.5,1.5-3.6
		c0.7-0.7,1.9-1.3,2.7-0.6l1.3-2.2c-2.1-0.6-3.3,1.6-3.9,3.4c-0.8,2.3-1.4,4.6-1.7,7c-0.7,4.8-0.5,9.8,0.5,14.5
		c0.2,0.7,0.9,1.1,1.6,0.9c0.4-0.1,0.8-0.4,0.9-0.9c1.2-6.3,1.8-12.7,1.9-19.1c0-0.7-0.6-1.3-1.3-1.3
		C820.9,723.9,820.2,724.7,820.2,725.3L820.2,725.3z"/>
	<path d="M830.3,711.7c-0.2-0.4-0.3-0.6-0.6-0.9l-0.6,2.2l0.3-0.1c1.4-0.4,1.1-2.7-0.3-2.6c-1.6,0-3.2,0.2-4.9,0.4
		c-1.4,0.4-2.7,1.5-3.3,3c-1.5,3-2.6,6.2-3.2,9.6c0,0.7,0.6,1.3,1.3,1.3c0.7,0,1.3-0.6,1.3-1.3c0.4-2.8,1.3-5.4,2.6-7.8
		c0.2-0.5,0.4-1,0.8-1.4c0.3-0.4,0.8-0.6,1.3-0.7c1.4-0.2,2.7-0.4,4.1-0.4l-0.3-2.7l-0.3,0.1c-0.7,0.2-1.1,1-0.9,1.7
		c0.1,0.2,0.2,0.4,0.3,0.5c0.1,0.1,0.2,0.2,0.3,0.3c0.3,0.6,1.1,0.8,1.7,0.4s0.8-1.2,0.4-1.8H830.3z"/>
	<path d="M812.1,735.4c0,1.7,0.4,3.4,1.1,4.9c0.7,1.3,1.2,2.8,1.4,4.4l2.4-0.7c-0.8-1.2-1.4-2.5-2-3.8c-0.3-0.6-0.5-1.3-0.7-2
		c-0.1-0.4-0.5-1.2-0.3-1.5h-2.2c0.4,0.7,0.9,1.4,1.3,2c0.3,0.4,0.6,1.1,0.7,1.6c0.1,0.8-0.2,1.6,0,2.4s0.4,1.4,0.6,2l1.3,4.4
		c0.4,1.3,0.6,2.9,2,3.5c0.7,0.2,1.4-0.3,1.5-0.9c0.2-0.7-0.2-1.4-0.9-1.6l-0.2-0.1l0.6,0.4c-0.3-0.3-0.3-1.2-0.5-1.6l-0.6-2
		c-0.4-1.3-0.8-2.7-1.2-4c-0.4-1.3,0-2.6-0.4-3.8c-0.5-1.2-1.2-2.5-2-3.6c-0.3-0.6-1.2-0.8-1.8-0.4c-0.2,0.1-0.3,0.3-0.4,0.4
		c-0.9,1.6,0.1,3.6,0.6,5.1c0.7,1.7,1.4,3.4,2.4,5c0.6,1.1,2.6,0.7,2.4-0.7c-0.3-1.7-0.7-3.3-1.4-4.9c-0.7-1.3-1.1-2.8-1.2-4.4
		C814.7,733.6,812.2,733.6,812.1,735.4L812.1,735.4z"/>
	<path d="M817,752.1c0.9,2.4,1.9,4.8,2.8,7.2c0.8,2,1.5,4.1,3.2,5.4c0.5,0.5,1.4,0.4,1.8-0.1c0.3-0.4,0.4-0.8,0.3-1.2l-2.6-10
		c-0.4-1.7-2.7-1-2.5,0.7c0.3,1.7,0.5,3.5,0.7,5.2l2.4-0.7l-4.3-7.6c-0.7-1.2-2.9-0.4-2.3,1.1c1.2,3.1,2.5,6.2,3.8,9.2
		c0.7,1.5,1.4,2.9,2.1,4.4c0.7,1.4,1.4,2.8,2.4,4.2c0.3,0.6,1.1,0.8,1.7,0.4c0.6-0.4,0.9-1.2,0.4-1.8c-0.9-1.2-1.6-2.7-2.3-4.1
		c-0.7-1.4-1.4-2.8-2-4.3c-1.4-2.9-2.6-5.9-3.7-8.9l-2.3,1.1l4.4,7.6c0.3,0.6,1.2,0.8,1.8,0.4c0.3-0.3,0.6-0.6,0.6-1.1
		c-0.2-2-0.4-3.9-0.8-5.9l-2.5,0.7l2.6,10l2.1-1.3c-1.4-1.2-2.1-3.1-2.8-4.9c-0.9-2.2-1.7-4.4-2.6-6.6c-0.3-0.7-0.9-1.1-1.5-0.9
		c-0.7,0.2-1,1-0.9,1.6L817,752.1z"/>
	<path d="M823.9,766.9c0.3,4,2.6,7.6,4.3,11.1c0.9,2,1.8,3.9,2.6,5.9c0.8,1.8,1.4,3.7,2.6,5.2c1,1.3,2.8-0.5,1.8-1.9
		c-1-1.3-1.7-3.4-2.4-5.1c-0.7-1.7-1.5-3.4-2.3-5.2c-0.8-1.8-1.6-3.3-2.4-4.9c-0.9-1.6-1.4-3.4-1.7-5.2
		C826.4,765.2,823.9,765.2,823.9,766.9L823.9,766.9z"/>
	<path d="M838.3,791.8c-0.6-2.9-1.5-5.7-2.6-8.4c-0.5-1.3-1.1-2.6-1.8-3.8c-0.7-1.2-1.3-2.7-2.6-3.1c-1.5-0.5-2.2,2-0.7,2.6
		c-0.1-0.1-0.1-0.1,0.1,0.1c0.1,0.1,0.1,0.2,0.2,0.3c0.2,0.3,0.3,0.5,0.5,0.9c0.3,0.5,0.6,1.1,0.9,1.6c0.5,1.1,1,2.2,1.4,3.4
		c0.9,2.4,1.7,4.9,2.2,7.4C836.1,794.2,838.6,793.5,838.3,791.8L838.3,791.8z"/>
	<path d="M831,780.1l-1.8-4.9c-0.6-1.6-1.1-3.2-1.5-4.8c-0.2-0.7-0.9-1.2-1.5-0.9c-0.7,0.2-1.1,0.9-0.9,1.6c0.4,1.6,0.9,3.2,1.5,4.8
		s1.2,3.3,1.8,4.9c0.2,0.7,0.9,1.1,1.5,0.9C830.8,781.4,831.1,780.7,831,780.1L831,780.1z"/>
	<path d="M822.2,764.7c0.9,3.4,2,6.8,3.4,10c0.7,1.4,1.2,3,1.5,4.5c0.3,1.4,0.9,3.4,2.7,3.2c0.7,0,1.3-0.6,1.3-1.3s-0.6-1.3-1.3-1.3
		c0.2,0.2,0.2,0.2,0,0c-0.2-0.2-0.1-0.3-0.1-0.4s-0.1-0.5-0.2-0.8c-0.2-0.7-0.3-1.3-0.5-2c-0.5-1.3-1.1-2.7-1.6-4
		c-1.1-2.8-2-5.6-2.8-8.4c-0.3-0.7-1-1.1-1.6-0.8C822.3,763.5,822,764.1,822.2,764.7L822.2,764.7z"/>
	<path d="M828.4,781.9l4.3,10.5c0.6,1.6,1.4,3.1,2.1,4.6c0.9,1.3,1.5,2.8,2,4.2l2.3-1.1c-2.5-4.5-5.7-9.3-6-14.8l-2.5,0.4
		c1.1,4.3,2.5,8.4,4.1,12.4c0.8,2,1.8,3.8,2.9,5.5s2.3,3.3,4.2,4.1c1.1,0.4,1.9-1.1,1.4-2c-0.7-1.3-0.8-3.1-1.2-4.5
		c-0.5-1.6-1.1-3.1-1.8-4.5c-0.7-1.5-2.9-0.2-2.2,1.3s1.3,3.1,1.7,4.7c0.3,1.5,0.7,3,1.2,4.4l1.4-2c-1.5-0.6-2.6-2.7-3.4-4.2
		c-0.9-1.6-1.7-3.3-2.4-5c-1.4-3.6-2.6-7.3-3.6-11c-0.4-1.4-2.6-1.2-2.6,0.4c0.2,6,3.5,11.1,6.3,16.1c0.4,0.6,1.2,0.8,1.8,0.4
		c0.4-0.3,0.7-0.9,0.6-1.4c-0.5-1.6-1.2-3.2-2-4.6s-1.5-2.9-2.1-4.5c-1.4-3.6-3-7.3-4.4-10.8C829.9,778.9,827.7,780.3,828.4,781.9
		L828.4,781.9z"/>
	<path d="M838.7,805c1.9,3.3,3.7,6.5,5.4,9.9c0.9,1.6,1.6,3.3,2.3,5c0.6,1.5,1.3,2.9,2.8,3.6c1.5,0.6,2.2-2,0.7-2.6
		c-0.4-0.2-0.7-1-0.9-1.3c-0.3-0.8-0.7-1.6-1-2.3c-0.7-1.5-1.4-3-2.1-4.5c-1.5-3-3.2-6-4.9-9c-0.3-0.6-1.2-0.8-1.8-0.4
		C838.6,803.7,838.3,804.4,838.7,805L838.7,805z"/>
	<path d="M847.4,821.4c0,1.3,0.3,2.7,0.9,3.8c0.5,1.2,1,2.5,1.5,3.7l1.5,3.7c0.3,1.1,1,2,1.9,2.7c0.6,0.4,1.4,0.2,1.8-0.5
		c0.2-0.3,0.2-0.6,0.1-1c-0.9-2.4-1.4-4.8-1.8-7.3l-2.6,0.4l5,12.7c0.3,0.7,0.9,1.1,1.5,0.9c0.7-0.2,1-1,0.9-1.6l-5-12.6
		c-0.2-0.6-0.8-1.1-1.4-1c-0.6,0.1-1.1,0.6-1.1,1.3c0.3,2.8,0.9,5.4,1.9,8l1.9-1.5c-0.7-0.4-0.9-1.6-1.3-2.4l-1.3-3.1l-1.3-3.1
		c-0.5-1-0.8-2-0.8-3.2c0.2-1.7-2.4-1.7-2.6,0L847.4,821.4z"/>
	<path d="M856.5,840.1c0.6,2.7,2.1,4.9,3.2,7.3c1.3,2.5,2.4,5.1,3.6,7.6c0.3,0.6,1.1,0.8,1.7,0.4c0.6-0.4,0.8-1.2,0.4-1.8
		c-1.1-2.5-2.2-5-3.4-7.4c-1.1-2.2-2.6-4.4-3.2-6.9C858.5,837.8,856.1,838.5,856.5,840.1L856.5,840.1z"/>
	<path d="M854.4,823.1l0.3,0.3c0,0.2,0.1,0.2,0,0.1s0,0.3,0,0l-2.6,0.4c0.5,1.3,0.9,2.7,1.4,4c0.2,0.7,0.3,1.3,0.5,2
		c0.1,0.7,0.3,1.4,0.7,2c0.3,0.6,1.1,0.9,1.7,0.5c0.6-0.4,0.9-1.2,0.5-1.8c0,0,0-0.1-0.1-0.1c0-0.1-0.1-0.2-0.1-0.2
		c0.1,0.1,0.1,0.1,0,0c0-0.1-0.1-0.3-0.1-0.4c-0.1-0.4-0.2-0.6-0.3-1c-0.2-0.7-0.3-1.3-0.5-2c-0.3-1.3-0.9-2.6-1.3-3.8
		c-0.2-0.7-0.9-1.2-1.6-0.9c-0.5,0.2-0.9,0.7-0.9,1.2c-0.1,0.8,0.3,1.6,0.9,2c0.6,0.4,1.4,0.2,1.8-0.4c0.3-0.6,0.2-1.4-0.4-1.9
		L854.4,823.1z"/>
	<path d="M1032.5,848.9c-0.3,1.4-1.4,2.8-2.1,4c-0.7,1.2-1.6,2.8-2.4,4.3c-1.5,2.9-3,5.9-4.3,8.9c-0.3,0.6-0.1,1.4,0.4,1.8
		c0.6,0.4,1.4,0.1,1.7-0.4c1.4-3.1,2.8-6.2,4.4-9.2c0.8-1.4,1.5-2.8,2.4-4.3c0.9-1.4,1.9-2.8,2.3-4.4S1032.8,847.2,1032.5,848.9
		L1032.5,848.9z"/>
	<path d="M1044.6,826.4c-1.3,1.8-1.9,3.9-2.6,6c-0.9,2-1.9,4.1-3.2,5.9c-0.3,0.6-0.1,1.4,0.5,1.8s1.4,0.1,1.7-0.4
		c1.3-1.9,2.4-3.9,3.2-6c0.8-2,1.4-4,2.6-5.8c0.3-0.6,0.2-1.4-0.4-1.9C1045.8,825.6,1045.1,825.8,1044.6,826.4L1044.6,826.4z"/>
	<path d="M1045.3,826.5c0.3-1.1,0.6-2,1.2-2.9c0.5-1.1,0.9-2.1,1.4-3.2c0.9-2.1,1.9-4.4,2.7-6.5l-2.5-0.7c-0.4,1.7-1.1,3.3-1.9,4.8
		l-2.2,5.1l2.3,0.4c-0.3-1,0.4-2.2,0.8-3.1l1.4-3.7l2.6-7.3l-2.5-0.7c-0.3,1.2-1,2.2-1.4,3.3c-0.5,1.2-0.8,2.6-0.9,3.9
		c-0.1,1.7,2.5,1.7,2.6,0c0.1-1.2,0.3-2.4,0.9-3.5c0.6-1,1-2,1.4-3.1c0.2-0.7-0.3-1.4-0.9-1.6c-0.7-0.2-1.4,0.3-1.5,0.9l-2.9,8
		l-1.4,3.9c-0.5,1.2-0.7,2.5-0.5,3.7c0.2,0.7,0.9,1.2,1.6,0.9c0.3-0.1,0.6-0.3,0.8-0.6l2.3-5.4c0.9-1.6,1.5-3.3,2-5.1
		c0.2-0.7-0.3-1.4-0.9-1.6c-0.7-0.2-1.4,0.3-1.5,0.9c-0.9,2.3-1.9,4.5-2.9,6.8c-0.9,2-2.4,4.3-2.6,6.6c0,0.7,0.6,1.3,1.3,1.3
		C1044.8,827.8,1045.3,827.3,1045.3,826.5L1045.3,826.5z"/>
	<path d="M1049.7,819.4c3.7-6.7,4.9-14.4,7.5-21.5l-2.5-0.4c0.2,3.1-1.4,6.1-2.1,9.1c-0.9,3-1.7,6.1-2.5,9.2l2.5,0.7
		c1.3-7.9,6-14.8,6.5-22.9c0.1-1.7-2.5-1.7-2.6,0c-0.3,7.8-5.1,14.6-6.3,22.2c-0.3,1.7,2,2.4,2.5,0.7c0.9-3.2,1.7-6.4,2.6-9.6
		c0.9-3,2.3-6.1,2.1-9.3c0-0.7-0.6-1.3-1.4-1.3c-0.5,0-1,0.4-1.2,1c-2.6,6.9-3.6,14.5-7.2,20.9c-0.3,0.6-0.1,1.4,0.5,1.8
		C1048.6,820.2,1049.3,820,1049.7,819.4L1049.7,819.4z"/>
	<path d="M1058.4,796.6l3.3-11.2c1.1-3.6,2-7.5,3.5-10.9l-2.4-0.7c-0.2,1.2-0.4,2.3-0.8,3.4c-0.3,1.2-0.6,2.2-0.9,3.4
		c-0.6,2.1-1.2,4.2-1.8,6.2s-1.2,4.2-1.9,6.2l-1,3.3l-0.5,1.6l-0.3,0.8c-0.3,0.4-0.2,0.5,0.3,0.4c-1.6-0.3-2.3,2.3-0.7,2.6
		c2.5,0.4,3-2.6,3.6-4.4c0.9-2.6,1.6-5.2,2.5-7.8c0.9-2.7,1.5-5.2,2.2-7.7c0.7-2.6,1.7-5.2,1.9-7.9c0.1-1.2-1.9-1.9-2.4-0.7
		c-1.4,3.6-2.6,7.4-3.7,11.2l-3.5,11.6C1055.5,797.6,1057.9,798.3,1058.4,796.6L1058.4,796.6z"/>
	<path d="M1063.4,754.9c-0.1,7.2-1.1,14.3-2.9,21.3h2.5c-0.4-1.6,0.6-3.9,1.1-5.4c0.6-1.8,1.4-3.4,0.9-5.3c-0.2-0.7-0.9-1.1-1.6-0.9
		c-0.4,0.1-0.8,0.4-0.9,0.9c-0.3,0.7-0.5,1.3-0.8,2c-0.7,1.5,1.5,2.9,2.2,1.3c0.4-0.9,0.8-1.8,1-2.7h-2.5c0.1,0.9-0.1,1.9-0.5,2.7
		c-0.3,0.9-0.7,1.8-0.9,2.8c-0.5,1.7-1.1,3.6-0.6,5.3c0.2,0.7,0.9,1.1,1.6,0.9c0.4-0.1,0.8-0.4,0.9-0.9c1.9-7.1,2.9-14.5,3-22
		c0-0.7-0.6-1.3-1.3-1.3S1063.4,754.2,1063.4,754.9z"/>
	<path d="M1065.1,777.3c2.1-6.9,3.6-14,4.3-21.3c0.2-1.7-2.4-1.7-2.6,0c-0.7,6.9-2,13.9-4.2,20.5
		C1062.1,778.3,1064.6,778.9,1065.1,777.3L1065.1,777.3z"/>
	<path d="M1069.5,725.6c-0.4,4.8-1.2,9.5-2,14.2l-1.1,6.8c-0.3,2.3-0.8,4.5-1.4,6.8l2.6,0.4c-0.7-6,0.3-11.9,1.2-17.9
		c0.4-2.8,0.9-5.8,1.1-8.7c0.2-2.6,0.4-5.6-1.9-7.3c-0.6-0.4-1.4-0.2-1.8,0.5c-0.1,0.2-0.2,0.4-0.2,0.6c0,1.2-0.3,2.6-0.8,3.7
		c-0.4,1.2-0.7,2.4-0.9,3.6c-0.3,2.6-0.4,5.2-0.4,7.7c0,0.7,0.6,1.3,1.3,1.3c0.7,0,1.3-0.6,1.3-1.3c-0.1-2.6,0.1-5.2,0.4-7.8
		c0.4-2.4,1.8-4.7,1.6-7.3l-2,1.2c0.9,0.6,0.8,2.3,0.7,3.3c-0.1,1.3-0.2,2.7-0.3,4c-0.3,2.8-0.8,5.4-1.2,8.2
		c-0.8,5.3-1.5,10.7-0.9,16.1c-0.1,0.7,0.4,1.4,1.1,1.5c0.7,0.1,1.4-0.4,1.4-1.2c0.7-2.2,1.1-4.4,1.4-6.8l1.2-7.3
		c0.8-4.8,1.6-9.6,2-14.5C1072.2,723.8,1069.7,723.8,1069.5,725.6L1069.5,725.6z"/>
	<path d="M1067.8,766.5c1.4-3.8,2.6-7.8,3.7-11.7c1.2-4.1,2.2-8.3,3.1-12.4c0.3-1.7-2.2-2.4-2.5-0.7c-0.8,4.2-1.8,8.4-3.1,12.4
		c-1.1,3.9-2.2,7.9-3.7,11.7C1064.7,767.4,1067.2,768.1,1067.8,766.5L1067.8,766.5z"/>
	<path d="M1073.4,748l5.5-19.8c0.2-0.7-0.3-1.4-0.9-1.6c-0.7-0.2-1.4,0.3-1.5,1l-5.5,19.8c-0.2,0.7,0.3,1.4,1,1.6
		C1072.7,748.9,1073.3,748.5,1073.4,748z"/>
	<path d="M1078.8,728.3c0.7-3.2,1.5-6.4,1.5-9.6l-2.4,0.7c0.2,0.5,0.1,1.2-0.1,1.7c-0.2,0.9-0.4,1.8-0.6,2.7
		c-0.4,1.8-0.9,3.5-1.4,5.2c-0.2,0.7,0.3,1.4,0.9,1.6c0.7,0.2,1.4-0.3,1.5-0.9c0.5-2,1-3.8,1.4-5.8c0.4-1.9,1.1-3.9,0.3-5.8
		c-0.6-1.2-2.4-0.6-2.4,0.7c0,3-0.8,6-1.4,8.9c-0.2,0.7,0.2,1.4,0.9,1.7C1077.8,729.5,1078.5,729.1,1078.8,728.3
		C1078.7,728.3,1078.7,728.3,1078.8,728.3L1078.8,728.3z"/>
	<path d="M1074.2,701.3c1.4,1.9,1.7,4.4,2.1,6.7c0.5,2.5,0.9,5.1,1.2,7.6c0,0.7,0.6,1.3,1.3,1.3c0.7,0,1.3-0.6,1.3-1.3
		c-0.3-2.8-0.7-5.6-1.3-8.4c-0.5-2.5-0.9-5.2-2.4-7.4c-0.3-0.6-1.1-0.8-1.7-0.4C1074.1,699.9,1073.9,700.7,1074.2,701.3
		C1074.3,701.3,1074.3,701.3,1074.2,701.3L1074.2,701.3z"/>
	<path d="M1074.1,699.6c2.7,5.8,3.9,12.3,3.6,18.7c-0.1,1.7,2.5,1.7,2.6,0c0.3-6.9-1-13.8-3.9-20
		C1075.7,696.7,1073.4,698,1074.1,699.6L1074.1,699.6z"/>
	<path d="M1074.1,701.2c0.2-2-2.4-2.5-3.8-2.8c-2-0.6-4.1-0.8-6.1-0.6c-1.9,0.4-3.7,1.1-5.4,2.1c-1.8,1-3.7,1.7-5.6,2.2
		c-0.7,0.3-1,1-0.9,1.7c0.2,0.6,0.9,1.1,1.4,0.9c1.5-0.4,3.1-1,4.5-1.7c1.4-0.6,2.7-1.6,4.3-2.1c1.5-0.5,3.2-0.7,4.9-0.4
		c0.9,0.2,1.7,0.4,2.5,0.6l1,0.3l0.7,0.2c0.2-0.1,0.1-0.2-0.2-0.4C1071.5,703,1074,703,1074.1,701.2L1074.1,701.2z"/>
	<path d="M1051,702.6c-1.8-0.4-3.4,0.4-5,1.1l-5.1,2.5l1.3,2.3l8.9-5c0.6-0.4,0.8-1.2,0.4-1.9c-0.1-0.2-0.3-0.4-0.4-0.4
		c-1.4-0.8-3,0.3-4.3,0.9c-1.5,0.7-3.1,1.5-4.6,2.2c-1.4,0.6-2.7,1.4-3.9,2.5c-1.1,1-2,2.1-2.6,3.5c-0.8,1.5,1.4,2.8,2.2,1.3
		c0.5-1,1.1-1.9,2-2.7c0.9-0.8,2-1.5,3.2-2c1.2-0.6,2.5-1.2,3.7-1.9c0.6-0.3,1.3-0.6,1.9-0.9c0.3-0.2,0.7-0.4,1-0.4l0.3-0.1
		c0.3-0.1,0.3-0.1-0.1-0.1v-2.3l-8.9,5c-0.6,0.4-0.8,1.2-0.4,1.8c0.3,0.6,1.1,0.8,1.7,0.4l4.3-2.1c1.1-0.5,2.6-1.6,3.8-1.2
		C1051.9,705.6,1052.6,703,1051,702.6L1051,702.6z"/>
	<path class="st9" d="M1037.4,705.5c7.7-3.3,15.4-6.7,23.6-8.4c2-0.4,4-0.7,6-0.9c2-0.3,4-0.3,6,0c3.7,0.5,5.6,4.1,7.4,7.1
		c0.9,1.4,3.1,0.1,2.2-1.3c-1.5-2.6-3.1-5.2-5.5-6.9c-2.6-1.9-6-1.7-9-1.5c-6.9,0.4-13.6,2.4-20.1,4.8c-3.7,1.4-7.5,3-11.2,4.6
		C1035.3,703.6,1035.9,706.2,1037.4,705.5L1037.4,705.5z"/>
	<path class="st9" d="M1037.3,705.4c2.1-0.2,4.2-0.7,6.1-1.5c1.9-0.7,3.8-1.3,5.8-2c4-1.3,8.1-2.5,12.3-3.3c2-0.4,4.1-0.7,6.2-0.9
		c2-0.3,4.1-0.4,6.1-0.1c3.7,0.7,6.3,3.9,8.7,6.8c1.1,1.2,2.9-0.6,1.8-1.9c-2-2.3-4-4.6-6.6-6.1c-2.9-1.7-6-1.6-9.3-1.3
		c-6.8,0.7-13.5,2.2-19.9,4.4c-1.8,0.6-3.6,1.2-5.4,1.9c-1.9,0.8-3.8,1.3-5.9,1.5C1035.7,702.9,1035.7,705.6,1037.3,705.4
		L1037.3,705.4z"/>
	<path class="st8" d="M1110,450.5c-7.1-1.9-51.7-13.3-61.2-9.5c-2.7,1.1-6.2,2.6-6.2,2.6c-4.9,2.1-8.9,3.8-11.1,4.9
		c-8.5,3.8-14.3,6.8-19.7,9.2c-5.1,2.4-12.7,5.9-22.2,9.7c-2.1,2.8-2.6,6.7-1.3,10c2,5,7,5.6,7.2,5.6c9.5-4.3,23.5-10.9,40.5-20.1
		c9.5-5.2,11.8-6.8,15.8-8.5c11.5-5.2,29.3-8.8,56-0.7L1110,450.5z"/>
	<path class="st8" d="M787.1,450.2c7.1-1.9,51.7-13.3,61.2-9.5c2.7,1.1,6.2,2.6,6.2,2.6c4.9,2.1,8.9,3.8,11.1,4.9
		c8.5,3.8,14.3,6.8,19.7,9.2c5.1,2.4,12.7,5.9,22.2,9.8c2.1,2.8,2.6,6.7,1.4,10c-2,5-7,5.6-7.2,5.6c-9.5-4.3-23.5-10.9-40.5-20.1
		c-9.5-5.2-11.8-6.8-15.8-8.5c-11.5-5.2-29.3-8.8-56-0.7L787.1,450.2z"/>
	<path class="st16" d="M1141.6,637.4c-9.9,4.1-18.1,7-23.8,8.9c-27.8,9.3-69.1,22.7-117.7,14.9c-6.6-1.1-13.1-2.5-19.5-4.2
		c-4.1-6.2-7.5-13-10.2-20c-2.6-6.8-11.8-31.2-6.3-60.6c0.9-5.2,2.3-10.3,4.1-15.2c3.2-0.8,8.7-2.2,15.4-3.8
		c18.6-4.3,69.3-15,138.7-15.1c4.7,0,10.6,0,17.5,0.2c2.3,3.1,4.3,6.4,6,9.9c12.5,26.5,3.6,59.2,0.2,71.8
		C1144.2,630.2,1142.6,634.8,1141.6,637.4z"/>
	<path class="st16" d="M911,658.3c-10.5,2.2-19.2,3.6-25.2,4.4c-29.3,4.1-72.7,9.6-120.6-8.4c-6.5-2.4-12.9-5.2-19.1-8.4
		c-3.2-7.3-5.8-15-7.5-22.9c-1.7-7.6-7.5-34.9,2-64.2c1.7-5.2,3.7-10.2,6.2-15c3.3-0.2,9-0.5,16.1-0.8c19.3-0.7,71.9-1.6,141.7,12.4
		c4.8,1,10.7,2.2,17.5,3.7c1.9,3.6,3.5,7.6,4.7,11.5c8.9,30.1-4.6,62.2-9.8,74.6C914.7,651.3,912.4,655.8,911,658.3z"/>
	<rect x="929.2" y="582.7" class="st16" width="33.4" height="21.1"/>
	<path class="st17" d="M903.8,648c-3.4,1.1-8.3,2.5-14.3,3.8c-5.5,1.2-23.9,5.1-68.4,2c-32.1-2.2-44.2-5.7-54.1-9.6
		c-5.4-2.1-9.7-4.2-12.7-5.8c-2.6-7.6-4.8-15.2-6.4-23c-3.4-16.5-6.3-30.9-1.6-46.1c1.4-4.8,3.7-9.3,6.4-13.4c4.3,0,10.2,0,17.5,0
		c17.6,0.2,36.1,0.3,58.9,2c18.6,1.3,36.6,2.8,60.5,7.6c9.9,2,18.1,4.2,23.9,5.8c2.4,6.1,4,12.6,4.8,19.2
		c2.6,22.3-5.2,39.9-7.9,46.1C908.4,640.4,906.2,644.3,903.8,648z"/>
	<path class="st17" d="M1132.4,628.1c-3.1,1.7-7.5,4-12.9,6.4c-5.1,2.2-21.7,9.3-64.1,15.2c-30.5,4.2-42.4,3.4-52.1,1.7
		c-5.3-0.9-9.7-2-12.8-2.8c-3.5-6.5-6.5-13.2-9.1-20.1c-5.5-14.6-10.1-27.5-7.7-42.4c0.8-4.7,2.1-9.3,4.2-13.7c4-0.9,9.6-2,16.4-3.4
		c16.5-3.3,34-6.8,55.6-9.8c17.6-2.4,34.8-4.6,57.9-4.7c9.6,0,17.6,0.4,23.3,0.7c3.1,5.2,5.5,10.9,7.1,16.9
		c5.5,20.2,0.5,38.1-1.3,44.3C1135.6,620.3,1134.2,624.3,1132.4,628.1z"/>
</g>
<g>
	<path class="st5" d="M486.2,746.2c2.2,2.4,2.9,4.7,0.7,6.8c-4.2,3.9-8,2.6-11.3,5.8c-4,3.8-2.4,6.9-7.4,11.6
		c-2.6,2.5-5.4,1.7-7.3-0.3c-1.9-2-1.9-4.5-0.1-6.1c1.9-1.8,5.7-2.5,7.7-4.5c1.3-1.2,2.1-3.5,0.4-5.3c-1.4-1.5-3.5-1.7-5.7,0.4
		c-1.1,1-2.4,4.5-4.4,6.4c-2.1,2-4.5,1.8-6.4-0.3c-2-2.1-2.5-4.7-0.5-6.6c5.1-4.8,7.1-2.7,12.2-7.5c5.4-5.1,3.2-7.1,6.4-10.2
		c2.5-2.4,5-1.6,7.3,0.8c1.9,2,2.7,4.4,1.1,5.9c-3.2,3-5,0.9-7.6,3.4c-1.8,1.7-1.4,3.1,0,4.5c2.3,2.4,4.2,2.2,5.3,1.1
		c1.7-1.7,1.6-5.4,3.4-7.1C482.2,742.8,484.9,744.8,486.2,746.2z"/>
	<path class="st5" d="M495.6,774c-9.6,9.3-13.5-1.3-16.2,1.4c-1,1-0.5,2.5,0.2,3.2c1.4,1.5,4.4,1.9,5.2,1.8c1.5-0.1,2.7-0.5,3.3,0.1
		c0.3,0.3,0.2,0.8-0.2,1.3c-4.8,4.7-10.3,3.1-13.2,0.1c-5.1-5.3-2.9-12.8,4.3-19.8c6.6-6.4,12.9-8.1,18.7-2.1
		C501.7,764.1,500.8,769,495.6,774z M488.4,774.5c1.1-1,0.6-2.4-0.1-3.2c-1.7-1.8-3.7-1.7-4.8-0.6c-0.6,0.6-0.7,1.4,0,2.2
		C485,774.5,487,775.9,488.4,774.5z"/>
	<path class="st5" d="M511.2,772.4c1.8,1.8,1.8,4.1-0.7,6.5c-4.1,4-11.3,2.2-16.5,7.4c-1.5,1.5-1.7,3-0.4,4.3c2.8,2.8,6.5,1.7,7.8,3
		c0.9,0.9,0.4,3-0.8,4.1c-3.9,3.9-11.4,1.7-17.9-4.9c-1.4-1.4-1-2.7,0-3.7c5.8-5.8,10.5-5.5,20.6-15.5
		C505.7,771.2,508.8,770,511.2,772.4z"/>
	<path class="st5" d="M525,788.3c0.9,0.9,4,2.1,6,4.1c2.2,2.2,1.9,5-1.5,8.5c-11.7,12-15.4-5-19.3-1.1c-4.4,4.5-2.9,5.1-6.1,8.4
		c-1.9,2-3.9,1.4-5.4-0.1c-2-1.9-1.8-4.1-0.3-5.7c2.1-2.1,6.7-4,13.5-11c2.9-3,4.5-5,4.8-6.5c0.1-0.7,0.5-1.4,1.1-2.1
		c1-1,2.3-1.3,3.8,0.2C522.9,784.5,522.3,785.7,525,788.3z M517,793.4c-1.1,1.1-2,2.9-1,4c0.9,0.9,3.2,0.8,5.4-1.5
		c1.1-1.1,1.4-2.5,0.1-3.7C520.7,791.3,519.1,791.2,517,793.4z"/>
	<path class="st5" d="M551.6,820.8c-0.8,0.8-1.8,1-2.4,0.5c-1.3-1.2,1.6-3.2-1.4-6.1c-0.7-0.6-2-0.8-2.8,0.1c-3,3.3,4.3,8.7-2.5,16
		c-6.2,6.6-12,5.7-15.5,2.4c-4.2-3.9-4.1-8.9-0.9-12.3c1.1-1.2,3-2.2,3.9-1.3c0.9,0.8-1.2,2.6,1.3,4.9c0.9,0.8,2.2,0.8,3.3-0.3
		c3.5-3.8-3-6.3,3.4-13.2c3.1-3.4,7.9-4.2,11.7-0.7C552.8,813.8,554.4,817.7,551.6,820.8z"/>
	<path class="st5" d="M572.8,829.3c2.3,2,1.9,4.9-0.3,7.4c-2.5,2.8-7.5,5.9-13,12c-5,5.6-4.7,8-5.7,9.2c-0.5,0.6-1.5,0.4-2.1-0.2
		c-1.3-1.1-2-3.9-1.9-6.8c0.2-6.1,7.5-16.7,4.7-19.1c-1-0.9-2.3-0.1-3.2,0.9c-4.6,5.2-2.8,9.2-6,12.8c-2,2.2-5.2,1.6-6.9,0.1
		c-2.3-2.1-2.1-4.5-0.7-6.1c1.3-1.4,3.4-2.5,5.2-3.3c1.6-0.7,4.1-1.8,8.2-6.3c1-1.2,2.1-2.5,3-3.9c2.9-4.2,1.7-6,3-7.4
		c0.8-0.9,2.1-0.6,3.1,0.3c2.9,2.6,3.3,7.9-1,18.4c-1,2.4-2.7,5.5-1.1,7c0.7,0.6,1.9,0.3,3.5-1.4c3.4-3.9,0.1-8.2,4.1-12.7
		C568,827.4,570.9,827.5,572.8,829.3z"/>
	<path class="st5" d="M584,861.9c-4.9,5.8-14.3,11.2-20.6,5.8c-6.8-5.8-3.6-13.7,1.6-19.9c8.3-9.8,14.9-11.2,21.6-5.7
		C591.4,846.2,590.9,853.8,584,861.9z M572.3,849.5c-2.5,2.9-4,6.2-2.5,7.5c2,1.7,5.5-0.3,7.9-3.2c2.4-2.9,4-6.5,2.2-8.1
		C578.2,844.3,574.8,846.6,572.3,849.5z"/>
	<path class="st5" d="M603.5,877.6c-4.7,5.9-13.9,11.6-20.4,6.4c-6.9-5.6-4-13.6,1-19.9c8-10,14.6-11.7,21.5-6.3
		C610.5,861.7,610.1,869.3,603.5,877.6z M591.5,865.6c-2.4,3-3.8,6.3-2.3,7.5c2.1,1.7,5.5-0.5,7.8-3.4c2.4-2.9,3.8-6.7,1.9-8.1
		C597.2,860.1,593.9,862.5,591.5,865.6z"/>
	<path class="st5" d="M621.2,872.3c1,0.8,4.2,1.6,6.5,3.3c2.5,1.9,2.5,4.7-0.4,8.6c-10.1,13.4-15.9-3-19.2,1.4
		c-3.8,5.1-2.2,5.5-5,9.1c-1.6,2.2-3.7,1.9-5.4,0.6c-2.2-1.7-2.3-3.9-1-5.6c1.8-2.4,6.1-4.9,12-12.6c2.5-3.3,3.8-5.6,3.9-7.1
		c0.1-0.7,0.3-1.5,0.9-2.2c0.8-1.1,2.1-1.6,3.8-0.3C618.6,868.7,618.1,870,621.2,872.3z M613.9,878.3c-0.9,1.2-1.6,3.2-0.4,4.1
		c1,0.7,3.3,0.3,5.2-2.2c0.9-1.2,1-2.6-0.3-3.7C617.3,875.8,615.7,875.9,613.9,878.3z"/>
	<path class="st5" d="M623.1,911.9c0.4-0.6,0.9-1.1,2.1-1.5c1.9-0.7,3.9-2.8,9-10.2c3.9-5.8,5.3-9.1,5.4-11.1
		c0.1-0.9,0.3-1.7,0.6-2.2c0.6-0.9,1.7-1.4,2.7-0.6c0.6,0.4,1,1,1.1,1.7c0.4,2.7,0.1,3.7,1.4,4.6c2.3,1.6,7,0,10,2
		c5.3,3.6,3.4,8.4-3,17.9c-6.9,10.2-12.4,13.6-16.5,10.8c-2.4-1.6-3.3-5-3.5-6.1c-0.1-0.7-0.3-2.9-1.5-3.7c-2.1-1.4-4.5,3.3-7.5,1.2
		C622.3,914.1,622.7,912.5,623.1,911.9z M641.4,896.8c-0.8,1.2-1.5,3.3-2.9,5.3c-1.3,2-3,3.4-3.9,4.8c-1,1.4-1.3,3,0.6,4.3
		c2.7,1.8,6.2-1.1,8.7-4.8c3.3-4.9,3.8-8.1,1.1-9.9C643.4,895.3,642.4,895.5,641.4,896.8z"/>
	<path class="st5" d="M674.6,926.4c-4,6.4-12.4,13.2-19.5,8.8c-7.6-4.7-5.6-13-1.4-19.9c6.7-10.9,13.1-13.3,20.6-8.8
		C679.6,909.7,680.2,917.3,674.6,926.4z M661.2,915.9c-2,3.2-3,6.7-1.3,7.7c2.3,1.4,5.4-1.1,7.3-4.3c2-3.2,3-7.1,0.9-8.3
		C666.3,909.8,663.3,912.6,661.2,915.9z"/>
	<path class="st5" d="M698.1,919.5c2.7,1.5,5.9,5.4,4.1,8.7c-0.5,1-1.4,1.2-2.1,0.8c-0.6-0.3-0.9-0.9-1.2-1.7
		c-0.5-1.1-1.2-2-2.2-2.6c-3.7-2.1-8.6,1.2-11.5,6.4c-2.3,4.2-3.2,9.3,0.1,11.1c1.1,0.6,3.8,0.6,4.8-1.3c0.7-1.2,0.5-3,0.3-4
		c-0.3-1.3-0.2-2.3,0.2-3c0.9-1.7,3.5-1.7,5.9-0.4s3.8,3.5,2.7,5.4c-0.8,1.4-2.9,1.9-3.6,3c-0.7,1.3-0.3,3.5-1.2,5.2
		c-2.6,4.6-8.9,4.4-13.2,2c-7.1-4-10.2-11.9-4.9-21.3C681,919.5,690.7,915.4,698.1,919.5z"/>
	<path class="st5" d="M721.9,931.9c2.7,1.4,6.2,5.1,4.5,8.5c-0.5,1-1.4,1.3-2,0.9c-0.6-0.3-0.9-0.9-1.3-1.7c-0.5-1.1-1.3-2-2.3-2.5
		c-3.8-1.9-8.6,1.7-11.2,6.9c-2.1,4.3-2.7,9.4,0.7,11.1c1.1,0.6,3.8,0.4,4.8-1.5c0.6-1.3,0.3-3,0.1-4c-0.4-1.3-0.3-2.3,0-3
		c0.9-1.7,3.4-1.9,5.9-0.7c2.5,1.2,3.9,3.3,3,5.2c-0.7,1.4-2.8,2-3.4,3.1c-0.7,1.4-0.1,3.5-0.9,5.2c-2.3,4.8-8.6,4.9-13.1,2.7
		c-7.3-3.6-10.8-11.3-6-21C704.9,932.8,714.4,928.1,721.9,931.9z"/>
	<path class="st5" d="M734.3,959.6c3.2-8.1,11.7-15.4,19.9-12.1c2.8,1.1,6.8,4.8,5.4,8.5c-0.3,0.7-0.9,1.2-1.5,1c-1-0.4-2-2-3.8-2.7
		c-3.6-1.4-7.9,3-9.6,7.2c-1.8,4.6-1.1,8.5,1.3,9.5s5.7-1.1,7-0.5c0.7,0.3,0.7,1.5,0.4,2.2c-2.3,5.8-10.3,7-14.1,5.5
		C732.6,975.5,731.4,966.7,734.3,959.6z"/>
	<path class="st5" d="M780.5,974.1c-2.4,7.2-9.2,15.6-17,13c-8.4-2.9-8.4-11.4-5.8-19.1c4.1-12.1,9.8-16,18-13.2
		C781.7,956.8,784,964.1,780.5,974.1z M765.2,966.9c-1.2,3.6-1.4,7.2,0.4,7.8c2.5,0.9,5-2.3,6.2-5.8c1.2-3.6,1.3-7.6-0.9-8.3
		C768.7,959.9,766.4,963.3,765.2,966.9z"/>
	<path class="st5" d="M794.8,961.1c2.4,0.7,3.6,2.7,2.6,6c-1.6,5.5-8.8,7.5-10.8,14.5c-0.6,2,0,3.5,1.8,4c3.8,1.1,6.6-1.7,8.3-1.2
		c1.2,0.3,1.8,2.4,1.3,3.9c-1.5,5.3-9.1,7-18,4.4c-1.9-0.6-2.2-1.9-1.8-3.3c2.3-7.9,6.5-9.9,10.4-23.5
		C789.5,962.7,791.6,960.2,794.8,961.1z"/>
	<path class="st5" d="M813.8,966.1c2.4,0.6,3.7,2.6,2.9,5.9c-1.3,5.6-8.5,7.8-10.2,15c-0.5,2.1,0.1,3.5,1.9,3.9
		c3.8,0.9,6.5-2,8.3-1.6c1.2,0.3,1.9,2.3,1.5,3.9c-1.3,5.4-8.8,7.4-17.8,5.2c-2-0.5-2.3-1.8-2-3.2c1.9-8,6.1-10.2,9.4-24
		C808.5,968,810.6,965.3,813.8,966.1z"/>
	<path class="st5" d="M842.8,984.6c-2.5,13.2-11.8,6.6-12.5,10.4c-0.3,1.4,1,2.3,2,2.5c2,0.4,4.7-1,5.3-1.5c1.2-1,1.9-2,2.8-1.8
		c0.5,0.1,0.7,0.6,0.5,1.2c-1.3,6.6-6.6,8.5-10.7,7.7c-7.3-1.4-9.7-8.8-7.8-18.7c1.7-9,5.9-14,14.1-12.4
		C842.1,973,844.2,977.5,842.8,984.6z M837.2,989.2c0.3-1.5-0.8-2.3-1.9-2.5c-2.4-0.5-4,0.8-4.3,2.3c-0.2,0.8,0.3,1.6,1.2,1.8
		C834.3,991.1,836.8,991.1,837.2,989.2z"/>
	<path class="st5" d="M844.1,991.7c1.2-8.6,7.7-17.8,16.4-16.5c3,0.4,7.8,3,7.2,7c-0.1,0.7-0.6,1.4-1.3,1.3c-1-0.1-2.5-1.5-4.3-1.7
		c-3.8-0.5-6.9,4.8-7.6,9.3c-0.7,4.9,1,8.5,3.5,8.9s5.3-2.4,6.7-2.2c0.8,0.1,1.1,1.2,1,2.1c-0.9,6.2-8.3,9.3-12.4,8.7
		C846.3,1007.5,843,999.3,844.1,991.7z"/>
	<path class="st5" d="M882.2,986.2c0.6,0.1,1.4-0.1,2.1,0c0.7,0.1,1.2,0.4,1.1,1.5c-0.3,2.9-6.6,1.3-7.4,9c-0.2,2.6,0.6,3.6,1.5,3.7
		c1.1,0.1,2.3-1.4,3.2-1.3c0.9,0.1,1.1,1.9,1,3c-0.5,5.6-4.3,6.9-8.2,6.5c-5.9-0.6-7.7-3.4-7.3-6.8c0.4-4.1,3.5-8.9,3.8-11.4
		c0.2-2.3-2.7-0.9-2.5-3.3c0.2-2.5,4.7,0.9,7.8-6.6c0.4-1.1,1.2-2.2,2.6-2.1C882.8,979.2,879.5,986,882.2,986.2z"/>
	<path class="st5" d="M917.6,983.8c0,1.7-0.9,3.5-0.9,5.4c-0.1,2.2,0.5,4.7,1.2,7.2c1.5,5.5,5.5,9.3,5.4,12.9
		c-0.1,2.4-2.4,4.6-4.8,4.6c-1.9-0.1-5-1.1-4.9-4c0-0.9,0.3-1.8,0.3-2.7c0.1-2.2-1.7-3.8-4.3-3.8c-2.2-0.1-4.1,1.1-4.2,3.5
		c0,1.2,0.3,2,0.3,2.8c-0.1,2.4-2.2,3.8-4.6,3.7c-2.7-0.1-4.3-1.7-4.2-4.2c0.1-5.3,7-13.5,7.2-19.9c0-1.7-0.7-3.7-0.7-5.6
		c0.1-2.5,1.8-4.8,7.5-4.7C915.9,979.1,917.7,981.3,917.6,983.8z M910.3,991.1c-1.3,0-3,1.9-3,4.7c0,1.5,0.7,3.4,2.5,3.5
		c1.5,0,2.6-1.7,2.6-3.7C912.4,994.2,911.9,991.2,910.3,991.1z"/>
	<path class="st5" d="M934.1,979c2.5-0.1,4.2,1.6,4.3,5c0.1,5.7-6.2,9.7-6.1,17.1c0,2.1,1,3.3,2.9,3.3c3.9-0.1,5.8-3.6,7.6-3.6
		c1.2,0,2.4,1.8,2.4,3.4c0.1,5.5-6.6,9.4-15.9,9.6c-2,0-2.7-1.1-2.7-2.6c-0.2-8.2,3.3-11.4,3-25.6
		C929.4,982.2,930.8,979.1,934.1,979z"/>
	<path class="st5" d="M953.7,978.3c2.5-0.2,4.3,1.4,4.5,4.8c0.4,5.7-5.8,10-5.4,17.3c0.1,2.1,1.1,3.3,3,3.2c3.9-0.2,5.6-3.8,7.4-3.9
		c1.2-0.1,2.5,1.7,2.5,3.3c0.3,5.5-6.2,9.6-15.5,10.2c-2,0.1-2.7-1-2.8-2.5c-0.5-8.2,2.8-11.5,2-25.7
		C949.2,981.6,950.4,978.5,953.7,978.3z"/>
	<path class="st5" d="M989.2,983.9c0.6-0.1,1.4-0.4,2-0.5c0.7-0.1,1.3,0.1,1.4,1.2c0.3,2.9-6.2,2.7-5.3,10.4
		c0.3,2.6,1.4,3.4,2.3,3.3c1.1-0.1,1.9-1.8,2.8-1.9c0.9-0.1,1.5,1.6,1.6,2.7c0.7,5.6-2.8,7.7-6.7,8.1c-5.9,0.7-8.2-1.7-8.6-5.1
		c-0.5-4.1,1.6-9.4,1.3-11.9c-0.3-2.3-2.8-0.3-3.1-2.7c-0.3-2.5,4.8-0.1,6.2-8.1c0.2-1.2,0.8-2.4,2.1-2.6
		C988.3,976.9,986.5,984.2,989.2,983.9z"/>
	<path class="st5" d="M1010.7,971.3c3.2-0.5,5.5,0.3,6,3.3c0.9,5.7-2.3,8.1-1.6,12.5c0.9,5.4,4.3,5.9,5.4,12.6
		c0.6,3.5-1.7,5.4-4.4,5.8c-2.8,0.4-4.7-1-5.1-3.3c-0.4-2.6,1.1-6.1,0.7-8.9c-0.3-1.8-1.7-3.7-4.2-3.3c-2.1,0.3-3.4,2-2.9,4.9
		c0.2,1.4,2.4,4.5,2.8,7.3c0.5,2.8-1.1,4.7-3.8,5.1c-2.8,0.5-5.3-0.6-5.8-3.3c-1.1-6.9,1.8-7.4,0.7-14.3c-1.2-7.3-4.1-6.7-4.8-11.1
		c-0.5-3.4,1.5-5.1,4.7-5.6c2.7-0.4,5.1,0.2,5.5,2.4c0.7,4.3-2.1,4.7-1.5,8.1c0.4,2.5,1.8,2.9,3.7,2.5c3.3-0.5,4.1-2.2,3.9-3.7
		c-0.4-2.4-3.5-4.4-3.9-6.8C1005.7,972.7,1008.8,971.6,1010.7,971.3z"/>
	<path class="st5" d="M1039.2,978.5c2.7,13.1-8.4,10.6-7.6,14.4c0.3,1.4,1.8,1.7,2.8,1.6c2-0.4,3.9-2.7,4.3-3.4
		c0.7-1.4,1-2.6,1.9-2.7c0.5-0.1,0.8,0.3,0.9,0.9c1.3,6.5-2.9,10.3-7,11.2c-7.2,1.5-12.3-4.4-14.4-14.3c-1.8-9,0.1-15.2,8.3-16.9
		C1034.1,968,1037.8,971.4,1039.2,978.5z M1035.8,984.9c-0.3-1.5-1.7-1.8-2.7-1.6c-2.4,0.5-3.4,2.2-3.1,3.8c0.2,0.8,0.8,1.4,1.8,1.2
		C1033.8,987.8,1036.2,986.8,1035.8,984.9z"/>
	<path class="st5" d="M1057.4,973c-2.2-2.6-4.2-3.1-5.1-6.5c-0.7-2.8,1.5-4.6,3.9-5.2c3.1-0.8,6-0.2,8.3,5.9
		c1.7,4.3,3.5,8.9,4.6,12.9c1.9,7.1,1.7,13-3.9,14.4c-3,0.8-9.3-1.2-10.3-5c-0.2-0.8,0-1.7,0.6-1.9c1.7-0.4,2.4,1.7,6,0.8
		c1.7-0.4,1.5-2.7,0.9-5.1C1061.4,979.9,1059.9,976,1057.4,973z"/>
	<path class="st5" d="M1092.7,968.3c2.2,7.2,1.7,18-6.2,20.4c-8.5,2.6-13.5-4.4-15.8-12.1c-3.7-12.2-1.4-18.7,6.9-21.3
		C1083.6,953.5,1089.6,958.1,1092.7,968.3z M1076,971.4c1.1,3.6,3,6.7,4.9,6.1c2.5-0.8,2.7-4.8,1.6-8.4s-3.3-6.9-5.6-6.2
		C1074.8,963.6,1074.9,967.7,1076,971.4z"/>
	<path class="st5" d="M1099.7,953.1c0.9,2.7-0.1,6.7,1.5,11.5c2.3,6.9,4.9,8.5,5.9,11.6c0.9,2.8,0.6,5.4-2.6,6.5
		c-3.5,1.2-5.4-0.1-6.3-2.8c-1.3-3.9,0.3-6.1-1.3-10.9c-2.9-8.6-5.5-8.9-6.7-12.3c-1-3-0.4-5.2,3.2-6.4
		C1097.1,949.1,1098.7,950.3,1099.7,953.1z"/>
	<path class="st5" d="M1117.8,940.6c2.9-1.1,5.2,0.6,6.4,3.7c1.3,3.5,1.7,9.4,4.6,17.1c2.6,7,4.9,7.8,5.5,9.3
		c0.3,0.7-0.3,1.5-1.1,1.8c-1.6,0.6-4.4,0-6.9-1.4c-5.3-3-11.3-14.4-14.7-13.1c-1.2,0.5-1.2,1.9-0.7,3.3c2.4,6.5,6.8,6.8,8.5,11.3
		c1,2.8-1,5.3-3.1,6.1c-2.9,1.1-5-0.3-5.7-2.2c-0.7-1.8-0.6-4.1-0.5-6.1c0.1-1.8,0.3-4.5-1.8-10.2c-0.5-1.5-1.3-3-2.1-4.5
		c-2.4-4.5-4.5-4.3-5.2-6.1c-0.4-1.1,0.4-2.1,1.7-2.6c3.6-1.4,8.6,0.8,15.8,9.4c1.7,2,3.6,5,5.7,4.2c0.9-0.3,1.2-1.5,0.3-3.7
		c-1.8-4.8-7.2-3.9-9.3-9.5C1113.9,944.1,1115.4,941.5,1117.8,940.6z"/>
	<path class="st5" d="M1138.6,942.9c0.5-0.2,1.2-0.8,1.8-1c0.7-0.3,1.2-0.2,1.7,0.8c1.1,2.7-5.2,4.3-2.3,11.4c1,2.4,2.3,2.9,3.1,2.6
		c1-0.4,1.4-2.3,2.2-2.6c0.8-0.3,1.9,1.1,2.3,2.2c2.2,5.2-0.6,8.1-4.2,9.6c-5.5,2.3-8.3,0.6-9.7-2.6c-1.6-3.8-1.1-9.5-2-11.8
		c-0.9-2.2-2.8,0.5-3.7-1.8c-1-2.3,4.5-1.4,3.8-9.5c-0.1-1.2,0.1-2.5,1.3-3C1135.8,936.4,1136.1,943.9,1138.6,942.9z"/>
	<path class="st5" d="M1159.1,931.5c0.5,1,0.3,2-0.4,2.4c-1.7,0.8-2.3-2.8-6.1-1c-0.9,0.4-1.5,1.5-1,2.7c1.8,4.1,9.7-0.6,13.8,8.4
		c3.8,8.3,0.6,13.2-3.8,15.2c-5.2,2.4-9.8,0.4-11.7-3.9c-0.7-1.5-0.8-3.6,0.3-4.1c1.1-0.5,2,2.1,5,0.7c1.1-0.5,1.6-1.8,1-3.2
		c-2.1-4.7-7,0.4-10.9-8.3c-1.9-4.2-0.9-8.9,3.9-11.1C1153.1,927.7,1157.4,927.7,1159.1,931.5z"/>
	<path class="st5" d="M1186.8,917.6c0.5,1,0.4,2-0.3,2.4c-1.6,0.8-2.5-2.6-6.2-0.7c-0.8,0.4-1.4,1.6-0.8,2.7c2.1,4,9.7-1.1,14.2,7.7
		c4.2,8.1,1.3,13.2-3,15.4c-5.1,2.6-9.7,0.9-11.9-3.3c-0.7-1.4-1-3.5,0.1-4.1c1.1-0.6,2.1,2,5.1,0.5c1.1-0.6,1.5-1.8,0.8-3.2
		c-2.4-4.6-7,0.7-11.3-7.7c-2.1-4.1-1.3-8.9,3.3-11.2C1180.6,914,1184.8,913.9,1186.8,917.6z"/>
	<path class="st5" d="M1214.2,913.3c3.7,6.6,5.5,17.2-1.7,21.3c-7.7,4.4-14.1-1.3-18.1-8.4c-6.3-11.1-5.4-17.9,2.2-22.3
		C1202.1,900.8,1209,904,1214.2,913.3z M1198.6,919.9c1.9,3.3,4.4,5.9,6.1,4.9c2.3-1.3,1.6-5.2-0.2-8.5c-1.8-3.3-4.8-6-6.8-4.8
		C1195.7,912.6,1196.7,916.6,1198.6,919.9z"/>
	<path class="st5" d="M1231.3,882.7c2.7-1.8,5.2-1.9,6.8,0.6c3.1,4.8,1.1,8.3,3.5,12.1c2.9,4.6,6.3,3.7,10,9.4
		c1.9,3,0.6,5.6-1.7,7.1c-2.4,1.5-4.8,1-6-1c-1.4-2.3-1.4-6-3-8.4c-1-1.5-3.1-2.7-5.1-1.4c-1.8,1.1-2.3,3.2-0.7,5.7
		c0.8,1.2,4,3.2,5.5,5.5c1.5,2.4,0.9,4.7-1.5,6.2c-2.4,1.5-5.1,1.6-6.6-0.7c-3.8-5.9-1.3-7.5-5.1-13.4c-4-6.2-6.4-4.5-8.8-8.3
		c-1.9-2.9-0.6-5.2,2.1-7c2.3-1.5,4.8-1.9,6,0c2.4,3.7,0,5.1,1.9,8.1c1.4,2.1,2.8,1.9,4.5,0.8c2.8-1.8,2.9-3.7,2.1-5
		c-1.3-2-5-2.6-6.3-4.7C1227.2,886,1229.7,883.8,1231.3,882.7z"/>
	<path class="st5" d="M1260.4,878.1c7.6,11-3.5,13.1-1.3,16.2c0.8,1.2,2.4,0.9,3.1,0.3c1.7-1.2,2.6-4.1,2.6-4.9
		c0.1-1.5-0.1-2.8,0.6-3.3c0.4-0.3,0.9-0.1,1.2,0.4c3.8,5.5,1.4,10.6-2,13c-6.1,4.2-13.1,0.8-18.8-7.5c-5.2-7.5-5.9-14,1-18.8
		C1251.6,870.4,1256.3,872.1,1260.4,878.1z M1259.7,885.3c-0.9-1.2-2.2-1-3.1-0.4c-2,1.4-2.3,3.4-1.4,4.7c0.5,0.7,1.3,0.9,2.1,0.4
		C1259.1,888.7,1260.8,886.9,1259.7,885.3z"/>
	<path class="st5" d="M1274.7,876c-5.3-6.9-7.3-17.9-0.4-23.3c2.4-1.8,7.6-3.4,10.1-0.3c0.5,0.6,0.6,1.4,0,1.8
		c-0.8,0.6-2.8,0.7-4.3,1.9c-3,2.4-1.4,8.3,1.4,11.9c3,3.9,6.8,5.3,8.8,3.7s2-5.4,3.1-6.3c0.6-0.5,1.6,0.1,2.2,0.8
		c3.8,5,0.8,12.4-2.4,14.9C1287.6,885.4,1279.4,882,1274.7,876z"/>
	<path class="st5" d="M1299.7,837.7c1.1,1.3,1.6,3.2,2.9,4.7c1.4,1.7,3.5,3.2,5.6,4.6c4.8,3.2,10.3,3.4,12.6,6.1
		c1.5,1.8,1.3,5-0.6,6.6c-1.5,1.2-4.4,2.5-6.3,0.2c-0.6-0.7-1-1.5-1.5-2.2c-1.4-1.7-3.8-1.7-5.8,0c-1.7,1.4-2.4,3.6-0.9,5.4
		c0.8,0.9,1.6,1.3,2.1,1.9c1.5,1.8,0.8,4.3-1,5.8c-2.1,1.7-4.3,1.5-5.9-0.4c-3.4-4-3.7-14.8-7.8-19.7c-1.1-1.3-3-2.3-4.2-3.7
		c-1.6-1.9-1.9-4.8,2.5-8.5C1295.3,835.4,1298.1,835.8,1299.7,837.7z M1299.1,848.1c-1,0.8-0.9,3.4,0.8,5.5c0.9,1.1,2.8,2.1,4.2,0.9
		c1.2-1,0.8-3-0.5-4.5C1302.7,849,1300.3,847,1299.1,848.1z"/>
	<path class="st5" d="M1316.4,815.2c2.3-2.1,5.1-1.3,7.3,1.1c2.5,2.8,5.1,8.1,10.6,14.2c5,5.5,7.5,5.5,8.5,6.6
		c0.5,0.6,0.2,1.5-0.4,2.1c-1.3,1.1-4.1,1.6-6.9,1.2c-6.1-0.8-15.8-9.2-18.5-6.7c-1,0.9-0.4,2.2,0.6,3.3c4.7,5.2,8.8,3.8,12.1,7.3
		c2,2.2,1,5.3-0.7,6.8c-2.3,2.1-4.7,1.6-6.1,0c-1.3-1.4-2.1-3.6-2.7-5.5c-0.5-1.7-1.4-4.3-5.4-8.8c-1-1.2-2.3-2.3-3.6-3.4
		c-3.9-3.3-5.8-2.3-7.1-3.7c-0.8-0.9-0.4-2.1,0.6-3c2.9-2.6,8.2-2.4,18.2,3c2.3,1.3,5.2,3.3,6.8,1.8c0.7-0.6,0.5-1.8-1.1-3.6
		c-3.5-3.8-8.1-1-12.2-5.4C1314.1,819.9,1314.5,817,1316.4,815.2z"/>
	<path class="st5" d="M1347.2,796.3c0.8,0.8,1,1.8,0.4,2.4c-1.3,1.3-3.2-1.8-6.1,1.1c-0.7,0.7-0.9,1.9,0,2.8
		c3.1,3.2,8.9-3.9,15.9,3.2c6.4,6.5,5.2,12.2,1.7,15.6c-4.1,4-9,3.7-12.3,0.4c-1.1-1.1-2-3.1-1.1-4c0.9-0.9,2.6,1.3,5-1.1
		c0.9-0.9,0.9-2.2-0.2-3.3c-3.6-3.7-6.4,2.8-13.1-4c-3.2-3.3-3.9-8.1-0.2-11.7C1340.3,794.8,1344.3,793.3,1347.2,796.3z"/>
	<path class="st5" d="M1351,784.7c0.9-0.9,2.1-4,4-6.1c2.2-2.3,5-2,8.6,1.4c12.2,11.5-4.8,15.5-0.8,19.3c4.6,4.4,5.2,2.8,8.5,6
		c2,1.9,1.5,3.9,0,5.4c-1.9,2-4.1,1.9-5.7,0.4c-2.2-2-4.1-6.6-11.2-13.3c-3-2.9-5.1-4.4-6.6-4.7c-0.7-0.1-1.4-0.5-2.1-1.1
		c-1-0.9-1.3-2.3,0.1-3.8C1347.2,786.8,1348.4,787.5,1351,784.7z M1356.2,792.5c1.1,1,3,2,4,0.9c0.8-0.9,0.7-3.2-1.6-5.4
		c-1.1-1.1-2.5-1.3-3.7-0.1C1354,788.9,1354,790.5,1356.2,792.5z"/>
	<path class="st5" d="M1372.4,765.9c1.3,1.1,2,2.9,3.5,4.3c1.6,1.5,3.9,2.7,6.2,3.8c5.2,2.5,10.7,1.9,13.3,4.3
		c1.7,1.6,2,4.8,0.4,6.6c-1.3,1.4-4.1,3.1-6.2,1.1c-0.7-0.6-1.2-1.4-1.8-2c-1.6-1.5-4-1.2-5.7,0.8c-1.5,1.6-1.8,3.8-0.1,5.4
		c0.9,0.8,1.7,1,2.4,1.6c1.8,1.6,1.4,4.2-0.2,5.9c-1.8,2-4.1,2.1-5.9,0.4c-3.9-3.5-5.7-14.1-10.4-18.4c-1.3-1.2-3.3-1.9-4.7-3.1
		c-1.8-1.7-2.5-4.5,1.3-8.7C1367.8,764.1,1370.6,764.2,1372.4,765.9z M1373.3,776.2c-0.9,0.9-0.5,3.5,1.6,5.4c1.1,1,3,1.7,4.2,0.4
		c1-1.1,0.4-3.1-1.1-4.4C1377,776.7,1374.4,775,1373.3,776.2z"/>
	<path class="st5" d="M1394.2,747.6c5.3,4.6,0.9,7.2,2.9,9c1.9,1.7,6.7-2.2,12.2,2.6c2.8,2.5,4,6.3,1.5,9.1
		c-1.5,1.8-4.3,1.8-6.1,0.3c-2-1.7-2.8-5-3.8-5.9c-2.2-2-4-1.6-5.1-0.3c-1.3,1.5-0.7,3.3,0.5,4.4c1.8,1.6,5,2.1,6.9,3.7
		c1.2,1.1,2.4,3.4,0,6.2c-1.2,1.3-3.7,2.2-5.7,0.4c-2-1.8-3.5-5.5-7.2-8.7c-4.8-4.2-9.4-5.6-11.7-7.6c-2-1.7-3-4.5,2.2-10.4
		C1383.8,746.8,1389.5,743.5,1394.2,747.6z M1386.2,754.6c-1,1.2-0.6,2.5,0.5,3.5c1.6,1.4,2.9,1.2,3.7,0.3c1-1.1,0.7-2.8-0.9-4.2
		C1388.5,753.2,1387.1,753.6,1386.2,754.6z"/>
	<path class="st5" d="M1396.7,739.3c-2.1-1.8-3.8-5.6-1.3-8.7c1.2-1.4,3.6-2.1,5.2-0.8c2.4,2,2,7.7,4.2,9.6c0.5,0.4,1.7,0.9,2.3,0.2
		c0.5-0.6,0.6-1.5,0.5-2.4c-0.9-6.7-10-9.7-5.8-14.7c2.2-2.6,5.6-1.2,8.4,1.2c4.1,3.5,6.3,7.9,4.4,10.2c-1.5,1.8-3.3,2.6-4,3.4
		c-0.6,0.7-0.7,1.8,0.5,2.8c0.6,0.5,1.2,0.5,1.8-0.2c1.1-1.3,2.2-4.3,3.7-6.1c1.3-1.5,2.7-1.7,4.4-0.2c3.4,2.9,7.4,11.5,4.7,14.7
		c-1.4,1.7-4.4,2-6.6,0.1c-1.7-1.5-2.9-3.7-4.2-4.8c-0.9-0.7-1.8-0.9-2.4-0.2c-1,1.1-0.4,2.5,0.7,3.4c1.4,1.2,3.6,2,5.2,3.4
		c1.8,1.5,2.9,4.4,0,7.9c-1.6,1.8-4.3,2.6-6.7,0.5c-1.7-1.5-2.9-4.3-3.7-6.6c-1.2-3.5-3.5-6.7-6.9-9.6
		C1399.8,741.5,1398.1,740.5,1396.7,739.3z"/>
	<path class="st5" d="M1424.5,705.2c5.6,4.7,6.9,9.8,10.1,12.5c3.6,3,6.5,3.4,8.4,1.1c2.1-2.5,0.7-5-2.8-7.9c-2.4-2-9.3-4-13-7.2
		c-2.3-2-3.6-4.7-1.5-7.3c3.2-3.9,9.6,0,14.7,4.2c8.7,7.3,15.5,13.5,7.7,22.8c-6.6,7.8-15.3,3.3-22.9-3.2
		c-4.5-3.8-10.8-10.5-7.3-14.7C1419.9,703.2,1421.8,702.9,1424.5,705.2z"/>
	<path class="st5" d="M1438.6,684c0.8-1,1.8-4.1,3.6-6.3c2-2.4,4.9-2.3,8.6,0.9c12.8,10.8-3.9,15.7,0.3,19.3
		c4.9,4.1,5.3,2.5,8.8,5.5c2.1,1.8,1.7,3.8,0.3,5.4c-1.8,2.1-4,2.1-5.6,0.7c-2.3-1.9-4.5-6.4-11.9-12.6c-3.2-2.7-5.3-4.1-6.9-4.3
		c-0.7-0.1-1.5-0.4-2.1-1c-1-0.9-1.5-2.2-0.1-3.8C1434.9,686.4,1436.1,687,1438.6,684z M1444.2,691.6c1.2,1,3.1,1.8,4.1,0.7
		c0.8-0.9,0.5-3.2-1.9-5.3c-1.2-1-2.6-1.2-3.7,0.1C1441.9,688.1,1441.9,689.7,1444.2,691.6z"/>
</g>
</svg>
