<?xml version="1.0" encoding="utf-8"?>
<!-- Generator: Adobe Illustrator 26.0.1, SVG Export Plug-In . SVG Version: 6.00 Build 0)  -->
<svg version="1.1" id="Layer_1" xmlns="http://www.w3.org/2000/svg" xmlns:xlink="http://www.w3.org/1999/xlink" x="0px" y="0px"
	 viewBox="0 0 1915 1080" style="enable-background:new 0 0 1915 1080;" xml:space="preserve">
<style type="text/css">
	.st0{fill:#8CC63F;}
	.st1{fill:#E6E6E6;}
	.st2{fill:#CCCCCC;stroke:#999999;stroke-width:2;stroke-miterlimit:10;}
	.st3{fill:#009245;}
	.st4{fill:#FFFFFF;}
	.st5{fill:#D9E021;}
	.st6{fill:#FB4C24;}
	.st7{fill:#7DA23F;}
	.st8{fill:#CCCCCC;}
	.st9{fill:#FFFFFF;stroke:#999999;stroke-width:2;stroke-miterlimit:10;}
	.st10{fill:#C1272D;}
	.st11{fill:#FFFFFF;stroke:#999999;stroke-miterlimit:10;}
	.st12{fill:#999999;}
	.st13{fill:#F7931E;}
	.st14{fill:none;stroke:#000000;stroke-width:2;stroke-miterlimit:10;}
	.st15{fill:#BFDAFF;}
	.st16{fill:#0A11FF;}
	.st17{fill:none;}
	.st18{font-family:'ArialMT';}
	.st19{font-size:70px;}
</style>
<path class="st0" d="M423.1,203.1c-0.1-2.8-0.2-5.1-0.2-6.2c-7.1,4.5-14.9,8-23,10.4c-8.4,2.4-17.1,3.6-25.9,3.4
	c3.5-7.3,9.2-13.3,16.4-17.1c5.8-2.9,12.2-4.2,18.6-3.6c-14.4-1-28.4-4.5-41.6-10.3c-7.7-3.4-15-7.6-21.8-12.4
	c7.6-4.1,16.2-6.2,24.9-6.1c18.6,0.4,31.1,11.1,34.6,14.4c-12.4-11-22.8-24-30.8-38.4c-4.9-8.8-9-18.2-12-27.8
	c11.6,3.2,22.3,8.9,31.5,16.6c9.5,8,17.2,17.9,22.6,29.1c-5.6-31.9-2.5-64.7,8.9-95c13.5,29.9,17.7,63.2,12.2,95.6
	c4.8-11.9,12.2-22.5,21.7-31c10.3-9.1,22.7-15.4,36.2-18.2c-9.7,27.2-26.3,51.5-48,70.5c14.1-15.3,37.7-14,58-11.6
	c-16.3,15.2-37.7,24-60,24.6c9.2-0.7,14.8,2.2,17.3,3.8c2.5,1.8,4.9,3.7,7.1,5.9c2.6,2.5,5.1,5.1,7.4,7.9
	c-8.4,0.2-16.7-0.6-24.9-2.4c-8.2-1.8-16.2-4.5-23.8-8.1c0.3,1.2,0.6,3.1,1.1,5.4c2.8,14.7,2.3,17,1,18.1c-1.4,1.1-3.2,1.3-4.8,0.5
	C423.6,219.7,423.6,216.2,423.1,203.1z"/>
<path class="st0" d="M783.1,204.1c-0.1-2.8-0.2-5.1-0.2-6.2c-7.1,4.5-14.9,8-23,10.4c-8.4,2.4-17.1,3.6-25.9,3.4
	c3.5-7.3,9.2-13.3,16.4-17.1c5.8-2.9,12.2-4.2,18.7-3.6c-14.4-1-28.5-4.5-41.6-10.3c-7.7-3.4-15-7.6-21.8-12.4
	c7.6-4.1,16.2-6.2,24.9-6.1c18.6,0.4,31.1,11.1,34.6,14.4c-12.4-11-22.8-24-30.8-38.4c-4.9-8.8-9-18.2-12-27.8
	c11.6,3.2,22.3,8.9,31.5,16.6c9.5,8,17.2,17.9,22.6,29.1c-5.6-31.9-2.5-64.7,8.9-95c13.4,29.9,17.7,63.2,12.2,95.6
	c4.7-11.9,12.2-22.5,21.7-31c10.3-9.1,22.7-15.4,36.2-18.2c-9.7,27.2-26.3,51.5-48,70.5c14.1-15.3,37.7-14,58-11.6
	c-16.3,15.2-37.7,24-60,24.6c9.2-0.7,14.8,2.2,17.3,3.8c2.5,1.8,4.9,3.7,7.1,5.9c2.6,2.5,5.1,5.1,7.4,7.9
	c-8.4,0.2-16.7-0.6-24.9-2.4c-8.2-1.8-16.2-4.5-23.8-8.1c0.3,1.2,0.6,3.1,1.1,5.4c2.8,14.7,2.3,17,1,18.1c-1.4,1.1-3.2,1.3-4.8,0.5
	C783.6,220.7,783.6,217.2,783.1,204.1z"/>
<path class="st0" d="M603.1,203.6c-0.1-2.8-0.2-5.1-0.2-6.2c-7.1,4.5-14.9,8-23,10.4c-8.4,2.4-17.1,3.6-25.9,3.4
	c3.4-7.3,9.2-13.3,16.4-17.1c5.8-2.9,12.2-4.2,18.7-3.6c-22.8-1.6-44.8-9.5-63.4-22.8c7.6-4.1,16.2-6.2,24.9-6.1
	c18.6,0.4,31.1,11.1,34.6,14.4c-12.4-11-22.8-24-30.8-38.4c-4.9-8.9-8.9-18.2-12-27.9c11.6,3.2,22.3,8.9,31.5,16.6
	c9.5,8,17.2,17.9,22.6,29.1c-5.6-31.9-2.5-64.7,8.9-95c13.4,29.9,17.7,63.2,12.2,95.6c4.8-11.9,12.2-22.5,21.7-31
	c10.3-9.1,22.7-15.4,36.2-18.2c-9.7,27.2-26.3,51.5-48.1,70.6c14.1-15.3,37.7-14,58-11.6c-16.3,15.2-37.7,24-60,24.6
	c9.2-0.7,14.8,2.2,17.3,3.8c2.5,1.8,4.9,3.7,7.1,5.9c2.6,2.5,5.1,5.1,7.4,7.9c-16.8,0.4-33.5-3.2-48.7-10.5c0.3,1.2,0.6,3.1,1.1,5.4
	c2.8,14.7,2.3,17,1,18.1c-1.4,1.1-3.2,1.3-4.8,0.5C603.6,220.2,603.6,216.7,603.1,203.6z"/>
<path class="st1" d="M1786.9,940h-36.5c-2.5-29-6.2-75.1-8.9-132.2c-3.6-76.3-1.9-93.2-6.2-156.6c-1.9-28-2-20.2-13.4-138.6
	c-8.2-85.2-8.7-95.1-12.5-126.9c-6.6-56.7-13.9-102-18.7-130.1h130c-3.6,35.2-7.9,80.1-12.5,132.2c-3.8,44.1-6.8,77.6-9.8,122.7
	c-3.7,55.5-5.5,97.3-7.1,136.4c-2.2,53.6-7,214.4-5.3,160.8l0,0C1786,807.8,1786.3,853.5,1786.9,940z"/>
<path class="st2" d="M1786.9,940h-36.5c-3.3-50.1-6.5-100.1-9.8-150.2l46.3,1.1V940z"/>
<path class="st1" d="M1714.9,190.7l40.9-0.6l40.9-0.6l-20,39.1l-20.1,39.6l-20.9-39.1L1714.9,190.7z"/>
<path d="M120.5,109.8c7.6,0,12.6,4.2,12.6,13c0,14.6-19.4,24.5-19.4,43.2c0,5.4,2.8,8.5,8.4,8.5c11.9,0,17.6-8.8,23.2-8.8
	c3.7,0,7.1,4.7,7.1,8.8c0,14-20.6,23.5-48.6,23.5c-6.1,0-8-3-8-6.7c0-21,10.7-28.8,10.7-65C106.3,117.7,110.5,109.8,120.5,109.8z"/>
<path d="M184.4,121c0,7.2-6.7,16.1-6.7,29c0,18.6,5.8,24.5,5.8,33c0,7.4-3.4,13.6-13.7,13.6c-11,0-15.2-4.7-15.2-12
	c0-10.6,6.8-14.4,6.8-27.5c0-23.2-7.2-25.9-7.2-35.2c0-8,3.7-12.8,15.2-12.8S184.4,113.3,184.4,121z"/>
<path d="M204.4,112c2.3,2.4,2.3,2.8,3.7,14.3c2.9,22.8,4.3,37.3,11.5,37.3c7.9,0,9-13.2,11.3-37c1.4-14,9.5-17.8,16.3-17.8
	c13.2,0,14.8,7.9,14.8,16c0,24-12.4,72.5-38.9,72.5c-23.8,0-35.9-44.9-35.9-74c0-11.3,4.9-13.8,9.7-13.8
	C199.8,109.6,202.6,110.2,204.4,112z"/>
<path d="M102.9,304.3c3.8,0,13.1-3.2,21.6-3.2c9.5,0,14.8,5.8,14.8,18.2c0,42.8-43.9,18.2-43.9,32.4c0,16.2,4.6,14.5,4.6,26.3
	c0,7-5.4,9.6-11.9,9.6c-8.4,0-12.6-4.3-12.6-9.8c0-7.6,6-19.3,6-44c0-10.7-1-17.2-3.4-20.5c-1.2-1.7-1.9-3.7-1.9-5.8
	c0-3.5,2.3-6.5,8.5-6.5C90.3,300.9,91.4,304.3,102.9,304.3z M96.5,327.7c0,3.8,1.8,9,6.4,9c3.7,0,8.5-4.3,8.5-12.4c0-4-2.3-7-7.4-7
	C99.9,317.4,96.5,320,96.5,327.7z"/>
<path d="M212.4,342.2c0,19.3-11,45.2-36,45.2c-26.9,0-35.2-20.6-35.2-41.3c0-32.6,12.5-46.6,38.8-46.8
	C198.9,299.4,212.4,315.1,212.4,342.2z M161.4,337.4c0,9.7,2.9,18.6,8.9,18.6c8,0,12-9.6,12-19.2s-3.6-19.3-10.8-19.3
	C164.6,317.5,161.4,327.6,161.4,337.4L161.4,337.4z"/>
<path d="M242.9,311.4c0,7.2-6.7,16.1-6.7,29c0,18.6,5.8,24.5,5.8,33c0,7.4-3.4,13.6-13.7,13.6c-11,0-15.2-4.7-15.2-12
	c0-10.6,6.8-14.4,6.8-27.5c0-23.2-7.2-25.9-7.2-35.2c0-8,3.7-12.8,15.2-12.8S242.9,303.7,242.9,311.4z"/>
<path d="M304.4,297.4c9.2,0,14.2,6.2,14.2,14.5c0,9.6-5.2,24-5.2,45c0,19.1,5.6,23.2,5.6,27.1c0,1.9-2.5,3.2-5,3.2
	c-5.2,0-12.4-4-18-9.6c-11.9-12-16.7-44.4-27.8-44.4c-4,0-5.4,3.6-5.4,7.2c0,17.8,12.1,22.3,12.1,34.6c0,7.6-8.5,11.8-15.4,11.8
	c-9.5,0-13.8-5.2-13.8-10.4c0-4.9,2.6-10.4,5.2-15.1c2.3-4.1,5.6-10.6,5.6-25.9c0-4.2-0.4-8.4-1.1-12.6c-1.9-13-8.3-14.3-8.3-19.2
	c0-3,3.5-4.7,7.6-4.7c11.6,0,23.4,9.5,34.7,36.7c2.6,6.4,5,15.1,11.5,15.1c2.9,0,4.9-2.5,4.9-8.6c0-13.2-16.2-15.8-16.2-31.1
	C289.6,302.3,296.5,297.4,304.4,297.4z"/>
<path d="M357.3,322.9c1.8,0,4.2-0.6,6.2-0.6s3.7,0.7,3.7,3.5c0,7.4-19.6,4.9-19.6,24.7c0,6.6,2.9,9.1,5.6,9.1c3.4,0,6.5-4.1,9.1-4.1
	s4,4.4,4,7.4c0,14.3-11,18.6-22.9,18.6c-17.9,0-24-6.7-24-15.5c0-10.6,8-23.4,8-29.8c0-6-8.4-1.6-8.4-7.8c0-6.5,14.3,1.2,21.6-18.7
	c1-2.9,3.1-5.9,7.2-5.9C357.2,304.9,349.2,322.9,357.3,322.9z"/>
<ellipse class="st3" cx="599.5" cy="840.4" rx="65.6" ry="61"/>
<path class="st4" d="M638.1,857c-6.7,10.2-16.9,18.6-28.8,22.1c-1.5,0.4-2.9,0.8-4.4,1.1c-0.7,0.1-1.3,0.3-2,0.4
	c-0.7,0.1-0.9,0.1-1.9,0.2c-2.9,0.3-5.8,0.3-8.7,0c-0.6-0.1-0.7-0.1-1.5-0.2c-0.8-0.1-1.5-0.3-2.2-0.4c-1.4-0.3-2.7-0.7-4.1-1.1
	c-1.2-0.4-2.3-0.8-3.4-1.3c-1.3-0.6-2.6-1.3-3.9-2c-10.5-6.1-18.3-16.9-19.3-28.9c-1-12.5,4.6-24.7,14.5-32.9
	c5.1-4.3,11.4-7.2,18.1-8.4c3.3-0.5,6.7-0.7,10-0.4c1.3,0.1,2.6,0.3,3.9,0.5c1.1,0.2,2.2,0.4,3.3,0.7c0.8,0.2,1.6,0.4,2.3,0.7
	c1.4,0.4,2.9-0.4,3.3-1.8c0.4-1.3-0.4-2.7-1.9-3.1c-13-4-27.5-2.5-38.7,5.1c-11.9,8-19.4,20.7-20.3,34.6
	c-0.7,13.9,6.3,27.1,17.8,35.5c10,7.6,23.1,10.6,35.7,8c13.6-2.6,25.3-10.8,33.5-21.2c1.1-1.4,2.2-2.9,3.2-4.4
	C644.4,856.7,639.9,854.2,638.1,857L638.1,857z"/>
<path class="st4" d="M603.3,794.7c0.7,1,1.3,2,2,3l0,0l0.3,0.4c0.1,0.2,0.3,0.4,0.4,0.7c0.3,0.5,0.6,1,0.9,1.6
	c1.2,2.1,2.2,4.3,3.2,6.5c0.7,1.5,2.5,2.2,4,1.5s2.2-2.5,1.5-4l0,0c-2.1-4.7-4.6-9.2-7.6-13.5c-1-1.3-2.9-1.5-4.2-0.4l0,0
	C602.5,791.5,602.3,793.4,603.3,794.7L603.3,794.7z"/>
<path class="st4" d="M611.1,803.8c-2.1,1.4-4.3,2.6-6.5,3.8c-1.1,0.6-2.3,1.1-3.4,1.6l-0.7,0.3l-0.5,0.2c0.3-0.1,0.3-0.1,0,0
	c-0.6,0.2-1.2,0.5-1.8,0.7c-1.6,0.5-2.5,2.1-2.1,3.7c0.5,1.4,2.1,2.7,3.7,2.1c5-1.9,9.8-4.3,14.3-7.2c1.5-0.7,2.1-2.5,1.4-4
	s-2.5-2.1-4-1.4C611.4,803.7,611.3,803.8,611.1,803.8L611.1,803.8z"/>
<g>
	<path class="st5" d="M191.2,909.4c-58.4,0-106-53.4-106-119.1s47.6-119.1,106-119.1s106,53.4,106,119.1S249.6,909.4,191.2,909.4z
		 M191.2,683.7c-51.8,0-94,47.7-94,106.6c0,58.8,42.2,106.6,94,106.6s94-47.7,94-106.6S243,683.7,191.2,683.7z"/>
</g>
<g>
	<polygon class="st5" points="136.4,867.1 140.8,790.5 145.4,714 211.8,748.2 278.4,782.1 207.4,824.6 	"/>
</g>
<ellipse class="st6" cx="777.9" cy="840.4" rx="65.7" ry="66.2"/>
<path class="st4" d="M816.6,858.3c-6.7,11.1-16.9,20.1-28.8,24c-1.5,0.5-2.9,0.9-4.5,1.2c-0.7,0.1-1.3,0.3-2,0.4s-0.9,0.2-1.9,0.2
	c-2.9,0.3-5.8,0.3-8.7,0c-0.6-0.1-0.7-0.1-1.5-0.2c-0.8-0.1-1.5-0.3-2.2-0.5c-1.4-0.3-2.7-0.7-4.1-1.2c-1.2-0.4-2.3-0.9-3.4-1.5
	c-1.3-0.7-2.6-1.4-3.9-2.2c-10.5-6.7-18.3-18.4-19.3-31.4c-1-13.5,4.7-26.8,14.5-35.7c5.2-4.7,11.5-7.9,18.1-9.2
	c3.3-0.6,6.7-0.7,10-0.4c1.3,0.1,2.6,0.3,3.9,0.6c1.1,0.2,2.2,0.5,3.3,0.8c0.8,0.2,1.6,0.5,2.3,0.7c1.4,0.4,2.9-0.4,3.3-1.9
	c0.4-1.5-0.4-3-1.8-3.4h-0.1c-13-4.3-27.5-2.7-38.7,5.5c-11.8,8.4-19.3,22.3-20.3,37.5c-0.7,15,6.3,29.4,17.8,38.5
	c10.2,8.3,23.2,11.5,35.7,8.7c13.6-2.8,25.3-11.7,33.5-23c1.1-1.6,2.2-3.1,3.2-4.8C823,858.1,818.4,855.3,816.6,858.3L816.6,858.3z"
	/>
<path class="st4" d="M781.8,790.8c0.7,1.1,1.3,2.2,2,3.3l0,0l0.3,0.5c0.1,0.2,0.3,0.5,0.4,0.7c0.3,0.6,0.6,1.1,0.9,1.7
	c1.2,2.3,2.3,4.6,3.2,7c0.8,1.6,2.6,2.1,4.1,1.3c1.3-0.8,1.8-2.4,1.4-3.9l0,0c-2.1-5.1-4.6-10-7.6-14.6c-1-1.4-2.9-1.7-4.2-0.6l0,0
	l0,0C781,787.3,780.8,789.4,781.8,790.8L781.8,790.8z"/>
<path class="st4" d="M789.6,800.7c-2.1,1.5-4.3,2.8-6.5,4.1c-1.1,0.6-2.3,1.2-3.4,1.8l-0.7,0.3l-0.5,0.2l0,0
	c-0.6,0.3-1.2,0.5-1.8,0.8c-1.6,0.5-2.5,2.3-2.1,4c0.5,1.5,2.1,2.9,3.7,2.3c5-2.1,9.8-4.7,14.3-7.8c1.5-0.7,2.2-2.7,1.5-4.3
	s-2.5-2.4-4-1.6l-0.2,0.1L789.6,800.7L789.6,800.7z"/>
<path class="st1" d="M1057.6,436l33.1-0.4l33.1-0.4l-16.2,25.1l-16.2,25.4l-16.9-25L1057.6,436z"/>
<path class="st7" d="M1115.8,915.8h-29.5c-2.1-18.6-5-48.1-7.2-84.7c-2.9-48.9-1.5-59.7-5-100.3c-1.6-17.9-1.6-12.9-10.8-88.7
	c-6.6-54.5-7.1-60.9-10.1-81.3c-5.3-36.3-11.2-65.3-15.1-83.3h105c-2.9,22.6-6.4,51.3-10.1,84.7c-3.1,28.2-5.5,49.7-7.9,78.6
	c-3,35.5-4.4,62.3-5.7,87.4c-1.8,34.3-5.7,137.3-4.4,102.9l0,0C1115,831.1,1115.3,860.4,1115.8,915.8z"/>
<path class="st8" d="M1115.8,915.8h-29.5c-2.6-32.1-5.3-64.1-7.9-96.2l37.4,0.7V915.8z"/>
<path class="st9" d="M1036.4,561.9c-1.3-7.3,10.7-15.5,18.5-16.9c7.8-1.3,23,2.1,24.3,9.5c1.3,7.3-11.8,15.7-19.6,17.1
	S1037.8,569.2,1036.4,561.9z"/>
<path class="st9" d="M1102.8,553.7c1.6-7.3,15.8-10.5,23.5-8.9s20.6,10.5,19,17.7c-1.6,7.3-16.9,10.2-24.7,8.6
	S1101.2,561,1102.8,553.7z"/>
<path class="st10" d="M1057.4,568.3c0,0,7.8-4.8,9.9-8.3l0.5-0.8c0.4-0.7,0.6-1.5,0.6-2.3c-0.1-3.2-2.8-5.7-6-5.6
	c-2,0-3.9,0.9-5,2.5c-1.1-1.6-3-2.6-5-2.5c-3.2-0.1-5.9,2.4-6,5.6c0,0.8,0.2,1.6,0.6,2.3l0.5,0.8
	C1049.6,563.5,1057.4,568.3,1057.4,568.3L1057.4,568.3z"/>
<path class="st10" d="M1124.2,567c0,0,7.8-4.8,9.9-8.3l0.5-0.8c0.4-0.7,0.6-1.5,0.6-2.3c-0.1-3.2-2.8-5.7-6-5.6c-2,0-3.9,0.9-5,2.5
	c-1.1-1.6-3-2.6-5-2.5c-3.2-0.1-5.9,2.4-6,5.6c0,0.8,0.2,1.6,0.6,2.3l0.5,0.8C1116.4,562.2,1124.2,567,1124.2,567L1124.2,567z"/>
<path class="st11" d="M1100.3,577.7c5.1-1.8,11.3-4,13.2-2.2c2.5,2.3-1.3,12.3-9,17.5c-7.8,5.2-19.7,5.7-27.5,0.1
	c-7.3-5.1-10.5-15.1-7.7-17.8c2.3-2.1,9,0.2,11.6,1.1c5.8,2,6.8,4.3,10.8,4.3C1094.6,580.6,1095.2,579.5,1100.3,577.7z"/>
<path d="M1068.8,579.2c5.5,3.7,11.2,7.5,17.8,9c3.1,0.7,6.3,0.8,9.4,0.3c3-0.6,5.9-1.7,8.5-3.2c3.1-1.8,6.1-3.7,8.9-5.9
	c0.3-0.2,0-0.7-0.3-0.5c-4.8,3.5-9.9,7.2-15.8,8.6c-6.5,1.6-13.1-0.1-18.9-3.1c-3.2-1.8-6.4-3.7-9.4-5.8
	C1068.8,578.5,1068.6,579,1068.8,579.2L1068.8,579.2z"/>
<path d="M1074.2,575.3c-1,3.5-2.1,6.9-3.5,10.3c-0.1,0.3,0.4,0.5,0.5,0.1c1.4-3.4,2.5-6.8,3.5-10.3c0-0.1,0-0.3-0.2-0.3
	C1074.4,575.1,1074.2,575.2,1074.2,575.3L1074.2,575.3z"/>
<path d="M1079.9,577c-1.2,4.7-3.1,9.1-5.6,13.2c-0.1,0.1,0,0.3,0.1,0.4c0.1,0,0.2,0,0.3-0.1c2.6-4.1,4.5-8.6,5.7-13.4
	c0-0.1,0-0.3-0.2-0.3S1080,576.9,1079.9,577L1079.9,577L1079.9,577z"/>
<path d="M1085.4,579.2c-0.4,2.7-1,5.4-1.9,8s-1.9,5.2-3.7,7.3c-0.2,0.3,0.2,0.6,0.4,0.4c1.8-2,2.8-4.5,3.6-7c1-2.8,1.7-5.6,2.1-8.6
	C1086,579,1085.5,578.8,1085.4,579.2L1085.4,579.2z"/>
<path d="M1089.8,581.2l-2.1,16.1c-0.1,0.3,0.5,0.3,0.5,0l2.1-16.1C1090.4,580.9,1089.9,580.9,1089.8,581.2z"/>
<path d="M1094.7,581.2c0.4,4.9-0.7,10,1.2,14.8c0.1,0.3,0.7,0.2,0.5-0.1c-1.9-4.7-0.7-9.8-1.1-14.6
	C1095.2,580.9,1094.6,580.9,1094.7,581.2L1094.7,581.2z"/>
<path d="M1098.3,579.2c0.1,5.1,2,9.9,5.5,13.6c0.2,0.3,0.6-0.1,0.4-0.4c-3.4-3.6-5.3-8.3-5.4-13.2c0-0.1-0.2-0.2-0.3-0.2
	C1098.4,579,1098.3,579.1,1098.3,579.2z"/>
<path d="M1104.4,576.8c0,1.9,0.7,3.7,1.9,5.2c0.7,0.8,1.4,1.6,2,2.4c0.6,0.8,1.3,1.4,2.1,2c0.3,0.2,0.6-0.3,0.3-0.5
	c-0.7-0.5-1.4-1.2-1.9-1.9c-0.6-0.7-1.3-1.5-1.9-2.2c-1.2-1.4-1.9-3.2-1.9-5.1c0-0.1-0.2-0.2-0.3-0.2
	C1104.5,576.5,1104.4,576.6,1104.4,576.8L1104.4,576.8z"/>
<path class="st12" d="M1179.7,586.2l0.4-0.2c0.1,0,0.1-0.1,0.1-0.2v-0.1v-0.1c0-0.1-0.1-0.1-0.2-0.1s-0.1,0-0.2,0l-0.4,0.2
	c-0.1,0-0.1,0.1-0.1,0.2v0.1v0.1C1179.4,586.2,1179.6,586.2,1179.7,586.2C1179.7,586.1,1179.7,586.1,1179.7,586.2L1179.7,586.2z"/>
<rect x="1275.8" y="477.2" class="st9" width="46.7" height="438.2"/>
<rect x="1275.8" y="819.3" class="st13" width="46.7" height="96.2"/>
<path class="st9" d="M1254.1,565.3c1.3-7.3,15.4-11.3,23.2-10c7.8,1.2,21,9.4,19.7,16.7s-16.5,11.1-24.3,9.9
	C1264.9,580.6,1252.8,572.6,1254.1,565.3z"/>
<ellipse cx="1275.8" cy="568.3" rx="6.1" ry="8.8"/>
<path class="st9" d="M1303.7,571.8c-1.2-7.3,10.9-15.2,18.7-16.4c7.8-1.1,23,2.7,24.2,10.1s-12,15.4-19.9,16.5
	S1304.9,579.1,1303.7,571.8z"/>
<ellipse transform="matrix(0.9839 -0.1787 0.1787 0.9839 -80.2271 245.9949)" cx="1325.4" cy="568.3" rx="6.1" ry="8.8"/>
<line class="st14" x1="1292" y1="553.4" x2="1261.8" y2="540.6"/>
<line class="st14" x1="1310.3" y1="553.2" x2="1340.5" y2="540.3"/>
<path class="st11" d="M1291.6,594.6c-4.4,1.2-9.8,2.6-11.4,1.4c-2.1-1.5,1.1-7.9,7.8-11.3c6.7-3.4,17.1-3.7,23.8-0.1
	c6.3,3.3,9.1,9.8,6.6,11.5c-2,1.4-7.8-0.1-10.1-0.7c-5-1.3-5.9-2.8-9.4-2.8C1296.6,592.7,1296.1,593.4,1291.6,594.6z"/>
<path d="M1318.9,593.6c-4.9-2.5-9.9-4.9-15.4-5.9c-5.3-0.9-10.7-0.2-15.6,1.9c-2.6,1.1-5.2,2.4-7.7,3.8c-0.1,0.1-0.1,0.3,0,0.4
	c0.1,0.1,0.2,0.1,0.3,0.1c5.7-3.1,11.7-6.1,18.4-6c7.1,0.1,13.5,3.1,19.7,6.2C1318.9,594.2,1319.2,593.7,1318.9,593.6L1318.9,593.6z
	"/>
<path d="M1314.3,596.2c0.8-2.3,1.8-4.5,3-6.6c0.2-0.3-0.3-0.6-0.5-0.3c-1.2,2.2-2.2,4.4-3,6.7
	C1313.7,596.4,1314.2,596.5,1314.3,596.2z"/>
<path d="M1309.3,595.1c1.1-3.1,2.7-6,4.8-8.5c0.2-0.3-0.2-0.6-0.4-0.4c-2.2,2.6-3.9,5.5-4.9,8.7
	C1308.7,595.3,1309.2,595.4,1309.3,595.1z"/>
<path d="M1304.6,593.7c0.4-1.9,1-3.7,1.8-5.5c0.7-1.7,1.7-3.2,3.1-4.4c0.3-0.2-0.1-0.6-0.4-0.4c-1.4,1.3-2.4,2.8-3.1,4.5
	c-0.8,1.8-1.5,3.7-1.9,5.6C1304,593.9,1304.5,594,1304.6,593.7L1304.6,593.7z"/>
<path d="M1300.7,592.4l1.9-10.5c0.1-0.3-0.5-0.5-0.5-0.1l-1.9,10.5C1300.1,592.6,1300.7,592.8,1300.7,592.4z"/>
<path d="M1296.5,592.3c-0.3-3.2,0.6-6.6-1-9.7c-0.2-0.3-0.6,0-0.5,0.3c1.6,2.9,0.6,6.3,1,9.4C1296,592.7,1296.6,592.7,1296.5,592.3z
	"/>
<path d="M1293.4,593.7c0-3.6-2.1-6.7-4.8-8.9c-0.3-0.2-0.7,0.2-0.4,0.4c2.6,2.1,4.7,5.1,4.7,8.5c0,0.1,0.2,0.2,0.3,0.2
	S1293.4,593.8,1293.4,593.7L1293.4,593.7z"/>
<path d="M1288.1,595.2c-0.1-1.4-0.7-2.7-1.8-3.6c-0.6-0.5-1.1-1-1.7-1.5c-0.5-0.5-1.1-0.9-1.7-1.2c-0.3-0.2-0.6,0.3-0.3,0.5
	c1.2,0.7,2.2,1.5,3.1,2.5c1.1,0.8,1.7,2.1,1.8,3.4c0,0.1,0.2,0.2,0.3,0.2C1288,595.5,1288.1,595.4,1288.1,595.2L1288.1,595.2z"/>
<rect x="1476.1" y="544.1" class="st15" width="80.5" height="370.8"/>
<ellipse class="st16" cx="1518.2" cy="746.8" rx="11.9" ry="11.2"/>
<ellipse class="st16" cx="1518" cy="722.4" rx="7.8" ry="7.1"/>
<path class="st15" d="M1531.6,544H1502c-2.9-4.6-5.1-9.6-6.5-14.9l-2.9-46.2c0-4.8,4.1-8.7,9.2-8.7h29.8c5.1,0,9.2,3.9,9.2,8.7
	l-2.2,44.8c-0.2,3-0.9,6-2.2,8.8C1535.2,539.2,1533.6,541.7,1531.6,544z"/>
<rect x="1476.1" y="640.8" class="st1" width="80.5" height="44"/>
<path class="st9" d="M1526.1,608.8c-1.2-7.3,10.9-15.2,18.7-16.4c7.8-1.1,23,2.7,24.2,10.1c1.2,7.3-12.1,15.4-19.9,16.5
	C1541.4,620.2,1527.3,616.2,1526.1,608.8z"/>
<ellipse transform="matrix(0.9839 -0.1787 0.1787 0.9839 -83.4025 286.3475)" cx="1547.8" cy="606.1" rx="6.1" ry="8.8"/>
<line class="st14" x1="1527.7" y1="592.9" x2="1565.3" y2="573.8"/>
<path class="st9" d="M1510.1,608.8c1.2-7.3-10.9-15.2-18.7-16.4c-7.8-1.1-23,2.7-24.2,10.1s12.1,15.4,19.9,16.5
	S1508.9,616.2,1510.1,608.8z"/>
<ellipse transform="matrix(0.1756 -0.9845 0.9845 0.1756 630.9628 1964.8848)" cx="1488.7" cy="605.7" rx="8.9" ry="6.1"/>
<line class="st14" x1="1507.4" y1="592.5" x2="1469.8" y2="573.3"/>
<path class="st11" d="M1510.2,631.5c-4.4,1.2-9.8,2.6-11.4,1.4c-2.2-1.5,1.1-7.9,7.8-11.3c6.7-3.4,17.1-3.7,23.8-0.1
	c6.3,3.3,9.1,9.8,6.6,11.5c-2,1.4-7.8-0.1-10.1-0.7c-5-1.3-5.9-2.8-9.4-2.8C1515.2,629.6,1514.7,630.3,1510.2,631.5z"/>
<path d="M1537.5,630.5c-4.9-2.5-9.9-4.9-15.4-5.9c-5.3-0.9-10.7-0.2-15.6,1.8c-2.6,1.1-5.2,2.4-7.7,3.8c-0.1,0.1-0.2,0.2-0.1,0.4
	c0.1,0.1,0.2,0.2,0.4,0.1c5.7-3.1,11.7-6.1,18.4-6c7.1,0.1,13.5,3.1,19.7,6.2C1537.5,631.1,1537.8,630.6,1537.5,630.5L1537.5,630.5z
	"/>
<path d="M1532.9,633.1c0.8-2.3,1.8-4.5,3-6.6c0.2-0.3-0.3-0.6-0.5-0.3c-1.2,2.2-2.2,4.4-3,6.7
	C1532.2,633.3,1532.8,633.4,1532.9,633.1L1532.9,633.1z"/>
<path d="M1527.9,632c1.1-3.1,2.7-6,4.8-8.5c0.2-0.3-0.2-0.6-0.4-0.4c-2.2,2.6-3.9,5.5-4.9,8.7C1527.3,632.2,1527.8,632.3,1527.9,632
	L1527.9,632z"/>
<path d="M1523.2,630.6c0.4-1.9,1-3.7,1.8-5.5c0.7-1.7,1.7-3.2,3.1-4.4c0.3-0.2-0.1-0.6-0.4-0.4c-1.4,1.3-2.4,2.8-3.1,4.5
	c-0.8,1.8-1.5,3.7-1.9,5.6C1522.6,630.8,1523.1,630.9,1523.2,630.6L1523.2,630.6z"/>
<path d="M1519.3,629.3l1.9-10.5c0.1-0.3-0.5-0.5-0.5-0.1l-1.9,10.5C1518.8,629.5,1519.3,629.7,1519.3,629.3L1519.3,629.3z"/>
<path d="M1515.1,629.2c-0.3-3.2,0.6-6.6-1-9.7c-0.2-0.3-0.6,0-0.5,0.3c1.6,2.9,0.6,6.3,1,9.4
	C1514.6,629.6,1515.2,629.6,1515.1,629.2z"/>
<path d="M1512,630.6c0-3.6-2.1-6.7-4.8-8.9c-0.3-0.2-0.7,0.2-0.4,0.4c2.6,2.1,4.7,5.1,4.7,8.5c0,0.1,0.2,0.2,0.3,0.2
	S1512,630.7,1512,630.6L1512,630.6z"/>
<path d="M1506.7,632.1c-0.1-1.4-0.7-2.7-1.8-3.6c-0.6-0.5-1.1-1-1.7-1.5c-0.5-0.5-1.1-0.9-1.7-1.2c-0.3-0.2-0.6,0.3-0.3,0.5
	c1.2,0.7,2.2,1.5,3.1,2.5c1.1,0.8,1.7,2.1,1.8,3.4c0,0.1,0.2,0.2,0.3,0.2C1506.6,632.4,1506.7,632.3,1506.7,632.1L1506.7,632.1z"/>
<rect x="1051.9" y="969.7" class="st17" width="589.7" height="57.6"/>
<text transform="matrix(1 0 0 1 1051.8905 1019.4407)" class="st18 st19">SPILELEMENTER</text>
<rect x="1725.8" y="977.9" class="st17" width="255.2" height="76.5"/>
<text transform="matrix(1 0 0 1 1725.8146 1027.5979)" class="st18 st19">TID</text>
<rect x="28.3" y="965.9" class="st17" width="356" height="96.4"/>
<text transform="matrix(1 0 0 1 28.3107 1015.6095)" class="st18 st19">STARTKNAP</text>
<rect x="549.2" y="970.8" class="st17" width="326" height="73.7"/>
<text transform="matrix(1 0 0 1 549.1835 1020.5378)" class="st18 st19">SPIL IGEN</text>
</svg>
