<?xml version="1.0" encoding="utf-8"?>
<!-- Generator: Adobe Illustrator 26.0.1, SVG Export Plug-In . SVG Version: 6.00 Build 0)  -->
<svg version="1.1" id="Layer_1" xmlns="http://www.w3.org/2000/svg" xmlns:xlink="http://www.w3.org/1999/xlink" x="0px" y="0px"
	 viewBox="0 0 140 620" style="enable-background:new 0 0 140 620;" xml:space="preserve">
<style type="text/css">
	.st0{fill:#BFDAFF;}
	.st1{fill:#0A11FF;}
	.st2{fill:#E6E6E6;}
	.st3{fill:#FFFFFF;stroke:#999999;stroke-width:2;stroke-miterlimit:10;}
	.st4{fill:none;stroke:#000000;stroke-width:2;stroke-miterlimit:10;}
	.st5{fill:#FFFFFF;stroke:#999999;stroke-miterlimit:10;}
</style>
<rect x="12.2" y="99.9" class="st0" width="111" height="517.8"/>
<ellipse class="st1" cx="70.2" cy="383" rx="16.3" ry="15.6"/>
<ellipse class="st1" cx="69.8" cy="348.9" rx="10.7" ry="9.9"/>
<path class="st0" d="M88.7,99.7H47.9c-1.9-3-3.5-6.2-5-9.5c-1.6-3.7-3-7.5-4-11.3L35,14.4c0-6.7,5.7-12.1,12.7-12.1h41
	c7,0,12.7,5.4,12.7,12.1l-3,62.6c-0.3,4.2-1.3,8.4-3,12.3C93.7,93.1,91.5,96.6,88.7,99.7z"/>
<rect x="12.2" y="234.9" class="st2" width="111" height="61.5"/>
<path class="st3" d="M81,190.3c-1.7-10.3,15-21.3,25.8-22.9s31.7,3.8,33.4,14.1s-16.6,21.5-27.3,23.1S82.7,200.5,81,190.3z"/>
<ellipse transform="matrix(0.985 -0.1723 0.1723 0.985 -30.4547 21.8926)" cx="110.9" cy="186.4" rx="8.4" ry="12.3"/>
<line class="st4" x1="83.2" y1="168.1" x2="135" y2="141.3"/>
<path class="st3" d="M59,190.3c1.7-10.3-15-21.3-25.8-22.9s-31.8,3.8-33.4,14.1s16.6,21.5,27.3,23.1S57.3,200.5,59,190.3z"/>
<ellipse transform="matrix(0.1692 -0.9856 0.9856 0.1692 -157.3387 183.0989)" cx="29.9" cy="184.9" rx="12.4" ry="8.4"/>
<line class="st4" x1="55.3" y1="167.5" x2="3.5" y2="140.7"/>
<path class="st5" d="M59.2,222c-6,1.6-13.5,3.7-15.7,2c-2.9-2.1,1.5-11.1,10.8-15.8s23.5-5.1,32.8-0.1c8.6,4.7,12.5,13.7,9.1,16.1
	c-2.8,2-10.8-0.1-13.9-1c-6.9-1.8-8.1-3.9-12.9-3.9C66,219.3,65.3,220.3,59.2,222z"/>
<path d="M96.8,220.5c-6.8-3.5-13.6-6.9-21.2-8.2c-7.3-1.2-14.7-0.3-21.5,2.6c-3.6,1.6-7.2,3.3-10.6,5.3c-0.4,0.2,0,0.9,0.4,0.6
	c7.9-4.4,16.1-8.5,25.4-8.4c9.8,0.1,18.6,4.3,27.2,8.7C96.8,221.4,97.2,220.7,96.8,220.5L96.8,220.5z"/>
<path d="M90.4,224.2c1.2-3.2,2.5-6.2,4.1-9.2c0.2-0.4-0.4-0.8-0.7-0.4c-1.6,3-3,6.2-4.2,9.4C89.5,224.5,90.2,224.6,90.4,224.2
	L90.4,224.2z"/>
<path d="M83.6,222.6c1.5-4.3,3.7-8.4,6.6-11.9c0.3-0.4-0.2-0.9-0.5-0.5c-3,3.6-5.3,7.7-6.8,12.2C82.7,222.9,83.4,223.1,83.6,222.6z"
	/>
<path d="M77,220.7c0.5-2.6,1.4-5.2,2.5-7.6c0.9-2.3,2.4-4.4,4.2-6.1c0.4-0.3-0.2-0.8-0.5-0.5c-1.9,1.8-3.3,3.9-4.3,6.3
	c-1.2,2.5-2,5.1-2.6,7.8C76.2,220.9,76.9,221.1,77,220.7L77,220.7z"/>
<path d="M71.7,218.9l2.6-14.6c0.1-0.5-0.6-0.7-0.7-0.2L71,218.7C70.9,219.2,71.6,219.4,71.7,218.9L71.7,218.9z"/>
<path d="M66,218.8c-0.5-4.5,0.8-9.3-1.4-13.5c-0.2-0.4-0.9,0-0.7,0.4c2.1,4.1,0.9,8.7,1.3,13.1C65.3,219.3,66.1,219.3,66,218.8
	L66,218.8z"/>
<path d="M61.7,220.6c0-5-2.9-9.4-6.7-12.4c-0.4-0.3-0.9,0.2-0.5,0.5c3.6,2.9,6.4,7.1,6.4,11.9c0,0.2,0.2,0.3,0.4,0.3
	C61.5,220.9,61.6,220.8,61.7,220.6z"/>
<path d="M54.3,222.8c-0.1-2-1-3.8-2.5-5.1c-0.8-0.7-1.5-1.4-2.3-2.1c-0.7-0.7-1.5-1.3-2.4-1.7c-0.4-0.2-0.8,0.4-0.4,0.6
	c1.6,1,3,2.1,4.3,3.5c1.5,1.1,2.4,2.9,2.5,4.7c0,0.2,0.2,0.3,0.4,0.3C54.2,223.1,54.3,223,54.3,222.8z"/>
</svg>
