<?xml version="1.0" encoding="utf-8"?>
<!-- Generator: Adobe Illustrator 26.0.1, SVG Export Plug-In . SVG Version: 6.00 Build 0)  -->
<svg version="1.1" id="Layer_1" xmlns="http://www.w3.org/2000/svg" xmlns:xlink="http://www.w3.org/1999/xlink" x="0px" y="0px"
	 viewBox="0 0 142.6 617.4" style="enable-background:new 0 0 142.6 617.4;" xml:space="preserve">
<style type="text/css">
	.st0{fill:#51AA00;}
	.st1{fill:#006A20;}
	.st2{fill:#E6E6E6;}
	.st3{fill:#FFFFFF;stroke:#999999;stroke-width:2;stroke-miterlimit:10;}
	.st4{fill:none;stroke:#000000;stroke-width:2;stroke-miterlimit:10;}
	.st5{fill:#FFFFFF;stroke:#999999;stroke-miterlimit:10;}
</style>
<rect x="13.5" y="98.6" class="st0" width="111" height="517.8"/>
<ellipse class="st1" cx="71.5" cy="381.7" rx="16.3" ry="15.6"/>
<ellipse class="st1" cx="71.2" cy="347.6" rx="10.7" ry="9.9"/>
<path class="st0" d="M90,98.4H49.2c-1.9-3-3.5-6.2-5-9.5c-1.6-3.7-3-7.5-4-11.3l-3.9-64.5C36.3,6.4,42,1,49,1h41
	c7,0,12.7,5.4,12.7,12.1l-3,62.6c-0.3,4.2-1.3,8.4-3,12.3C95,91.8,92.8,95.3,90,98.4z"/>
<rect x="13.5" y="233.7" class="st2" width="111" height="61.5"/>
<path class="st3" d="M82.3,189c-1.7-10.3,15-21.3,25.8-22.9s31.7,3.8,33.4,14.1s-16.6,21.5-27.3,23.1S84,199.3,82.3,189z"/>
<ellipse transform="matrix(0.985 -0.1723 0.1723 0.985 -30.215 22.1012)" cx="112.2" cy="185.1" rx="8.4" ry="12.3"/>
<line class="st4" x1="84.5" y1="166.8" x2="136.4" y2="140"/>
<path class="st3" d="M60.3,189c1.7-10.3-15-21.3-25.8-22.9S2.8,170,1.1,180.2s16.6,21.5,27.4,23.1S58.6,199.3,60.3,189z"/>
<ellipse transform="matrix(0.1692 -0.9856 0.9856 0.1692 -154.9622 183.3351)" cx="31.3" cy="183.6" rx="12.4" ry="8.4"/>
<line class="st4" x1="56.6" y1="166.2" x2="4.8" y2="139.4"/>
<path class="st5" d="M60.5,220.7c-6,1.6-13.5,3.7-15.7,2c-2.9-2.1,1.5-11.1,10.8-15.8s23.5-5.1,32.8-0.1c8.6,4.7,12.5,13.7,9.1,16.1
	c-2.8,2-10.8-0.1-13.9-1c-6.9-1.9-8.1-3.9-12.9-3.9C67.3,218.1,66.6,219.1,60.5,220.7z"/>
<path d="M98.1,219.2c-6.8-3.5-13.6-6.9-21.2-8.2c-7.3-1.2-14.7-0.3-21.5,2.6c-3.6,1.6-7.2,3.4-10.6,5.4c-0.4,0.2,0,0.9,0.4,0.6
	c7.9-4.4,16.1-8.5,25.4-8.4c9.8,0.1,18.6,4.3,27.2,8.7C98.1,220.2,98.5,219.5,98.1,219.2L98.1,219.2z"/>
<path d="M91.7,222.9c1.1-3.2,2.5-6.2,4.1-9.2c0.2-0.4-0.4-0.8-0.7-0.4c-1.6,3-3,6.2-4.2,9.4C90.8,223.2,91.6,223.4,91.7,222.9
	L91.7,222.9z"/>
<path d="M84.9,221.3c1.5-4.3,3.7-8.4,6.6-11.9c0.3-0.4-0.2-0.9-0.5-0.5c-3,3.6-5.3,7.7-6.8,12.2C84,221.6,84.7,221.8,84.9,221.3z"/>
<path d="M78.3,219.4c0.5-2.6,1.3-5.2,2.5-7.6c1-2.3,2.4-4.4,4.2-6.1c0.4-0.3-0.2-0.8-0.5-0.5c-1.9,1.8-3.3,3.9-4.3,6.3
	c-1.2,2.5-2,5.1-2.6,7.8C77.5,219.7,78.2,219.9,78.3,219.4L78.3,219.4z"/>
<path d="M73.1,217.6l2.5-14.6c0.1-0.5-0.6-0.7-0.7-0.2l-2.6,14.6C72.2,217.9,73,218.1,73.1,217.6L73.1,217.6z"/>
<path d="M67.3,217.5c-0.5-4.5,0.8-9.3-1.4-13.5c-0.2-0.4-0.9,0-0.7,0.4c2.1,4.1,0.9,8.7,1.3,13.1C66.6,218,67.4,218,67.3,217.5
	L67.3,217.5z"/>
<path d="M63,219.4c0-5-2.9-9.4-6.7-12.4c-0.4-0.3-0.9,0.2-0.5,0.5c3.6,2.9,6.4,7.1,6.4,11.9c0,0.2,0.2,0.3,0.4,0.3c0,0,0,0,0,0
	C62.8,219.6,63,219.5,63,219.4z"/>
<path d="M55.7,221.6c-0.1-2-1-3.8-2.5-5.1c-0.8-0.7-1.5-1.4-2.3-2.1c-0.7-0.7-1.5-1.3-2.4-1.7c-0.4-0.2-0.8,0.4-0.4,0.6
	c1.6,1,3,2.1,4.3,3.5c1.5,1.1,2.4,2.9,2.5,4.7c0,0.2,0.2,0.3,0.4,0.3c0,0,0,0,0,0C55.5,221.8,55.6,221.7,55.7,221.6z"/>
</svg>
